%TF.GenerationSoftware,KiCad,Pcbnew,(5.1.6)-1*%
%TF.CreationDate,2021-04-21T19:08:55-07:00*%
%TF.ProjectId,oscillator,6f736369-6c6c-4617-946f-722e6b696361,rev?*%
%TF.SameCoordinates,Original*%
%TF.FileFunction,Copper,L2,Bot*%
%TF.FilePolarity,Positive*%
%FSLAX46Y46*%
G04 Gerber Fmt 4.6, Leading zero omitted, Abs format (unit mm)*
G04 Created by KiCad (PCBNEW (5.1.6)-1) date 2021-04-21 19:08:55*
%MOMM*%
%LPD*%
G01*
G04 APERTURE LIST*
%TA.AperFunction,ComponentPad*%
%ADD10C,3.000000*%
%TD*%
%TA.AperFunction,ComponentPad*%
%ADD11R,3.000000X3.000000*%
%TD*%
%TA.AperFunction,ComponentPad*%
%ADD12O,1.700000X1.700000*%
%TD*%
%TA.AperFunction,ComponentPad*%
%ADD13R,1.700000X1.700000*%
%TD*%
%TA.AperFunction,ComponentPad*%
%ADD14C,1.500000*%
%TD*%
%TA.AperFunction,ComponentPad*%
%ADD15C,4.149000*%
%TD*%
%TA.AperFunction,ComponentPad*%
%ADD16C,1.524000*%
%TD*%
%TA.AperFunction,ComponentPad*%
%ADD17C,2.775000*%
%TD*%
%TA.AperFunction,Conductor*%
%ADD18R,1.900000X2.500000*%
%TD*%
%TA.AperFunction,ViaPad*%
%ADD19C,0.500000*%
%TD*%
%TA.AperFunction,ComponentPad*%
%ADD20R,0.850000X0.850000*%
%TD*%
%TA.AperFunction,ViaPad*%
%ADD21C,0.800000*%
%TD*%
%TA.AperFunction,Conductor*%
%ADD22C,1.905000*%
%TD*%
%TA.AperFunction,Conductor*%
%ADD23C,0.762000*%
%TD*%
%TA.AperFunction,Conductor*%
%ADD24C,1.270000*%
%TD*%
%TA.AperFunction,Conductor*%
%ADD25C,0.254000*%
%TD*%
%TA.AperFunction,Conductor*%
%ADD26C,0.508000*%
%TD*%
G04 APERTURE END LIST*
D10*
%TO.P,J1,2*%
%TO.N,V15V*%
X7500000Y95080000D03*
D11*
%TO.P,J1,1*%
%TO.N,GND*%
X7500000Y90000000D03*
%TD*%
%TO.P,J2,1*%
%TO.N,GND*%
X7500000Y82580000D03*
D10*
%TO.P,J2,2*%
%TO.N,V-15V*%
X7500000Y77500000D03*
%TD*%
D12*
%TO.P,J3,2*%
%TO.N,Net-(J3-Pad2)*%
X33020000Y74930000D03*
D13*
%TO.P,J3,1*%
%TO.N,GND*%
X30480000Y74930000D03*
%TD*%
%TO.P,J4,1*%
%TO.N,Net-(J4-Pad1)*%
X86360000Y12382500D03*
D12*
%TO.P,J4,2*%
%TO.N,GND*%
X86360000Y9842500D03*
%TD*%
%TO.P,J5,2*%
%TO.N,GND*%
X75247500Y24447500D03*
D13*
%TO.P,J5,1*%
%TO.N,Net-(J5-Pad1)*%
X75247500Y26987500D03*
%TD*%
%TO.P,J6,1*%
%TO.N,Net-(J4-Pad1)*%
X75247500Y12382500D03*
D12*
%TO.P,J6,2*%
%TO.N,GND*%
X75247500Y9842500D03*
%TD*%
D13*
%TO.P,J7,1*%
%TO.N,Net-(J5-Pad1)*%
X86360000Y26987500D03*
D12*
%TO.P,J7,2*%
%TO.N,GND*%
X86360000Y24447500D03*
%TD*%
D14*
%TO.P,RV1,1*%
%TO.N,Net-(R3-Pad2)*%
X34250000Y81900000D03*
%TO.P,RV1,2*%
X31750000Y81900000D03*
%TO.P,RV1,3*%
%TO.N,Net-(RV1-Pad3)*%
X29250000Y81900000D03*
D15*
%TO.P,RV1,4*%
%TO.N,N/C*%
X36750000Y88900000D03*
%TO.P,RV1,5*%
X26750000Y88900000D03*
%TD*%
D14*
%TO.P,RV2,1*%
%TO.N,Net-(D1-Pad2)*%
X72430000Y73040000D03*
%TO.P,RV2,2*%
X74930000Y73040000D03*
%TO.P,RV2,3*%
%TO.N,Net-(RV2-Pad3)*%
X77430000Y73040000D03*
D15*
%TO.P,RV2,4*%
%TO.N,N/C*%
X69930000Y66040000D03*
%TO.P,RV2,5*%
X79930000Y66040000D03*
%TD*%
%TO.P,RV3,5*%
%TO.N,N/C*%
X69930000Y88900000D03*
%TO.P,RV3,4*%
X79930000Y88900000D03*
D14*
%TO.P,RV3,3*%
%TO.N,Net-(RV2-Pad3)*%
X72430000Y81900000D03*
%TO.P,RV3,2*%
%TO.N,Net-(D2-Pad1)*%
X74930000Y81900000D03*
%TO.P,RV3,1*%
X77430000Y81900000D03*
%TD*%
D15*
%TO.P,RV4,5*%
%TO.N,N/C*%
X26272500Y39687500D03*
%TO.P,RV4,4*%
X16272500Y39687500D03*
D14*
%TO.P,RV4,3*%
%TO.N,Net-(R4-Pad1)*%
X23772500Y46687500D03*
%TO.P,RV4,2*%
%TO.N,Net-(RV4-Pad2)*%
X21272500Y46687500D03*
%TO.P,RV4,1*%
%TO.N,GND*%
X18772500Y46687500D03*
%TD*%
%TO.P,RV5,1*%
%TO.N,GND*%
X39092500Y46687500D03*
%TO.P,RV5,2*%
%TO.N,Net-(RV5-Pad2)*%
X41592500Y46687500D03*
%TO.P,RV5,3*%
%TO.N,Net-(R9-Pad1)*%
X44092500Y46687500D03*
D15*
%TO.P,RV5,4*%
%TO.N,N/C*%
X36592500Y39687500D03*
%TO.P,RV5,5*%
X46592500Y39687500D03*
%TD*%
%TO.P,SW1,1*%
%TO.N,Net-(C1-Pad2)*%
%TA.AperFunction,ComponentPad*%
G36*
G01*
X27178000Y63119000D02*
X27178000Y63881000D01*
G75*
G02*
X27559000Y64262000I381000J0D01*
G01*
X28321000Y64262000D01*
G75*
G02*
X28702000Y63881000I0J-381000D01*
G01*
X28702000Y63119000D01*
G75*
G02*
X28321000Y62738000I-381000J0D01*
G01*
X27559000Y62738000D01*
G75*
G02*
X27178000Y63119000I0J381000D01*
G01*
G37*
%TD.AperFunction*%
D16*
%TO.P,SW1,2*%
%TO.N,Net-(C2-Pad2)*%
X27940000Y68580000D03*
%TO.P,SW1,3*%
%TO.N,Net-(C5-Pad2)*%
X27940000Y71120000D03*
%TO.P,SW1,4*%
%TO.N,Net-(C8-Pad2)*%
X35560000Y63500000D03*
%TO.P,SW1,5*%
%TO.N,Net-(C9-Pad2)*%
X35560000Y66040000D03*
%TO.P,SW1,6*%
%TO.N,Net-(J3-Pad2)*%
X35560000Y71120000D03*
%TO.P,SW1,C*%
%TO.N,Net-(R3-Pad1)*%
X27940000Y66040000D03*
X35560000Y68580000D03*
%TD*%
D17*
%TO.P,SW2,1*%
%TO.N,Net-(RV1-Pad3)*%
X48640000Y88900000D03*
%TO.P,SW2,2*%
%TO.N,Net-(R4-Pad1)*%
X53340000Y88900000D03*
%TO.P,SW2,3*%
%TO.N,Net-(RV2-Pad3)*%
X58040000Y88900000D03*
%TD*%
D18*
%TO.N,V-15V*%
%TO.C,U2*%
X31432500Y30480000D03*
D19*
X32132500Y29480000D03*
X30732500Y29480000D03*
X32132500Y30480000D03*
X30732500Y30480000D03*
X32132500Y31480000D03*
X30732500Y31480000D03*
%TD*%
%TO.N,V-15V*%
%TO.C,U3*%
X70100000Y43500000D03*
X71500000Y43500000D03*
X70100000Y42500000D03*
X71500000Y42500000D03*
X70100000Y41500000D03*
X71500000Y41500000D03*
D18*
X70800000Y42500000D03*
%TD*%
D20*
%TO.P,TP1,1*%
%TO.N,Net-(R2-Pad1)*%
X66357500Y70485000D03*
%TD*%
%TO.P,TP2,1*%
%TO.N,Net-(R3-Pad1)*%
X42545000Y70358000D03*
%TD*%
%TO.P,TP3,1*%
%TO.N,Net-(R4-Pad1)*%
X62865000Y78740000D03*
%TD*%
%TO.P,TP4,1*%
%TO.N,Net-(RV4-Pad2)*%
X21272500Y49530000D03*
%TD*%
%TO.P,TP5,1*%
%TO.N,Net-(R9-Pad1)*%
X44100000Y49700000D03*
%TD*%
%TO.P,TP6,1*%
%TO.N,Net-(RV5-Pad2)*%
X41600000Y49700000D03*
%TD*%
D21*
%TO.N,GND*%
X43815000Y67310000D03*
X19685000Y63500000D03*
X19685000Y67310000D03*
X19685000Y71120000D03*
X62865000Y65405000D03*
X55245000Y72390000D03*
X55245000Y73342500D03*
X53975000Y77470000D03*
X53975000Y76517500D03*
X55245000Y74295000D03*
X53975000Y75565000D03*
X53975000Y74612500D03*
X55245000Y75247500D03*
X43815000Y63500000D03*
X46355000Y62230000D03*
X81280000Y43180000D03*
X80327500Y43180000D03*
X79375000Y43180000D03*
X69215000Y47307500D03*
X70167500Y47307500D03*
X68262500Y47307500D03*
X77152500Y37782500D03*
X77152500Y36512500D03*
X64135000Y37782500D03*
X64135000Y39052500D03*
X37782500Y25400000D03*
X38735000Y25400000D03*
X39687500Y25400000D03*
X25400000Y25400000D03*
X24447500Y25400000D03*
X23495000Y25400000D03*
X36195000Y34290000D03*
X35242500Y34290000D03*
X34290000Y34290000D03*
%TO.N,V15V*%
X58102500Y83820000D03*
X58102500Y81280000D03*
X58102500Y80010000D03*
X62547500Y83502500D03*
X58102500Y82550000D03*
X63500000Y84455000D03*
X64452500Y83502500D03*
X63500000Y82550000D03*
X60007500Y62865000D03*
X58102500Y65087500D03*
%TO.N,V-15V*%
X33337500Y59055000D03*
X36512500Y61277500D03*
X32385000Y73025000D03*
X38100000Y73342500D03*
%TO.N,Net-(D1-Pad1)*%
X46300000Y59600000D03*
X47500000Y59600000D03*
X56600000Y59600000D03*
X57600000Y59600000D03*
%TO.N,Net-(R4-Pad1)*%
X60325000Y75565000D03*
X59372500Y75565000D03*
X59848750Y76358750D03*
X60325000Y71120000D03*
X59372500Y71120000D03*
X59848750Y71913750D03*
%TO.N,Net-(R9-Pad1)*%
X51117500Y70485000D03*
X49847500Y70485000D03*
X49847500Y77470000D03*
X50482500Y78422500D03*
X49212500Y78422500D03*
X50482500Y71437500D03*
X40322500Y55562500D03*
%TO.N,Net-(RV5-Pad2)*%
X52790319Y43265315D03*
%TD*%
D22*
%TO.N,GND*%
X7500000Y82580000D02*
X11580000Y82580000D01*
X7500000Y90000000D02*
X11400000Y90000000D01*
D23*
X39092500Y46687500D02*
X39092500Y49492500D01*
X36195000Y34290000D02*
X34290000Y34290000D01*
D22*
%TO.N,V15V*%
X58600000Y82550000D02*
X62092500Y82550000D01*
X61595000Y82550000D02*
X62547500Y83502500D01*
X62547500Y83502500D02*
X63500000Y84455000D01*
X63500000Y84455000D02*
X64452500Y83502500D01*
X64452500Y83502500D02*
X63500000Y82550000D01*
X61595000Y82550000D02*
X63500000Y82550000D01*
D24*
X58102500Y83820000D02*
X58102500Y80010000D01*
D25*
X60007500Y62865000D02*
X58102500Y64770000D01*
X58102500Y64770000D02*
X58102500Y65087500D01*
%TO.N,V-15V*%
X33337500Y59055000D02*
X34290000Y59055000D01*
X34290000Y59055000D02*
X36512500Y61277500D01*
X32385000Y73025000D02*
X37782500Y73025000D01*
X37782500Y73025000D02*
X38100000Y73342500D01*
D24*
%TO.N,Net-(D1-Pad1)*%
X47500000Y59600000D02*
X56600000Y59600000D01*
X56600000Y59600000D02*
X57600000Y59600000D01*
X47500000Y59600000D02*
X46300000Y59600000D01*
%TO.N,Net-(R4-Pad1)*%
X59372500Y75882500D02*
X59848750Y76358750D01*
X59372500Y75565000D02*
X59372500Y75882500D01*
X60325000Y75882500D02*
X59848750Y76358750D01*
X60325000Y75565000D02*
X60325000Y75882500D01*
X60325000Y75565000D02*
X59372500Y75565000D01*
X59848750Y76358750D02*
X59848750Y71913750D01*
X59848750Y71913750D02*
X59848750Y71913750D01*
X59848750Y71913750D02*
X59848750Y71913750D01*
X59848750Y71913750D02*
X59848750Y71913750D01*
X60325000Y71437500D02*
X59848750Y71913750D01*
X60325000Y71120000D02*
X60325000Y71437500D01*
X59372500Y71437500D02*
X59848750Y71913750D01*
X59372500Y71120000D02*
X59372500Y71437500D01*
X59372500Y71120000D02*
X60325000Y71120000D01*
%TO.N,Net-(R9-Pad1)*%
X49847500Y77470000D02*
X49847500Y72072500D01*
X49847500Y72072500D02*
X50482500Y71437500D01*
X50482500Y71437500D02*
X50482500Y71437500D01*
X49847500Y70485000D02*
X49847500Y72072500D01*
D26*
X42888499Y47891501D02*
X44092500Y46687500D01*
X41741297Y47891501D02*
X42888499Y47891501D01*
X40322500Y49310298D02*
X41741297Y47891501D01*
X40322500Y55562500D02*
X40322500Y49310298D01*
D24*
X49212500Y78105000D02*
X49847500Y77470000D01*
X49212500Y78422500D02*
X49212500Y78105000D01*
X50482500Y78105000D02*
X49847500Y77470000D01*
X50482500Y78422500D02*
X50482500Y78105000D01*
X49212500Y78422500D02*
X50482500Y78422500D01*
X51117500Y70802500D02*
X50482500Y71437500D01*
X51117500Y70485000D02*
X51117500Y70802500D01*
X49847500Y70485000D02*
X51117500Y70485000D01*
D22*
%TO.N,Net-(RV1-Pad3)*%
X29250000Y82215702D02*
X29250000Y81900000D01*
X32707297Y85672999D02*
X29250000Y82215702D01*
X45412999Y85672999D02*
X32707297Y85672999D01*
X48640000Y88900000D02*
X45412999Y85672999D01*
%TO.N,Net-(RV2-Pad3)*%
X58040000Y88900000D02*
X65087500Y88900000D01*
X72087500Y81900000D02*
X72430000Y81900000D01*
X65087500Y88900000D02*
X72087500Y81900000D01*
D26*
%TO.N,Net-(RV5-Pad2)*%
X45014685Y43265315D02*
X52790319Y43265315D01*
X41592500Y46687500D02*
X45014685Y43265315D01*
%TD*%
D25*
%TO.N,GND*%
G36*
X98933000Y98372394D02*
G01*
X98933000Y1957606D01*
X98372394Y1397000D01*
X1957606Y1397000D01*
X1397000Y1957606D01*
X1397000Y9485610D01*
X73806024Y9485610D01*
X73850675Y9338401D01*
X73975859Y9075580D01*
X74149912Y8842231D01*
X74366145Y8647322D01*
X74616248Y8498343D01*
X74890609Y8401019D01*
X75120500Y8521686D01*
X75120500Y9715500D01*
X75374500Y9715500D01*
X75374500Y8521686D01*
X75604391Y8401019D01*
X75878752Y8498343D01*
X76128855Y8647322D01*
X76345088Y8842231D01*
X76519141Y9075580D01*
X76644325Y9338401D01*
X76688976Y9485610D01*
X84918524Y9485610D01*
X84963175Y9338401D01*
X85088359Y9075580D01*
X85262412Y8842231D01*
X85478645Y8647322D01*
X85728748Y8498343D01*
X86003109Y8401019D01*
X86233000Y8521686D01*
X86233000Y9715500D01*
X86487000Y9715500D01*
X86487000Y8521686D01*
X86716891Y8401019D01*
X86991252Y8498343D01*
X87241355Y8647322D01*
X87457588Y8842231D01*
X87631641Y9075580D01*
X87756825Y9338401D01*
X87801476Y9485610D01*
X87680155Y9715500D01*
X86487000Y9715500D01*
X86233000Y9715500D01*
X85039845Y9715500D01*
X84918524Y9485610D01*
X76688976Y9485610D01*
X76567655Y9715500D01*
X75374500Y9715500D01*
X75120500Y9715500D01*
X73927345Y9715500D01*
X73806024Y9485610D01*
X1397000Y9485610D01*
X1397000Y13232500D01*
X73759428Y13232500D01*
X73759428Y11532500D01*
X73771688Y11408018D01*
X73807998Y11288320D01*
X73866963Y11178006D01*
X73946315Y11081315D01*
X74043006Y11001963D01*
X74153320Y10942998D01*
X74233966Y10918534D01*
X74149912Y10842769D01*
X73975859Y10609420D01*
X73850675Y10346599D01*
X73806024Y10199390D01*
X73927345Y9969500D01*
X75120500Y9969500D01*
X75120500Y9989500D01*
X75374500Y9989500D01*
X75374500Y9969500D01*
X76567655Y9969500D01*
X76688976Y10199390D01*
X76644325Y10346599D01*
X76519141Y10609420D01*
X76345088Y10842769D01*
X76261034Y10918534D01*
X76341680Y10942998D01*
X76451994Y11001963D01*
X76548685Y11081315D01*
X76628037Y11178006D01*
X76687002Y11288320D01*
X76723312Y11408018D01*
X76735572Y11532500D01*
X76735572Y13232500D01*
X84871928Y13232500D01*
X84871928Y11532500D01*
X84884188Y11408018D01*
X84920498Y11288320D01*
X84979463Y11178006D01*
X85058815Y11081315D01*
X85155506Y11001963D01*
X85265820Y10942998D01*
X85346466Y10918534D01*
X85262412Y10842769D01*
X85088359Y10609420D01*
X84963175Y10346599D01*
X84918524Y10199390D01*
X85039845Y9969500D01*
X86233000Y9969500D01*
X86233000Y9989500D01*
X86487000Y9989500D01*
X86487000Y9969500D01*
X87680155Y9969500D01*
X87801476Y10199390D01*
X87756825Y10346599D01*
X87631641Y10609420D01*
X87457588Y10842769D01*
X87373534Y10918534D01*
X87454180Y10942998D01*
X87564494Y11001963D01*
X87661185Y11081315D01*
X87740537Y11178006D01*
X87799502Y11288320D01*
X87835812Y11408018D01*
X87848072Y11532500D01*
X87848072Y13232500D01*
X87835812Y13356982D01*
X87799502Y13476680D01*
X87740537Y13586994D01*
X87661185Y13683685D01*
X87564494Y13763037D01*
X87454180Y13822002D01*
X87334482Y13858312D01*
X87210000Y13870572D01*
X85510000Y13870572D01*
X85385518Y13858312D01*
X85265820Y13822002D01*
X85155506Y13763037D01*
X85058815Y13683685D01*
X84979463Y13586994D01*
X84920498Y13476680D01*
X84884188Y13356982D01*
X84871928Y13232500D01*
X76735572Y13232500D01*
X76723312Y13356982D01*
X76687002Y13476680D01*
X76628037Y13586994D01*
X76548685Y13683685D01*
X76451994Y13763037D01*
X76341680Y13822002D01*
X76221982Y13858312D01*
X76097500Y13870572D01*
X74397500Y13870572D01*
X74273018Y13858312D01*
X74153320Y13822002D01*
X74043006Y13763037D01*
X73946315Y13683685D01*
X73866963Y13586994D01*
X73807998Y13476680D01*
X73771688Y13356982D01*
X73759428Y13232500D01*
X1397000Y13232500D01*
X1397000Y24090610D01*
X73806024Y24090610D01*
X73850675Y23943401D01*
X73975859Y23680580D01*
X74149912Y23447231D01*
X74366145Y23252322D01*
X74616248Y23103343D01*
X74890609Y23006019D01*
X75120500Y23126686D01*
X75120500Y24320500D01*
X75374500Y24320500D01*
X75374500Y23126686D01*
X75604391Y23006019D01*
X75878752Y23103343D01*
X76128855Y23252322D01*
X76345088Y23447231D01*
X76519141Y23680580D01*
X76644325Y23943401D01*
X76688976Y24090610D01*
X84918524Y24090610D01*
X84963175Y23943401D01*
X85088359Y23680580D01*
X85262412Y23447231D01*
X85478645Y23252322D01*
X85728748Y23103343D01*
X86003109Y23006019D01*
X86233000Y23126686D01*
X86233000Y24320500D01*
X86487000Y24320500D01*
X86487000Y23126686D01*
X86716891Y23006019D01*
X86991252Y23103343D01*
X87241355Y23252322D01*
X87457588Y23447231D01*
X87631641Y23680580D01*
X87756825Y23943401D01*
X87801476Y24090610D01*
X87680155Y24320500D01*
X86487000Y24320500D01*
X86233000Y24320500D01*
X85039845Y24320500D01*
X84918524Y24090610D01*
X76688976Y24090610D01*
X76567655Y24320500D01*
X75374500Y24320500D01*
X75120500Y24320500D01*
X73927345Y24320500D01*
X73806024Y24090610D01*
X1397000Y24090610D01*
X1397000Y27837500D01*
X73759428Y27837500D01*
X73759428Y26137500D01*
X73771688Y26013018D01*
X73807998Y25893320D01*
X73866963Y25783006D01*
X73946315Y25686315D01*
X74043006Y25606963D01*
X74153320Y25547998D01*
X74233966Y25523534D01*
X74149912Y25447769D01*
X73975859Y25214420D01*
X73850675Y24951599D01*
X73806024Y24804390D01*
X73927345Y24574500D01*
X75120500Y24574500D01*
X75120500Y24594500D01*
X75374500Y24594500D01*
X75374500Y24574500D01*
X76567655Y24574500D01*
X76688976Y24804390D01*
X76644325Y24951599D01*
X76519141Y25214420D01*
X76345088Y25447769D01*
X76261034Y25523534D01*
X76341680Y25547998D01*
X76451994Y25606963D01*
X76548685Y25686315D01*
X76628037Y25783006D01*
X76687002Y25893320D01*
X76723312Y26013018D01*
X76735572Y26137500D01*
X76735572Y27837500D01*
X84871928Y27837500D01*
X84871928Y26137500D01*
X84884188Y26013018D01*
X84920498Y25893320D01*
X84979463Y25783006D01*
X85058815Y25686315D01*
X85155506Y25606963D01*
X85265820Y25547998D01*
X85346466Y25523534D01*
X85262412Y25447769D01*
X85088359Y25214420D01*
X84963175Y24951599D01*
X84918524Y24804390D01*
X85039845Y24574500D01*
X86233000Y24574500D01*
X86233000Y24594500D01*
X86487000Y24594500D01*
X86487000Y24574500D01*
X87680155Y24574500D01*
X87801476Y24804390D01*
X87756825Y24951599D01*
X87631641Y25214420D01*
X87457588Y25447769D01*
X87373534Y25523534D01*
X87454180Y25547998D01*
X87564494Y25606963D01*
X87661185Y25686315D01*
X87740537Y25783006D01*
X87799502Y25893320D01*
X87835812Y26013018D01*
X87848072Y26137500D01*
X87848072Y27837500D01*
X87835812Y27961982D01*
X87799502Y28081680D01*
X87740537Y28191994D01*
X87661185Y28288685D01*
X87564494Y28368037D01*
X87454180Y28427002D01*
X87334482Y28463312D01*
X87210000Y28475572D01*
X85510000Y28475572D01*
X85385518Y28463312D01*
X85265820Y28427002D01*
X85155506Y28368037D01*
X85058815Y28288685D01*
X84979463Y28191994D01*
X84920498Y28081680D01*
X84884188Y27961982D01*
X84871928Y27837500D01*
X76735572Y27837500D01*
X76723312Y27961982D01*
X76687002Y28081680D01*
X76628037Y28191994D01*
X76548685Y28288685D01*
X76451994Y28368037D01*
X76341680Y28427002D01*
X76221982Y28463312D01*
X76097500Y28475572D01*
X74397500Y28475572D01*
X74273018Y28463312D01*
X74153320Y28427002D01*
X74043006Y28368037D01*
X73946315Y28288685D01*
X73866963Y28191994D01*
X73807998Y28081680D01*
X73771688Y27961982D01*
X73759428Y27837500D01*
X1397000Y27837500D01*
X1397000Y31730000D01*
X29844428Y31730000D01*
X29844428Y29230000D01*
X29856688Y29105518D01*
X29892998Y28985820D01*
X29951963Y28875506D01*
X30031315Y28778815D01*
X30128006Y28699463D01*
X30238320Y28640498D01*
X30358018Y28604188D01*
X30482500Y28591928D01*
X32382500Y28591928D01*
X32506982Y28604188D01*
X32626680Y28640498D01*
X32736994Y28699463D01*
X32833685Y28778815D01*
X32913037Y28875506D01*
X32972002Y28985820D01*
X33008312Y29105518D01*
X33020572Y29230000D01*
X33020572Y31730000D01*
X33008312Y31854482D01*
X32972002Y31974180D01*
X32913037Y32084494D01*
X32833685Y32181185D01*
X32736994Y32260537D01*
X32626680Y32319502D01*
X32506982Y32355812D01*
X32382500Y32368072D01*
X30482500Y32368072D01*
X30358018Y32355812D01*
X30238320Y32319502D01*
X30128006Y32260537D01*
X30031315Y32181185D01*
X29951963Y32084494D01*
X29892998Y31974180D01*
X29856688Y31854482D01*
X29844428Y31730000D01*
X1397000Y31730000D01*
X1397000Y39954362D01*
X13563000Y39954362D01*
X13563000Y39420638D01*
X13667125Y38897168D01*
X13871372Y38404071D01*
X14167894Y37960295D01*
X14545295Y37582894D01*
X14989071Y37286372D01*
X15482168Y37082125D01*
X16005638Y36978000D01*
X16539362Y36978000D01*
X17062832Y37082125D01*
X17555929Y37286372D01*
X17999705Y37582894D01*
X18377106Y37960295D01*
X18673628Y38404071D01*
X18877875Y38897168D01*
X18982000Y39420638D01*
X18982000Y39954362D01*
X23563000Y39954362D01*
X23563000Y39420638D01*
X23667125Y38897168D01*
X23871372Y38404071D01*
X24167894Y37960295D01*
X24545295Y37582894D01*
X24989071Y37286372D01*
X25482168Y37082125D01*
X26005638Y36978000D01*
X26539362Y36978000D01*
X27062832Y37082125D01*
X27555929Y37286372D01*
X27999705Y37582894D01*
X28377106Y37960295D01*
X28673628Y38404071D01*
X28877875Y38897168D01*
X28982000Y39420638D01*
X28982000Y39954362D01*
X33883000Y39954362D01*
X33883000Y39420638D01*
X33987125Y38897168D01*
X34191372Y38404071D01*
X34487894Y37960295D01*
X34865295Y37582894D01*
X35309071Y37286372D01*
X35802168Y37082125D01*
X36325638Y36978000D01*
X36859362Y36978000D01*
X37382832Y37082125D01*
X37875929Y37286372D01*
X38319705Y37582894D01*
X38697106Y37960295D01*
X38993628Y38404071D01*
X39197875Y38897168D01*
X39302000Y39420638D01*
X39302000Y39954362D01*
X39197875Y40477832D01*
X38993628Y40970929D01*
X38697106Y41414705D01*
X38319705Y41792106D01*
X37875929Y42088628D01*
X37382832Y42292875D01*
X36859362Y42397000D01*
X36325638Y42397000D01*
X35802168Y42292875D01*
X35309071Y42088628D01*
X34865295Y41792106D01*
X34487894Y41414705D01*
X34191372Y40970929D01*
X33987125Y40477832D01*
X33883000Y39954362D01*
X28982000Y39954362D01*
X28877875Y40477832D01*
X28673628Y40970929D01*
X28377106Y41414705D01*
X27999705Y41792106D01*
X27555929Y42088628D01*
X27062832Y42292875D01*
X26539362Y42397000D01*
X26005638Y42397000D01*
X25482168Y42292875D01*
X24989071Y42088628D01*
X24545295Y41792106D01*
X24167894Y41414705D01*
X23871372Y40970929D01*
X23667125Y40477832D01*
X23563000Y39954362D01*
X18982000Y39954362D01*
X18877875Y40477832D01*
X18673628Y40970929D01*
X18377106Y41414705D01*
X17999705Y41792106D01*
X17555929Y42088628D01*
X17062832Y42292875D01*
X16539362Y42397000D01*
X16005638Y42397000D01*
X15482168Y42292875D01*
X14989071Y42088628D01*
X14545295Y41792106D01*
X14167894Y41414705D01*
X13871372Y40970929D01*
X13667125Y40477832D01*
X13563000Y39954362D01*
X1397000Y39954362D01*
X1397000Y45730507D01*
X17995112Y45730507D01*
X18060637Y45491640D01*
X18307616Y45375740D01*
X18572460Y45310250D01*
X18844992Y45297688D01*
X19114738Y45338535D01*
X19371332Y45431223D01*
X19484363Y45491640D01*
X19549888Y45730507D01*
X18772500Y46507895D01*
X17995112Y45730507D01*
X1397000Y45730507D01*
X1397000Y46615008D01*
X17382688Y46615008D01*
X17423535Y46345262D01*
X17516223Y46088668D01*
X17576640Y45975637D01*
X17815507Y45910112D01*
X18592895Y46687500D01*
X18952105Y46687500D01*
X19729493Y45910112D01*
X19968360Y45975637D01*
X20021418Y46088701D01*
X20045129Y46031457D01*
X20196701Y45804614D01*
X20389614Y45611701D01*
X20616457Y45460129D01*
X20868511Y45355725D01*
X21136089Y45302500D01*
X21408911Y45302500D01*
X21676489Y45355725D01*
X21928543Y45460129D01*
X22155386Y45611701D01*
X22348299Y45804614D01*
X22499871Y46031457D01*
X22522500Y46086088D01*
X22545129Y46031457D01*
X22696701Y45804614D01*
X22889614Y45611701D01*
X23116457Y45460129D01*
X23368511Y45355725D01*
X23636089Y45302500D01*
X23908911Y45302500D01*
X24176489Y45355725D01*
X24428543Y45460129D01*
X24655386Y45611701D01*
X24774192Y45730507D01*
X38315112Y45730507D01*
X38380637Y45491640D01*
X38627616Y45375740D01*
X38892460Y45310250D01*
X39164992Y45297688D01*
X39434738Y45338535D01*
X39691332Y45431223D01*
X39804363Y45491640D01*
X39869888Y45730507D01*
X39092500Y46507895D01*
X38315112Y45730507D01*
X24774192Y45730507D01*
X24848299Y45804614D01*
X24999871Y46031457D01*
X25104275Y46283511D01*
X25157500Y46551089D01*
X25157500Y46615008D01*
X37702688Y46615008D01*
X37743535Y46345262D01*
X37836223Y46088668D01*
X37896640Y45975637D01*
X38135507Y45910112D01*
X38912895Y46687500D01*
X39272105Y46687500D01*
X40049493Y45910112D01*
X40288360Y45975637D01*
X40341418Y46088701D01*
X40365129Y46031457D01*
X40516701Y45804614D01*
X40709614Y45611701D01*
X40936457Y45460129D01*
X41188511Y45355725D01*
X41456089Y45302500D01*
X41720265Y45302500D01*
X44355191Y42667573D01*
X44383026Y42633656D01*
X44518394Y42522562D01*
X44672834Y42440012D01*
X44738743Y42420019D01*
X44840409Y42389179D01*
X44873609Y42385909D01*
X44971018Y42376315D01*
X44971024Y42376315D01*
X45014684Y42372015D01*
X45058344Y42376315D01*
X46221648Y42376315D01*
X45802168Y42292875D01*
X45309071Y42088628D01*
X44865295Y41792106D01*
X44487894Y41414705D01*
X44191372Y40970929D01*
X43987125Y40477832D01*
X43883000Y39954362D01*
X43883000Y39420638D01*
X43987125Y38897168D01*
X44191372Y38404071D01*
X44487894Y37960295D01*
X44865295Y37582894D01*
X45309071Y37286372D01*
X45802168Y37082125D01*
X46325638Y36978000D01*
X46859362Y36978000D01*
X47382832Y37082125D01*
X47875929Y37286372D01*
X48319705Y37582894D01*
X48697106Y37960295D01*
X48993628Y38404071D01*
X49197875Y38897168D01*
X49302000Y39420638D01*
X49302000Y39954362D01*
X49197875Y40477832D01*
X48993628Y40970929D01*
X48697106Y41414705D01*
X48319705Y41792106D01*
X47875929Y42088628D01*
X47382832Y42292875D01*
X46963352Y42376315D01*
X52257851Y42376315D01*
X52300063Y42348110D01*
X52488421Y42270089D01*
X52688380Y42230315D01*
X52892258Y42230315D01*
X53092217Y42270089D01*
X53280575Y42348110D01*
X53450093Y42461378D01*
X53594256Y42605541D01*
X53707524Y42775059D01*
X53785545Y42963417D01*
X53825319Y43163376D01*
X53825319Y43367254D01*
X53785545Y43567213D01*
X53709832Y43750000D01*
X69211928Y43750000D01*
X69211928Y41250000D01*
X69224188Y41125518D01*
X69260498Y41005820D01*
X69319463Y40895506D01*
X69398815Y40798815D01*
X69495506Y40719463D01*
X69605820Y40660498D01*
X69725518Y40624188D01*
X69850000Y40611928D01*
X71750000Y40611928D01*
X71874482Y40624188D01*
X71994180Y40660498D01*
X72104494Y40719463D01*
X72201185Y40798815D01*
X72280537Y40895506D01*
X72339502Y41005820D01*
X72375812Y41125518D01*
X72388072Y41250000D01*
X72388072Y43750000D01*
X72375812Y43874482D01*
X72339502Y43994180D01*
X72280537Y44104494D01*
X72201185Y44201185D01*
X72104494Y44280537D01*
X71994180Y44339502D01*
X71874482Y44375812D01*
X71750000Y44388072D01*
X69850000Y44388072D01*
X69725518Y44375812D01*
X69605820Y44339502D01*
X69495506Y44280537D01*
X69398815Y44201185D01*
X69319463Y44104494D01*
X69260498Y43994180D01*
X69224188Y43874482D01*
X69211928Y43750000D01*
X53709832Y43750000D01*
X53707524Y43755571D01*
X53594256Y43925089D01*
X53450093Y44069252D01*
X53280575Y44182520D01*
X53092217Y44260541D01*
X52892258Y44300315D01*
X52688380Y44300315D01*
X52488421Y44260541D01*
X52300063Y44182520D01*
X52257851Y44154315D01*
X45382921Y44154315D01*
X44233769Y45303466D01*
X44496489Y45355725D01*
X44748543Y45460129D01*
X44975386Y45611701D01*
X45168299Y45804614D01*
X45319871Y46031457D01*
X45424275Y46283511D01*
X45477500Y46551089D01*
X45477500Y46823911D01*
X45424275Y47091489D01*
X45319871Y47343543D01*
X45168299Y47570386D01*
X44975386Y47763299D01*
X44748543Y47914871D01*
X44496489Y48019275D01*
X44228911Y48072500D01*
X43964735Y48072500D01*
X43547998Y48489237D01*
X43520158Y48523160D01*
X43384790Y48634254D01*
X43230350Y48716804D01*
X43062773Y48767637D01*
X42932166Y48780501D01*
X42932159Y48780501D01*
X42888499Y48784801D01*
X42844839Y48780501D01*
X42423407Y48780501D01*
X42476185Y48823815D01*
X42555537Y48920506D01*
X42614502Y49030820D01*
X42650812Y49150518D01*
X42663072Y49275000D01*
X42663072Y50125000D01*
X43036928Y50125000D01*
X43036928Y49275000D01*
X43049188Y49150518D01*
X43085498Y49030820D01*
X43144463Y48920506D01*
X43223815Y48823815D01*
X43320506Y48744463D01*
X43430820Y48685498D01*
X43550518Y48649188D01*
X43675000Y48636928D01*
X44525000Y48636928D01*
X44649482Y48649188D01*
X44769180Y48685498D01*
X44879494Y48744463D01*
X44976185Y48823815D01*
X45055537Y48920506D01*
X45114502Y49030820D01*
X45150812Y49150518D01*
X45163072Y49275000D01*
X45163072Y50125000D01*
X45150812Y50249482D01*
X45114502Y50369180D01*
X45055537Y50479494D01*
X44976185Y50576185D01*
X44879494Y50655537D01*
X44769180Y50714502D01*
X44649482Y50750812D01*
X44525000Y50763072D01*
X43675000Y50763072D01*
X43550518Y50750812D01*
X43430820Y50714502D01*
X43320506Y50655537D01*
X43223815Y50576185D01*
X43144463Y50479494D01*
X43085498Y50369180D01*
X43049188Y50249482D01*
X43036928Y50125000D01*
X42663072Y50125000D01*
X42650812Y50249482D01*
X42614502Y50369180D01*
X42555537Y50479494D01*
X42476185Y50576185D01*
X42379494Y50655537D01*
X42269180Y50714502D01*
X42149482Y50750812D01*
X42025000Y50763072D01*
X41211500Y50763072D01*
X41211500Y55030032D01*
X41239705Y55072244D01*
X41317726Y55260602D01*
X41357500Y55460561D01*
X41357500Y55664439D01*
X41317726Y55864398D01*
X41239705Y56052756D01*
X41126437Y56222274D01*
X40982274Y56366437D01*
X40812756Y56479705D01*
X40624398Y56557726D01*
X40424439Y56597500D01*
X40220561Y56597500D01*
X40020602Y56557726D01*
X39832244Y56479705D01*
X39662726Y56366437D01*
X39518563Y56222274D01*
X39405295Y56052756D01*
X39327274Y55864398D01*
X39287500Y55664439D01*
X39287500Y55460561D01*
X39327274Y55260602D01*
X39405295Y55072244D01*
X39433500Y55030032D01*
X39433501Y49353968D01*
X39429200Y49310298D01*
X39446364Y49136024D01*
X39497198Y48968446D01*
X39579748Y48814007D01*
X39659522Y48716803D01*
X39690842Y48678639D01*
X39724759Y48650804D01*
X40660939Y47714624D01*
X40516701Y47570386D01*
X40365129Y47343543D01*
X40344639Y47294074D01*
X40288360Y47399363D01*
X40049493Y47464888D01*
X39272105Y46687500D01*
X38912895Y46687500D01*
X38135507Y47464888D01*
X37896640Y47399363D01*
X37780740Y47152384D01*
X37715250Y46887540D01*
X37702688Y46615008D01*
X25157500Y46615008D01*
X25157500Y46823911D01*
X25104275Y47091489D01*
X24999871Y47343543D01*
X24848299Y47570386D01*
X24774192Y47644493D01*
X38315112Y47644493D01*
X39092500Y46867105D01*
X39869888Y47644493D01*
X39804363Y47883360D01*
X39557384Y47999260D01*
X39292540Y48064750D01*
X39020008Y48077312D01*
X38750262Y48036465D01*
X38493668Y47943777D01*
X38380637Y47883360D01*
X38315112Y47644493D01*
X24774192Y47644493D01*
X24655386Y47763299D01*
X24428543Y47914871D01*
X24176489Y48019275D01*
X23908911Y48072500D01*
X23636089Y48072500D01*
X23368511Y48019275D01*
X23116457Y47914871D01*
X22889614Y47763299D01*
X22696701Y47570386D01*
X22545129Y47343543D01*
X22522500Y47288912D01*
X22499871Y47343543D01*
X22348299Y47570386D01*
X22155386Y47763299D01*
X21928543Y47914871D01*
X21676489Y48019275D01*
X21408911Y48072500D01*
X21136089Y48072500D01*
X20868511Y48019275D01*
X20616457Y47914871D01*
X20389614Y47763299D01*
X20196701Y47570386D01*
X20045129Y47343543D01*
X20024639Y47294074D01*
X19968360Y47399363D01*
X19729493Y47464888D01*
X18952105Y46687500D01*
X18592895Y46687500D01*
X17815507Y47464888D01*
X17576640Y47399363D01*
X17460740Y47152384D01*
X17395250Y46887540D01*
X17382688Y46615008D01*
X1397000Y46615008D01*
X1397000Y47644493D01*
X17995112Y47644493D01*
X18772500Y46867105D01*
X19549888Y47644493D01*
X19484363Y47883360D01*
X19237384Y47999260D01*
X18972540Y48064750D01*
X18700008Y48077312D01*
X18430262Y48036465D01*
X18173668Y47943777D01*
X18060637Y47883360D01*
X17995112Y47644493D01*
X1397000Y47644493D01*
X1397000Y49955000D01*
X20209428Y49955000D01*
X20209428Y49105000D01*
X20221688Y48980518D01*
X20257998Y48860820D01*
X20316963Y48750506D01*
X20396315Y48653815D01*
X20493006Y48574463D01*
X20603320Y48515498D01*
X20723018Y48479188D01*
X20847500Y48466928D01*
X21697500Y48466928D01*
X21821982Y48479188D01*
X21941680Y48515498D01*
X22051994Y48574463D01*
X22148685Y48653815D01*
X22228037Y48750506D01*
X22287002Y48860820D01*
X22323312Y48980518D01*
X22335572Y49105000D01*
X22335572Y49955000D01*
X22323312Y50079482D01*
X22287002Y50199180D01*
X22228037Y50309494D01*
X22148685Y50406185D01*
X22051994Y50485537D01*
X21941680Y50544502D01*
X21821982Y50580812D01*
X21697500Y50593072D01*
X20847500Y50593072D01*
X20723018Y50580812D01*
X20603320Y50544502D01*
X20493006Y50485537D01*
X20396315Y50406185D01*
X20316963Y50309494D01*
X20257998Y50199180D01*
X20221688Y50079482D01*
X20209428Y49955000D01*
X1397000Y49955000D01*
X1397000Y63881000D01*
X26539928Y63881000D01*
X26539928Y63119000D01*
X26559509Y62920189D01*
X26617500Y62729018D01*
X26711673Y62552834D01*
X26838407Y62398407D01*
X26992834Y62271673D01*
X27169018Y62177500D01*
X27360189Y62119509D01*
X27559000Y62099928D01*
X28321000Y62099928D01*
X28519811Y62119509D01*
X28710982Y62177500D01*
X28887166Y62271673D01*
X29041593Y62398407D01*
X29168327Y62552834D01*
X29262500Y62729018D01*
X29320491Y62920189D01*
X29340072Y63119000D01*
X29340072Y63881000D01*
X29320491Y64079811D01*
X29262500Y64270982D01*
X29168327Y64447166D01*
X29041593Y64601593D01*
X28887166Y64728327D01*
X28710982Y64822500D01*
X28656946Y64838892D01*
X28830535Y64954880D01*
X29025120Y65149465D01*
X29178005Y65378273D01*
X29283314Y65632510D01*
X29337000Y65902408D01*
X29337000Y66177592D01*
X29283314Y66447490D01*
X29178005Y66701727D01*
X29025120Y66930535D01*
X28830535Y67125120D01*
X28601727Y67278005D01*
X28524485Y67310000D01*
X28601727Y67341995D01*
X28830535Y67494880D01*
X29025120Y67689465D01*
X29178005Y67918273D01*
X29283314Y68172510D01*
X29337000Y68442408D01*
X29337000Y68717592D01*
X29283314Y68987490D01*
X29178005Y69241727D01*
X29025120Y69470535D01*
X28830535Y69665120D01*
X28601727Y69818005D01*
X28524485Y69850000D01*
X28601727Y69881995D01*
X28830535Y70034880D01*
X29025120Y70229465D01*
X29178005Y70458273D01*
X29283314Y70712510D01*
X29337000Y70982408D01*
X29337000Y71257592D01*
X29283314Y71527490D01*
X29178005Y71781727D01*
X29025120Y72010535D01*
X28830535Y72205120D01*
X28601727Y72358005D01*
X28347490Y72463314D01*
X28077592Y72517000D01*
X27802408Y72517000D01*
X27532510Y72463314D01*
X27278273Y72358005D01*
X27049465Y72205120D01*
X26854880Y72010535D01*
X26701995Y71781727D01*
X26596686Y71527490D01*
X26543000Y71257592D01*
X26543000Y70982408D01*
X26596686Y70712510D01*
X26701995Y70458273D01*
X26854880Y70229465D01*
X27049465Y70034880D01*
X27278273Y69881995D01*
X27355515Y69850000D01*
X27278273Y69818005D01*
X27049465Y69665120D01*
X26854880Y69470535D01*
X26701995Y69241727D01*
X26596686Y68987490D01*
X26543000Y68717592D01*
X26543000Y68442408D01*
X26596686Y68172510D01*
X26701995Y67918273D01*
X26854880Y67689465D01*
X27049465Y67494880D01*
X27278273Y67341995D01*
X27355515Y67310000D01*
X27278273Y67278005D01*
X27049465Y67125120D01*
X26854880Y66930535D01*
X26701995Y66701727D01*
X26596686Y66447490D01*
X26543000Y66177592D01*
X26543000Y65902408D01*
X26596686Y65632510D01*
X26701995Y65378273D01*
X26854880Y65149465D01*
X27049465Y64954880D01*
X27223054Y64838892D01*
X27169018Y64822500D01*
X26992834Y64728327D01*
X26838407Y64601593D01*
X26711673Y64447166D01*
X26617500Y64270982D01*
X26559509Y64079811D01*
X26539928Y63881000D01*
X1397000Y63881000D01*
X1397000Y74080000D01*
X28991928Y74080000D01*
X29004188Y73955518D01*
X29040498Y73835820D01*
X29099463Y73725506D01*
X29178815Y73628815D01*
X29275506Y73549463D01*
X29385820Y73490498D01*
X29505518Y73454188D01*
X29630000Y73441928D01*
X30194250Y73445000D01*
X30353000Y73603750D01*
X30353000Y74803000D01*
X29153750Y74803000D01*
X28995000Y74644250D01*
X28991928Y74080000D01*
X1397000Y74080000D01*
X1397000Y77710279D01*
X5365000Y77710279D01*
X5365000Y77289721D01*
X5447047Y76877244D01*
X5607988Y76488698D01*
X5841637Y76139017D01*
X6139017Y75841637D01*
X6488698Y75607988D01*
X6877244Y75447047D01*
X7289721Y75365000D01*
X7710279Y75365000D01*
X8122756Y75447047D01*
X8511302Y75607988D01*
X8768736Y75780000D01*
X28991928Y75780000D01*
X28995000Y75215750D01*
X29153750Y75057000D01*
X30353000Y75057000D01*
X30353000Y76256250D01*
X30607000Y76256250D01*
X30607000Y75057000D01*
X30627000Y75057000D01*
X30627000Y74803000D01*
X30607000Y74803000D01*
X30607000Y73603750D01*
X30765750Y73445000D01*
X31330000Y73441928D01*
X31441990Y73452958D01*
X31389774Y73326898D01*
X31350000Y73126939D01*
X31350000Y72923061D01*
X31389774Y72723102D01*
X31467795Y72534744D01*
X31581063Y72365226D01*
X31725226Y72221063D01*
X31894744Y72107795D01*
X32083102Y72029774D01*
X32283061Y71990000D01*
X32486939Y71990000D01*
X32686898Y72029774D01*
X32875256Y72107795D01*
X33044774Y72221063D01*
X33086711Y72263000D01*
X34756088Y72263000D01*
X34669465Y72205120D01*
X34474880Y72010535D01*
X34321995Y71781727D01*
X34216686Y71527490D01*
X34163000Y71257592D01*
X34163000Y70982408D01*
X34216686Y70712510D01*
X34321995Y70458273D01*
X34474880Y70229465D01*
X34669465Y70034880D01*
X34898273Y69881995D01*
X34975515Y69850000D01*
X34898273Y69818005D01*
X34669465Y69665120D01*
X34474880Y69470535D01*
X34321995Y69241727D01*
X34216686Y68987490D01*
X34163000Y68717592D01*
X34163000Y68442408D01*
X34216686Y68172510D01*
X34321995Y67918273D01*
X34474880Y67689465D01*
X34669465Y67494880D01*
X34898273Y67341995D01*
X34975515Y67310000D01*
X34898273Y67278005D01*
X34669465Y67125120D01*
X34474880Y66930535D01*
X34321995Y66701727D01*
X34216686Y66447490D01*
X34163000Y66177592D01*
X34163000Y65902408D01*
X34216686Y65632510D01*
X34321995Y65378273D01*
X34474880Y65149465D01*
X34669465Y64954880D01*
X34898273Y64801995D01*
X34975515Y64770000D01*
X34898273Y64738005D01*
X34669465Y64585120D01*
X34474880Y64390535D01*
X34321995Y64161727D01*
X34216686Y63907490D01*
X34163000Y63637592D01*
X34163000Y63362408D01*
X34216686Y63092510D01*
X34321995Y62838273D01*
X34474880Y62609465D01*
X34669465Y62414880D01*
X34898273Y62261995D01*
X35152510Y62156686D01*
X35422408Y62103000D01*
X35697592Y62103000D01*
X35964435Y62156078D01*
X35852726Y62081437D01*
X35708563Y61937274D01*
X35595295Y61767756D01*
X35517274Y61579398D01*
X35477500Y61379439D01*
X35477500Y61320130D01*
X34006791Y59849421D01*
X33997274Y59858937D01*
X33827756Y59972205D01*
X33639398Y60050226D01*
X33439439Y60090000D01*
X33235561Y60090000D01*
X33035602Y60050226D01*
X32847244Y59972205D01*
X32677726Y59858937D01*
X32533563Y59714774D01*
X32420295Y59545256D01*
X32342274Y59356898D01*
X32302500Y59156939D01*
X32302500Y58953061D01*
X32342274Y58753102D01*
X32420295Y58564744D01*
X32533563Y58395226D01*
X32677726Y58251063D01*
X32847244Y58137795D01*
X33035602Y58059774D01*
X33235561Y58020000D01*
X33439439Y58020000D01*
X33639398Y58059774D01*
X33827756Y58137795D01*
X33997274Y58251063D01*
X34039211Y58293000D01*
X34252577Y58293000D01*
X34290000Y58289314D01*
X34327423Y58293000D01*
X34327426Y58293000D01*
X34439378Y58304026D01*
X34583015Y58347598D01*
X34715392Y58418355D01*
X34831422Y58513578D01*
X34855284Y58542654D01*
X35912630Y59600000D01*
X45023856Y59600000D01*
X45048377Y59351037D01*
X45120997Y59111641D01*
X45238925Y58891012D01*
X45397630Y58697630D01*
X45591012Y58538925D01*
X45811641Y58420997D01*
X46051037Y58348377D01*
X46237620Y58330000D01*
X57662380Y58330000D01*
X57848963Y58348377D01*
X58088359Y58420997D01*
X58308988Y58538925D01*
X58502370Y58697630D01*
X58661075Y58891012D01*
X58779003Y59111641D01*
X58851623Y59351037D01*
X58876144Y59600000D01*
X58851623Y59848963D01*
X58779003Y60088359D01*
X58661075Y60308988D01*
X58502370Y60502370D01*
X58308988Y60661075D01*
X58088359Y60779003D01*
X57848963Y60851623D01*
X57662380Y60870000D01*
X46237620Y60870000D01*
X46051037Y60851623D01*
X45811641Y60779003D01*
X45591012Y60661075D01*
X45397630Y60502370D01*
X45238925Y60308988D01*
X45120997Y60088359D01*
X45048377Y59848963D01*
X45023856Y59600000D01*
X35912630Y59600000D01*
X36555130Y60242500D01*
X36614439Y60242500D01*
X36814398Y60282274D01*
X37002756Y60360295D01*
X37172274Y60473563D01*
X37316437Y60617726D01*
X37429705Y60787244D01*
X37507726Y60975602D01*
X37547500Y61175561D01*
X37547500Y61379439D01*
X37507726Y61579398D01*
X37429705Y61767756D01*
X37316437Y61937274D01*
X37172274Y62081437D01*
X37002756Y62194705D01*
X36814398Y62272726D01*
X36614439Y62312500D01*
X36410561Y62312500D01*
X36249310Y62280425D01*
X36450535Y62414880D01*
X36645120Y62609465D01*
X36798005Y62838273D01*
X36903314Y63092510D01*
X36957000Y63362408D01*
X36957000Y63637592D01*
X36903314Y63907490D01*
X36798005Y64161727D01*
X36645120Y64390535D01*
X36450535Y64585120D01*
X36221727Y64738005D01*
X36144485Y64770000D01*
X36221727Y64801995D01*
X36450535Y64954880D01*
X36645120Y65149465D01*
X36671829Y65189439D01*
X57067500Y65189439D01*
X57067500Y64985561D01*
X57107274Y64785602D01*
X57185295Y64597244D01*
X57298563Y64427726D01*
X57442726Y64283563D01*
X57612244Y64170295D01*
X57633294Y64161576D01*
X58972500Y62822369D01*
X58972500Y62763061D01*
X59012274Y62563102D01*
X59090295Y62374744D01*
X59203563Y62205226D01*
X59347726Y62061063D01*
X59517244Y61947795D01*
X59705602Y61869774D01*
X59905561Y61830000D01*
X60109439Y61830000D01*
X60309398Y61869774D01*
X60497756Y61947795D01*
X60667274Y62061063D01*
X60811437Y62205226D01*
X60924705Y62374744D01*
X61002726Y62563102D01*
X61042500Y62763061D01*
X61042500Y62966939D01*
X61002726Y63166898D01*
X60924705Y63355256D01*
X60811437Y63524774D01*
X60667274Y63668937D01*
X60497756Y63782205D01*
X60309398Y63860226D01*
X60109439Y63900000D01*
X60050131Y63900000D01*
X59108809Y64841321D01*
X59137500Y64985561D01*
X59137500Y65189439D01*
X59097726Y65389398D01*
X59019705Y65577756D01*
X58906437Y65747274D01*
X58762274Y65891437D01*
X58592756Y66004705D01*
X58404398Y66082726D01*
X58204439Y66122500D01*
X58000561Y66122500D01*
X57800602Y66082726D01*
X57612244Y66004705D01*
X57442726Y65891437D01*
X57298563Y65747274D01*
X57185295Y65577756D01*
X57107274Y65389398D01*
X57067500Y65189439D01*
X36671829Y65189439D01*
X36798005Y65378273D01*
X36903314Y65632510D01*
X36957000Y65902408D01*
X36957000Y66177592D01*
X36931287Y66306862D01*
X67220500Y66306862D01*
X67220500Y65773138D01*
X67324625Y65249668D01*
X67528872Y64756571D01*
X67825394Y64312795D01*
X68202795Y63935394D01*
X68646571Y63638872D01*
X69139668Y63434625D01*
X69663138Y63330500D01*
X70196862Y63330500D01*
X70720332Y63434625D01*
X71213429Y63638872D01*
X71657205Y63935394D01*
X72034606Y64312795D01*
X72331128Y64756571D01*
X72535375Y65249668D01*
X72639500Y65773138D01*
X72639500Y66306862D01*
X77220500Y66306862D01*
X77220500Y65773138D01*
X77324625Y65249668D01*
X77528872Y64756571D01*
X77825394Y64312795D01*
X78202795Y63935394D01*
X78646571Y63638872D01*
X79139668Y63434625D01*
X79663138Y63330500D01*
X80196862Y63330500D01*
X80720332Y63434625D01*
X81213429Y63638872D01*
X81657205Y63935394D01*
X82034606Y64312795D01*
X82331128Y64756571D01*
X82535375Y65249668D01*
X82639500Y65773138D01*
X82639500Y66306862D01*
X82535375Y66830332D01*
X82331128Y67323429D01*
X82034606Y67767205D01*
X81657205Y68144606D01*
X81213429Y68441128D01*
X80720332Y68645375D01*
X80196862Y68749500D01*
X79663138Y68749500D01*
X79139668Y68645375D01*
X78646571Y68441128D01*
X78202795Y68144606D01*
X77825394Y67767205D01*
X77528872Y67323429D01*
X77324625Y66830332D01*
X77220500Y66306862D01*
X72639500Y66306862D01*
X72535375Y66830332D01*
X72331128Y67323429D01*
X72034606Y67767205D01*
X71657205Y68144606D01*
X71213429Y68441128D01*
X70720332Y68645375D01*
X70196862Y68749500D01*
X69663138Y68749500D01*
X69139668Y68645375D01*
X68646571Y68441128D01*
X68202795Y68144606D01*
X67825394Y67767205D01*
X67528872Y67323429D01*
X67324625Y66830332D01*
X67220500Y66306862D01*
X36931287Y66306862D01*
X36903314Y66447490D01*
X36798005Y66701727D01*
X36645120Y66930535D01*
X36450535Y67125120D01*
X36221727Y67278005D01*
X36144485Y67310000D01*
X36221727Y67341995D01*
X36450535Y67494880D01*
X36645120Y67689465D01*
X36798005Y67918273D01*
X36903314Y68172510D01*
X36957000Y68442408D01*
X36957000Y68717592D01*
X36903314Y68987490D01*
X36798005Y69241727D01*
X36645120Y69470535D01*
X36450535Y69665120D01*
X36221727Y69818005D01*
X36144485Y69850000D01*
X36221727Y69881995D01*
X36450535Y70034880D01*
X36645120Y70229465D01*
X36798005Y70458273D01*
X36903314Y70712510D01*
X36917335Y70783000D01*
X41481928Y70783000D01*
X41481928Y69933000D01*
X41494188Y69808518D01*
X41530498Y69688820D01*
X41589463Y69578506D01*
X41668815Y69481815D01*
X41765506Y69402463D01*
X41875820Y69343498D01*
X41995518Y69307188D01*
X42120000Y69294928D01*
X42970000Y69294928D01*
X43094482Y69307188D01*
X43214180Y69343498D01*
X43324494Y69402463D01*
X43421185Y69481815D01*
X43500537Y69578506D01*
X43559502Y69688820D01*
X43595812Y69808518D01*
X43608072Y69933000D01*
X43608072Y70783000D01*
X43595812Y70907482D01*
X43559502Y71027180D01*
X43500537Y71137494D01*
X43421185Y71234185D01*
X43324494Y71313537D01*
X43214180Y71372502D01*
X43094482Y71408812D01*
X42970000Y71421072D01*
X42120000Y71421072D01*
X41995518Y71408812D01*
X41875820Y71372502D01*
X41765506Y71313537D01*
X41668815Y71234185D01*
X41589463Y71137494D01*
X41530498Y71027180D01*
X41494188Y70907482D01*
X41481928Y70783000D01*
X36917335Y70783000D01*
X36957000Y70982408D01*
X36957000Y71257592D01*
X36903314Y71527490D01*
X36798005Y71781727D01*
X36645120Y72010535D01*
X36450535Y72205120D01*
X36363912Y72263000D01*
X37745077Y72263000D01*
X37782500Y72259314D01*
X37819923Y72263000D01*
X37819926Y72263000D01*
X37931878Y72274026D01*
X38042227Y72307500D01*
X38201939Y72307500D01*
X38401898Y72347274D01*
X38590256Y72425295D01*
X38759774Y72538563D01*
X38903937Y72682726D01*
X39017205Y72852244D01*
X39095226Y73040602D01*
X39135000Y73240561D01*
X39135000Y73444439D01*
X39095226Y73644398D01*
X39017205Y73832756D01*
X38903937Y74002274D01*
X38759774Y74146437D01*
X38590256Y74259705D01*
X38401898Y74337726D01*
X38201939Y74377500D01*
X37998061Y74377500D01*
X37798102Y74337726D01*
X37609744Y74259705D01*
X37440226Y74146437D01*
X37296063Y74002274D01*
X37182795Y73832756D01*
X37163842Y73787000D01*
X33977107Y73787000D01*
X34173475Y73983368D01*
X34335990Y74226589D01*
X34447932Y74496842D01*
X34505000Y74783740D01*
X34505000Y75076260D01*
X34447932Y75363158D01*
X34335990Y75633411D01*
X34173475Y75876632D01*
X33966632Y76083475D01*
X33723411Y76245990D01*
X33453158Y76357932D01*
X33166260Y76415000D01*
X32873740Y76415000D01*
X32586842Y76357932D01*
X32316589Y76245990D01*
X32073368Y76083475D01*
X31941513Y75951620D01*
X31919502Y76024180D01*
X31860537Y76134494D01*
X31781185Y76231185D01*
X31684494Y76310537D01*
X31574180Y76369502D01*
X31454482Y76405812D01*
X31330000Y76418072D01*
X30765750Y76415000D01*
X30607000Y76256250D01*
X30353000Y76256250D01*
X30194250Y76415000D01*
X29630000Y76418072D01*
X29505518Y76405812D01*
X29385820Y76369502D01*
X29275506Y76310537D01*
X29178815Y76231185D01*
X29099463Y76134494D01*
X29040498Y76024180D01*
X29004188Y75904482D01*
X28991928Y75780000D01*
X8768736Y75780000D01*
X8860983Y75841637D01*
X9158363Y76139017D01*
X9392012Y76488698D01*
X9552953Y76877244D01*
X9635000Y77289721D01*
X9635000Y77710279D01*
X9552953Y78122756D01*
X9428795Y78422500D01*
X47936356Y78422500D01*
X47942500Y78360120D01*
X47942500Y78167373D01*
X47936357Y78105000D01*
X47942500Y78042627D01*
X47942500Y78042620D01*
X47960877Y77856037D01*
X48033497Y77616641D01*
X48151425Y77396012D01*
X48310131Y77202630D01*
X48358586Y77162864D01*
X48577500Y76943949D01*
X48577501Y72134890D01*
X48577500Y72134880D01*
X48577500Y72134873D01*
X48571357Y72072500D01*
X48577500Y72010127D01*
X48577500Y70547380D01*
X48571356Y70485000D01*
X48595877Y70236037D01*
X48668497Y69996641D01*
X48786425Y69776012D01*
X48945130Y69582630D01*
X49138512Y69423925D01*
X49359141Y69305997D01*
X49598537Y69233377D01*
X49847500Y69208856D01*
X49909880Y69215000D01*
X51055120Y69215000D01*
X51117500Y69208856D01*
X51179880Y69215000D01*
X51366463Y69233377D01*
X51605859Y69305997D01*
X51826488Y69423925D01*
X52019870Y69582630D01*
X52178575Y69776012D01*
X52296503Y69996641D01*
X52369123Y70236037D01*
X52393644Y70485000D01*
X52387500Y70547380D01*
X52387500Y70740120D01*
X52393644Y70802500D01*
X52369123Y71051463D01*
X52296503Y71290859D01*
X52252864Y71372502D01*
X52178575Y71511487D01*
X52019870Y71704870D01*
X51971414Y71744637D01*
X51424641Y72291409D01*
X51384870Y72339870D01*
X51336414Y72379637D01*
X51117500Y72598551D01*
X51117500Y75565000D01*
X58096356Y75565000D01*
X58120877Y75316037D01*
X58193497Y75076641D01*
X58311425Y74856012D01*
X58470130Y74662630D01*
X58578750Y74573487D01*
X58578751Y72439801D01*
X58518587Y72379637D01*
X58470131Y72339870D01*
X58311425Y72146488D01*
X58193497Y71925859D01*
X58120877Y71686463D01*
X58102500Y71499880D01*
X58102500Y71499873D01*
X58096357Y71437500D01*
X58102500Y71375127D01*
X58102500Y71182380D01*
X58096356Y71120000D01*
X58120877Y70871037D01*
X58193497Y70631641D01*
X58311425Y70411012D01*
X58436591Y70258497D01*
X58470130Y70217630D01*
X58663512Y70058925D01*
X58884141Y69940997D01*
X59123537Y69868377D01*
X59372500Y69843856D01*
X59434880Y69850000D01*
X60262620Y69850000D01*
X60325000Y69843856D01*
X60387380Y69850000D01*
X60573963Y69868377D01*
X60813359Y69940997D01*
X61033988Y70058925D01*
X61227370Y70217630D01*
X61386075Y70411012D01*
X61504003Y70631641D01*
X61576623Y70871037D01*
X61580460Y70910000D01*
X65294428Y70910000D01*
X65294428Y70060000D01*
X65306688Y69935518D01*
X65342998Y69815820D01*
X65401963Y69705506D01*
X65481315Y69608815D01*
X65578006Y69529463D01*
X65688320Y69470498D01*
X65808018Y69434188D01*
X65932500Y69421928D01*
X66782500Y69421928D01*
X66906982Y69434188D01*
X67026680Y69470498D01*
X67136994Y69529463D01*
X67233685Y69608815D01*
X67313037Y69705506D01*
X67372002Y69815820D01*
X67408312Y69935518D01*
X67420572Y70060000D01*
X67420572Y70910000D01*
X67408312Y71034482D01*
X67372002Y71154180D01*
X67313037Y71264494D01*
X67233685Y71361185D01*
X67136994Y71440537D01*
X67026680Y71499502D01*
X66906982Y71535812D01*
X66782500Y71548072D01*
X65932500Y71548072D01*
X65808018Y71535812D01*
X65688320Y71499502D01*
X65578006Y71440537D01*
X65481315Y71361185D01*
X65401963Y71264494D01*
X65342998Y71154180D01*
X65306688Y71034482D01*
X65294428Y70910000D01*
X61580460Y70910000D01*
X61601144Y71120000D01*
X61595000Y71182380D01*
X61595000Y71375128D01*
X61601143Y71437501D01*
X61595000Y71499874D01*
X61595000Y71499879D01*
X61576623Y71686462D01*
X61576623Y71686464D01*
X61533388Y71828988D01*
X61504003Y71925858D01*
X61386075Y72146487D01*
X61227370Y72339870D01*
X61178909Y72379641D01*
X61118750Y72439800D01*
X61118750Y73176411D01*
X71045000Y73176411D01*
X71045000Y72903589D01*
X71098225Y72636011D01*
X71202629Y72383957D01*
X71354201Y72157114D01*
X71547114Y71964201D01*
X71773957Y71812629D01*
X72026011Y71708225D01*
X72293589Y71655000D01*
X72566411Y71655000D01*
X72833989Y71708225D01*
X73086043Y71812629D01*
X73312886Y71964201D01*
X73505799Y72157114D01*
X73657371Y72383957D01*
X73680000Y72438588D01*
X73702629Y72383957D01*
X73854201Y72157114D01*
X74047114Y71964201D01*
X74273957Y71812629D01*
X74526011Y71708225D01*
X74793589Y71655000D01*
X75066411Y71655000D01*
X75333989Y71708225D01*
X75586043Y71812629D01*
X75812886Y71964201D01*
X76005799Y72157114D01*
X76157371Y72383957D01*
X76180000Y72438588D01*
X76202629Y72383957D01*
X76354201Y72157114D01*
X76547114Y71964201D01*
X76773957Y71812629D01*
X77026011Y71708225D01*
X77293589Y71655000D01*
X77566411Y71655000D01*
X77833989Y71708225D01*
X78086043Y71812629D01*
X78312886Y71964201D01*
X78505799Y72157114D01*
X78657371Y72383957D01*
X78761775Y72636011D01*
X78815000Y72903589D01*
X78815000Y73176411D01*
X78761775Y73443989D01*
X78657371Y73696043D01*
X78505799Y73922886D01*
X78312886Y74115799D01*
X78086043Y74267371D01*
X77833989Y74371775D01*
X77566411Y74425000D01*
X77293589Y74425000D01*
X77026011Y74371775D01*
X76773957Y74267371D01*
X76547114Y74115799D01*
X76354201Y73922886D01*
X76202629Y73696043D01*
X76180000Y73641412D01*
X76157371Y73696043D01*
X76005799Y73922886D01*
X75812886Y74115799D01*
X75586043Y74267371D01*
X75333989Y74371775D01*
X75066411Y74425000D01*
X74793589Y74425000D01*
X74526011Y74371775D01*
X74273957Y74267371D01*
X74047114Y74115799D01*
X73854201Y73922886D01*
X73702629Y73696043D01*
X73680000Y73641412D01*
X73657371Y73696043D01*
X73505799Y73922886D01*
X73312886Y74115799D01*
X73086043Y74267371D01*
X72833989Y74371775D01*
X72566411Y74425000D01*
X72293589Y74425000D01*
X72026011Y74371775D01*
X71773957Y74267371D01*
X71547114Y74115799D01*
X71354201Y73922886D01*
X71202629Y73696043D01*
X71098225Y73443989D01*
X71045000Y73176411D01*
X61118750Y73176411D01*
X61118750Y74573488D01*
X61227370Y74662630D01*
X61386075Y74856012D01*
X61504003Y75076641D01*
X61576623Y75316037D01*
X61601144Y75565000D01*
X61595000Y75627380D01*
X61595000Y75820128D01*
X61601143Y75882501D01*
X61595000Y75944874D01*
X61595000Y75944879D01*
X61576623Y76131462D01*
X61576623Y76131464D01*
X61533388Y76273988D01*
X61504003Y76370858D01*
X61386075Y76591487D01*
X61227370Y76784870D01*
X61178909Y76824641D01*
X60790891Y77212659D01*
X60751120Y77261120D01*
X60557737Y77419825D01*
X60337108Y77537753D01*
X60170333Y77588344D01*
X60097713Y77610373D01*
X60075391Y77612572D01*
X59848750Y77634894D01*
X59624307Y77612788D01*
X59599786Y77610373D01*
X59544068Y77593471D01*
X59360391Y77537753D01*
X59139762Y77419825D01*
X58946380Y77261120D01*
X58906610Y77212660D01*
X58518587Y76824637D01*
X58470131Y76784870D01*
X58311425Y76591488D01*
X58193497Y76370859D01*
X58120877Y76131463D01*
X58102500Y75944880D01*
X58102500Y75944873D01*
X58096357Y75882500D01*
X58102500Y75820127D01*
X58102500Y75627380D01*
X58096356Y75565000D01*
X51117500Y75565000D01*
X51117500Y76943949D01*
X51336414Y77162863D01*
X51384870Y77202630D01*
X51543575Y77396013D01*
X51637609Y77571939D01*
X51661503Y77616641D01*
X51734123Y77856037D01*
X51758644Y78105000D01*
X51752500Y78167380D01*
X51752500Y78360120D01*
X51758644Y78422500D01*
X51734123Y78671463D01*
X51661503Y78910859D01*
X51543575Y79131488D01*
X51384870Y79324870D01*
X51191488Y79483575D01*
X50970859Y79601503D01*
X50731463Y79674123D01*
X50544880Y79692500D01*
X50482500Y79698644D01*
X50420120Y79692500D01*
X49274880Y79692500D01*
X49212500Y79698644D01*
X49150120Y79692500D01*
X48963537Y79674123D01*
X48724141Y79601503D01*
X48503512Y79483575D01*
X48310130Y79324870D01*
X48151425Y79131488D01*
X48033497Y78910859D01*
X47960877Y78671463D01*
X47936356Y78422500D01*
X9428795Y78422500D01*
X9392012Y78511302D01*
X9158363Y78860983D01*
X8860983Y79158363D01*
X8511302Y79392012D01*
X8122756Y79552953D01*
X7710279Y79635000D01*
X7289721Y79635000D01*
X6877244Y79552953D01*
X6488698Y79392012D01*
X6139017Y79158363D01*
X5841637Y78860983D01*
X5607988Y78511302D01*
X5447047Y78122756D01*
X5365000Y77710279D01*
X1397000Y77710279D01*
X1397000Y81080000D01*
X5361928Y81080000D01*
X5374188Y80955518D01*
X5410498Y80835820D01*
X5469463Y80725506D01*
X5548815Y80628815D01*
X5645506Y80549463D01*
X5755820Y80490498D01*
X5875518Y80454188D01*
X6000000Y80441928D01*
X7214250Y80445000D01*
X7373000Y80603750D01*
X7373000Y82453000D01*
X7627000Y82453000D01*
X7627000Y80603750D01*
X7785750Y80445000D01*
X9000000Y80441928D01*
X9124482Y80454188D01*
X9244180Y80490498D01*
X9354494Y80549463D01*
X9451185Y80628815D01*
X9530537Y80725506D01*
X9589502Y80835820D01*
X9625812Y80955518D01*
X9638072Y81080000D01*
X9635199Y82215702D01*
X27654820Y82215702D01*
X27662500Y82137723D01*
X27662500Y81822014D01*
X27685470Y81588796D01*
X27776245Y81289551D01*
X27923655Y81013765D01*
X28122037Y80772037D01*
X28363766Y80573655D01*
X28639552Y80426245D01*
X28938797Y80335470D01*
X29250000Y80304819D01*
X29561204Y80335470D01*
X29860449Y80426245D01*
X30136235Y80573655D01*
X30377963Y80772037D01*
X30576345Y81013765D01*
X30620829Y81096990D01*
X30674201Y81017114D01*
X30867114Y80824201D01*
X31093957Y80672629D01*
X31346011Y80568225D01*
X31613589Y80515000D01*
X31886411Y80515000D01*
X32153989Y80568225D01*
X32406043Y80672629D01*
X32632886Y80824201D01*
X32825799Y81017114D01*
X32977371Y81243957D01*
X33000000Y81298588D01*
X33022629Y81243957D01*
X33174201Y81017114D01*
X33367114Y80824201D01*
X33593957Y80672629D01*
X33846011Y80568225D01*
X34113589Y80515000D01*
X34386411Y80515000D01*
X34653989Y80568225D01*
X34906043Y80672629D01*
X35132886Y80824201D01*
X35325799Y81017114D01*
X35477371Y81243957D01*
X35581775Y81496011D01*
X35635000Y81763589D01*
X35635000Y82036411D01*
X35581775Y82303989D01*
X35477371Y82556043D01*
X35325799Y82782886D01*
X35132886Y82975799D01*
X34906043Y83127371D01*
X34653989Y83231775D01*
X34386411Y83285000D01*
X34113589Y83285000D01*
X33846011Y83231775D01*
X33593957Y83127371D01*
X33367114Y82975799D01*
X33174201Y82782886D01*
X33022629Y82556043D01*
X33000000Y82501412D01*
X32977371Y82556043D01*
X32825799Y82782886D01*
X32632886Y82975799D01*
X32406456Y83127095D01*
X33161740Y83882379D01*
X56832500Y83882379D01*
X56832501Y79947620D01*
X56850878Y79761037D01*
X56923498Y79521641D01*
X57041426Y79301012D01*
X57200131Y79107630D01*
X57393513Y78948925D01*
X57614142Y78830997D01*
X57853538Y78758377D01*
X58102500Y78733856D01*
X58351463Y78758377D01*
X58590859Y78830997D01*
X58811488Y78948925D01*
X59004870Y79107630D01*
X59051952Y79165000D01*
X61801928Y79165000D01*
X61801928Y78315000D01*
X61814188Y78190518D01*
X61850498Y78070820D01*
X61909463Y77960506D01*
X61988815Y77863815D01*
X62085506Y77784463D01*
X62195820Y77725498D01*
X62315518Y77689188D01*
X62440000Y77676928D01*
X63290000Y77676928D01*
X63414482Y77689188D01*
X63534180Y77725498D01*
X63644494Y77784463D01*
X63741185Y77863815D01*
X63820537Y77960506D01*
X63879502Y78070820D01*
X63915812Y78190518D01*
X63928072Y78315000D01*
X63928072Y79165000D01*
X63915812Y79289482D01*
X63879502Y79409180D01*
X63820537Y79519494D01*
X63741185Y79616185D01*
X63644494Y79695537D01*
X63534180Y79754502D01*
X63414482Y79790812D01*
X63290000Y79803072D01*
X62440000Y79803072D01*
X62315518Y79790812D01*
X62195820Y79754502D01*
X62085506Y79695537D01*
X61988815Y79616185D01*
X61909463Y79519494D01*
X61850498Y79409180D01*
X61814188Y79289482D01*
X61801928Y79165000D01*
X59051952Y79165000D01*
X59163575Y79301012D01*
X59281503Y79521641D01*
X59354123Y79761037D01*
X59372500Y79947620D01*
X59372500Y80962500D01*
X61517021Y80962500D01*
X61595000Y80954820D01*
X61672979Y80962500D01*
X63422021Y80962500D01*
X63500000Y80954820D01*
X63577979Y80962500D01*
X63577986Y80962500D01*
X63811204Y80985470D01*
X64110449Y81076245D01*
X64386235Y81223655D01*
X64627963Y81422037D01*
X64677680Y81482617D01*
X65519887Y82324824D01*
X65580463Y82374537D01*
X65692003Y82510449D01*
X65778843Y82616264D01*
X65926254Y82892050D01*
X66017030Y83191294D01*
X66047680Y83502499D01*
X66017030Y83813704D01*
X66017030Y83813706D01*
X65926254Y84112950D01*
X65778843Y84388736D01*
X65630176Y84569887D01*
X65580463Y84630463D01*
X65519886Y84680177D01*
X64677677Y85522386D01*
X64627963Y85582963D01*
X64540129Y85655046D01*
X64386235Y85781344D01*
X64110449Y85928754D01*
X63811204Y86019530D01*
X63500000Y86050180D01*
X63499999Y86050180D01*
X63188794Y86019530D01*
X62889550Y85928754D01*
X62742140Y85849962D01*
X62613765Y85781344D01*
X62372037Y85582963D01*
X62322322Y85522385D01*
X60937437Y84137500D01*
X59333333Y84137500D01*
X59281503Y84308359D01*
X59163575Y84528988D01*
X59004870Y84722370D01*
X58811487Y84881075D01*
X58590858Y84999003D01*
X58351462Y85071623D01*
X58102500Y85096144D01*
X57853537Y85071623D01*
X57614141Y84999003D01*
X57393512Y84881075D01*
X57200130Y84722370D01*
X57041425Y84528987D01*
X56923497Y84308358D01*
X56850877Y84068962D01*
X56832500Y83882379D01*
X33161740Y83882379D01*
X33364861Y84085499D01*
X45335020Y84085499D01*
X45412999Y84077819D01*
X45490978Y84085499D01*
X45490985Y84085499D01*
X45724203Y84108469D01*
X46023448Y84199244D01*
X46299234Y84346654D01*
X46540962Y84545036D01*
X46590679Y84605616D01*
X48868365Y86883302D01*
X49229941Y86955224D01*
X49598013Y87107684D01*
X49929269Y87329022D01*
X50210978Y87610731D01*
X50432316Y87941987D01*
X50584776Y88310059D01*
X50662500Y88700801D01*
X50662500Y89099199D01*
X51317500Y89099199D01*
X51317500Y88700801D01*
X51395224Y88310059D01*
X51547684Y87941987D01*
X51769022Y87610731D01*
X52050731Y87329022D01*
X52381987Y87107684D01*
X52750059Y86955224D01*
X53140801Y86877500D01*
X53539199Y86877500D01*
X53929941Y86955224D01*
X54298013Y87107684D01*
X54629269Y87329022D01*
X54910978Y87610731D01*
X55132316Y87941987D01*
X55284776Y88310059D01*
X55362500Y88700801D01*
X55362500Y89099199D01*
X56017500Y89099199D01*
X56017500Y88700801D01*
X56095224Y88310059D01*
X56247684Y87941987D01*
X56469022Y87610731D01*
X56750731Y87329022D01*
X57081987Y87107684D01*
X57450059Y86955224D01*
X57840801Y86877500D01*
X58239199Y86877500D01*
X58629941Y86955224D01*
X58998013Y87107684D01*
X59304542Y87312500D01*
X64429937Y87312500D01*
X70909825Y80832611D01*
X70959537Y80772037D01*
X71201265Y80573655D01*
X71477051Y80426245D01*
X71685520Y80363007D01*
X71776295Y80335470D01*
X71805218Y80332621D01*
X72009514Y80312500D01*
X72009521Y80312500D01*
X72087500Y80304820D01*
X72165479Y80312500D01*
X72507986Y80312500D01*
X72741204Y80335470D01*
X73040449Y80426245D01*
X73316235Y80573655D01*
X73557963Y80772037D01*
X73756345Y81013765D01*
X73800829Y81096990D01*
X73854201Y81017114D01*
X74047114Y80824201D01*
X74273957Y80672629D01*
X74526011Y80568225D01*
X74793589Y80515000D01*
X75066411Y80515000D01*
X75333989Y80568225D01*
X75586043Y80672629D01*
X75812886Y80824201D01*
X76005799Y81017114D01*
X76157371Y81243957D01*
X76180000Y81298588D01*
X76202629Y81243957D01*
X76354201Y81017114D01*
X76547114Y80824201D01*
X76773957Y80672629D01*
X77026011Y80568225D01*
X77293589Y80515000D01*
X77566411Y80515000D01*
X77833989Y80568225D01*
X78086043Y80672629D01*
X78312886Y80824201D01*
X78505799Y81017114D01*
X78657371Y81243957D01*
X78761775Y81496011D01*
X78815000Y81763589D01*
X78815000Y82036411D01*
X78761775Y82303989D01*
X78657371Y82556043D01*
X78505799Y82782886D01*
X78312886Y82975799D01*
X78086043Y83127371D01*
X77833989Y83231775D01*
X77566411Y83285000D01*
X77293589Y83285000D01*
X77026011Y83231775D01*
X76773957Y83127371D01*
X76547114Y82975799D01*
X76354201Y82782886D01*
X76202629Y82556043D01*
X76180000Y82501412D01*
X76157371Y82556043D01*
X76005799Y82782886D01*
X75812886Y82975799D01*
X75586043Y83127371D01*
X75333989Y83231775D01*
X75066411Y83285000D01*
X74793589Y83285000D01*
X74526011Y83231775D01*
X74273957Y83127371D01*
X74047114Y82975799D01*
X73854201Y82782886D01*
X73800829Y82703010D01*
X73756345Y82786235D01*
X73557963Y83027963D01*
X73316235Y83226345D01*
X73040449Y83373755D01*
X72779717Y83452847D01*
X70042064Y86190500D01*
X70196862Y86190500D01*
X70720332Y86294625D01*
X71213429Y86498872D01*
X71657205Y86795394D01*
X72034606Y87172795D01*
X72331128Y87616571D01*
X72535375Y88109668D01*
X72639500Y88633138D01*
X72639500Y89166862D01*
X77220500Y89166862D01*
X77220500Y88633138D01*
X77324625Y88109668D01*
X77528872Y87616571D01*
X77825394Y87172795D01*
X78202795Y86795394D01*
X78646571Y86498872D01*
X79139668Y86294625D01*
X79663138Y86190500D01*
X80196862Y86190500D01*
X80720332Y86294625D01*
X81213429Y86498872D01*
X81657205Y86795394D01*
X82034606Y87172795D01*
X82331128Y87616571D01*
X82535375Y88109668D01*
X82639500Y88633138D01*
X82639500Y89166862D01*
X82535375Y89690332D01*
X82331128Y90183429D01*
X82034606Y90627205D01*
X81657205Y91004606D01*
X81213429Y91301128D01*
X80720332Y91505375D01*
X80196862Y91609500D01*
X79663138Y91609500D01*
X79139668Y91505375D01*
X78646571Y91301128D01*
X78202795Y91004606D01*
X77825394Y90627205D01*
X77528872Y90183429D01*
X77324625Y89690332D01*
X77220500Y89166862D01*
X72639500Y89166862D01*
X72535375Y89690332D01*
X72331128Y90183429D01*
X72034606Y90627205D01*
X71657205Y91004606D01*
X71213429Y91301128D01*
X70720332Y91505375D01*
X70196862Y91609500D01*
X69663138Y91609500D01*
X69139668Y91505375D01*
X68646571Y91301128D01*
X68202795Y91004606D01*
X67825394Y90627205D01*
X67528872Y90183429D01*
X67324625Y89690332D01*
X67220500Y89166862D01*
X67220500Y89012063D01*
X66265180Y89967383D01*
X66215463Y90027963D01*
X65973735Y90226345D01*
X65697949Y90373755D01*
X65398704Y90464530D01*
X65165486Y90487500D01*
X65165479Y90487500D01*
X65087500Y90495180D01*
X65009521Y90487500D01*
X59304542Y90487500D01*
X58998013Y90692316D01*
X58629941Y90844776D01*
X58239199Y90922500D01*
X57840801Y90922500D01*
X57450059Y90844776D01*
X57081987Y90692316D01*
X56750731Y90470978D01*
X56469022Y90189269D01*
X56247684Y89858013D01*
X56095224Y89489941D01*
X56017500Y89099199D01*
X55362500Y89099199D01*
X55284776Y89489941D01*
X55132316Y89858013D01*
X54910978Y90189269D01*
X54629269Y90470978D01*
X54298013Y90692316D01*
X53929941Y90844776D01*
X53539199Y90922500D01*
X53140801Y90922500D01*
X52750059Y90844776D01*
X52381987Y90692316D01*
X52050731Y90470978D01*
X51769022Y90189269D01*
X51547684Y89858013D01*
X51395224Y89489941D01*
X51317500Y89099199D01*
X50662500Y89099199D01*
X50584776Y89489941D01*
X50432316Y89858013D01*
X50210978Y90189269D01*
X49929269Y90470978D01*
X49598013Y90692316D01*
X49229941Y90844776D01*
X48839199Y90922500D01*
X48440801Y90922500D01*
X48050059Y90844776D01*
X47681987Y90692316D01*
X47350731Y90470978D01*
X47069022Y90189269D01*
X46847684Y89858013D01*
X46695224Y89489941D01*
X46623302Y89128365D01*
X44755436Y87260499D01*
X38913208Y87260499D01*
X39151128Y87616571D01*
X39355375Y88109668D01*
X39459500Y88633138D01*
X39459500Y89166862D01*
X39355375Y89690332D01*
X39151128Y90183429D01*
X38854606Y90627205D01*
X38477205Y91004606D01*
X38033429Y91301128D01*
X37540332Y91505375D01*
X37016862Y91609500D01*
X36483138Y91609500D01*
X35959668Y91505375D01*
X35466571Y91301128D01*
X35022795Y91004606D01*
X34645394Y90627205D01*
X34348872Y90183429D01*
X34144625Y89690332D01*
X34040500Y89166862D01*
X34040500Y88633138D01*
X34144625Y88109668D01*
X34348872Y87616571D01*
X34586792Y87260499D01*
X32785275Y87260499D01*
X32707296Y87268179D01*
X32629317Y87260499D01*
X32629311Y87260499D01*
X32427979Y87240669D01*
X32396092Y87237529D01*
X32305317Y87209992D01*
X32096848Y87146754D01*
X31821062Y86999344D01*
X31579334Y86800962D01*
X31529622Y86740388D01*
X28182617Y83393382D01*
X28122037Y83343665D01*
X27923655Y83101936D01*
X27776245Y82826150D01*
X27737542Y82698563D01*
X27685470Y82526906D01*
X27682330Y82495019D01*
X27662500Y82293687D01*
X27662500Y82293681D01*
X27654820Y82215702D01*
X9635199Y82215702D01*
X9635000Y82294250D01*
X9476250Y82453000D01*
X7627000Y82453000D01*
X7373000Y82453000D01*
X5523750Y82453000D01*
X5365000Y82294250D01*
X5361928Y81080000D01*
X1397000Y81080000D01*
X1397000Y84080000D01*
X5361928Y84080000D01*
X5365000Y82865750D01*
X5523750Y82707000D01*
X7373000Y82707000D01*
X7373000Y84556250D01*
X7627000Y84556250D01*
X7627000Y82707000D01*
X9476250Y82707000D01*
X9635000Y82865750D01*
X9638072Y84080000D01*
X9625812Y84204482D01*
X9589502Y84324180D01*
X9530537Y84434494D01*
X9451185Y84531185D01*
X9354494Y84610537D01*
X9244180Y84669502D01*
X9124482Y84705812D01*
X9000000Y84718072D01*
X7785750Y84715000D01*
X7627000Y84556250D01*
X7373000Y84556250D01*
X7214250Y84715000D01*
X6000000Y84718072D01*
X5875518Y84705812D01*
X5755820Y84669502D01*
X5645506Y84610537D01*
X5548815Y84531185D01*
X5469463Y84434494D01*
X5410498Y84324180D01*
X5374188Y84204482D01*
X5361928Y84080000D01*
X1397000Y84080000D01*
X1397000Y88500000D01*
X5361928Y88500000D01*
X5374188Y88375518D01*
X5410498Y88255820D01*
X5469463Y88145506D01*
X5548815Y88048815D01*
X5645506Y87969463D01*
X5755820Y87910498D01*
X5875518Y87874188D01*
X6000000Y87861928D01*
X7214250Y87865000D01*
X7373000Y88023750D01*
X7373000Y89873000D01*
X7627000Y89873000D01*
X7627000Y88023750D01*
X7785750Y87865000D01*
X9000000Y87861928D01*
X9124482Y87874188D01*
X9244180Y87910498D01*
X9354494Y87969463D01*
X9451185Y88048815D01*
X9530537Y88145506D01*
X9589502Y88255820D01*
X9625812Y88375518D01*
X9638072Y88500000D01*
X9636385Y89166862D01*
X24040500Y89166862D01*
X24040500Y88633138D01*
X24144625Y88109668D01*
X24348872Y87616571D01*
X24645394Y87172795D01*
X25022795Y86795394D01*
X25466571Y86498872D01*
X25959668Y86294625D01*
X26483138Y86190500D01*
X27016862Y86190500D01*
X27540332Y86294625D01*
X28033429Y86498872D01*
X28477205Y86795394D01*
X28854606Y87172795D01*
X29151128Y87616571D01*
X29355375Y88109668D01*
X29459500Y88633138D01*
X29459500Y89166862D01*
X29355375Y89690332D01*
X29151128Y90183429D01*
X28854606Y90627205D01*
X28477205Y91004606D01*
X28033429Y91301128D01*
X27540332Y91505375D01*
X27016862Y91609500D01*
X26483138Y91609500D01*
X25959668Y91505375D01*
X25466571Y91301128D01*
X25022795Y91004606D01*
X24645394Y90627205D01*
X24348872Y90183429D01*
X24144625Y89690332D01*
X24040500Y89166862D01*
X9636385Y89166862D01*
X9635000Y89714250D01*
X9476250Y89873000D01*
X7627000Y89873000D01*
X7373000Y89873000D01*
X5523750Y89873000D01*
X5365000Y89714250D01*
X5361928Y88500000D01*
X1397000Y88500000D01*
X1397000Y91500000D01*
X5361928Y91500000D01*
X5365000Y90285750D01*
X5523750Y90127000D01*
X7373000Y90127000D01*
X7373000Y91976250D01*
X7627000Y91976250D01*
X7627000Y90127000D01*
X9476250Y90127000D01*
X9635000Y90285750D01*
X9638072Y91500000D01*
X9625812Y91624482D01*
X9589502Y91744180D01*
X9530537Y91854494D01*
X9451185Y91951185D01*
X9354494Y92030537D01*
X9244180Y92089502D01*
X9124482Y92125812D01*
X9000000Y92138072D01*
X7785750Y92135000D01*
X7627000Y91976250D01*
X7373000Y91976250D01*
X7214250Y92135000D01*
X6000000Y92138072D01*
X5875518Y92125812D01*
X5755820Y92089502D01*
X5645506Y92030537D01*
X5548815Y91951185D01*
X5469463Y91854494D01*
X5410498Y91744180D01*
X5374188Y91624482D01*
X5361928Y91500000D01*
X1397000Y91500000D01*
X1397000Y95290279D01*
X5365000Y95290279D01*
X5365000Y94869721D01*
X5447047Y94457244D01*
X5607988Y94068698D01*
X5841637Y93719017D01*
X6139017Y93421637D01*
X6488698Y93187988D01*
X6877244Y93027047D01*
X7289721Y92945000D01*
X7710279Y92945000D01*
X8122756Y93027047D01*
X8511302Y93187988D01*
X8860983Y93421637D01*
X9158363Y93719017D01*
X9392012Y94068698D01*
X9552953Y94457244D01*
X9635000Y94869721D01*
X9635000Y95290279D01*
X9552953Y95702756D01*
X9392012Y96091302D01*
X9158363Y96440983D01*
X8860983Y96738363D01*
X8511302Y96972012D01*
X8122756Y97132953D01*
X7710279Y97215000D01*
X7289721Y97215000D01*
X6877244Y97132953D01*
X6488698Y96972012D01*
X6139017Y96738363D01*
X5841637Y96440983D01*
X5607988Y96091302D01*
X5447047Y95702756D01*
X5365000Y95290279D01*
X1397000Y95290279D01*
X1397000Y98372394D01*
X1957606Y98933000D01*
X98372394Y98933000D01*
X98933000Y98372394D01*
G37*
X98933000Y98372394D02*
X98933000Y1957606D01*
X98372394Y1397000D01*
X1957606Y1397000D01*
X1397000Y1957606D01*
X1397000Y9485610D01*
X73806024Y9485610D01*
X73850675Y9338401D01*
X73975859Y9075580D01*
X74149912Y8842231D01*
X74366145Y8647322D01*
X74616248Y8498343D01*
X74890609Y8401019D01*
X75120500Y8521686D01*
X75120500Y9715500D01*
X75374500Y9715500D01*
X75374500Y8521686D01*
X75604391Y8401019D01*
X75878752Y8498343D01*
X76128855Y8647322D01*
X76345088Y8842231D01*
X76519141Y9075580D01*
X76644325Y9338401D01*
X76688976Y9485610D01*
X84918524Y9485610D01*
X84963175Y9338401D01*
X85088359Y9075580D01*
X85262412Y8842231D01*
X85478645Y8647322D01*
X85728748Y8498343D01*
X86003109Y8401019D01*
X86233000Y8521686D01*
X86233000Y9715500D01*
X86487000Y9715500D01*
X86487000Y8521686D01*
X86716891Y8401019D01*
X86991252Y8498343D01*
X87241355Y8647322D01*
X87457588Y8842231D01*
X87631641Y9075580D01*
X87756825Y9338401D01*
X87801476Y9485610D01*
X87680155Y9715500D01*
X86487000Y9715500D01*
X86233000Y9715500D01*
X85039845Y9715500D01*
X84918524Y9485610D01*
X76688976Y9485610D01*
X76567655Y9715500D01*
X75374500Y9715500D01*
X75120500Y9715500D01*
X73927345Y9715500D01*
X73806024Y9485610D01*
X1397000Y9485610D01*
X1397000Y13232500D01*
X73759428Y13232500D01*
X73759428Y11532500D01*
X73771688Y11408018D01*
X73807998Y11288320D01*
X73866963Y11178006D01*
X73946315Y11081315D01*
X74043006Y11001963D01*
X74153320Y10942998D01*
X74233966Y10918534D01*
X74149912Y10842769D01*
X73975859Y10609420D01*
X73850675Y10346599D01*
X73806024Y10199390D01*
X73927345Y9969500D01*
X75120500Y9969500D01*
X75120500Y9989500D01*
X75374500Y9989500D01*
X75374500Y9969500D01*
X76567655Y9969500D01*
X76688976Y10199390D01*
X76644325Y10346599D01*
X76519141Y10609420D01*
X76345088Y10842769D01*
X76261034Y10918534D01*
X76341680Y10942998D01*
X76451994Y11001963D01*
X76548685Y11081315D01*
X76628037Y11178006D01*
X76687002Y11288320D01*
X76723312Y11408018D01*
X76735572Y11532500D01*
X76735572Y13232500D01*
X84871928Y13232500D01*
X84871928Y11532500D01*
X84884188Y11408018D01*
X84920498Y11288320D01*
X84979463Y11178006D01*
X85058815Y11081315D01*
X85155506Y11001963D01*
X85265820Y10942998D01*
X85346466Y10918534D01*
X85262412Y10842769D01*
X85088359Y10609420D01*
X84963175Y10346599D01*
X84918524Y10199390D01*
X85039845Y9969500D01*
X86233000Y9969500D01*
X86233000Y9989500D01*
X86487000Y9989500D01*
X86487000Y9969500D01*
X87680155Y9969500D01*
X87801476Y10199390D01*
X87756825Y10346599D01*
X87631641Y10609420D01*
X87457588Y10842769D01*
X87373534Y10918534D01*
X87454180Y10942998D01*
X87564494Y11001963D01*
X87661185Y11081315D01*
X87740537Y11178006D01*
X87799502Y11288320D01*
X87835812Y11408018D01*
X87848072Y11532500D01*
X87848072Y13232500D01*
X87835812Y13356982D01*
X87799502Y13476680D01*
X87740537Y13586994D01*
X87661185Y13683685D01*
X87564494Y13763037D01*
X87454180Y13822002D01*
X87334482Y13858312D01*
X87210000Y13870572D01*
X85510000Y13870572D01*
X85385518Y13858312D01*
X85265820Y13822002D01*
X85155506Y13763037D01*
X85058815Y13683685D01*
X84979463Y13586994D01*
X84920498Y13476680D01*
X84884188Y13356982D01*
X84871928Y13232500D01*
X76735572Y13232500D01*
X76723312Y13356982D01*
X76687002Y13476680D01*
X76628037Y13586994D01*
X76548685Y13683685D01*
X76451994Y13763037D01*
X76341680Y13822002D01*
X76221982Y13858312D01*
X76097500Y13870572D01*
X74397500Y13870572D01*
X74273018Y13858312D01*
X74153320Y13822002D01*
X74043006Y13763037D01*
X73946315Y13683685D01*
X73866963Y13586994D01*
X73807998Y13476680D01*
X73771688Y13356982D01*
X73759428Y13232500D01*
X1397000Y13232500D01*
X1397000Y24090610D01*
X73806024Y24090610D01*
X73850675Y23943401D01*
X73975859Y23680580D01*
X74149912Y23447231D01*
X74366145Y23252322D01*
X74616248Y23103343D01*
X74890609Y23006019D01*
X75120500Y23126686D01*
X75120500Y24320500D01*
X75374500Y24320500D01*
X75374500Y23126686D01*
X75604391Y23006019D01*
X75878752Y23103343D01*
X76128855Y23252322D01*
X76345088Y23447231D01*
X76519141Y23680580D01*
X76644325Y23943401D01*
X76688976Y24090610D01*
X84918524Y24090610D01*
X84963175Y23943401D01*
X85088359Y23680580D01*
X85262412Y23447231D01*
X85478645Y23252322D01*
X85728748Y23103343D01*
X86003109Y23006019D01*
X86233000Y23126686D01*
X86233000Y24320500D01*
X86487000Y24320500D01*
X86487000Y23126686D01*
X86716891Y23006019D01*
X86991252Y23103343D01*
X87241355Y23252322D01*
X87457588Y23447231D01*
X87631641Y23680580D01*
X87756825Y23943401D01*
X87801476Y24090610D01*
X87680155Y24320500D01*
X86487000Y24320500D01*
X86233000Y24320500D01*
X85039845Y24320500D01*
X84918524Y24090610D01*
X76688976Y24090610D01*
X76567655Y24320500D01*
X75374500Y24320500D01*
X75120500Y24320500D01*
X73927345Y24320500D01*
X73806024Y24090610D01*
X1397000Y24090610D01*
X1397000Y27837500D01*
X73759428Y27837500D01*
X73759428Y26137500D01*
X73771688Y26013018D01*
X73807998Y25893320D01*
X73866963Y25783006D01*
X73946315Y25686315D01*
X74043006Y25606963D01*
X74153320Y25547998D01*
X74233966Y25523534D01*
X74149912Y25447769D01*
X73975859Y25214420D01*
X73850675Y24951599D01*
X73806024Y24804390D01*
X73927345Y24574500D01*
X75120500Y24574500D01*
X75120500Y24594500D01*
X75374500Y24594500D01*
X75374500Y24574500D01*
X76567655Y24574500D01*
X76688976Y24804390D01*
X76644325Y24951599D01*
X76519141Y25214420D01*
X76345088Y25447769D01*
X76261034Y25523534D01*
X76341680Y25547998D01*
X76451994Y25606963D01*
X76548685Y25686315D01*
X76628037Y25783006D01*
X76687002Y25893320D01*
X76723312Y26013018D01*
X76735572Y26137500D01*
X76735572Y27837500D01*
X84871928Y27837500D01*
X84871928Y26137500D01*
X84884188Y26013018D01*
X84920498Y25893320D01*
X84979463Y25783006D01*
X85058815Y25686315D01*
X85155506Y25606963D01*
X85265820Y25547998D01*
X85346466Y25523534D01*
X85262412Y25447769D01*
X85088359Y25214420D01*
X84963175Y24951599D01*
X84918524Y24804390D01*
X85039845Y24574500D01*
X86233000Y24574500D01*
X86233000Y24594500D01*
X86487000Y24594500D01*
X86487000Y24574500D01*
X87680155Y24574500D01*
X87801476Y24804390D01*
X87756825Y24951599D01*
X87631641Y25214420D01*
X87457588Y25447769D01*
X87373534Y25523534D01*
X87454180Y25547998D01*
X87564494Y25606963D01*
X87661185Y25686315D01*
X87740537Y25783006D01*
X87799502Y25893320D01*
X87835812Y26013018D01*
X87848072Y26137500D01*
X87848072Y27837500D01*
X87835812Y27961982D01*
X87799502Y28081680D01*
X87740537Y28191994D01*
X87661185Y28288685D01*
X87564494Y28368037D01*
X87454180Y28427002D01*
X87334482Y28463312D01*
X87210000Y28475572D01*
X85510000Y28475572D01*
X85385518Y28463312D01*
X85265820Y28427002D01*
X85155506Y28368037D01*
X85058815Y28288685D01*
X84979463Y28191994D01*
X84920498Y28081680D01*
X84884188Y27961982D01*
X84871928Y27837500D01*
X76735572Y27837500D01*
X76723312Y27961982D01*
X76687002Y28081680D01*
X76628037Y28191994D01*
X76548685Y28288685D01*
X76451994Y28368037D01*
X76341680Y28427002D01*
X76221982Y28463312D01*
X76097500Y28475572D01*
X74397500Y28475572D01*
X74273018Y28463312D01*
X74153320Y28427002D01*
X74043006Y28368037D01*
X73946315Y28288685D01*
X73866963Y28191994D01*
X73807998Y28081680D01*
X73771688Y27961982D01*
X73759428Y27837500D01*
X1397000Y27837500D01*
X1397000Y31730000D01*
X29844428Y31730000D01*
X29844428Y29230000D01*
X29856688Y29105518D01*
X29892998Y28985820D01*
X29951963Y28875506D01*
X30031315Y28778815D01*
X30128006Y28699463D01*
X30238320Y28640498D01*
X30358018Y28604188D01*
X30482500Y28591928D01*
X32382500Y28591928D01*
X32506982Y28604188D01*
X32626680Y28640498D01*
X32736994Y28699463D01*
X32833685Y28778815D01*
X32913037Y28875506D01*
X32972002Y28985820D01*
X33008312Y29105518D01*
X33020572Y29230000D01*
X33020572Y31730000D01*
X33008312Y31854482D01*
X32972002Y31974180D01*
X32913037Y32084494D01*
X32833685Y32181185D01*
X32736994Y32260537D01*
X32626680Y32319502D01*
X32506982Y32355812D01*
X32382500Y32368072D01*
X30482500Y32368072D01*
X30358018Y32355812D01*
X30238320Y32319502D01*
X30128006Y32260537D01*
X30031315Y32181185D01*
X29951963Y32084494D01*
X29892998Y31974180D01*
X29856688Y31854482D01*
X29844428Y31730000D01*
X1397000Y31730000D01*
X1397000Y39954362D01*
X13563000Y39954362D01*
X13563000Y39420638D01*
X13667125Y38897168D01*
X13871372Y38404071D01*
X14167894Y37960295D01*
X14545295Y37582894D01*
X14989071Y37286372D01*
X15482168Y37082125D01*
X16005638Y36978000D01*
X16539362Y36978000D01*
X17062832Y37082125D01*
X17555929Y37286372D01*
X17999705Y37582894D01*
X18377106Y37960295D01*
X18673628Y38404071D01*
X18877875Y38897168D01*
X18982000Y39420638D01*
X18982000Y39954362D01*
X23563000Y39954362D01*
X23563000Y39420638D01*
X23667125Y38897168D01*
X23871372Y38404071D01*
X24167894Y37960295D01*
X24545295Y37582894D01*
X24989071Y37286372D01*
X25482168Y37082125D01*
X26005638Y36978000D01*
X26539362Y36978000D01*
X27062832Y37082125D01*
X27555929Y37286372D01*
X27999705Y37582894D01*
X28377106Y37960295D01*
X28673628Y38404071D01*
X28877875Y38897168D01*
X28982000Y39420638D01*
X28982000Y39954362D01*
X33883000Y39954362D01*
X33883000Y39420638D01*
X33987125Y38897168D01*
X34191372Y38404071D01*
X34487894Y37960295D01*
X34865295Y37582894D01*
X35309071Y37286372D01*
X35802168Y37082125D01*
X36325638Y36978000D01*
X36859362Y36978000D01*
X37382832Y37082125D01*
X37875929Y37286372D01*
X38319705Y37582894D01*
X38697106Y37960295D01*
X38993628Y38404071D01*
X39197875Y38897168D01*
X39302000Y39420638D01*
X39302000Y39954362D01*
X39197875Y40477832D01*
X38993628Y40970929D01*
X38697106Y41414705D01*
X38319705Y41792106D01*
X37875929Y42088628D01*
X37382832Y42292875D01*
X36859362Y42397000D01*
X36325638Y42397000D01*
X35802168Y42292875D01*
X35309071Y42088628D01*
X34865295Y41792106D01*
X34487894Y41414705D01*
X34191372Y40970929D01*
X33987125Y40477832D01*
X33883000Y39954362D01*
X28982000Y39954362D01*
X28877875Y40477832D01*
X28673628Y40970929D01*
X28377106Y41414705D01*
X27999705Y41792106D01*
X27555929Y42088628D01*
X27062832Y42292875D01*
X26539362Y42397000D01*
X26005638Y42397000D01*
X25482168Y42292875D01*
X24989071Y42088628D01*
X24545295Y41792106D01*
X24167894Y41414705D01*
X23871372Y40970929D01*
X23667125Y40477832D01*
X23563000Y39954362D01*
X18982000Y39954362D01*
X18877875Y40477832D01*
X18673628Y40970929D01*
X18377106Y41414705D01*
X17999705Y41792106D01*
X17555929Y42088628D01*
X17062832Y42292875D01*
X16539362Y42397000D01*
X16005638Y42397000D01*
X15482168Y42292875D01*
X14989071Y42088628D01*
X14545295Y41792106D01*
X14167894Y41414705D01*
X13871372Y40970929D01*
X13667125Y40477832D01*
X13563000Y39954362D01*
X1397000Y39954362D01*
X1397000Y45730507D01*
X17995112Y45730507D01*
X18060637Y45491640D01*
X18307616Y45375740D01*
X18572460Y45310250D01*
X18844992Y45297688D01*
X19114738Y45338535D01*
X19371332Y45431223D01*
X19484363Y45491640D01*
X19549888Y45730507D01*
X18772500Y46507895D01*
X17995112Y45730507D01*
X1397000Y45730507D01*
X1397000Y46615008D01*
X17382688Y46615008D01*
X17423535Y46345262D01*
X17516223Y46088668D01*
X17576640Y45975637D01*
X17815507Y45910112D01*
X18592895Y46687500D01*
X18952105Y46687500D01*
X19729493Y45910112D01*
X19968360Y45975637D01*
X20021418Y46088701D01*
X20045129Y46031457D01*
X20196701Y45804614D01*
X20389614Y45611701D01*
X20616457Y45460129D01*
X20868511Y45355725D01*
X21136089Y45302500D01*
X21408911Y45302500D01*
X21676489Y45355725D01*
X21928543Y45460129D01*
X22155386Y45611701D01*
X22348299Y45804614D01*
X22499871Y46031457D01*
X22522500Y46086088D01*
X22545129Y46031457D01*
X22696701Y45804614D01*
X22889614Y45611701D01*
X23116457Y45460129D01*
X23368511Y45355725D01*
X23636089Y45302500D01*
X23908911Y45302500D01*
X24176489Y45355725D01*
X24428543Y45460129D01*
X24655386Y45611701D01*
X24774192Y45730507D01*
X38315112Y45730507D01*
X38380637Y45491640D01*
X38627616Y45375740D01*
X38892460Y45310250D01*
X39164992Y45297688D01*
X39434738Y45338535D01*
X39691332Y45431223D01*
X39804363Y45491640D01*
X39869888Y45730507D01*
X39092500Y46507895D01*
X38315112Y45730507D01*
X24774192Y45730507D01*
X24848299Y45804614D01*
X24999871Y46031457D01*
X25104275Y46283511D01*
X25157500Y46551089D01*
X25157500Y46615008D01*
X37702688Y46615008D01*
X37743535Y46345262D01*
X37836223Y46088668D01*
X37896640Y45975637D01*
X38135507Y45910112D01*
X38912895Y46687500D01*
X39272105Y46687500D01*
X40049493Y45910112D01*
X40288360Y45975637D01*
X40341418Y46088701D01*
X40365129Y46031457D01*
X40516701Y45804614D01*
X40709614Y45611701D01*
X40936457Y45460129D01*
X41188511Y45355725D01*
X41456089Y45302500D01*
X41720265Y45302500D01*
X44355191Y42667573D01*
X44383026Y42633656D01*
X44518394Y42522562D01*
X44672834Y42440012D01*
X44738743Y42420019D01*
X44840409Y42389179D01*
X44873609Y42385909D01*
X44971018Y42376315D01*
X44971024Y42376315D01*
X45014684Y42372015D01*
X45058344Y42376315D01*
X46221648Y42376315D01*
X45802168Y42292875D01*
X45309071Y42088628D01*
X44865295Y41792106D01*
X44487894Y41414705D01*
X44191372Y40970929D01*
X43987125Y40477832D01*
X43883000Y39954362D01*
X43883000Y39420638D01*
X43987125Y38897168D01*
X44191372Y38404071D01*
X44487894Y37960295D01*
X44865295Y37582894D01*
X45309071Y37286372D01*
X45802168Y37082125D01*
X46325638Y36978000D01*
X46859362Y36978000D01*
X47382832Y37082125D01*
X47875929Y37286372D01*
X48319705Y37582894D01*
X48697106Y37960295D01*
X48993628Y38404071D01*
X49197875Y38897168D01*
X49302000Y39420638D01*
X49302000Y39954362D01*
X49197875Y40477832D01*
X48993628Y40970929D01*
X48697106Y41414705D01*
X48319705Y41792106D01*
X47875929Y42088628D01*
X47382832Y42292875D01*
X46963352Y42376315D01*
X52257851Y42376315D01*
X52300063Y42348110D01*
X52488421Y42270089D01*
X52688380Y42230315D01*
X52892258Y42230315D01*
X53092217Y42270089D01*
X53280575Y42348110D01*
X53450093Y42461378D01*
X53594256Y42605541D01*
X53707524Y42775059D01*
X53785545Y42963417D01*
X53825319Y43163376D01*
X53825319Y43367254D01*
X53785545Y43567213D01*
X53709832Y43750000D01*
X69211928Y43750000D01*
X69211928Y41250000D01*
X69224188Y41125518D01*
X69260498Y41005820D01*
X69319463Y40895506D01*
X69398815Y40798815D01*
X69495506Y40719463D01*
X69605820Y40660498D01*
X69725518Y40624188D01*
X69850000Y40611928D01*
X71750000Y40611928D01*
X71874482Y40624188D01*
X71994180Y40660498D01*
X72104494Y40719463D01*
X72201185Y40798815D01*
X72280537Y40895506D01*
X72339502Y41005820D01*
X72375812Y41125518D01*
X72388072Y41250000D01*
X72388072Y43750000D01*
X72375812Y43874482D01*
X72339502Y43994180D01*
X72280537Y44104494D01*
X72201185Y44201185D01*
X72104494Y44280537D01*
X71994180Y44339502D01*
X71874482Y44375812D01*
X71750000Y44388072D01*
X69850000Y44388072D01*
X69725518Y44375812D01*
X69605820Y44339502D01*
X69495506Y44280537D01*
X69398815Y44201185D01*
X69319463Y44104494D01*
X69260498Y43994180D01*
X69224188Y43874482D01*
X69211928Y43750000D01*
X53709832Y43750000D01*
X53707524Y43755571D01*
X53594256Y43925089D01*
X53450093Y44069252D01*
X53280575Y44182520D01*
X53092217Y44260541D01*
X52892258Y44300315D01*
X52688380Y44300315D01*
X52488421Y44260541D01*
X52300063Y44182520D01*
X52257851Y44154315D01*
X45382921Y44154315D01*
X44233769Y45303466D01*
X44496489Y45355725D01*
X44748543Y45460129D01*
X44975386Y45611701D01*
X45168299Y45804614D01*
X45319871Y46031457D01*
X45424275Y46283511D01*
X45477500Y46551089D01*
X45477500Y46823911D01*
X45424275Y47091489D01*
X45319871Y47343543D01*
X45168299Y47570386D01*
X44975386Y47763299D01*
X44748543Y47914871D01*
X44496489Y48019275D01*
X44228911Y48072500D01*
X43964735Y48072500D01*
X43547998Y48489237D01*
X43520158Y48523160D01*
X43384790Y48634254D01*
X43230350Y48716804D01*
X43062773Y48767637D01*
X42932166Y48780501D01*
X42932159Y48780501D01*
X42888499Y48784801D01*
X42844839Y48780501D01*
X42423407Y48780501D01*
X42476185Y48823815D01*
X42555537Y48920506D01*
X42614502Y49030820D01*
X42650812Y49150518D01*
X42663072Y49275000D01*
X42663072Y50125000D01*
X43036928Y50125000D01*
X43036928Y49275000D01*
X43049188Y49150518D01*
X43085498Y49030820D01*
X43144463Y48920506D01*
X43223815Y48823815D01*
X43320506Y48744463D01*
X43430820Y48685498D01*
X43550518Y48649188D01*
X43675000Y48636928D01*
X44525000Y48636928D01*
X44649482Y48649188D01*
X44769180Y48685498D01*
X44879494Y48744463D01*
X44976185Y48823815D01*
X45055537Y48920506D01*
X45114502Y49030820D01*
X45150812Y49150518D01*
X45163072Y49275000D01*
X45163072Y50125000D01*
X45150812Y50249482D01*
X45114502Y50369180D01*
X45055537Y50479494D01*
X44976185Y50576185D01*
X44879494Y50655537D01*
X44769180Y50714502D01*
X44649482Y50750812D01*
X44525000Y50763072D01*
X43675000Y50763072D01*
X43550518Y50750812D01*
X43430820Y50714502D01*
X43320506Y50655537D01*
X43223815Y50576185D01*
X43144463Y50479494D01*
X43085498Y50369180D01*
X43049188Y50249482D01*
X43036928Y50125000D01*
X42663072Y50125000D01*
X42650812Y50249482D01*
X42614502Y50369180D01*
X42555537Y50479494D01*
X42476185Y50576185D01*
X42379494Y50655537D01*
X42269180Y50714502D01*
X42149482Y50750812D01*
X42025000Y50763072D01*
X41211500Y50763072D01*
X41211500Y55030032D01*
X41239705Y55072244D01*
X41317726Y55260602D01*
X41357500Y55460561D01*
X41357500Y55664439D01*
X41317726Y55864398D01*
X41239705Y56052756D01*
X41126437Y56222274D01*
X40982274Y56366437D01*
X40812756Y56479705D01*
X40624398Y56557726D01*
X40424439Y56597500D01*
X40220561Y56597500D01*
X40020602Y56557726D01*
X39832244Y56479705D01*
X39662726Y56366437D01*
X39518563Y56222274D01*
X39405295Y56052756D01*
X39327274Y55864398D01*
X39287500Y55664439D01*
X39287500Y55460561D01*
X39327274Y55260602D01*
X39405295Y55072244D01*
X39433500Y55030032D01*
X39433501Y49353968D01*
X39429200Y49310298D01*
X39446364Y49136024D01*
X39497198Y48968446D01*
X39579748Y48814007D01*
X39659522Y48716803D01*
X39690842Y48678639D01*
X39724759Y48650804D01*
X40660939Y47714624D01*
X40516701Y47570386D01*
X40365129Y47343543D01*
X40344639Y47294074D01*
X40288360Y47399363D01*
X40049493Y47464888D01*
X39272105Y46687500D01*
X38912895Y46687500D01*
X38135507Y47464888D01*
X37896640Y47399363D01*
X37780740Y47152384D01*
X37715250Y46887540D01*
X37702688Y46615008D01*
X25157500Y46615008D01*
X25157500Y46823911D01*
X25104275Y47091489D01*
X24999871Y47343543D01*
X24848299Y47570386D01*
X24774192Y47644493D01*
X38315112Y47644493D01*
X39092500Y46867105D01*
X39869888Y47644493D01*
X39804363Y47883360D01*
X39557384Y47999260D01*
X39292540Y48064750D01*
X39020008Y48077312D01*
X38750262Y48036465D01*
X38493668Y47943777D01*
X38380637Y47883360D01*
X38315112Y47644493D01*
X24774192Y47644493D01*
X24655386Y47763299D01*
X24428543Y47914871D01*
X24176489Y48019275D01*
X23908911Y48072500D01*
X23636089Y48072500D01*
X23368511Y48019275D01*
X23116457Y47914871D01*
X22889614Y47763299D01*
X22696701Y47570386D01*
X22545129Y47343543D01*
X22522500Y47288912D01*
X22499871Y47343543D01*
X22348299Y47570386D01*
X22155386Y47763299D01*
X21928543Y47914871D01*
X21676489Y48019275D01*
X21408911Y48072500D01*
X21136089Y48072500D01*
X20868511Y48019275D01*
X20616457Y47914871D01*
X20389614Y47763299D01*
X20196701Y47570386D01*
X20045129Y47343543D01*
X20024639Y47294074D01*
X19968360Y47399363D01*
X19729493Y47464888D01*
X18952105Y46687500D01*
X18592895Y46687500D01*
X17815507Y47464888D01*
X17576640Y47399363D01*
X17460740Y47152384D01*
X17395250Y46887540D01*
X17382688Y46615008D01*
X1397000Y46615008D01*
X1397000Y47644493D01*
X17995112Y47644493D01*
X18772500Y46867105D01*
X19549888Y47644493D01*
X19484363Y47883360D01*
X19237384Y47999260D01*
X18972540Y48064750D01*
X18700008Y48077312D01*
X18430262Y48036465D01*
X18173668Y47943777D01*
X18060637Y47883360D01*
X17995112Y47644493D01*
X1397000Y47644493D01*
X1397000Y49955000D01*
X20209428Y49955000D01*
X20209428Y49105000D01*
X20221688Y48980518D01*
X20257998Y48860820D01*
X20316963Y48750506D01*
X20396315Y48653815D01*
X20493006Y48574463D01*
X20603320Y48515498D01*
X20723018Y48479188D01*
X20847500Y48466928D01*
X21697500Y48466928D01*
X21821982Y48479188D01*
X21941680Y48515498D01*
X22051994Y48574463D01*
X22148685Y48653815D01*
X22228037Y48750506D01*
X22287002Y48860820D01*
X22323312Y48980518D01*
X22335572Y49105000D01*
X22335572Y49955000D01*
X22323312Y50079482D01*
X22287002Y50199180D01*
X22228037Y50309494D01*
X22148685Y50406185D01*
X22051994Y50485537D01*
X21941680Y50544502D01*
X21821982Y50580812D01*
X21697500Y50593072D01*
X20847500Y50593072D01*
X20723018Y50580812D01*
X20603320Y50544502D01*
X20493006Y50485537D01*
X20396315Y50406185D01*
X20316963Y50309494D01*
X20257998Y50199180D01*
X20221688Y50079482D01*
X20209428Y49955000D01*
X1397000Y49955000D01*
X1397000Y63881000D01*
X26539928Y63881000D01*
X26539928Y63119000D01*
X26559509Y62920189D01*
X26617500Y62729018D01*
X26711673Y62552834D01*
X26838407Y62398407D01*
X26992834Y62271673D01*
X27169018Y62177500D01*
X27360189Y62119509D01*
X27559000Y62099928D01*
X28321000Y62099928D01*
X28519811Y62119509D01*
X28710982Y62177500D01*
X28887166Y62271673D01*
X29041593Y62398407D01*
X29168327Y62552834D01*
X29262500Y62729018D01*
X29320491Y62920189D01*
X29340072Y63119000D01*
X29340072Y63881000D01*
X29320491Y64079811D01*
X29262500Y64270982D01*
X29168327Y64447166D01*
X29041593Y64601593D01*
X28887166Y64728327D01*
X28710982Y64822500D01*
X28656946Y64838892D01*
X28830535Y64954880D01*
X29025120Y65149465D01*
X29178005Y65378273D01*
X29283314Y65632510D01*
X29337000Y65902408D01*
X29337000Y66177592D01*
X29283314Y66447490D01*
X29178005Y66701727D01*
X29025120Y66930535D01*
X28830535Y67125120D01*
X28601727Y67278005D01*
X28524485Y67310000D01*
X28601727Y67341995D01*
X28830535Y67494880D01*
X29025120Y67689465D01*
X29178005Y67918273D01*
X29283314Y68172510D01*
X29337000Y68442408D01*
X29337000Y68717592D01*
X29283314Y68987490D01*
X29178005Y69241727D01*
X29025120Y69470535D01*
X28830535Y69665120D01*
X28601727Y69818005D01*
X28524485Y69850000D01*
X28601727Y69881995D01*
X28830535Y70034880D01*
X29025120Y70229465D01*
X29178005Y70458273D01*
X29283314Y70712510D01*
X29337000Y70982408D01*
X29337000Y71257592D01*
X29283314Y71527490D01*
X29178005Y71781727D01*
X29025120Y72010535D01*
X28830535Y72205120D01*
X28601727Y72358005D01*
X28347490Y72463314D01*
X28077592Y72517000D01*
X27802408Y72517000D01*
X27532510Y72463314D01*
X27278273Y72358005D01*
X27049465Y72205120D01*
X26854880Y72010535D01*
X26701995Y71781727D01*
X26596686Y71527490D01*
X26543000Y71257592D01*
X26543000Y70982408D01*
X26596686Y70712510D01*
X26701995Y70458273D01*
X26854880Y70229465D01*
X27049465Y70034880D01*
X27278273Y69881995D01*
X27355515Y69850000D01*
X27278273Y69818005D01*
X27049465Y69665120D01*
X26854880Y69470535D01*
X26701995Y69241727D01*
X26596686Y68987490D01*
X26543000Y68717592D01*
X26543000Y68442408D01*
X26596686Y68172510D01*
X26701995Y67918273D01*
X26854880Y67689465D01*
X27049465Y67494880D01*
X27278273Y67341995D01*
X27355515Y67310000D01*
X27278273Y67278005D01*
X27049465Y67125120D01*
X26854880Y66930535D01*
X26701995Y66701727D01*
X26596686Y66447490D01*
X26543000Y66177592D01*
X26543000Y65902408D01*
X26596686Y65632510D01*
X26701995Y65378273D01*
X26854880Y65149465D01*
X27049465Y64954880D01*
X27223054Y64838892D01*
X27169018Y64822500D01*
X26992834Y64728327D01*
X26838407Y64601593D01*
X26711673Y64447166D01*
X26617500Y64270982D01*
X26559509Y64079811D01*
X26539928Y63881000D01*
X1397000Y63881000D01*
X1397000Y74080000D01*
X28991928Y74080000D01*
X29004188Y73955518D01*
X29040498Y73835820D01*
X29099463Y73725506D01*
X29178815Y73628815D01*
X29275506Y73549463D01*
X29385820Y73490498D01*
X29505518Y73454188D01*
X29630000Y73441928D01*
X30194250Y73445000D01*
X30353000Y73603750D01*
X30353000Y74803000D01*
X29153750Y74803000D01*
X28995000Y74644250D01*
X28991928Y74080000D01*
X1397000Y74080000D01*
X1397000Y77710279D01*
X5365000Y77710279D01*
X5365000Y77289721D01*
X5447047Y76877244D01*
X5607988Y76488698D01*
X5841637Y76139017D01*
X6139017Y75841637D01*
X6488698Y75607988D01*
X6877244Y75447047D01*
X7289721Y75365000D01*
X7710279Y75365000D01*
X8122756Y75447047D01*
X8511302Y75607988D01*
X8768736Y75780000D01*
X28991928Y75780000D01*
X28995000Y75215750D01*
X29153750Y75057000D01*
X30353000Y75057000D01*
X30353000Y76256250D01*
X30607000Y76256250D01*
X30607000Y75057000D01*
X30627000Y75057000D01*
X30627000Y74803000D01*
X30607000Y74803000D01*
X30607000Y73603750D01*
X30765750Y73445000D01*
X31330000Y73441928D01*
X31441990Y73452958D01*
X31389774Y73326898D01*
X31350000Y73126939D01*
X31350000Y72923061D01*
X31389774Y72723102D01*
X31467795Y72534744D01*
X31581063Y72365226D01*
X31725226Y72221063D01*
X31894744Y72107795D01*
X32083102Y72029774D01*
X32283061Y71990000D01*
X32486939Y71990000D01*
X32686898Y72029774D01*
X32875256Y72107795D01*
X33044774Y72221063D01*
X33086711Y72263000D01*
X34756088Y72263000D01*
X34669465Y72205120D01*
X34474880Y72010535D01*
X34321995Y71781727D01*
X34216686Y71527490D01*
X34163000Y71257592D01*
X34163000Y70982408D01*
X34216686Y70712510D01*
X34321995Y70458273D01*
X34474880Y70229465D01*
X34669465Y70034880D01*
X34898273Y69881995D01*
X34975515Y69850000D01*
X34898273Y69818005D01*
X34669465Y69665120D01*
X34474880Y69470535D01*
X34321995Y69241727D01*
X34216686Y68987490D01*
X34163000Y68717592D01*
X34163000Y68442408D01*
X34216686Y68172510D01*
X34321995Y67918273D01*
X34474880Y67689465D01*
X34669465Y67494880D01*
X34898273Y67341995D01*
X34975515Y67310000D01*
X34898273Y67278005D01*
X34669465Y67125120D01*
X34474880Y66930535D01*
X34321995Y66701727D01*
X34216686Y66447490D01*
X34163000Y66177592D01*
X34163000Y65902408D01*
X34216686Y65632510D01*
X34321995Y65378273D01*
X34474880Y65149465D01*
X34669465Y64954880D01*
X34898273Y64801995D01*
X34975515Y64770000D01*
X34898273Y64738005D01*
X34669465Y64585120D01*
X34474880Y64390535D01*
X34321995Y64161727D01*
X34216686Y63907490D01*
X34163000Y63637592D01*
X34163000Y63362408D01*
X34216686Y63092510D01*
X34321995Y62838273D01*
X34474880Y62609465D01*
X34669465Y62414880D01*
X34898273Y62261995D01*
X35152510Y62156686D01*
X35422408Y62103000D01*
X35697592Y62103000D01*
X35964435Y62156078D01*
X35852726Y62081437D01*
X35708563Y61937274D01*
X35595295Y61767756D01*
X35517274Y61579398D01*
X35477500Y61379439D01*
X35477500Y61320130D01*
X34006791Y59849421D01*
X33997274Y59858937D01*
X33827756Y59972205D01*
X33639398Y60050226D01*
X33439439Y60090000D01*
X33235561Y60090000D01*
X33035602Y60050226D01*
X32847244Y59972205D01*
X32677726Y59858937D01*
X32533563Y59714774D01*
X32420295Y59545256D01*
X32342274Y59356898D01*
X32302500Y59156939D01*
X32302500Y58953061D01*
X32342274Y58753102D01*
X32420295Y58564744D01*
X32533563Y58395226D01*
X32677726Y58251063D01*
X32847244Y58137795D01*
X33035602Y58059774D01*
X33235561Y58020000D01*
X33439439Y58020000D01*
X33639398Y58059774D01*
X33827756Y58137795D01*
X33997274Y58251063D01*
X34039211Y58293000D01*
X34252577Y58293000D01*
X34290000Y58289314D01*
X34327423Y58293000D01*
X34327426Y58293000D01*
X34439378Y58304026D01*
X34583015Y58347598D01*
X34715392Y58418355D01*
X34831422Y58513578D01*
X34855284Y58542654D01*
X35912630Y59600000D01*
X45023856Y59600000D01*
X45048377Y59351037D01*
X45120997Y59111641D01*
X45238925Y58891012D01*
X45397630Y58697630D01*
X45591012Y58538925D01*
X45811641Y58420997D01*
X46051037Y58348377D01*
X46237620Y58330000D01*
X57662380Y58330000D01*
X57848963Y58348377D01*
X58088359Y58420997D01*
X58308988Y58538925D01*
X58502370Y58697630D01*
X58661075Y58891012D01*
X58779003Y59111641D01*
X58851623Y59351037D01*
X58876144Y59600000D01*
X58851623Y59848963D01*
X58779003Y60088359D01*
X58661075Y60308988D01*
X58502370Y60502370D01*
X58308988Y60661075D01*
X58088359Y60779003D01*
X57848963Y60851623D01*
X57662380Y60870000D01*
X46237620Y60870000D01*
X46051037Y60851623D01*
X45811641Y60779003D01*
X45591012Y60661075D01*
X45397630Y60502370D01*
X45238925Y60308988D01*
X45120997Y60088359D01*
X45048377Y59848963D01*
X45023856Y59600000D01*
X35912630Y59600000D01*
X36555130Y60242500D01*
X36614439Y60242500D01*
X36814398Y60282274D01*
X37002756Y60360295D01*
X37172274Y60473563D01*
X37316437Y60617726D01*
X37429705Y60787244D01*
X37507726Y60975602D01*
X37547500Y61175561D01*
X37547500Y61379439D01*
X37507726Y61579398D01*
X37429705Y61767756D01*
X37316437Y61937274D01*
X37172274Y62081437D01*
X37002756Y62194705D01*
X36814398Y62272726D01*
X36614439Y62312500D01*
X36410561Y62312500D01*
X36249310Y62280425D01*
X36450535Y62414880D01*
X36645120Y62609465D01*
X36798005Y62838273D01*
X36903314Y63092510D01*
X36957000Y63362408D01*
X36957000Y63637592D01*
X36903314Y63907490D01*
X36798005Y64161727D01*
X36645120Y64390535D01*
X36450535Y64585120D01*
X36221727Y64738005D01*
X36144485Y64770000D01*
X36221727Y64801995D01*
X36450535Y64954880D01*
X36645120Y65149465D01*
X36671829Y65189439D01*
X57067500Y65189439D01*
X57067500Y64985561D01*
X57107274Y64785602D01*
X57185295Y64597244D01*
X57298563Y64427726D01*
X57442726Y64283563D01*
X57612244Y64170295D01*
X57633294Y64161576D01*
X58972500Y62822369D01*
X58972500Y62763061D01*
X59012274Y62563102D01*
X59090295Y62374744D01*
X59203563Y62205226D01*
X59347726Y62061063D01*
X59517244Y61947795D01*
X59705602Y61869774D01*
X59905561Y61830000D01*
X60109439Y61830000D01*
X60309398Y61869774D01*
X60497756Y61947795D01*
X60667274Y62061063D01*
X60811437Y62205226D01*
X60924705Y62374744D01*
X61002726Y62563102D01*
X61042500Y62763061D01*
X61042500Y62966939D01*
X61002726Y63166898D01*
X60924705Y63355256D01*
X60811437Y63524774D01*
X60667274Y63668937D01*
X60497756Y63782205D01*
X60309398Y63860226D01*
X60109439Y63900000D01*
X60050131Y63900000D01*
X59108809Y64841321D01*
X59137500Y64985561D01*
X59137500Y65189439D01*
X59097726Y65389398D01*
X59019705Y65577756D01*
X58906437Y65747274D01*
X58762274Y65891437D01*
X58592756Y66004705D01*
X58404398Y66082726D01*
X58204439Y66122500D01*
X58000561Y66122500D01*
X57800602Y66082726D01*
X57612244Y66004705D01*
X57442726Y65891437D01*
X57298563Y65747274D01*
X57185295Y65577756D01*
X57107274Y65389398D01*
X57067500Y65189439D01*
X36671829Y65189439D01*
X36798005Y65378273D01*
X36903314Y65632510D01*
X36957000Y65902408D01*
X36957000Y66177592D01*
X36931287Y66306862D01*
X67220500Y66306862D01*
X67220500Y65773138D01*
X67324625Y65249668D01*
X67528872Y64756571D01*
X67825394Y64312795D01*
X68202795Y63935394D01*
X68646571Y63638872D01*
X69139668Y63434625D01*
X69663138Y63330500D01*
X70196862Y63330500D01*
X70720332Y63434625D01*
X71213429Y63638872D01*
X71657205Y63935394D01*
X72034606Y64312795D01*
X72331128Y64756571D01*
X72535375Y65249668D01*
X72639500Y65773138D01*
X72639500Y66306862D01*
X77220500Y66306862D01*
X77220500Y65773138D01*
X77324625Y65249668D01*
X77528872Y64756571D01*
X77825394Y64312795D01*
X78202795Y63935394D01*
X78646571Y63638872D01*
X79139668Y63434625D01*
X79663138Y63330500D01*
X80196862Y63330500D01*
X80720332Y63434625D01*
X81213429Y63638872D01*
X81657205Y63935394D01*
X82034606Y64312795D01*
X82331128Y64756571D01*
X82535375Y65249668D01*
X82639500Y65773138D01*
X82639500Y66306862D01*
X82535375Y66830332D01*
X82331128Y67323429D01*
X82034606Y67767205D01*
X81657205Y68144606D01*
X81213429Y68441128D01*
X80720332Y68645375D01*
X80196862Y68749500D01*
X79663138Y68749500D01*
X79139668Y68645375D01*
X78646571Y68441128D01*
X78202795Y68144606D01*
X77825394Y67767205D01*
X77528872Y67323429D01*
X77324625Y66830332D01*
X77220500Y66306862D01*
X72639500Y66306862D01*
X72535375Y66830332D01*
X72331128Y67323429D01*
X72034606Y67767205D01*
X71657205Y68144606D01*
X71213429Y68441128D01*
X70720332Y68645375D01*
X70196862Y68749500D01*
X69663138Y68749500D01*
X69139668Y68645375D01*
X68646571Y68441128D01*
X68202795Y68144606D01*
X67825394Y67767205D01*
X67528872Y67323429D01*
X67324625Y66830332D01*
X67220500Y66306862D01*
X36931287Y66306862D01*
X36903314Y66447490D01*
X36798005Y66701727D01*
X36645120Y66930535D01*
X36450535Y67125120D01*
X36221727Y67278005D01*
X36144485Y67310000D01*
X36221727Y67341995D01*
X36450535Y67494880D01*
X36645120Y67689465D01*
X36798005Y67918273D01*
X36903314Y68172510D01*
X36957000Y68442408D01*
X36957000Y68717592D01*
X36903314Y68987490D01*
X36798005Y69241727D01*
X36645120Y69470535D01*
X36450535Y69665120D01*
X36221727Y69818005D01*
X36144485Y69850000D01*
X36221727Y69881995D01*
X36450535Y70034880D01*
X36645120Y70229465D01*
X36798005Y70458273D01*
X36903314Y70712510D01*
X36917335Y70783000D01*
X41481928Y70783000D01*
X41481928Y69933000D01*
X41494188Y69808518D01*
X41530498Y69688820D01*
X41589463Y69578506D01*
X41668815Y69481815D01*
X41765506Y69402463D01*
X41875820Y69343498D01*
X41995518Y69307188D01*
X42120000Y69294928D01*
X42970000Y69294928D01*
X43094482Y69307188D01*
X43214180Y69343498D01*
X43324494Y69402463D01*
X43421185Y69481815D01*
X43500537Y69578506D01*
X43559502Y69688820D01*
X43595812Y69808518D01*
X43608072Y69933000D01*
X43608072Y70783000D01*
X43595812Y70907482D01*
X43559502Y71027180D01*
X43500537Y71137494D01*
X43421185Y71234185D01*
X43324494Y71313537D01*
X43214180Y71372502D01*
X43094482Y71408812D01*
X42970000Y71421072D01*
X42120000Y71421072D01*
X41995518Y71408812D01*
X41875820Y71372502D01*
X41765506Y71313537D01*
X41668815Y71234185D01*
X41589463Y71137494D01*
X41530498Y71027180D01*
X41494188Y70907482D01*
X41481928Y70783000D01*
X36917335Y70783000D01*
X36957000Y70982408D01*
X36957000Y71257592D01*
X36903314Y71527490D01*
X36798005Y71781727D01*
X36645120Y72010535D01*
X36450535Y72205120D01*
X36363912Y72263000D01*
X37745077Y72263000D01*
X37782500Y72259314D01*
X37819923Y72263000D01*
X37819926Y72263000D01*
X37931878Y72274026D01*
X38042227Y72307500D01*
X38201939Y72307500D01*
X38401898Y72347274D01*
X38590256Y72425295D01*
X38759774Y72538563D01*
X38903937Y72682726D01*
X39017205Y72852244D01*
X39095226Y73040602D01*
X39135000Y73240561D01*
X39135000Y73444439D01*
X39095226Y73644398D01*
X39017205Y73832756D01*
X38903937Y74002274D01*
X38759774Y74146437D01*
X38590256Y74259705D01*
X38401898Y74337726D01*
X38201939Y74377500D01*
X37998061Y74377500D01*
X37798102Y74337726D01*
X37609744Y74259705D01*
X37440226Y74146437D01*
X37296063Y74002274D01*
X37182795Y73832756D01*
X37163842Y73787000D01*
X33977107Y73787000D01*
X34173475Y73983368D01*
X34335990Y74226589D01*
X34447932Y74496842D01*
X34505000Y74783740D01*
X34505000Y75076260D01*
X34447932Y75363158D01*
X34335990Y75633411D01*
X34173475Y75876632D01*
X33966632Y76083475D01*
X33723411Y76245990D01*
X33453158Y76357932D01*
X33166260Y76415000D01*
X32873740Y76415000D01*
X32586842Y76357932D01*
X32316589Y76245990D01*
X32073368Y76083475D01*
X31941513Y75951620D01*
X31919502Y76024180D01*
X31860537Y76134494D01*
X31781185Y76231185D01*
X31684494Y76310537D01*
X31574180Y76369502D01*
X31454482Y76405812D01*
X31330000Y76418072D01*
X30765750Y76415000D01*
X30607000Y76256250D01*
X30353000Y76256250D01*
X30194250Y76415000D01*
X29630000Y76418072D01*
X29505518Y76405812D01*
X29385820Y76369502D01*
X29275506Y76310537D01*
X29178815Y76231185D01*
X29099463Y76134494D01*
X29040498Y76024180D01*
X29004188Y75904482D01*
X28991928Y75780000D01*
X8768736Y75780000D01*
X8860983Y75841637D01*
X9158363Y76139017D01*
X9392012Y76488698D01*
X9552953Y76877244D01*
X9635000Y77289721D01*
X9635000Y77710279D01*
X9552953Y78122756D01*
X9428795Y78422500D01*
X47936356Y78422500D01*
X47942500Y78360120D01*
X47942500Y78167373D01*
X47936357Y78105000D01*
X47942500Y78042627D01*
X47942500Y78042620D01*
X47960877Y77856037D01*
X48033497Y77616641D01*
X48151425Y77396012D01*
X48310131Y77202630D01*
X48358586Y77162864D01*
X48577500Y76943949D01*
X48577501Y72134890D01*
X48577500Y72134880D01*
X48577500Y72134873D01*
X48571357Y72072500D01*
X48577500Y72010127D01*
X48577500Y70547380D01*
X48571356Y70485000D01*
X48595877Y70236037D01*
X48668497Y69996641D01*
X48786425Y69776012D01*
X48945130Y69582630D01*
X49138512Y69423925D01*
X49359141Y69305997D01*
X49598537Y69233377D01*
X49847500Y69208856D01*
X49909880Y69215000D01*
X51055120Y69215000D01*
X51117500Y69208856D01*
X51179880Y69215000D01*
X51366463Y69233377D01*
X51605859Y69305997D01*
X51826488Y69423925D01*
X52019870Y69582630D01*
X52178575Y69776012D01*
X52296503Y69996641D01*
X52369123Y70236037D01*
X52393644Y70485000D01*
X52387500Y70547380D01*
X52387500Y70740120D01*
X52393644Y70802500D01*
X52369123Y71051463D01*
X52296503Y71290859D01*
X52252864Y71372502D01*
X52178575Y71511487D01*
X52019870Y71704870D01*
X51971414Y71744637D01*
X51424641Y72291409D01*
X51384870Y72339870D01*
X51336414Y72379637D01*
X51117500Y72598551D01*
X51117500Y75565000D01*
X58096356Y75565000D01*
X58120877Y75316037D01*
X58193497Y75076641D01*
X58311425Y74856012D01*
X58470130Y74662630D01*
X58578750Y74573487D01*
X58578751Y72439801D01*
X58518587Y72379637D01*
X58470131Y72339870D01*
X58311425Y72146488D01*
X58193497Y71925859D01*
X58120877Y71686463D01*
X58102500Y71499880D01*
X58102500Y71499873D01*
X58096357Y71437500D01*
X58102500Y71375127D01*
X58102500Y71182380D01*
X58096356Y71120000D01*
X58120877Y70871037D01*
X58193497Y70631641D01*
X58311425Y70411012D01*
X58436591Y70258497D01*
X58470130Y70217630D01*
X58663512Y70058925D01*
X58884141Y69940997D01*
X59123537Y69868377D01*
X59372500Y69843856D01*
X59434880Y69850000D01*
X60262620Y69850000D01*
X60325000Y69843856D01*
X60387380Y69850000D01*
X60573963Y69868377D01*
X60813359Y69940997D01*
X61033988Y70058925D01*
X61227370Y70217630D01*
X61386075Y70411012D01*
X61504003Y70631641D01*
X61576623Y70871037D01*
X61580460Y70910000D01*
X65294428Y70910000D01*
X65294428Y70060000D01*
X65306688Y69935518D01*
X65342998Y69815820D01*
X65401963Y69705506D01*
X65481315Y69608815D01*
X65578006Y69529463D01*
X65688320Y69470498D01*
X65808018Y69434188D01*
X65932500Y69421928D01*
X66782500Y69421928D01*
X66906982Y69434188D01*
X67026680Y69470498D01*
X67136994Y69529463D01*
X67233685Y69608815D01*
X67313037Y69705506D01*
X67372002Y69815820D01*
X67408312Y69935518D01*
X67420572Y70060000D01*
X67420572Y70910000D01*
X67408312Y71034482D01*
X67372002Y71154180D01*
X67313037Y71264494D01*
X67233685Y71361185D01*
X67136994Y71440537D01*
X67026680Y71499502D01*
X66906982Y71535812D01*
X66782500Y71548072D01*
X65932500Y71548072D01*
X65808018Y71535812D01*
X65688320Y71499502D01*
X65578006Y71440537D01*
X65481315Y71361185D01*
X65401963Y71264494D01*
X65342998Y71154180D01*
X65306688Y71034482D01*
X65294428Y70910000D01*
X61580460Y70910000D01*
X61601144Y71120000D01*
X61595000Y71182380D01*
X61595000Y71375128D01*
X61601143Y71437501D01*
X61595000Y71499874D01*
X61595000Y71499879D01*
X61576623Y71686462D01*
X61576623Y71686464D01*
X61533388Y71828988D01*
X61504003Y71925858D01*
X61386075Y72146487D01*
X61227370Y72339870D01*
X61178909Y72379641D01*
X61118750Y72439800D01*
X61118750Y73176411D01*
X71045000Y73176411D01*
X71045000Y72903589D01*
X71098225Y72636011D01*
X71202629Y72383957D01*
X71354201Y72157114D01*
X71547114Y71964201D01*
X71773957Y71812629D01*
X72026011Y71708225D01*
X72293589Y71655000D01*
X72566411Y71655000D01*
X72833989Y71708225D01*
X73086043Y71812629D01*
X73312886Y71964201D01*
X73505799Y72157114D01*
X73657371Y72383957D01*
X73680000Y72438588D01*
X73702629Y72383957D01*
X73854201Y72157114D01*
X74047114Y71964201D01*
X74273957Y71812629D01*
X74526011Y71708225D01*
X74793589Y71655000D01*
X75066411Y71655000D01*
X75333989Y71708225D01*
X75586043Y71812629D01*
X75812886Y71964201D01*
X76005799Y72157114D01*
X76157371Y72383957D01*
X76180000Y72438588D01*
X76202629Y72383957D01*
X76354201Y72157114D01*
X76547114Y71964201D01*
X76773957Y71812629D01*
X77026011Y71708225D01*
X77293589Y71655000D01*
X77566411Y71655000D01*
X77833989Y71708225D01*
X78086043Y71812629D01*
X78312886Y71964201D01*
X78505799Y72157114D01*
X78657371Y72383957D01*
X78761775Y72636011D01*
X78815000Y72903589D01*
X78815000Y73176411D01*
X78761775Y73443989D01*
X78657371Y73696043D01*
X78505799Y73922886D01*
X78312886Y74115799D01*
X78086043Y74267371D01*
X77833989Y74371775D01*
X77566411Y74425000D01*
X77293589Y74425000D01*
X77026011Y74371775D01*
X76773957Y74267371D01*
X76547114Y74115799D01*
X76354201Y73922886D01*
X76202629Y73696043D01*
X76180000Y73641412D01*
X76157371Y73696043D01*
X76005799Y73922886D01*
X75812886Y74115799D01*
X75586043Y74267371D01*
X75333989Y74371775D01*
X75066411Y74425000D01*
X74793589Y74425000D01*
X74526011Y74371775D01*
X74273957Y74267371D01*
X74047114Y74115799D01*
X73854201Y73922886D01*
X73702629Y73696043D01*
X73680000Y73641412D01*
X73657371Y73696043D01*
X73505799Y73922886D01*
X73312886Y74115799D01*
X73086043Y74267371D01*
X72833989Y74371775D01*
X72566411Y74425000D01*
X72293589Y74425000D01*
X72026011Y74371775D01*
X71773957Y74267371D01*
X71547114Y74115799D01*
X71354201Y73922886D01*
X71202629Y73696043D01*
X71098225Y73443989D01*
X71045000Y73176411D01*
X61118750Y73176411D01*
X61118750Y74573488D01*
X61227370Y74662630D01*
X61386075Y74856012D01*
X61504003Y75076641D01*
X61576623Y75316037D01*
X61601144Y75565000D01*
X61595000Y75627380D01*
X61595000Y75820128D01*
X61601143Y75882501D01*
X61595000Y75944874D01*
X61595000Y75944879D01*
X61576623Y76131462D01*
X61576623Y76131464D01*
X61533388Y76273988D01*
X61504003Y76370858D01*
X61386075Y76591487D01*
X61227370Y76784870D01*
X61178909Y76824641D01*
X60790891Y77212659D01*
X60751120Y77261120D01*
X60557737Y77419825D01*
X60337108Y77537753D01*
X60170333Y77588344D01*
X60097713Y77610373D01*
X60075391Y77612572D01*
X59848750Y77634894D01*
X59624307Y77612788D01*
X59599786Y77610373D01*
X59544068Y77593471D01*
X59360391Y77537753D01*
X59139762Y77419825D01*
X58946380Y77261120D01*
X58906610Y77212660D01*
X58518587Y76824637D01*
X58470131Y76784870D01*
X58311425Y76591488D01*
X58193497Y76370859D01*
X58120877Y76131463D01*
X58102500Y75944880D01*
X58102500Y75944873D01*
X58096357Y75882500D01*
X58102500Y75820127D01*
X58102500Y75627380D01*
X58096356Y75565000D01*
X51117500Y75565000D01*
X51117500Y76943949D01*
X51336414Y77162863D01*
X51384870Y77202630D01*
X51543575Y77396013D01*
X51637609Y77571939D01*
X51661503Y77616641D01*
X51734123Y77856037D01*
X51758644Y78105000D01*
X51752500Y78167380D01*
X51752500Y78360120D01*
X51758644Y78422500D01*
X51734123Y78671463D01*
X51661503Y78910859D01*
X51543575Y79131488D01*
X51384870Y79324870D01*
X51191488Y79483575D01*
X50970859Y79601503D01*
X50731463Y79674123D01*
X50544880Y79692500D01*
X50482500Y79698644D01*
X50420120Y79692500D01*
X49274880Y79692500D01*
X49212500Y79698644D01*
X49150120Y79692500D01*
X48963537Y79674123D01*
X48724141Y79601503D01*
X48503512Y79483575D01*
X48310130Y79324870D01*
X48151425Y79131488D01*
X48033497Y78910859D01*
X47960877Y78671463D01*
X47936356Y78422500D01*
X9428795Y78422500D01*
X9392012Y78511302D01*
X9158363Y78860983D01*
X8860983Y79158363D01*
X8511302Y79392012D01*
X8122756Y79552953D01*
X7710279Y79635000D01*
X7289721Y79635000D01*
X6877244Y79552953D01*
X6488698Y79392012D01*
X6139017Y79158363D01*
X5841637Y78860983D01*
X5607988Y78511302D01*
X5447047Y78122756D01*
X5365000Y77710279D01*
X1397000Y77710279D01*
X1397000Y81080000D01*
X5361928Y81080000D01*
X5374188Y80955518D01*
X5410498Y80835820D01*
X5469463Y80725506D01*
X5548815Y80628815D01*
X5645506Y80549463D01*
X5755820Y80490498D01*
X5875518Y80454188D01*
X6000000Y80441928D01*
X7214250Y80445000D01*
X7373000Y80603750D01*
X7373000Y82453000D01*
X7627000Y82453000D01*
X7627000Y80603750D01*
X7785750Y80445000D01*
X9000000Y80441928D01*
X9124482Y80454188D01*
X9244180Y80490498D01*
X9354494Y80549463D01*
X9451185Y80628815D01*
X9530537Y80725506D01*
X9589502Y80835820D01*
X9625812Y80955518D01*
X9638072Y81080000D01*
X9635199Y82215702D01*
X27654820Y82215702D01*
X27662500Y82137723D01*
X27662500Y81822014D01*
X27685470Y81588796D01*
X27776245Y81289551D01*
X27923655Y81013765D01*
X28122037Y80772037D01*
X28363766Y80573655D01*
X28639552Y80426245D01*
X28938797Y80335470D01*
X29250000Y80304819D01*
X29561204Y80335470D01*
X29860449Y80426245D01*
X30136235Y80573655D01*
X30377963Y80772037D01*
X30576345Y81013765D01*
X30620829Y81096990D01*
X30674201Y81017114D01*
X30867114Y80824201D01*
X31093957Y80672629D01*
X31346011Y80568225D01*
X31613589Y80515000D01*
X31886411Y80515000D01*
X32153989Y80568225D01*
X32406043Y80672629D01*
X32632886Y80824201D01*
X32825799Y81017114D01*
X32977371Y81243957D01*
X33000000Y81298588D01*
X33022629Y81243957D01*
X33174201Y81017114D01*
X33367114Y80824201D01*
X33593957Y80672629D01*
X33846011Y80568225D01*
X34113589Y80515000D01*
X34386411Y80515000D01*
X34653989Y80568225D01*
X34906043Y80672629D01*
X35132886Y80824201D01*
X35325799Y81017114D01*
X35477371Y81243957D01*
X35581775Y81496011D01*
X35635000Y81763589D01*
X35635000Y82036411D01*
X35581775Y82303989D01*
X35477371Y82556043D01*
X35325799Y82782886D01*
X35132886Y82975799D01*
X34906043Y83127371D01*
X34653989Y83231775D01*
X34386411Y83285000D01*
X34113589Y83285000D01*
X33846011Y83231775D01*
X33593957Y83127371D01*
X33367114Y82975799D01*
X33174201Y82782886D01*
X33022629Y82556043D01*
X33000000Y82501412D01*
X32977371Y82556043D01*
X32825799Y82782886D01*
X32632886Y82975799D01*
X32406456Y83127095D01*
X33161740Y83882379D01*
X56832500Y83882379D01*
X56832501Y79947620D01*
X56850878Y79761037D01*
X56923498Y79521641D01*
X57041426Y79301012D01*
X57200131Y79107630D01*
X57393513Y78948925D01*
X57614142Y78830997D01*
X57853538Y78758377D01*
X58102500Y78733856D01*
X58351463Y78758377D01*
X58590859Y78830997D01*
X58811488Y78948925D01*
X59004870Y79107630D01*
X59051952Y79165000D01*
X61801928Y79165000D01*
X61801928Y78315000D01*
X61814188Y78190518D01*
X61850498Y78070820D01*
X61909463Y77960506D01*
X61988815Y77863815D01*
X62085506Y77784463D01*
X62195820Y77725498D01*
X62315518Y77689188D01*
X62440000Y77676928D01*
X63290000Y77676928D01*
X63414482Y77689188D01*
X63534180Y77725498D01*
X63644494Y77784463D01*
X63741185Y77863815D01*
X63820537Y77960506D01*
X63879502Y78070820D01*
X63915812Y78190518D01*
X63928072Y78315000D01*
X63928072Y79165000D01*
X63915812Y79289482D01*
X63879502Y79409180D01*
X63820537Y79519494D01*
X63741185Y79616185D01*
X63644494Y79695537D01*
X63534180Y79754502D01*
X63414482Y79790812D01*
X63290000Y79803072D01*
X62440000Y79803072D01*
X62315518Y79790812D01*
X62195820Y79754502D01*
X62085506Y79695537D01*
X61988815Y79616185D01*
X61909463Y79519494D01*
X61850498Y79409180D01*
X61814188Y79289482D01*
X61801928Y79165000D01*
X59051952Y79165000D01*
X59163575Y79301012D01*
X59281503Y79521641D01*
X59354123Y79761037D01*
X59372500Y79947620D01*
X59372500Y80962500D01*
X61517021Y80962500D01*
X61595000Y80954820D01*
X61672979Y80962500D01*
X63422021Y80962500D01*
X63500000Y80954820D01*
X63577979Y80962500D01*
X63577986Y80962500D01*
X63811204Y80985470D01*
X64110449Y81076245D01*
X64386235Y81223655D01*
X64627963Y81422037D01*
X64677680Y81482617D01*
X65519887Y82324824D01*
X65580463Y82374537D01*
X65692003Y82510449D01*
X65778843Y82616264D01*
X65926254Y82892050D01*
X66017030Y83191294D01*
X66047680Y83502499D01*
X66017030Y83813704D01*
X66017030Y83813706D01*
X65926254Y84112950D01*
X65778843Y84388736D01*
X65630176Y84569887D01*
X65580463Y84630463D01*
X65519886Y84680177D01*
X64677677Y85522386D01*
X64627963Y85582963D01*
X64540129Y85655046D01*
X64386235Y85781344D01*
X64110449Y85928754D01*
X63811204Y86019530D01*
X63500000Y86050180D01*
X63499999Y86050180D01*
X63188794Y86019530D01*
X62889550Y85928754D01*
X62742140Y85849962D01*
X62613765Y85781344D01*
X62372037Y85582963D01*
X62322322Y85522385D01*
X60937437Y84137500D01*
X59333333Y84137500D01*
X59281503Y84308359D01*
X59163575Y84528988D01*
X59004870Y84722370D01*
X58811487Y84881075D01*
X58590858Y84999003D01*
X58351462Y85071623D01*
X58102500Y85096144D01*
X57853537Y85071623D01*
X57614141Y84999003D01*
X57393512Y84881075D01*
X57200130Y84722370D01*
X57041425Y84528987D01*
X56923497Y84308358D01*
X56850877Y84068962D01*
X56832500Y83882379D01*
X33161740Y83882379D01*
X33364861Y84085499D01*
X45335020Y84085499D01*
X45412999Y84077819D01*
X45490978Y84085499D01*
X45490985Y84085499D01*
X45724203Y84108469D01*
X46023448Y84199244D01*
X46299234Y84346654D01*
X46540962Y84545036D01*
X46590679Y84605616D01*
X48868365Y86883302D01*
X49229941Y86955224D01*
X49598013Y87107684D01*
X49929269Y87329022D01*
X50210978Y87610731D01*
X50432316Y87941987D01*
X50584776Y88310059D01*
X50662500Y88700801D01*
X50662500Y89099199D01*
X51317500Y89099199D01*
X51317500Y88700801D01*
X51395224Y88310059D01*
X51547684Y87941987D01*
X51769022Y87610731D01*
X52050731Y87329022D01*
X52381987Y87107684D01*
X52750059Y86955224D01*
X53140801Y86877500D01*
X53539199Y86877500D01*
X53929941Y86955224D01*
X54298013Y87107684D01*
X54629269Y87329022D01*
X54910978Y87610731D01*
X55132316Y87941987D01*
X55284776Y88310059D01*
X55362500Y88700801D01*
X55362500Y89099199D01*
X56017500Y89099199D01*
X56017500Y88700801D01*
X56095224Y88310059D01*
X56247684Y87941987D01*
X56469022Y87610731D01*
X56750731Y87329022D01*
X57081987Y87107684D01*
X57450059Y86955224D01*
X57840801Y86877500D01*
X58239199Y86877500D01*
X58629941Y86955224D01*
X58998013Y87107684D01*
X59304542Y87312500D01*
X64429937Y87312500D01*
X70909825Y80832611D01*
X70959537Y80772037D01*
X71201265Y80573655D01*
X71477051Y80426245D01*
X71685520Y80363007D01*
X71776295Y80335470D01*
X71805218Y80332621D01*
X72009514Y80312500D01*
X72009521Y80312500D01*
X72087500Y80304820D01*
X72165479Y80312500D01*
X72507986Y80312500D01*
X72741204Y80335470D01*
X73040449Y80426245D01*
X73316235Y80573655D01*
X73557963Y80772037D01*
X73756345Y81013765D01*
X73800829Y81096990D01*
X73854201Y81017114D01*
X74047114Y80824201D01*
X74273957Y80672629D01*
X74526011Y80568225D01*
X74793589Y80515000D01*
X75066411Y80515000D01*
X75333989Y80568225D01*
X75586043Y80672629D01*
X75812886Y80824201D01*
X76005799Y81017114D01*
X76157371Y81243957D01*
X76180000Y81298588D01*
X76202629Y81243957D01*
X76354201Y81017114D01*
X76547114Y80824201D01*
X76773957Y80672629D01*
X77026011Y80568225D01*
X77293589Y80515000D01*
X77566411Y80515000D01*
X77833989Y80568225D01*
X78086043Y80672629D01*
X78312886Y80824201D01*
X78505799Y81017114D01*
X78657371Y81243957D01*
X78761775Y81496011D01*
X78815000Y81763589D01*
X78815000Y82036411D01*
X78761775Y82303989D01*
X78657371Y82556043D01*
X78505799Y82782886D01*
X78312886Y82975799D01*
X78086043Y83127371D01*
X77833989Y83231775D01*
X77566411Y83285000D01*
X77293589Y83285000D01*
X77026011Y83231775D01*
X76773957Y83127371D01*
X76547114Y82975799D01*
X76354201Y82782886D01*
X76202629Y82556043D01*
X76180000Y82501412D01*
X76157371Y82556043D01*
X76005799Y82782886D01*
X75812886Y82975799D01*
X75586043Y83127371D01*
X75333989Y83231775D01*
X75066411Y83285000D01*
X74793589Y83285000D01*
X74526011Y83231775D01*
X74273957Y83127371D01*
X74047114Y82975799D01*
X73854201Y82782886D01*
X73800829Y82703010D01*
X73756345Y82786235D01*
X73557963Y83027963D01*
X73316235Y83226345D01*
X73040449Y83373755D01*
X72779717Y83452847D01*
X70042064Y86190500D01*
X70196862Y86190500D01*
X70720332Y86294625D01*
X71213429Y86498872D01*
X71657205Y86795394D01*
X72034606Y87172795D01*
X72331128Y87616571D01*
X72535375Y88109668D01*
X72639500Y88633138D01*
X72639500Y89166862D01*
X77220500Y89166862D01*
X77220500Y88633138D01*
X77324625Y88109668D01*
X77528872Y87616571D01*
X77825394Y87172795D01*
X78202795Y86795394D01*
X78646571Y86498872D01*
X79139668Y86294625D01*
X79663138Y86190500D01*
X80196862Y86190500D01*
X80720332Y86294625D01*
X81213429Y86498872D01*
X81657205Y86795394D01*
X82034606Y87172795D01*
X82331128Y87616571D01*
X82535375Y88109668D01*
X82639500Y88633138D01*
X82639500Y89166862D01*
X82535375Y89690332D01*
X82331128Y90183429D01*
X82034606Y90627205D01*
X81657205Y91004606D01*
X81213429Y91301128D01*
X80720332Y91505375D01*
X80196862Y91609500D01*
X79663138Y91609500D01*
X79139668Y91505375D01*
X78646571Y91301128D01*
X78202795Y91004606D01*
X77825394Y90627205D01*
X77528872Y90183429D01*
X77324625Y89690332D01*
X77220500Y89166862D01*
X72639500Y89166862D01*
X72535375Y89690332D01*
X72331128Y90183429D01*
X72034606Y90627205D01*
X71657205Y91004606D01*
X71213429Y91301128D01*
X70720332Y91505375D01*
X70196862Y91609500D01*
X69663138Y91609500D01*
X69139668Y91505375D01*
X68646571Y91301128D01*
X68202795Y91004606D01*
X67825394Y90627205D01*
X67528872Y90183429D01*
X67324625Y89690332D01*
X67220500Y89166862D01*
X67220500Y89012063D01*
X66265180Y89967383D01*
X66215463Y90027963D01*
X65973735Y90226345D01*
X65697949Y90373755D01*
X65398704Y90464530D01*
X65165486Y90487500D01*
X65165479Y90487500D01*
X65087500Y90495180D01*
X65009521Y90487500D01*
X59304542Y90487500D01*
X58998013Y90692316D01*
X58629941Y90844776D01*
X58239199Y90922500D01*
X57840801Y90922500D01*
X57450059Y90844776D01*
X57081987Y90692316D01*
X56750731Y90470978D01*
X56469022Y90189269D01*
X56247684Y89858013D01*
X56095224Y89489941D01*
X56017500Y89099199D01*
X55362500Y89099199D01*
X55284776Y89489941D01*
X55132316Y89858013D01*
X54910978Y90189269D01*
X54629269Y90470978D01*
X54298013Y90692316D01*
X53929941Y90844776D01*
X53539199Y90922500D01*
X53140801Y90922500D01*
X52750059Y90844776D01*
X52381987Y90692316D01*
X52050731Y90470978D01*
X51769022Y90189269D01*
X51547684Y89858013D01*
X51395224Y89489941D01*
X51317500Y89099199D01*
X50662500Y89099199D01*
X50584776Y89489941D01*
X50432316Y89858013D01*
X50210978Y90189269D01*
X49929269Y90470978D01*
X49598013Y90692316D01*
X49229941Y90844776D01*
X48839199Y90922500D01*
X48440801Y90922500D01*
X48050059Y90844776D01*
X47681987Y90692316D01*
X47350731Y90470978D01*
X47069022Y90189269D01*
X46847684Y89858013D01*
X46695224Y89489941D01*
X46623302Y89128365D01*
X44755436Y87260499D01*
X38913208Y87260499D01*
X39151128Y87616571D01*
X39355375Y88109668D01*
X39459500Y88633138D01*
X39459500Y89166862D01*
X39355375Y89690332D01*
X39151128Y90183429D01*
X38854606Y90627205D01*
X38477205Y91004606D01*
X38033429Y91301128D01*
X37540332Y91505375D01*
X37016862Y91609500D01*
X36483138Y91609500D01*
X35959668Y91505375D01*
X35466571Y91301128D01*
X35022795Y91004606D01*
X34645394Y90627205D01*
X34348872Y90183429D01*
X34144625Y89690332D01*
X34040500Y89166862D01*
X34040500Y88633138D01*
X34144625Y88109668D01*
X34348872Y87616571D01*
X34586792Y87260499D01*
X32785275Y87260499D01*
X32707296Y87268179D01*
X32629317Y87260499D01*
X32629311Y87260499D01*
X32427979Y87240669D01*
X32396092Y87237529D01*
X32305317Y87209992D01*
X32096848Y87146754D01*
X31821062Y86999344D01*
X31579334Y86800962D01*
X31529622Y86740388D01*
X28182617Y83393382D01*
X28122037Y83343665D01*
X27923655Y83101936D01*
X27776245Y82826150D01*
X27737542Y82698563D01*
X27685470Y82526906D01*
X27682330Y82495019D01*
X27662500Y82293687D01*
X27662500Y82293681D01*
X27654820Y82215702D01*
X9635199Y82215702D01*
X9635000Y82294250D01*
X9476250Y82453000D01*
X7627000Y82453000D01*
X7373000Y82453000D01*
X5523750Y82453000D01*
X5365000Y82294250D01*
X5361928Y81080000D01*
X1397000Y81080000D01*
X1397000Y84080000D01*
X5361928Y84080000D01*
X5365000Y82865750D01*
X5523750Y82707000D01*
X7373000Y82707000D01*
X7373000Y84556250D01*
X7627000Y84556250D01*
X7627000Y82707000D01*
X9476250Y82707000D01*
X9635000Y82865750D01*
X9638072Y84080000D01*
X9625812Y84204482D01*
X9589502Y84324180D01*
X9530537Y84434494D01*
X9451185Y84531185D01*
X9354494Y84610537D01*
X9244180Y84669502D01*
X9124482Y84705812D01*
X9000000Y84718072D01*
X7785750Y84715000D01*
X7627000Y84556250D01*
X7373000Y84556250D01*
X7214250Y84715000D01*
X6000000Y84718072D01*
X5875518Y84705812D01*
X5755820Y84669502D01*
X5645506Y84610537D01*
X5548815Y84531185D01*
X5469463Y84434494D01*
X5410498Y84324180D01*
X5374188Y84204482D01*
X5361928Y84080000D01*
X1397000Y84080000D01*
X1397000Y88500000D01*
X5361928Y88500000D01*
X5374188Y88375518D01*
X5410498Y88255820D01*
X5469463Y88145506D01*
X5548815Y88048815D01*
X5645506Y87969463D01*
X5755820Y87910498D01*
X5875518Y87874188D01*
X6000000Y87861928D01*
X7214250Y87865000D01*
X7373000Y88023750D01*
X7373000Y89873000D01*
X7627000Y89873000D01*
X7627000Y88023750D01*
X7785750Y87865000D01*
X9000000Y87861928D01*
X9124482Y87874188D01*
X9244180Y87910498D01*
X9354494Y87969463D01*
X9451185Y88048815D01*
X9530537Y88145506D01*
X9589502Y88255820D01*
X9625812Y88375518D01*
X9638072Y88500000D01*
X9636385Y89166862D01*
X24040500Y89166862D01*
X24040500Y88633138D01*
X24144625Y88109668D01*
X24348872Y87616571D01*
X24645394Y87172795D01*
X25022795Y86795394D01*
X25466571Y86498872D01*
X25959668Y86294625D01*
X26483138Y86190500D01*
X27016862Y86190500D01*
X27540332Y86294625D01*
X28033429Y86498872D01*
X28477205Y86795394D01*
X28854606Y87172795D01*
X29151128Y87616571D01*
X29355375Y88109668D01*
X29459500Y88633138D01*
X29459500Y89166862D01*
X29355375Y89690332D01*
X29151128Y90183429D01*
X28854606Y90627205D01*
X28477205Y91004606D01*
X28033429Y91301128D01*
X27540332Y91505375D01*
X27016862Y91609500D01*
X26483138Y91609500D01*
X25959668Y91505375D01*
X25466571Y91301128D01*
X25022795Y91004606D01*
X24645394Y90627205D01*
X24348872Y90183429D01*
X24144625Y89690332D01*
X24040500Y89166862D01*
X9636385Y89166862D01*
X9635000Y89714250D01*
X9476250Y89873000D01*
X7627000Y89873000D01*
X7373000Y89873000D01*
X5523750Y89873000D01*
X5365000Y89714250D01*
X5361928Y88500000D01*
X1397000Y88500000D01*
X1397000Y91500000D01*
X5361928Y91500000D01*
X5365000Y90285750D01*
X5523750Y90127000D01*
X7373000Y90127000D01*
X7373000Y91976250D01*
X7627000Y91976250D01*
X7627000Y90127000D01*
X9476250Y90127000D01*
X9635000Y90285750D01*
X9638072Y91500000D01*
X9625812Y91624482D01*
X9589502Y91744180D01*
X9530537Y91854494D01*
X9451185Y91951185D01*
X9354494Y92030537D01*
X9244180Y92089502D01*
X9124482Y92125812D01*
X9000000Y92138072D01*
X7785750Y92135000D01*
X7627000Y91976250D01*
X7373000Y91976250D01*
X7214250Y92135000D01*
X6000000Y92138072D01*
X5875518Y92125812D01*
X5755820Y92089502D01*
X5645506Y92030537D01*
X5548815Y91951185D01*
X5469463Y91854494D01*
X5410498Y91744180D01*
X5374188Y91624482D01*
X5361928Y91500000D01*
X1397000Y91500000D01*
X1397000Y95290279D01*
X5365000Y95290279D01*
X5365000Y94869721D01*
X5447047Y94457244D01*
X5607988Y94068698D01*
X5841637Y93719017D01*
X6139017Y93421637D01*
X6488698Y93187988D01*
X6877244Y93027047D01*
X7289721Y92945000D01*
X7710279Y92945000D01*
X8122756Y93027047D01*
X8511302Y93187988D01*
X8860983Y93421637D01*
X9158363Y93719017D01*
X9392012Y94068698D01*
X9552953Y94457244D01*
X9635000Y94869721D01*
X9635000Y95290279D01*
X9552953Y95702756D01*
X9392012Y96091302D01*
X9158363Y96440983D01*
X8860983Y96738363D01*
X8511302Y96972012D01*
X8122756Y97132953D01*
X7710279Y97215000D01*
X7289721Y97215000D01*
X6877244Y97132953D01*
X6488698Y96972012D01*
X6139017Y96738363D01*
X5841637Y96440983D01*
X5607988Y96091302D01*
X5447047Y95702756D01*
X5365000Y95290279D01*
X1397000Y95290279D01*
X1397000Y98372394D01*
X1957606Y98933000D01*
X98372394Y98933000D01*
X98933000Y98372394D01*
%TD*%
M02*
