%TF.GenerationSoftware,KiCad,Pcbnew,(5.1.6)-1*%
%TF.CreationDate,2021-04-21T19:08:55-07:00*%
%TF.ProjectId,oscillator,6f736369-6c6c-4617-946f-722e6b696361,rev?*%
%TF.SameCoordinates,Original*%
%TF.FileFunction,Soldermask,Top*%
%TF.FilePolarity,Negative*%
%FSLAX46Y46*%
G04 Gerber Fmt 4.6, Leading zero omitted, Abs format (unit mm)*
G04 Created by KiCad (PCBNEW (5.1.6)-1) date 2021-04-21 19:08:55*
%MOMM*%
%LPD*%
G01*
G04 APERTURE LIST*
%ADD10R,1.200000X1.200000*%
%ADD11C,3.100000*%
%ADD12R,3.100000X3.100000*%
%ADD13O,1.800000X1.800000*%
%ADD14R,1.800000X1.800000*%
%ADD15C,1.600000*%
%ADD16C,4.249000*%
%ADD17C,1.624000*%
%ADD18C,2.875000*%
%ADD19R,2.614000X3.300000*%
%ADD20C,0.100000*%
%ADD21R,0.950000X0.950000*%
G04 APERTURE END LIST*
%TO.C,C1*%
G36*
G01*
X21027500Y62392544D02*
X21027500Y64607456D01*
G75*
G02*
X21295044Y64875000I267544J0D01*
G01*
X22284956Y64875000D01*
G75*
G02*
X22552500Y64607456I0J-267544D01*
G01*
X22552500Y62392544D01*
G75*
G02*
X22284956Y62125000I-267544J0D01*
G01*
X21295044Y62125000D01*
G75*
G02*
X21027500Y62392544I0J267544D01*
G01*
G37*
G36*
G01*
X24002500Y62392544D02*
X24002500Y64607456D01*
G75*
G02*
X24270044Y64875000I267544J0D01*
G01*
X25259956Y64875000D01*
G75*
G02*
X25527500Y64607456I0J-267544D01*
G01*
X25527500Y62392544D01*
G75*
G02*
X25259956Y62125000I-267544J0D01*
G01*
X24270044Y62125000D01*
G75*
G02*
X24002500Y62392544I0J267544D01*
G01*
G37*
%TD*%
%TO.C,C2*%
G36*
G01*
X24002500Y66202544D02*
X24002500Y68417456D01*
G75*
G02*
X24270044Y68685000I267544J0D01*
G01*
X25259956Y68685000D01*
G75*
G02*
X25527500Y68417456I0J-267544D01*
G01*
X25527500Y66202544D01*
G75*
G02*
X25259956Y65935000I-267544J0D01*
G01*
X24270044Y65935000D01*
G75*
G02*
X24002500Y66202544I0J267544D01*
G01*
G37*
G36*
G01*
X21027500Y66202544D02*
X21027500Y68417456D01*
G75*
G02*
X21295044Y68685000I267544J0D01*
G01*
X22284956Y68685000D01*
G75*
G02*
X22552500Y68417456I0J-267544D01*
G01*
X22552500Y66202544D01*
G75*
G02*
X22284956Y65935000I-267544J0D01*
G01*
X21295044Y65935000D01*
G75*
G02*
X21027500Y66202544I0J267544D01*
G01*
G37*
%TD*%
%TO.C,C3*%
G36*
G01*
X56860000Y84927456D02*
X56860000Y82712544D01*
G75*
G02*
X56592456Y82445000I-267544J0D01*
G01*
X55602544Y82445000D01*
G75*
G02*
X55335000Y82712544I0J267544D01*
G01*
X55335000Y84927456D01*
G75*
G02*
X55602544Y85195000I267544J0D01*
G01*
X56592456Y85195000D01*
G75*
G02*
X56860000Y84927456I0J-267544D01*
G01*
G37*
G36*
G01*
X53885000Y84927456D02*
X53885000Y82712544D01*
G75*
G02*
X53617456Y82445000I-267544J0D01*
G01*
X52627544Y82445000D01*
G75*
G02*
X52360000Y82712544I0J267544D01*
G01*
X52360000Y84927456D01*
G75*
G02*
X52627544Y85195000I267544J0D01*
G01*
X53617456Y85195000D01*
G75*
G02*
X53885000Y84927456I0J-267544D01*
G01*
G37*
%TD*%
%TO.C,C4*%
G36*
G01*
X56860000Y67147456D02*
X56860000Y64932544D01*
G75*
G02*
X56592456Y64665000I-267544J0D01*
G01*
X55602544Y64665000D01*
G75*
G02*
X55335000Y64932544I0J267544D01*
G01*
X55335000Y67147456D01*
G75*
G02*
X55602544Y67415000I267544J0D01*
G01*
X56592456Y67415000D01*
G75*
G02*
X56860000Y67147456I0J-267544D01*
G01*
G37*
G36*
G01*
X53885000Y67147456D02*
X53885000Y64932544D01*
G75*
G02*
X53617456Y64665000I-267544J0D01*
G01*
X52627544Y64665000D01*
G75*
G02*
X52360000Y64932544I0J267544D01*
G01*
X52360000Y67147456D01*
G75*
G02*
X52627544Y67415000I267544J0D01*
G01*
X53617456Y67415000D01*
G75*
G02*
X53885000Y67147456I0J-267544D01*
G01*
G37*
%TD*%
%TO.C,C5*%
G36*
G01*
X21027500Y70012544D02*
X21027500Y72227456D01*
G75*
G02*
X21295044Y72495000I267544J0D01*
G01*
X22284956Y72495000D01*
G75*
G02*
X22552500Y72227456I0J-267544D01*
G01*
X22552500Y70012544D01*
G75*
G02*
X22284956Y69745000I-267544J0D01*
G01*
X21295044Y69745000D01*
G75*
G02*
X21027500Y70012544I0J267544D01*
G01*
G37*
G36*
G01*
X24002500Y70012544D02*
X24002500Y72227456D01*
G75*
G02*
X24270044Y72495000I267544J0D01*
G01*
X25259956Y72495000D01*
G75*
G02*
X25527500Y72227456I0J-267544D01*
G01*
X25527500Y70012544D01*
G75*
G02*
X25259956Y69745000I-267544J0D01*
G01*
X24270044Y69745000D01*
G75*
G02*
X24002500Y70012544I0J267544D01*
G01*
G37*
%TD*%
%TO.C,C6*%
G36*
G01*
X72617500Y48414956D02*
X72617500Y46200044D01*
G75*
G02*
X72349956Y45932500I-267544J0D01*
G01*
X71360044Y45932500D01*
G75*
G02*
X71092500Y46200044I0J267544D01*
G01*
X71092500Y48414956D01*
G75*
G02*
X71360044Y48682500I267544J0D01*
G01*
X72349956Y48682500D01*
G75*
G02*
X72617500Y48414956I0J-267544D01*
G01*
G37*
G36*
G01*
X75592500Y48414956D02*
X75592500Y46200044D01*
G75*
G02*
X75324956Y45932500I-267544J0D01*
G01*
X74335044Y45932500D01*
G75*
G02*
X74067500Y46200044I0J267544D01*
G01*
X74067500Y48414956D01*
G75*
G02*
X74335044Y48682500I267544J0D01*
G01*
X75324956Y48682500D01*
G75*
G02*
X75592500Y48414956I0J-267544D01*
G01*
G37*
%TD*%
%TO.C,C7*%
G36*
G01*
X68135000Y36675044D02*
X68135000Y38889956D01*
G75*
G02*
X68402544Y39157500I267544J0D01*
G01*
X69392456Y39157500D01*
G75*
G02*
X69660000Y38889956I0J-267544D01*
G01*
X69660000Y36675044D01*
G75*
G02*
X69392456Y36407500I-267544J0D01*
G01*
X68402544Y36407500D01*
G75*
G02*
X68135000Y36675044I0J267544D01*
G01*
G37*
G36*
G01*
X65160000Y36675044D02*
X65160000Y38889956D01*
G75*
G02*
X65427544Y39157500I267544J0D01*
G01*
X66417456Y39157500D01*
G75*
G02*
X66685000Y38889956I0J-267544D01*
G01*
X66685000Y36675044D01*
G75*
G02*
X66417456Y36407500I-267544J0D01*
G01*
X65427544Y36407500D01*
G75*
G02*
X65160000Y36675044I0J267544D01*
G01*
G37*
%TD*%
%TO.C,C8*%
G36*
G01*
X39497500Y64607456D02*
X39497500Y62392544D01*
G75*
G02*
X39229956Y62125000I-267544J0D01*
G01*
X38240044Y62125000D01*
G75*
G02*
X37972500Y62392544I0J267544D01*
G01*
X37972500Y64607456D01*
G75*
G02*
X38240044Y64875000I267544J0D01*
G01*
X39229956Y64875000D01*
G75*
G02*
X39497500Y64607456I0J-267544D01*
G01*
G37*
G36*
G01*
X42472500Y64607456D02*
X42472500Y62392544D01*
G75*
G02*
X42204956Y62125000I-267544J0D01*
G01*
X41215044Y62125000D01*
G75*
G02*
X40947500Y62392544I0J267544D01*
G01*
X40947500Y64607456D01*
G75*
G02*
X41215044Y64875000I267544J0D01*
G01*
X42204956Y64875000D01*
G75*
G02*
X42472500Y64607456I0J-267544D01*
G01*
G37*
%TD*%
%TO.C,C9*%
G36*
G01*
X42472500Y68417456D02*
X42472500Y66202544D01*
G75*
G02*
X42204956Y65935000I-267544J0D01*
G01*
X41215044Y65935000D01*
G75*
G02*
X40947500Y66202544I0J267544D01*
G01*
X40947500Y68417456D01*
G75*
G02*
X41215044Y68685000I267544J0D01*
G01*
X42204956Y68685000D01*
G75*
G02*
X42472500Y68417456I0J-267544D01*
G01*
G37*
G36*
G01*
X39497500Y68417456D02*
X39497500Y66202544D01*
G75*
G02*
X39229956Y65935000I-267544J0D01*
G01*
X38240044Y65935000D01*
G75*
G02*
X37972500Y66202544I0J267544D01*
G01*
X37972500Y68417456D01*
G75*
G02*
X38240044Y68685000I267544J0D01*
G01*
X39229956Y68685000D01*
G75*
G02*
X39497500Y68417456I0J-267544D01*
G01*
G37*
%TD*%
%TO.C,C10*%
G36*
G01*
X43334956Y30552500D02*
X41120044Y30552500D01*
G75*
G02*
X40852500Y30820044I0J267544D01*
G01*
X40852500Y31809956D01*
G75*
G02*
X41120044Y32077500I267544J0D01*
G01*
X43334956Y32077500D01*
G75*
G02*
X43602500Y31809956I0J-267544D01*
G01*
X43602500Y30820044D01*
G75*
G02*
X43334956Y30552500I-267544J0D01*
G01*
G37*
G36*
G01*
X43334956Y33527500D02*
X41120044Y33527500D01*
G75*
G02*
X40852500Y33795044I0J267544D01*
G01*
X40852500Y34784956D01*
G75*
G02*
X41120044Y35052500I267544J0D01*
G01*
X43334956Y35052500D01*
G75*
G02*
X43602500Y34784956I0J-267544D01*
G01*
X43602500Y33795044D01*
G75*
G02*
X43334956Y33527500I-267544J0D01*
G01*
G37*
%TD*%
%TO.C,C11*%
G36*
G01*
X36757500Y26507456D02*
X36757500Y24292544D01*
G75*
G02*
X36489956Y24025000I-267544J0D01*
G01*
X35500044Y24025000D01*
G75*
G02*
X35232500Y24292544I0J267544D01*
G01*
X35232500Y26507456D01*
G75*
G02*
X35500044Y26775000I267544J0D01*
G01*
X36489956Y26775000D01*
G75*
G02*
X36757500Y26507456I0J-267544D01*
G01*
G37*
G36*
G01*
X33782500Y26507456D02*
X33782500Y24292544D01*
G75*
G02*
X33514956Y24025000I-267544J0D01*
G01*
X32525044Y24025000D01*
G75*
G02*
X32257500Y24292544I0J267544D01*
G01*
X32257500Y26507456D01*
G75*
G02*
X32525044Y26775000I267544J0D01*
G01*
X33514956Y26775000D01*
G75*
G02*
X33782500Y26507456I0J-267544D01*
G01*
G37*
%TD*%
%TO.C,C12*%
G36*
G01*
X56860000Y81117456D02*
X56860000Y78902544D01*
G75*
G02*
X56592456Y78635000I-267544J0D01*
G01*
X55602544Y78635000D01*
G75*
G02*
X55335000Y78902544I0J267544D01*
G01*
X55335000Y81117456D01*
G75*
G02*
X55602544Y81385000I267544J0D01*
G01*
X56592456Y81385000D01*
G75*
G02*
X56860000Y81117456I0J-267544D01*
G01*
G37*
G36*
G01*
X53885000Y81117456D02*
X53885000Y78902544D01*
G75*
G02*
X53617456Y78635000I-267544J0D01*
G01*
X52627544Y78635000D01*
G75*
G02*
X52360000Y78902544I0J267544D01*
G01*
X52360000Y81117456D01*
G75*
G02*
X52627544Y81385000I267544J0D01*
G01*
X53617456Y81385000D01*
G75*
G02*
X53885000Y81117456I0J-267544D01*
G01*
G37*
%TD*%
%TO.C,C13*%
G36*
G01*
X56860000Y70957456D02*
X56860000Y68742544D01*
G75*
G02*
X56592456Y68475000I-267544J0D01*
G01*
X55602544Y68475000D01*
G75*
G02*
X55335000Y68742544I0J267544D01*
G01*
X55335000Y70957456D01*
G75*
G02*
X55602544Y71225000I267544J0D01*
G01*
X56592456Y71225000D01*
G75*
G02*
X56860000Y70957456I0J-267544D01*
G01*
G37*
G36*
G01*
X53885000Y70957456D02*
X53885000Y68742544D01*
G75*
G02*
X53617456Y68475000I-267544J0D01*
G01*
X52627544Y68475000D01*
G75*
G02*
X52360000Y68742544I0J267544D01*
G01*
X52360000Y70957456D01*
G75*
G02*
X52627544Y71225000I267544J0D01*
G01*
X53617456Y71225000D01*
G75*
G02*
X53885000Y70957456I0J-267544D01*
G01*
G37*
%TD*%
%TO.C,C14*%
G36*
G01*
X76362544Y42355000D02*
X78577456Y42355000D01*
G75*
G02*
X78845000Y42087456I0J-267544D01*
G01*
X78845000Y41097544D01*
G75*
G02*
X78577456Y40830000I-267544J0D01*
G01*
X76362544Y40830000D01*
G75*
G02*
X76095000Y41097544I0J267544D01*
G01*
X76095000Y42087456D01*
G75*
G02*
X76362544Y42355000I267544J0D01*
G01*
G37*
G36*
G01*
X76362544Y45330000D02*
X78577456Y45330000D01*
G75*
G02*
X78845000Y45062456I0J-267544D01*
G01*
X78845000Y44072544D01*
G75*
G02*
X78577456Y43805000I-267544J0D01*
G01*
X76362544Y43805000D01*
G75*
G02*
X76095000Y44072544I0J267544D01*
G01*
X76095000Y45062456D01*
G75*
G02*
X76362544Y45330000I267544J0D01*
G01*
G37*
%TD*%
%TO.C,C15*%
G36*
G01*
X73470000Y38889956D02*
X73470000Y36675044D01*
G75*
G02*
X73202456Y36407500I-267544J0D01*
G01*
X72212544Y36407500D01*
G75*
G02*
X71945000Y36675044I0J267544D01*
G01*
X71945000Y38889956D01*
G75*
G02*
X72212544Y39157500I267544J0D01*
G01*
X73202456Y39157500D01*
G75*
G02*
X73470000Y38889956I0J-267544D01*
G01*
G37*
G36*
G01*
X76445000Y38889956D02*
X76445000Y36675044D01*
G75*
G02*
X76177456Y36407500I-267544J0D01*
G01*
X75187544Y36407500D01*
G75*
G02*
X74920000Y36675044I0J267544D01*
G01*
X74920000Y38889956D01*
G75*
G02*
X75187544Y39157500I267544J0D01*
G01*
X76177456Y39157500D01*
G75*
G02*
X76445000Y38889956I0J-267544D01*
G01*
G37*
%TD*%
%TO.C,C16*%
G36*
G01*
X39524956Y33527500D02*
X37310044Y33527500D01*
G75*
G02*
X37042500Y33795044I0J267544D01*
G01*
X37042500Y34784956D01*
G75*
G02*
X37310044Y35052500I267544J0D01*
G01*
X39524956Y35052500D01*
G75*
G02*
X39792500Y34784956I0J-267544D01*
G01*
X39792500Y33795044D01*
G75*
G02*
X39524956Y33527500I-267544J0D01*
G01*
G37*
G36*
G01*
X39524956Y30552500D02*
X37310044Y30552500D01*
G75*
G02*
X37042500Y30820044I0J267544D01*
G01*
X37042500Y31809956D01*
G75*
G02*
X37310044Y32077500I267544J0D01*
G01*
X39524956Y32077500D01*
G75*
G02*
X39792500Y31809956I0J-267544D01*
G01*
X39792500Y30820044D01*
G75*
G02*
X39524956Y30552500I-267544J0D01*
G01*
G37*
%TD*%
%TO.C,C17*%
G36*
G01*
X29082500Y24292544D02*
X29082500Y26507456D01*
G75*
G02*
X29350044Y26775000I267544J0D01*
G01*
X30339956Y26775000D01*
G75*
G02*
X30607500Y26507456I0J-267544D01*
G01*
X30607500Y24292544D01*
G75*
G02*
X30339956Y24025000I-267544J0D01*
G01*
X29350044Y24025000D01*
G75*
G02*
X29082500Y24292544I0J267544D01*
G01*
G37*
G36*
G01*
X26107500Y24292544D02*
X26107500Y26507456D01*
G75*
G02*
X26375044Y26775000I267544J0D01*
G01*
X27364956Y26775000D01*
G75*
G02*
X27632500Y26507456I0J-267544D01*
G01*
X27632500Y24292544D01*
G75*
G02*
X27364956Y24025000I-267544J0D01*
G01*
X26375044Y24025000D01*
G75*
G02*
X26107500Y24292544I0J267544D01*
G01*
G37*
%TD*%
D10*
%TO.C,D1*%
X80645000Y73022000D03*
X80645000Y75822000D03*
%TD*%
%TO.C,D2*%
X80645000Y80648000D03*
X80645000Y77848000D03*
%TD*%
D11*
%TO.C,J1*%
X7500000Y95080000D03*
D12*
X7500000Y90000000D03*
%TD*%
%TO.C,J2*%
X7500000Y82580000D03*
D11*
X7500000Y77500000D03*
%TD*%
D13*
%TO.C,J3*%
X33020000Y74930000D03*
D14*
X30480000Y74930000D03*
%TD*%
%TO.C,J4*%
X86360000Y12382500D03*
D13*
X86360000Y9842500D03*
%TD*%
%TO.C,J5*%
X75247500Y24447500D03*
D14*
X75247500Y26987500D03*
%TD*%
%TO.C,J6*%
X75247500Y12382500D03*
D13*
X75247500Y9842500D03*
%TD*%
D14*
%TO.C,J7*%
X86360000Y26987500D03*
D13*
X86360000Y24447500D03*
%TD*%
%TO.C,R1*%
G36*
G01*
X69507456Y75237500D02*
X67292544Y75237500D01*
G75*
G02*
X67025000Y75505044I0J267544D01*
G01*
X67025000Y76494956D01*
G75*
G02*
X67292544Y76762500I267544J0D01*
G01*
X69507456Y76762500D01*
G75*
G02*
X69775000Y76494956I0J-267544D01*
G01*
X69775000Y75505044D01*
G75*
G02*
X69507456Y75237500I-267544J0D01*
G01*
G37*
G36*
G01*
X69507456Y72262500D02*
X67292544Y72262500D01*
G75*
G02*
X67025000Y72530044I0J267544D01*
G01*
X67025000Y73519956D01*
G75*
G02*
X67292544Y73787500I267544J0D01*
G01*
X69507456Y73787500D01*
G75*
G02*
X69775000Y73519956I0J-267544D01*
G01*
X69775000Y72530044D01*
G75*
G02*
X69507456Y72262500I-267544J0D01*
G01*
G37*
%TD*%
%TO.C,R2*%
G36*
G01*
X61757544Y70612500D02*
X63972456Y70612500D01*
G75*
G02*
X64240000Y70344956I0J-267544D01*
G01*
X64240000Y69355044D01*
G75*
G02*
X63972456Y69087500I-267544J0D01*
G01*
X61757544Y69087500D01*
G75*
G02*
X61490000Y69355044I0J267544D01*
G01*
X61490000Y70344956D01*
G75*
G02*
X61757544Y70612500I267544J0D01*
G01*
G37*
G36*
G01*
X61757544Y67637500D02*
X63972456Y67637500D01*
G75*
G02*
X64240000Y67369956I0J-267544D01*
G01*
X64240000Y66380044D01*
G75*
G02*
X63972456Y66112500I-267544J0D01*
G01*
X61757544Y66112500D01*
G75*
G02*
X61490000Y66380044I0J267544D01*
G01*
X61490000Y67369956D01*
G75*
G02*
X61757544Y67637500I267544J0D01*
G01*
G37*
%TD*%
%TO.C,R3*%
G36*
G01*
X43307456Y76925000D02*
X41092544Y76925000D01*
G75*
G02*
X40825000Y77192544I0J267544D01*
G01*
X40825000Y78182456D01*
G75*
G02*
X41092544Y78450000I267544J0D01*
G01*
X43307456Y78450000D01*
G75*
G02*
X43575000Y78182456I0J-267544D01*
G01*
X43575000Y77192544D01*
G75*
G02*
X43307456Y76925000I-267544J0D01*
G01*
G37*
G36*
G01*
X43307456Y73950000D02*
X41092544Y73950000D01*
G75*
G02*
X40825000Y74217544I0J267544D01*
G01*
X40825000Y75207456D01*
G75*
G02*
X41092544Y75475000I267544J0D01*
G01*
X43307456Y75475000D01*
G75*
G02*
X43575000Y75207456I0J-267544D01*
G01*
X43575000Y74217544D01*
G75*
G02*
X43307456Y73950000I-267544J0D01*
G01*
G37*
%TD*%
%TO.C,R4*%
G36*
G01*
X61757544Y73787500D02*
X63972456Y73787500D01*
G75*
G02*
X64240000Y73519956I0J-267544D01*
G01*
X64240000Y72530044D01*
G75*
G02*
X63972456Y72262500I-267544J0D01*
G01*
X61757544Y72262500D01*
G75*
G02*
X61490000Y72530044I0J267544D01*
G01*
X61490000Y73519956D01*
G75*
G02*
X61757544Y73787500I267544J0D01*
G01*
G37*
G36*
G01*
X61757544Y76762500D02*
X63972456Y76762500D01*
G75*
G02*
X64240000Y76494956I0J-267544D01*
G01*
X64240000Y75505044D01*
G75*
G02*
X63972456Y75237500I-267544J0D01*
G01*
X61757544Y75237500D01*
G75*
G02*
X61490000Y75505044I0J267544D01*
G01*
X61490000Y76494956D01*
G75*
G02*
X61757544Y76762500I267544J0D01*
G01*
G37*
%TD*%
%TO.C,R5*%
G36*
G01*
X42462500Y60707456D02*
X42462500Y58492544D01*
G75*
G02*
X42194956Y58225000I-267544J0D01*
G01*
X41205044Y58225000D01*
G75*
G02*
X40937500Y58492544I0J267544D01*
G01*
X40937500Y60707456D01*
G75*
G02*
X41205044Y60975000I267544J0D01*
G01*
X42194956Y60975000D01*
G75*
G02*
X42462500Y60707456I0J-267544D01*
G01*
G37*
G36*
G01*
X39487500Y60707456D02*
X39487500Y58492544D01*
G75*
G02*
X39219956Y58225000I-267544J0D01*
G01*
X38230044Y58225000D01*
G75*
G02*
X37962500Y58492544I0J267544D01*
G01*
X37962500Y60707456D01*
G75*
G02*
X38230044Y60975000I267544J0D01*
G01*
X39219956Y60975000D01*
G75*
G02*
X39487500Y60707456I0J-267544D01*
G01*
G37*
%TD*%
%TO.C,R6*%
G36*
G01*
X45247544Y67755000D02*
X47462456Y67755000D01*
G75*
G02*
X47730000Y67487456I0J-267544D01*
G01*
X47730000Y66497544D01*
G75*
G02*
X47462456Y66230000I-267544J0D01*
G01*
X45247544Y66230000D01*
G75*
G02*
X44980000Y66497544I0J267544D01*
G01*
X44980000Y67487456D01*
G75*
G02*
X45247544Y67755000I267544J0D01*
G01*
G37*
G36*
G01*
X45247544Y64780000D02*
X47462456Y64780000D01*
G75*
G02*
X47730000Y64512456I0J-267544D01*
G01*
X47730000Y63522544D01*
G75*
G02*
X47462456Y63255000I-267544J0D01*
G01*
X45247544Y63255000D01*
G75*
G02*
X44980000Y63522544I0J267544D01*
G01*
X44980000Y64512456D01*
G75*
G02*
X45247544Y64780000I267544J0D01*
G01*
G37*
%TD*%
%TO.C,R7*%
G36*
G01*
X45247544Y70177500D02*
X47462456Y70177500D01*
G75*
G02*
X47730000Y69909956I0J-267544D01*
G01*
X47730000Y68920044D01*
G75*
G02*
X47462456Y68652500I-267544J0D01*
G01*
X45247544Y68652500D01*
G75*
G02*
X44980000Y68920044I0J267544D01*
G01*
X44980000Y69909956D01*
G75*
G02*
X45247544Y70177500I267544J0D01*
G01*
G37*
G36*
G01*
X45247544Y73152500D02*
X47462456Y73152500D01*
G75*
G02*
X47730000Y72884956I0J-267544D01*
G01*
X47730000Y71895044D01*
G75*
G02*
X47462456Y71627500I-267544J0D01*
G01*
X45247544Y71627500D01*
G75*
G02*
X44980000Y71895044I0J267544D01*
G01*
X44980000Y72884956D01*
G75*
G02*
X45247544Y73152500I267544J0D01*
G01*
G37*
%TD*%
%TO.C,R8*%
G36*
G01*
X47687500Y26782188D02*
X47687500Y22747812D01*
G75*
G02*
X47429688Y22490000I-257812J0D01*
G01*
X44645312Y22490000D01*
G75*
G02*
X44387500Y22747812I0J257812D01*
G01*
X44387500Y26782188D01*
G75*
G02*
X44645312Y27040000I257812J0D01*
G01*
X47429688Y27040000D01*
G75*
G02*
X47687500Y26782188I0J-257812D01*
G01*
G37*
G36*
G01*
X52887500Y26782188D02*
X52887500Y22747812D01*
G75*
G02*
X52629688Y22490000I-257812J0D01*
G01*
X49845312Y22490000D01*
G75*
G02*
X49587500Y22747812I0J257812D01*
G01*
X49587500Y26782188D01*
G75*
G02*
X49845312Y27040000I257812J0D01*
G01*
X52629688Y27040000D01*
G75*
G02*
X52887500Y26782188I0J-257812D01*
G01*
G37*
%TD*%
%TO.C,R9*%
G36*
G01*
X45247544Y78450000D02*
X47462456Y78450000D01*
G75*
G02*
X47730000Y78182456I0J-267544D01*
G01*
X47730000Y77192544D01*
G75*
G02*
X47462456Y76925000I-267544J0D01*
G01*
X45247544Y76925000D01*
G75*
G02*
X44980000Y77192544I0J267544D01*
G01*
X44980000Y78182456D01*
G75*
G02*
X45247544Y78450000I267544J0D01*
G01*
G37*
G36*
G01*
X45247544Y75475000D02*
X47462456Y75475000D01*
G75*
G02*
X47730000Y75207456I0J-267544D01*
G01*
X47730000Y74217544D01*
G75*
G02*
X47462456Y73950000I-267544J0D01*
G01*
X45247544Y73950000D01*
G75*
G02*
X44980000Y74217544I0J267544D01*
G01*
X44980000Y75207456D01*
G75*
G02*
X45247544Y75475000I267544J0D01*
G01*
G37*
%TD*%
%TO.C,R10*%
G36*
G01*
X82662188Y30615000D02*
X78627812Y30615000D01*
G75*
G02*
X78370000Y30872812I0J257812D01*
G01*
X78370000Y33657188D01*
G75*
G02*
X78627812Y33915000I257812J0D01*
G01*
X82662188Y33915000D01*
G75*
G02*
X82920000Y33657188I0J-257812D01*
G01*
X82920000Y30872812D01*
G75*
G02*
X82662188Y30615000I-257812J0D01*
G01*
G37*
G36*
G01*
X82662188Y35815000D02*
X78627812Y35815000D01*
G75*
G02*
X78370000Y36072812I0J257812D01*
G01*
X78370000Y38857188D01*
G75*
G02*
X78627812Y39115000I257812J0D01*
G01*
X82662188Y39115000D01*
G75*
G02*
X82920000Y38857188I0J-257812D01*
G01*
X82920000Y36072812D01*
G75*
G02*
X82662188Y35815000I-257812J0D01*
G01*
G37*
%TD*%
D15*
%TO.C,RV1*%
X34250000Y81900000D03*
X31750000Y81900000D03*
X29250000Y81900000D03*
D16*
X36750000Y88900000D03*
X26750000Y88900000D03*
%TD*%
D15*
%TO.C,RV2*%
X72430000Y73040000D03*
X74930000Y73040000D03*
X77430000Y73040000D03*
D16*
X69930000Y66040000D03*
X79930000Y66040000D03*
%TD*%
%TO.C,RV3*%
X69930000Y88900000D03*
X79930000Y88900000D03*
D15*
X72430000Y81900000D03*
X74930000Y81900000D03*
X77430000Y81900000D03*
%TD*%
D16*
%TO.C,RV4*%
X26272500Y39687500D03*
X16272500Y39687500D03*
D15*
X23772500Y46687500D03*
X21272500Y46687500D03*
X18772500Y46687500D03*
%TD*%
%TO.C,RV5*%
X39092500Y46687500D03*
X41592500Y46687500D03*
X44092500Y46687500D03*
D16*
X36592500Y39687500D03*
X46592500Y39687500D03*
%TD*%
%TO.C,SW1*%
G36*
G01*
X27128000Y63094000D02*
X27128000Y63906000D01*
G75*
G02*
X27534000Y64312000I406000J0D01*
G01*
X28346000Y64312000D01*
G75*
G02*
X28752000Y63906000I0J-406000D01*
G01*
X28752000Y63094000D01*
G75*
G02*
X28346000Y62688000I-406000J0D01*
G01*
X27534000Y62688000D01*
G75*
G02*
X27128000Y63094000I0J406000D01*
G01*
G37*
D17*
X27940000Y68580000D03*
X27940000Y71120000D03*
X35560000Y63500000D03*
X35560000Y66040000D03*
X35560000Y71120000D03*
X27940000Y66040000D03*
X35560000Y68580000D03*
%TD*%
D18*
%TO.C,SW2*%
X48640000Y88900000D03*
X53340000Y88900000D03*
X58040000Y88900000D03*
%TD*%
%TO.C,U1*%
G36*
G01*
X51110000Y76660000D02*
X51110000Y77010000D01*
G75*
G02*
X51285000Y77185000I175000J0D01*
G01*
X52985000Y77185000D01*
G75*
G02*
X53160000Y77010000I0J-175000D01*
G01*
X53160000Y76660000D01*
G75*
G02*
X52985000Y76485000I-175000J0D01*
G01*
X51285000Y76485000D01*
G75*
G02*
X51110000Y76660000I0J175000D01*
G01*
G37*
G36*
G01*
X51110000Y75390000D02*
X51110000Y75740000D01*
G75*
G02*
X51285000Y75915000I175000J0D01*
G01*
X52985000Y75915000D01*
G75*
G02*
X53160000Y75740000I0J-175000D01*
G01*
X53160000Y75390000D01*
G75*
G02*
X52985000Y75215000I-175000J0D01*
G01*
X51285000Y75215000D01*
G75*
G02*
X51110000Y75390000I0J175000D01*
G01*
G37*
G36*
G01*
X51110000Y74120000D02*
X51110000Y74470000D01*
G75*
G02*
X51285000Y74645000I175000J0D01*
G01*
X52985000Y74645000D01*
G75*
G02*
X53160000Y74470000I0J-175000D01*
G01*
X53160000Y74120000D01*
G75*
G02*
X52985000Y73945000I-175000J0D01*
G01*
X51285000Y73945000D01*
G75*
G02*
X51110000Y74120000I0J175000D01*
G01*
G37*
G36*
G01*
X51110000Y72850000D02*
X51110000Y73200000D01*
G75*
G02*
X51285000Y73375000I175000J0D01*
G01*
X52985000Y73375000D01*
G75*
G02*
X53160000Y73200000I0J-175000D01*
G01*
X53160000Y72850000D01*
G75*
G02*
X52985000Y72675000I-175000J0D01*
G01*
X51285000Y72675000D01*
G75*
G02*
X51110000Y72850000I0J175000D01*
G01*
G37*
G36*
G01*
X56060000Y72850000D02*
X56060000Y73200000D01*
G75*
G02*
X56235000Y73375000I175000J0D01*
G01*
X57935000Y73375000D01*
G75*
G02*
X58110000Y73200000I0J-175000D01*
G01*
X58110000Y72850000D01*
G75*
G02*
X57935000Y72675000I-175000J0D01*
G01*
X56235000Y72675000D01*
G75*
G02*
X56060000Y72850000I0J175000D01*
G01*
G37*
G36*
G01*
X56060000Y74120000D02*
X56060000Y74470000D01*
G75*
G02*
X56235000Y74645000I175000J0D01*
G01*
X57935000Y74645000D01*
G75*
G02*
X58110000Y74470000I0J-175000D01*
G01*
X58110000Y74120000D01*
G75*
G02*
X57935000Y73945000I-175000J0D01*
G01*
X56235000Y73945000D01*
G75*
G02*
X56060000Y74120000I0J175000D01*
G01*
G37*
G36*
G01*
X56060000Y75390000D02*
X56060000Y75740000D01*
G75*
G02*
X56235000Y75915000I175000J0D01*
G01*
X57935000Y75915000D01*
G75*
G02*
X58110000Y75740000I0J-175000D01*
G01*
X58110000Y75390000D01*
G75*
G02*
X57935000Y75215000I-175000J0D01*
G01*
X56235000Y75215000D01*
G75*
G02*
X56060000Y75390000I0J175000D01*
G01*
G37*
G36*
G01*
X56060000Y76660000D02*
X56060000Y77010000D01*
G75*
G02*
X56235000Y77185000I175000J0D01*
G01*
X57935000Y77185000D01*
G75*
G02*
X58110000Y77010000I0J-175000D01*
G01*
X58110000Y76660000D01*
G75*
G02*
X57935000Y76485000I-175000J0D01*
G01*
X56235000Y76485000D01*
G75*
G02*
X56060000Y76660000I0J175000D01*
G01*
G37*
%TD*%
D19*
%TO.C,U2*%
X31432500Y30480000D03*
G36*
G01*
X33207500Y32210000D02*
X33207500Y32560000D01*
G75*
G02*
X33382500Y32735000I175000J0D01*
G01*
X34757500Y32735000D01*
G75*
G02*
X34932500Y32560000I0J-175000D01*
G01*
X34932500Y32210000D01*
G75*
G02*
X34757500Y32035000I-175000J0D01*
G01*
X33382500Y32035000D01*
G75*
G02*
X33207500Y32210000I0J175000D01*
G01*
G37*
G36*
G01*
X33207500Y30940000D02*
X33207500Y31290000D01*
G75*
G02*
X33382500Y31465000I175000J0D01*
G01*
X34757500Y31465000D01*
G75*
G02*
X34932500Y31290000I0J-175000D01*
G01*
X34932500Y30940000D01*
G75*
G02*
X34757500Y30765000I-175000J0D01*
G01*
X33382500Y30765000D01*
G75*
G02*
X33207500Y30940000I0J175000D01*
G01*
G37*
G36*
G01*
X33207500Y29670000D02*
X33207500Y30020000D01*
G75*
G02*
X33382500Y30195000I175000J0D01*
G01*
X34757500Y30195000D01*
G75*
G02*
X34932500Y30020000I0J-175000D01*
G01*
X34932500Y29670000D01*
G75*
G02*
X34757500Y29495000I-175000J0D01*
G01*
X33382500Y29495000D01*
G75*
G02*
X33207500Y29670000I0J175000D01*
G01*
G37*
G36*
G01*
X33207500Y28400000D02*
X33207500Y28750000D01*
G75*
G02*
X33382500Y28925000I175000J0D01*
G01*
X34757500Y28925000D01*
G75*
G02*
X34932500Y28750000I0J-175000D01*
G01*
X34932500Y28400000D01*
G75*
G02*
X34757500Y28225000I-175000J0D01*
G01*
X33382500Y28225000D01*
G75*
G02*
X33207500Y28400000I0J175000D01*
G01*
G37*
G36*
G01*
X27932500Y28400000D02*
X27932500Y28750000D01*
G75*
G02*
X28107500Y28925000I175000J0D01*
G01*
X29482500Y28925000D01*
G75*
G02*
X29657500Y28750000I0J-175000D01*
G01*
X29657500Y28400000D01*
G75*
G02*
X29482500Y28225000I-175000J0D01*
G01*
X28107500Y28225000D01*
G75*
G02*
X27932500Y28400000I0J175000D01*
G01*
G37*
G36*
G01*
X27932500Y29670000D02*
X27932500Y30020000D01*
G75*
G02*
X28107500Y30195000I175000J0D01*
G01*
X29482500Y30195000D01*
G75*
G02*
X29657500Y30020000I0J-175000D01*
G01*
X29657500Y29670000D01*
G75*
G02*
X29482500Y29495000I-175000J0D01*
G01*
X28107500Y29495000D01*
G75*
G02*
X27932500Y29670000I0J175000D01*
G01*
G37*
G36*
G01*
X27932500Y30940000D02*
X27932500Y31290000D01*
G75*
G02*
X28107500Y31465000I175000J0D01*
G01*
X29482500Y31465000D01*
G75*
G02*
X29657500Y31290000I0J-175000D01*
G01*
X29657500Y30940000D01*
G75*
G02*
X29482500Y30765000I-175000J0D01*
G01*
X28107500Y30765000D01*
G75*
G02*
X27932500Y30940000I0J175000D01*
G01*
G37*
G36*
G01*
X27932500Y32210000D02*
X27932500Y32560000D01*
G75*
G02*
X28107500Y32735000I175000J0D01*
G01*
X29482500Y32735000D01*
G75*
G02*
X29657500Y32560000I0J-175000D01*
G01*
X29657500Y32210000D01*
G75*
G02*
X29482500Y32035000I-175000J0D01*
G01*
X28107500Y32035000D01*
G75*
G02*
X27932500Y32210000I0J175000D01*
G01*
G37*
%TD*%
%TO.C,U3*%
G36*
G01*
X67300000Y44230000D02*
X67300000Y44580000D01*
G75*
G02*
X67475000Y44755000I175000J0D01*
G01*
X68850000Y44755000D01*
G75*
G02*
X69025000Y44580000I0J-175000D01*
G01*
X69025000Y44230000D01*
G75*
G02*
X68850000Y44055000I-175000J0D01*
G01*
X67475000Y44055000D01*
G75*
G02*
X67300000Y44230000I0J175000D01*
G01*
G37*
G36*
G01*
X67300000Y42960000D02*
X67300000Y43310000D01*
G75*
G02*
X67475000Y43485000I175000J0D01*
G01*
X68850000Y43485000D01*
G75*
G02*
X69025000Y43310000I0J-175000D01*
G01*
X69025000Y42960000D01*
G75*
G02*
X68850000Y42785000I-175000J0D01*
G01*
X67475000Y42785000D01*
G75*
G02*
X67300000Y42960000I0J175000D01*
G01*
G37*
G36*
G01*
X67300000Y41690000D02*
X67300000Y42040000D01*
G75*
G02*
X67475000Y42215000I175000J0D01*
G01*
X68850000Y42215000D01*
G75*
G02*
X69025000Y42040000I0J-175000D01*
G01*
X69025000Y41690000D01*
G75*
G02*
X68850000Y41515000I-175000J0D01*
G01*
X67475000Y41515000D01*
G75*
G02*
X67300000Y41690000I0J175000D01*
G01*
G37*
G36*
G01*
X67300000Y40420000D02*
X67300000Y40770000D01*
G75*
G02*
X67475000Y40945000I175000J0D01*
G01*
X68850000Y40945000D01*
G75*
G02*
X69025000Y40770000I0J-175000D01*
G01*
X69025000Y40420000D01*
G75*
G02*
X68850000Y40245000I-175000J0D01*
G01*
X67475000Y40245000D01*
G75*
G02*
X67300000Y40420000I0J175000D01*
G01*
G37*
G36*
G01*
X72575000Y40420000D02*
X72575000Y40770000D01*
G75*
G02*
X72750000Y40945000I175000J0D01*
G01*
X74125000Y40945000D01*
G75*
G02*
X74300000Y40770000I0J-175000D01*
G01*
X74300000Y40420000D01*
G75*
G02*
X74125000Y40245000I-175000J0D01*
G01*
X72750000Y40245000D01*
G75*
G02*
X72575000Y40420000I0J175000D01*
G01*
G37*
G36*
G01*
X72575000Y41690000D02*
X72575000Y42040000D01*
G75*
G02*
X72750000Y42215000I175000J0D01*
G01*
X74125000Y42215000D01*
G75*
G02*
X74300000Y42040000I0J-175000D01*
G01*
X74300000Y41690000D01*
G75*
G02*
X74125000Y41515000I-175000J0D01*
G01*
X72750000Y41515000D01*
G75*
G02*
X72575000Y41690000I0J175000D01*
G01*
G37*
G36*
G01*
X72575000Y42960000D02*
X72575000Y43310000D01*
G75*
G02*
X72750000Y43485000I175000J0D01*
G01*
X74125000Y43485000D01*
G75*
G02*
X74300000Y43310000I0J-175000D01*
G01*
X74300000Y42960000D01*
G75*
G02*
X74125000Y42785000I-175000J0D01*
G01*
X72750000Y42785000D01*
G75*
G02*
X72575000Y42960000I0J175000D01*
G01*
G37*
G36*
G01*
X72575000Y44230000D02*
X72575000Y44580000D01*
G75*
G02*
X72750000Y44755000I175000J0D01*
G01*
X74125000Y44755000D01*
G75*
G02*
X74300000Y44580000I0J-175000D01*
G01*
X74300000Y44230000D01*
G75*
G02*
X74125000Y44055000I-175000J0D01*
G01*
X72750000Y44055000D01*
G75*
G02*
X72575000Y44230000I0J175000D01*
G01*
G37*
X70800000Y42500000D03*
%TD*%
D20*
%TO.C,NT1*%
G36*
X32032255Y37946539D02*
G01*
X32041634Y37943694D01*
X32050279Y37939073D01*
X32057855Y37932855D01*
X32064073Y37925279D01*
X32068694Y37916634D01*
X32071539Y37907255D01*
X32072500Y37897500D01*
X32072500Y36397500D01*
X32071539Y36387745D01*
X32068694Y36378366D01*
X32064073Y36369721D01*
X32057855Y36362145D01*
X32050279Y36355927D01*
X32041634Y36351306D01*
X32032255Y36348461D01*
X32022500Y36347500D01*
X30872500Y36347500D01*
X30862745Y36348461D01*
X30853366Y36351306D01*
X30844721Y36355927D01*
X30837145Y36362145D01*
X30830927Y36369721D01*
X30826306Y36378366D01*
X30823461Y36387745D01*
X30822500Y36397500D01*
X30823461Y36407255D01*
X30826306Y36416634D01*
X30830897Y36425235D01*
X31312407Y37147500D01*
X30830897Y37869765D01*
X30826286Y37878414D01*
X30823451Y37887797D01*
X30822500Y37897552D01*
X30823471Y37907306D01*
X30826326Y37916682D01*
X30830956Y37925322D01*
X30837182Y37932892D01*
X30844765Y37939103D01*
X30853414Y37943714D01*
X30862797Y37946549D01*
X30872500Y37947500D01*
X32022500Y37947500D01*
X32032255Y37946539D01*
G37*
G36*
X30582255Y37946539D02*
G01*
X30591634Y37943694D01*
X30600279Y37939073D01*
X30607855Y37932855D01*
X30614103Y37925235D01*
X31114103Y37175235D01*
X31118714Y37166586D01*
X31121549Y37157203D01*
X31122500Y37147448D01*
X31121529Y37137694D01*
X31118674Y37128318D01*
X31114103Y37119765D01*
X30614103Y36369765D01*
X30607892Y36362182D01*
X30600322Y36355956D01*
X30591682Y36351326D01*
X30582306Y36348471D01*
X30572500Y36347500D01*
X29572500Y36347500D01*
X29562745Y36348461D01*
X29553366Y36351306D01*
X29544721Y36355927D01*
X29537145Y36362145D01*
X29530927Y36369721D01*
X29526306Y36378366D01*
X29523461Y36387745D01*
X29522500Y36397500D01*
X29522500Y37897500D01*
X29523461Y37907255D01*
X29526306Y37916634D01*
X29530927Y37925279D01*
X29537145Y37932855D01*
X29544721Y37939073D01*
X29553366Y37943694D01*
X29562745Y37946539D01*
X29572500Y37947500D01*
X30572500Y37947500D01*
X30582255Y37946539D01*
G37*
%TD*%
%TO.C,NT2*%
G36*
X65099755Y47789039D02*
G01*
X65109134Y47786194D01*
X65117779Y47781573D01*
X65125355Y47775355D01*
X65131603Y47767735D01*
X65631603Y47017735D01*
X65636214Y47009086D01*
X65639049Y46999703D01*
X65640000Y46989948D01*
X65639029Y46980194D01*
X65636174Y46970818D01*
X65631603Y46962265D01*
X65131603Y46212265D01*
X65125392Y46204682D01*
X65117822Y46198456D01*
X65109182Y46193826D01*
X65099806Y46190971D01*
X65090000Y46190000D01*
X64090000Y46190000D01*
X64080245Y46190961D01*
X64070866Y46193806D01*
X64062221Y46198427D01*
X64054645Y46204645D01*
X64048427Y46212221D01*
X64043806Y46220866D01*
X64040961Y46230245D01*
X64040000Y46240000D01*
X64040000Y47740000D01*
X64040961Y47749755D01*
X64043806Y47759134D01*
X64048427Y47767779D01*
X64054645Y47775355D01*
X64062221Y47781573D01*
X64070866Y47786194D01*
X64080245Y47789039D01*
X64090000Y47790000D01*
X65090000Y47790000D01*
X65099755Y47789039D01*
G37*
G36*
X66549755Y47789039D02*
G01*
X66559134Y47786194D01*
X66567779Y47781573D01*
X66575355Y47775355D01*
X66581573Y47767779D01*
X66586194Y47759134D01*
X66589039Y47749755D01*
X66590000Y47740000D01*
X66590000Y46240000D01*
X66589039Y46230245D01*
X66586194Y46220866D01*
X66581573Y46212221D01*
X66575355Y46204645D01*
X66567779Y46198427D01*
X66559134Y46193806D01*
X66549755Y46190961D01*
X66540000Y46190000D01*
X65390000Y46190000D01*
X65380245Y46190961D01*
X65370866Y46193806D01*
X65362221Y46198427D01*
X65354645Y46204645D01*
X65348427Y46212221D01*
X65343806Y46220866D01*
X65340961Y46230245D01*
X65340000Y46240000D01*
X65340961Y46249755D01*
X65343806Y46259134D01*
X65348397Y46267735D01*
X65829907Y46990000D01*
X65348397Y47712265D01*
X65343786Y47720914D01*
X65340951Y47730297D01*
X65340000Y47740052D01*
X65340971Y47749806D01*
X65343826Y47759182D01*
X65348456Y47767822D01*
X65354682Y47775392D01*
X65362265Y47781603D01*
X65370914Y47786214D01*
X65380297Y47789049D01*
X65390000Y47790000D01*
X66540000Y47790000D01*
X66549755Y47789039D01*
G37*
%TD*%
D21*
%TO.C,TP1*%
X66357500Y70485000D03*
%TD*%
%TO.C,TP2*%
X42545000Y70358000D03*
%TD*%
%TO.C,TP3*%
X62865000Y78740000D03*
%TD*%
%TO.C,TP4*%
X21272500Y49530000D03*
%TD*%
%TO.C,TP5*%
X44100000Y49700000D03*
%TD*%
%TO.C,TP6*%
X41600000Y49700000D03*
%TD*%
M02*
