%TF.GenerationSoftware,KiCad,Pcbnew,(5.1.6)-1*%
%TF.CreationDate,2021-04-21T19:08:55-07:00*%
%TF.ProjectId,oscillator,6f736369-6c6c-4617-946f-722e6b696361,rev?*%
%TF.SameCoordinates,Original*%
%TF.FileFunction,Legend,Top*%
%TF.FilePolarity,Positive*%
%FSLAX46Y46*%
G04 Gerber Fmt 4.6, Leading zero omitted, Abs format (unit mm)*
G04 Created by KiCad (PCBNEW (5.1.6)-1) date 2021-04-21 19:08:55*
%MOMM*%
%LPD*%
G01*
G04 APERTURE LIST*
%ADD10C,0.150000*%
%ADD11C,0.120000*%
G04 APERTURE END LIST*
D10*
X2571428Y75738095D02*
X2571428Y76500000D01*
X2952380Y77500000D02*
X2952380Y76928571D01*
X2952380Y77214285D02*
X1952380Y77214285D01*
X2095238Y77119047D01*
X2190476Y77023809D01*
X2238095Y76928571D01*
X1952380Y78404761D02*
X1952380Y77928571D01*
X2428571Y77880952D01*
X2380952Y77928571D01*
X2333333Y78023809D01*
X2333333Y78261904D01*
X2380952Y78357142D01*
X2428571Y78404761D01*
X2523809Y78452380D01*
X2761904Y78452380D01*
X2857142Y78404761D01*
X2904761Y78357142D01*
X2952380Y78261904D01*
X2952380Y78023809D01*
X2904761Y77928571D01*
X2857142Y77880952D01*
X1952380Y78738095D02*
X2952380Y79071428D01*
X1952380Y79404761D01*
X2000000Y81738095D02*
X1952380Y81642857D01*
X1952380Y81500000D01*
X2000000Y81357142D01*
X2095238Y81261904D01*
X2190476Y81214285D01*
X2380952Y81166666D01*
X2523809Y81166666D01*
X2714285Y81214285D01*
X2809523Y81261904D01*
X2904761Y81357142D01*
X2952380Y81500000D01*
X2952380Y81595238D01*
X2904761Y81738095D01*
X2857142Y81785714D01*
X2523809Y81785714D01*
X2523809Y81595238D01*
X2952380Y82214285D02*
X1952380Y82214285D01*
X2952380Y82785714D01*
X1952380Y82785714D01*
X2952380Y83261904D02*
X1952380Y83261904D01*
X1952380Y83500000D01*
X2000000Y83642857D01*
X2095238Y83738095D01*
X2190476Y83785714D01*
X2380952Y83833333D01*
X2523809Y83833333D01*
X2714285Y83785714D01*
X2809523Y83738095D01*
X2904761Y83642857D01*
X2952380Y83500000D01*
X2952380Y83261904D01*
X2571428Y93238095D02*
X2571428Y94000000D01*
X2952380Y93619047D02*
X2190476Y93619047D01*
X2952380Y95000000D02*
X2952380Y94428571D01*
X2952380Y94714285D02*
X1952380Y94714285D01*
X2095238Y94619047D01*
X2190476Y94523809D01*
X2238095Y94428571D01*
X1952380Y95904761D02*
X1952380Y95428571D01*
X2428571Y95380952D01*
X2380952Y95428571D01*
X2333333Y95523809D01*
X2333333Y95761904D01*
X2380952Y95857142D01*
X2428571Y95904761D01*
X2523809Y95952380D01*
X2761904Y95952380D01*
X2857142Y95904761D01*
X2904761Y95857142D01*
X2952380Y95761904D01*
X2952380Y95523809D01*
X2904761Y95428571D01*
X2857142Y95380952D01*
X1952380Y96238095D02*
X2952380Y96571428D01*
X1952380Y96904761D01*
X2000000Y89238095D02*
X1952380Y89142857D01*
X1952380Y89000000D01*
X2000000Y88857142D01*
X2095238Y88761904D01*
X2190476Y88714285D01*
X2380952Y88666666D01*
X2523809Y88666666D01*
X2714285Y88714285D01*
X2809523Y88761904D01*
X2904761Y88857142D01*
X2952380Y89000000D01*
X2952380Y89095238D01*
X2904761Y89238095D01*
X2857142Y89285714D01*
X2523809Y89285714D01*
X2523809Y89095238D01*
X2952380Y89714285D02*
X1952380Y89714285D01*
X2952380Y90285714D01*
X1952380Y90285714D01*
X2952380Y90761904D02*
X1952380Y90761904D01*
X1952380Y91000000D01*
X2000000Y91142857D01*
X2095238Y91238095D01*
X2190476Y91285714D01*
X2380952Y91333333D01*
X2523809Y91333333D01*
X2714285Y91285714D01*
X2809523Y91238095D01*
X2904761Y91142857D01*
X2952380Y91000000D01*
X2952380Y90761904D01*
D11*
%TO.C,C1*%
X22675436Y64860000D02*
X23879564Y64860000D01*
X22675436Y62140000D02*
X23879564Y62140000D01*
%TO.C,C2*%
X22675436Y65950000D02*
X23879564Y65950000D01*
X22675436Y68670000D02*
X23879564Y68670000D01*
%TO.C,C3*%
X55212064Y82460000D02*
X54007936Y82460000D01*
X55212064Y85180000D02*
X54007936Y85180000D01*
%TO.C,C4*%
X55212064Y64680000D02*
X54007936Y64680000D01*
X55212064Y67400000D02*
X54007936Y67400000D01*
%TO.C,C5*%
X22675436Y72480000D02*
X23879564Y72480000D01*
X22675436Y69760000D02*
X23879564Y69760000D01*
%TO.C,C6*%
X73944564Y48667500D02*
X72740436Y48667500D01*
X73944564Y45947500D02*
X72740436Y45947500D01*
%TO.C,C7*%
X66807936Y36422500D02*
X68012064Y36422500D01*
X66807936Y39142500D02*
X68012064Y39142500D01*
%TO.C,C8*%
X40824564Y64860000D02*
X39620436Y64860000D01*
X40824564Y62140000D02*
X39620436Y62140000D01*
%TO.C,C9*%
X40824564Y65950000D02*
X39620436Y65950000D01*
X40824564Y68670000D02*
X39620436Y68670000D01*
%TO.C,C10*%
X40867500Y32200436D02*
X40867500Y33404564D01*
X43587500Y32200436D02*
X43587500Y33404564D01*
%TO.C,C11*%
X35109564Y24040000D02*
X33905436Y24040000D01*
X35109564Y26760000D02*
X33905436Y26760000D01*
%TO.C,C12*%
X55212064Y78650000D02*
X54007936Y78650000D01*
X55212064Y81370000D02*
X54007936Y81370000D01*
%TO.C,C13*%
X55212064Y68490000D02*
X54007936Y68490000D01*
X55212064Y71210000D02*
X54007936Y71210000D01*
%TO.C,C14*%
X76110000Y43682064D02*
X76110000Y42477936D01*
X78830000Y43682064D02*
X78830000Y42477936D01*
%TO.C,C15*%
X74797064Y39142500D02*
X73592936Y39142500D01*
X74797064Y36422500D02*
X73592936Y36422500D01*
%TO.C,C16*%
X39777500Y32200436D02*
X39777500Y33404564D01*
X37057500Y32200436D02*
X37057500Y33404564D01*
%TO.C,C17*%
X27755436Y24040000D02*
X28959564Y24040000D01*
X27755436Y26760000D02*
X28959564Y26760000D01*
%TO.C,D1*%
X81645000Y76622000D02*
X81645000Y72772000D01*
X79645000Y76622000D02*
X79645000Y72772000D01*
X81645000Y76622000D02*
X79645000Y76622000D01*
%TO.C,D2*%
X81645000Y81448000D02*
X79645000Y81448000D01*
X79645000Y81448000D02*
X79645000Y77598000D01*
X81645000Y81448000D02*
X81645000Y77598000D01*
%TO.C,J1*%
X11310000Y87460000D02*
X11310000Y97620000D01*
X3690000Y87460000D02*
X11310000Y87460000D01*
X3690000Y97620000D02*
X3690000Y87460000D01*
X11310000Y97620000D02*
X3690000Y97620000D01*
X10040000Y97620000D02*
X10040000Y87460000D01*
%TO.C,J2*%
X4960000Y74960000D02*
X4960000Y85120000D01*
X3690000Y74960000D02*
X11310000Y74960000D01*
X11310000Y74960000D02*
X11310000Y85120000D01*
X11310000Y85120000D02*
X3690000Y85120000D01*
X3690000Y85120000D02*
X3690000Y74960000D01*
%TO.C,J3*%
X29150000Y73600000D02*
X29150000Y74930000D01*
X30480000Y73600000D02*
X29150000Y73600000D01*
X31750000Y73600000D02*
X31750000Y76260000D01*
X31750000Y76260000D02*
X34350000Y76260000D01*
X31750000Y73600000D02*
X34350000Y73600000D01*
X34350000Y73600000D02*
X34350000Y76260000D01*
%TO.C,J4*%
X85030000Y8512500D02*
X87690000Y8512500D01*
X85030000Y11112500D02*
X85030000Y8512500D01*
X87690000Y11112500D02*
X87690000Y8512500D01*
X85030000Y11112500D02*
X87690000Y11112500D01*
X85030000Y12382500D02*
X85030000Y13712500D01*
X85030000Y13712500D02*
X86360000Y13712500D01*
%TO.C,J5*%
X73917500Y28317500D02*
X75247500Y28317500D01*
X73917500Y26987500D02*
X73917500Y28317500D01*
X73917500Y25717500D02*
X76577500Y25717500D01*
X76577500Y25717500D02*
X76577500Y23117500D01*
X73917500Y25717500D02*
X73917500Y23117500D01*
X73917500Y23117500D02*
X76577500Y23117500D01*
%TO.C,J6*%
X73917500Y8512500D02*
X76577500Y8512500D01*
X73917500Y11112500D02*
X73917500Y8512500D01*
X76577500Y11112500D02*
X76577500Y8512500D01*
X73917500Y11112500D02*
X76577500Y11112500D01*
X73917500Y12382500D02*
X73917500Y13712500D01*
X73917500Y13712500D02*
X75247500Y13712500D01*
%TO.C,J7*%
X85030000Y23117500D02*
X87690000Y23117500D01*
X85030000Y25717500D02*
X85030000Y23117500D01*
X87690000Y25717500D02*
X87690000Y23117500D01*
X85030000Y25717500D02*
X87690000Y25717500D01*
X85030000Y26987500D02*
X85030000Y28317500D01*
X85030000Y28317500D02*
X86360000Y28317500D01*
%TO.C,R1*%
X69760000Y73910436D02*
X69760000Y75114564D01*
X67040000Y73910436D02*
X67040000Y75114564D01*
%TO.C,R2*%
X64225000Y68964564D02*
X64225000Y67760436D01*
X61505000Y68964564D02*
X61505000Y67760436D01*
%TO.C,R3*%
X43560000Y75597936D02*
X43560000Y76802064D01*
X40840000Y75597936D02*
X40840000Y76802064D01*
%TO.C,R4*%
X61505000Y75114564D02*
X61505000Y73910436D01*
X64225000Y75114564D02*
X64225000Y73910436D01*
%TO.C,R5*%
X40814564Y58240000D02*
X39610436Y58240000D01*
X40814564Y60960000D02*
X39610436Y60960000D01*
%TO.C,R6*%
X47715000Y66107064D02*
X47715000Y64902936D01*
X44995000Y66107064D02*
X44995000Y64902936D01*
%TO.C,R7*%
X44995000Y71504564D02*
X44995000Y70300436D01*
X47715000Y71504564D02*
X47715000Y70300436D01*
%TO.C,R8*%
X49434869Y26975000D02*
X47840131Y26975000D01*
X49434869Y22555000D02*
X47840131Y22555000D01*
%TO.C,R9*%
X47715000Y76802064D02*
X47715000Y75597936D01*
X44995000Y76802064D02*
X44995000Y75597936D01*
%TO.C,R10*%
X78435000Y34067631D02*
X78435000Y35662369D01*
X82855000Y34067631D02*
X82855000Y35662369D01*
%TO.C,U1*%
X54610000Y72370000D02*
X56560000Y72370000D01*
X54610000Y72370000D02*
X52660000Y72370000D01*
X54610000Y77490000D02*
X56560000Y77490000D01*
X54610000Y77490000D02*
X51160000Y77490000D01*
%TO.C,U2*%
X31432500Y33040000D02*
X27982500Y33040000D01*
X31432500Y33040000D02*
X33382500Y33040000D01*
X31432500Y27920000D02*
X29482500Y27920000D01*
X31432500Y27920000D02*
X33382500Y27920000D01*
%TO.C,U3*%
X70800000Y39940000D02*
X72750000Y39940000D01*
X70800000Y39940000D02*
X68850000Y39940000D01*
X70800000Y45060000D02*
X72750000Y45060000D01*
X70800000Y45060000D02*
X67350000Y45060000D01*
%TO.C,NT1*%
X29397500Y36147500D02*
X29397500Y38147500D01*
X32197500Y36147500D02*
X29397500Y36147500D01*
X32197500Y38147500D02*
X32197500Y36147500D01*
X29397500Y38147500D02*
X32197500Y38147500D01*
%TO.C,NT2*%
X63915000Y47990000D02*
X66715000Y47990000D01*
X66715000Y47990000D02*
X66715000Y45990000D01*
X66715000Y45990000D02*
X63915000Y45990000D01*
X63915000Y45990000D02*
X63915000Y47990000D01*
%TO.C,TP1*%
X65662500Y69800000D02*
X67052500Y69800000D01*
X65662500Y69800000D02*
X65662500Y69925000D01*
X67052500Y69800000D02*
X67052500Y69925000D01*
X65662500Y69800000D02*
X65749224Y69800000D01*
X66965776Y69800000D02*
X67052500Y69800000D01*
X65662500Y70485000D02*
X65662500Y71170000D01*
X65662500Y71170000D02*
X66357500Y71170000D01*
%TO.C,TP2*%
X41850000Y71043000D02*
X42545000Y71043000D01*
X41850000Y70358000D02*
X41850000Y71043000D01*
X43153276Y69673000D02*
X43240000Y69673000D01*
X41850000Y69673000D02*
X41936724Y69673000D01*
X43240000Y69673000D02*
X43240000Y69798000D01*
X41850000Y69673000D02*
X41850000Y69798000D01*
X41850000Y69673000D02*
X43240000Y69673000D01*
%TO.C,TP3*%
X62170000Y79425000D02*
X62865000Y79425000D01*
X62170000Y78740000D02*
X62170000Y79425000D01*
X63473276Y78055000D02*
X63560000Y78055000D01*
X62170000Y78055000D02*
X62256724Y78055000D01*
X63560000Y78055000D02*
X63560000Y78180000D01*
X62170000Y78055000D02*
X62170000Y78180000D01*
X62170000Y78055000D02*
X63560000Y78055000D01*
%TO.C,TP4*%
X20577500Y48845000D02*
X21967500Y48845000D01*
X20577500Y48845000D02*
X20577500Y48970000D01*
X21967500Y48845000D02*
X21967500Y48970000D01*
X20577500Y48845000D02*
X20664224Y48845000D01*
X21880776Y48845000D02*
X21967500Y48845000D01*
X20577500Y49530000D02*
X20577500Y50215000D01*
X20577500Y50215000D02*
X21272500Y50215000D01*
%TO.C,TP5*%
X43405000Y49015000D02*
X44795000Y49015000D01*
X43405000Y49015000D02*
X43405000Y49140000D01*
X44795000Y49015000D02*
X44795000Y49140000D01*
X43405000Y49015000D02*
X43491724Y49015000D01*
X44708276Y49015000D02*
X44795000Y49015000D01*
X43405000Y49700000D02*
X43405000Y50385000D01*
X43405000Y50385000D02*
X44100000Y50385000D01*
%TO.C,TP6*%
X40905000Y50385000D02*
X41600000Y50385000D01*
X40905000Y49700000D02*
X40905000Y50385000D01*
X42208276Y49015000D02*
X42295000Y49015000D01*
X40905000Y49015000D02*
X40991724Y49015000D01*
X42295000Y49015000D02*
X42295000Y49140000D01*
X40905000Y49015000D02*
X40905000Y49140000D01*
X40905000Y49015000D02*
X42295000Y49015000D01*
%TO.C,C1*%
D10*
X19598333Y64412857D02*
X19550714Y64365238D01*
X19407857Y64317619D01*
X19312619Y64317619D01*
X19169761Y64365238D01*
X19074523Y64460476D01*
X19026904Y64555714D01*
X18979285Y64746190D01*
X18979285Y64889047D01*
X19026904Y65079523D01*
X19074523Y65174761D01*
X19169761Y65270000D01*
X19312619Y65317619D01*
X19407857Y65317619D01*
X19550714Y65270000D01*
X19598333Y65222380D01*
X20550714Y64317619D02*
X19979285Y64317619D01*
X20265000Y64317619D02*
X20265000Y65317619D01*
X20169761Y65174761D01*
X20074523Y65079523D01*
X19979285Y65031904D01*
%TO.C,C2*%
X19518333Y68222857D02*
X19470714Y68175238D01*
X19327857Y68127619D01*
X19232619Y68127619D01*
X19089761Y68175238D01*
X18994523Y68270476D01*
X18946904Y68365714D01*
X18899285Y68556190D01*
X18899285Y68699047D01*
X18946904Y68889523D01*
X18994523Y68984761D01*
X19089761Y69080000D01*
X19232619Y69127619D01*
X19327857Y69127619D01*
X19470714Y69080000D01*
X19518333Y69032380D01*
X19899285Y69032380D02*
X19946904Y69080000D01*
X20042142Y69127619D01*
X20280238Y69127619D01*
X20375476Y69080000D01*
X20423095Y69032380D01*
X20470714Y68937142D01*
X20470714Y68841904D01*
X20423095Y68699047D01*
X19851666Y68127619D01*
X20470714Y68127619D01*
%TO.C,C3*%
X51072023Y83462857D02*
X51024404Y83415238D01*
X50881547Y83367619D01*
X50786309Y83367619D01*
X50643452Y83415238D01*
X50548214Y83510476D01*
X50500595Y83605714D01*
X50452976Y83796190D01*
X50452976Y83939047D01*
X50500595Y84129523D01*
X50548214Y84224761D01*
X50643452Y84320000D01*
X50786309Y84367619D01*
X50881547Y84367619D01*
X51024404Y84320000D01*
X51072023Y84272380D01*
X51405357Y84367619D02*
X52024404Y84367619D01*
X51691071Y83986666D01*
X51833928Y83986666D01*
X51929166Y83939047D01*
X51976785Y83891428D01*
X52024404Y83796190D01*
X52024404Y83558095D01*
X51976785Y83462857D01*
X51929166Y83415238D01*
X51833928Y83367619D01*
X51548214Y83367619D01*
X51452976Y83415238D01*
X51405357Y83462857D01*
%TO.C,C4*%
X58057023Y65682857D02*
X58009404Y65635238D01*
X57866547Y65587619D01*
X57771309Y65587619D01*
X57628452Y65635238D01*
X57533214Y65730476D01*
X57485595Y65825714D01*
X57437976Y66016190D01*
X57437976Y66159047D01*
X57485595Y66349523D01*
X57533214Y66444761D01*
X57628452Y66540000D01*
X57771309Y66587619D01*
X57866547Y66587619D01*
X58009404Y66540000D01*
X58057023Y66492380D01*
X58914166Y66254285D02*
X58914166Y65587619D01*
X58676071Y66635238D02*
X58437976Y65920952D01*
X59057023Y65920952D01*
%TO.C,C5*%
X19518333Y72032857D02*
X19470714Y71985238D01*
X19327857Y71937619D01*
X19232619Y71937619D01*
X19089761Y71985238D01*
X18994523Y72080476D01*
X18946904Y72175714D01*
X18899285Y72366190D01*
X18899285Y72509047D01*
X18946904Y72699523D01*
X18994523Y72794761D01*
X19089761Y72890000D01*
X19232619Y72937619D01*
X19327857Y72937619D01*
X19470714Y72890000D01*
X19518333Y72842380D01*
X20423095Y72937619D02*
X19946904Y72937619D01*
X19899285Y72461428D01*
X19946904Y72509047D01*
X20042142Y72556666D01*
X20280238Y72556666D01*
X20375476Y72509047D01*
X20423095Y72461428D01*
X20470714Y72366190D01*
X20470714Y72128095D01*
X20423095Y72032857D01*
X20375476Y71985238D01*
X20280238Y71937619D01*
X20042142Y71937619D01*
X19946904Y71985238D01*
X19899285Y72032857D01*
%TO.C,C6*%
X73175833Y49172857D02*
X73128214Y49125238D01*
X72985357Y49077619D01*
X72890119Y49077619D01*
X72747261Y49125238D01*
X72652023Y49220476D01*
X72604404Y49315714D01*
X72556785Y49506190D01*
X72556785Y49649047D01*
X72604404Y49839523D01*
X72652023Y49934761D01*
X72747261Y50030000D01*
X72890119Y50077619D01*
X72985357Y50077619D01*
X73128214Y50030000D01*
X73175833Y49982380D01*
X74032976Y50077619D02*
X73842500Y50077619D01*
X73747261Y50030000D01*
X73699642Y49982380D01*
X73604404Y49839523D01*
X73556785Y49649047D01*
X73556785Y49268095D01*
X73604404Y49172857D01*
X73652023Y49125238D01*
X73747261Y49077619D01*
X73937738Y49077619D01*
X74032976Y49125238D01*
X74080595Y49172857D01*
X74128214Y49268095D01*
X74128214Y49506190D01*
X74080595Y49601428D01*
X74032976Y49649047D01*
X73937738Y49696666D01*
X73747261Y49696666D01*
X73652023Y49649047D01*
X73604404Y49601428D01*
X73556785Y49506190D01*
%TO.C,C7*%
X67243333Y35202857D02*
X67195714Y35155238D01*
X67052857Y35107619D01*
X66957619Y35107619D01*
X66814761Y35155238D01*
X66719523Y35250476D01*
X66671904Y35345714D01*
X66624285Y35536190D01*
X66624285Y35679047D01*
X66671904Y35869523D01*
X66719523Y35964761D01*
X66814761Y36060000D01*
X66957619Y36107619D01*
X67052857Y36107619D01*
X67195714Y36060000D01*
X67243333Y36012380D01*
X67576666Y36107619D02*
X68243333Y36107619D01*
X67814761Y35107619D01*
%TO.C,C8*%
X43330833Y64412857D02*
X43283214Y64365238D01*
X43140357Y64317619D01*
X43045119Y64317619D01*
X42902261Y64365238D01*
X42807023Y64460476D01*
X42759404Y64555714D01*
X42711785Y64746190D01*
X42711785Y64889047D01*
X42759404Y65079523D01*
X42807023Y65174761D01*
X42902261Y65270000D01*
X43045119Y65317619D01*
X43140357Y65317619D01*
X43283214Y65270000D01*
X43330833Y65222380D01*
X43902261Y64889047D02*
X43807023Y64936666D01*
X43759404Y64984285D01*
X43711785Y65079523D01*
X43711785Y65127142D01*
X43759404Y65222380D01*
X43807023Y65270000D01*
X43902261Y65317619D01*
X44092738Y65317619D01*
X44187976Y65270000D01*
X44235595Y65222380D01*
X44283214Y65127142D01*
X44283214Y65079523D01*
X44235595Y64984285D01*
X44187976Y64936666D01*
X44092738Y64889047D01*
X43902261Y64889047D01*
X43807023Y64841428D01*
X43759404Y64793809D01*
X43711785Y64698571D01*
X43711785Y64508095D01*
X43759404Y64412857D01*
X43807023Y64365238D01*
X43902261Y64317619D01*
X44092738Y64317619D01*
X44187976Y64365238D01*
X44235595Y64412857D01*
X44283214Y64508095D01*
X44283214Y64698571D01*
X44235595Y64793809D01*
X44187976Y64841428D01*
X44092738Y64889047D01*
%TO.C,C9*%
X38568333Y69492857D02*
X38520714Y69445238D01*
X38377857Y69397619D01*
X38282619Y69397619D01*
X38139761Y69445238D01*
X38044523Y69540476D01*
X37996904Y69635714D01*
X37949285Y69826190D01*
X37949285Y69969047D01*
X37996904Y70159523D01*
X38044523Y70254761D01*
X38139761Y70350000D01*
X38282619Y70397619D01*
X38377857Y70397619D01*
X38520714Y70350000D01*
X38568333Y70302380D01*
X39044523Y69397619D02*
X39235000Y69397619D01*
X39330238Y69445238D01*
X39377857Y69492857D01*
X39473095Y69635714D01*
X39520714Y69826190D01*
X39520714Y70207142D01*
X39473095Y70302380D01*
X39425476Y70350000D01*
X39330238Y70397619D01*
X39139761Y70397619D01*
X39044523Y70350000D01*
X38996904Y70302380D01*
X38949285Y70207142D01*
X38949285Y69969047D01*
X38996904Y69873809D01*
X39044523Y69826190D01*
X39139761Y69778571D01*
X39330238Y69778571D01*
X39425476Y69826190D01*
X39473095Y69873809D01*
X39520714Y69969047D01*
%TO.C,C10*%
X42584642Y36187142D02*
X42632261Y36139523D01*
X42679880Y35996666D01*
X42679880Y35901428D01*
X42632261Y35758571D01*
X42537023Y35663333D01*
X42441785Y35615714D01*
X42251309Y35568095D01*
X42108452Y35568095D01*
X41917976Y35615714D01*
X41822738Y35663333D01*
X41727500Y35758571D01*
X41679880Y35901428D01*
X41679880Y35996666D01*
X41727500Y36139523D01*
X41775119Y36187142D01*
X42679880Y37139523D02*
X42679880Y36568095D01*
X42679880Y36853809D02*
X41679880Y36853809D01*
X41822738Y36758571D01*
X41917976Y36663333D01*
X41965595Y36568095D01*
X41679880Y37758571D02*
X41679880Y37853809D01*
X41727500Y37949047D01*
X41775119Y37996666D01*
X41870357Y38044285D01*
X42060833Y38091904D01*
X42298928Y38091904D01*
X42489404Y38044285D01*
X42584642Y37996666D01*
X42632261Y37949047D01*
X42679880Y37853809D01*
X42679880Y37758571D01*
X42632261Y37663333D01*
X42584642Y37615714D01*
X42489404Y37568095D01*
X42298928Y37520476D01*
X42060833Y37520476D01*
X41870357Y37568095D01*
X41775119Y37615714D01*
X41727500Y37663333D01*
X41679880Y37758571D01*
%TO.C,C11*%
X33864642Y22762857D02*
X33817023Y22715238D01*
X33674166Y22667619D01*
X33578928Y22667619D01*
X33436071Y22715238D01*
X33340833Y22810476D01*
X33293214Y22905714D01*
X33245595Y23096190D01*
X33245595Y23239047D01*
X33293214Y23429523D01*
X33340833Y23524761D01*
X33436071Y23620000D01*
X33578928Y23667619D01*
X33674166Y23667619D01*
X33817023Y23620000D01*
X33864642Y23572380D01*
X34817023Y22667619D02*
X34245595Y22667619D01*
X34531309Y22667619D02*
X34531309Y23667619D01*
X34436071Y23524761D01*
X34340833Y23429523D01*
X34245595Y23381904D01*
X35769404Y22667619D02*
X35197976Y22667619D01*
X35483690Y22667619D02*
X35483690Y23667619D01*
X35388452Y23524761D01*
X35293214Y23429523D01*
X35197976Y23381904D01*
%TO.C,C12*%
X50119523Y79652857D02*
X50071904Y79605238D01*
X49929047Y79557619D01*
X49833809Y79557619D01*
X49690952Y79605238D01*
X49595714Y79700476D01*
X49548095Y79795714D01*
X49500476Y79986190D01*
X49500476Y80129047D01*
X49548095Y80319523D01*
X49595714Y80414761D01*
X49690952Y80510000D01*
X49833809Y80557619D01*
X49929047Y80557619D01*
X50071904Y80510000D01*
X50119523Y80462380D01*
X51071904Y79557619D02*
X50500476Y79557619D01*
X50786190Y79557619D02*
X50786190Y80557619D01*
X50690952Y80414761D01*
X50595714Y80319523D01*
X50500476Y80271904D01*
X51452857Y80462380D02*
X51500476Y80510000D01*
X51595714Y80557619D01*
X51833809Y80557619D01*
X51929047Y80510000D01*
X51976666Y80462380D01*
X52024285Y80367142D01*
X52024285Y80271904D01*
X51976666Y80129047D01*
X51405238Y79557619D01*
X52024285Y79557619D01*
%TO.C,C13*%
X58057023Y69492857D02*
X58009404Y69445238D01*
X57866547Y69397619D01*
X57771309Y69397619D01*
X57628452Y69445238D01*
X57533214Y69540476D01*
X57485595Y69635714D01*
X57437976Y69826190D01*
X57437976Y69969047D01*
X57485595Y70159523D01*
X57533214Y70254761D01*
X57628452Y70350000D01*
X57771309Y70397619D01*
X57866547Y70397619D01*
X58009404Y70350000D01*
X58057023Y70302380D01*
X59009404Y69397619D02*
X58437976Y69397619D01*
X58723690Y69397619D02*
X58723690Y70397619D01*
X58628452Y70254761D01*
X58533214Y70159523D01*
X58437976Y70111904D01*
X59342738Y70397619D02*
X59961785Y70397619D01*
X59628452Y70016666D01*
X59771309Y70016666D01*
X59866547Y69969047D01*
X59914166Y69921428D01*
X59961785Y69826190D01*
X59961785Y69588095D01*
X59914166Y69492857D01*
X59866547Y69445238D01*
X59771309Y69397619D01*
X59485595Y69397619D01*
X59390357Y69445238D01*
X59342738Y69492857D01*
%TO.C,C14*%
X80107142Y42437142D02*
X80154761Y42389523D01*
X80202380Y42246666D01*
X80202380Y42151428D01*
X80154761Y42008571D01*
X80059523Y41913333D01*
X79964285Y41865714D01*
X79773809Y41818095D01*
X79630952Y41818095D01*
X79440476Y41865714D01*
X79345238Y41913333D01*
X79250000Y42008571D01*
X79202380Y42151428D01*
X79202380Y42246666D01*
X79250000Y42389523D01*
X79297619Y42437142D01*
X80202380Y43389523D02*
X80202380Y42818095D01*
X80202380Y43103809D02*
X79202380Y43103809D01*
X79345238Y43008571D01*
X79440476Y42913333D01*
X79488095Y42818095D01*
X79535714Y44246666D02*
X80202380Y44246666D01*
X79154761Y44008571D02*
X79869047Y43770476D01*
X79869047Y44389523D01*
%TO.C,C15*%
X73552142Y35145357D02*
X73504523Y35097738D01*
X73361666Y35050119D01*
X73266428Y35050119D01*
X73123571Y35097738D01*
X73028333Y35192976D01*
X72980714Y35288214D01*
X72933095Y35478690D01*
X72933095Y35621547D01*
X72980714Y35812023D01*
X73028333Y35907261D01*
X73123571Y36002500D01*
X73266428Y36050119D01*
X73361666Y36050119D01*
X73504523Y36002500D01*
X73552142Y35954880D01*
X74504523Y35050119D02*
X73933095Y35050119D01*
X74218809Y35050119D02*
X74218809Y36050119D01*
X74123571Y35907261D01*
X74028333Y35812023D01*
X73933095Y35764404D01*
X75409285Y36050119D02*
X74933095Y36050119D01*
X74885476Y35573928D01*
X74933095Y35621547D01*
X75028333Y35669166D01*
X75266428Y35669166D01*
X75361666Y35621547D01*
X75409285Y35573928D01*
X75456904Y35478690D01*
X75456904Y35240595D01*
X75409285Y35145357D01*
X75361666Y35097738D01*
X75266428Y35050119D01*
X75028333Y35050119D01*
X74933095Y35097738D01*
X74885476Y35145357D01*
%TO.C,C16*%
X39409642Y36187142D02*
X39457261Y36139523D01*
X39504880Y35996666D01*
X39504880Y35901428D01*
X39457261Y35758571D01*
X39362023Y35663333D01*
X39266785Y35615714D01*
X39076309Y35568095D01*
X38933452Y35568095D01*
X38742976Y35615714D01*
X38647738Y35663333D01*
X38552500Y35758571D01*
X38504880Y35901428D01*
X38504880Y35996666D01*
X38552500Y36139523D01*
X38600119Y36187142D01*
X39504880Y37139523D02*
X39504880Y36568095D01*
X39504880Y36853809D02*
X38504880Y36853809D01*
X38647738Y36758571D01*
X38742976Y36663333D01*
X38790595Y36568095D01*
X38504880Y37996666D02*
X38504880Y37806190D01*
X38552500Y37710952D01*
X38600119Y37663333D01*
X38742976Y37568095D01*
X38933452Y37520476D01*
X39314404Y37520476D01*
X39409642Y37568095D01*
X39457261Y37615714D01*
X39504880Y37710952D01*
X39504880Y37901428D01*
X39457261Y37996666D01*
X39409642Y38044285D01*
X39314404Y38091904D01*
X39076309Y38091904D01*
X38981071Y38044285D01*
X38933452Y37996666D01*
X38885833Y37901428D01*
X38885833Y37710952D01*
X38933452Y37615714D01*
X38981071Y37568095D01*
X39076309Y37520476D01*
%TO.C,C17*%
X27714642Y27322857D02*
X27667023Y27275238D01*
X27524166Y27227619D01*
X27428928Y27227619D01*
X27286071Y27275238D01*
X27190833Y27370476D01*
X27143214Y27465714D01*
X27095595Y27656190D01*
X27095595Y27799047D01*
X27143214Y27989523D01*
X27190833Y28084761D01*
X27286071Y28180000D01*
X27428928Y28227619D01*
X27524166Y28227619D01*
X27667023Y28180000D01*
X27714642Y28132380D01*
X28667023Y27227619D02*
X28095595Y27227619D01*
X28381309Y27227619D02*
X28381309Y28227619D01*
X28286071Y28084761D01*
X28190833Y27989523D01*
X28095595Y27941904D01*
X29000357Y28227619D02*
X29667023Y28227619D01*
X29238452Y27227619D01*
%TO.C,D1*%
X83002380Y73810904D02*
X82002380Y73810904D01*
X82002380Y74049000D01*
X82050000Y74191857D01*
X82145238Y74287095D01*
X82240476Y74334714D01*
X82430952Y74382333D01*
X82573809Y74382333D01*
X82764285Y74334714D01*
X82859523Y74287095D01*
X82954761Y74191857D01*
X83002380Y74049000D01*
X83002380Y73810904D01*
X83002380Y75334714D02*
X83002380Y74763285D01*
X83002380Y75049000D02*
X82002380Y75049000D01*
X82145238Y74953761D01*
X82240476Y74858523D01*
X82288095Y74763285D01*
%TO.C,D2*%
X83002380Y78636904D02*
X82002380Y78636904D01*
X82002380Y78875000D01*
X82050000Y79017857D01*
X82145238Y79113095D01*
X82240476Y79160714D01*
X82430952Y79208333D01*
X82573809Y79208333D01*
X82764285Y79160714D01*
X82859523Y79113095D01*
X82954761Y79017857D01*
X83002380Y78875000D01*
X83002380Y78636904D01*
X82097619Y79589285D02*
X82050000Y79636904D01*
X82002380Y79732142D01*
X82002380Y79970238D01*
X82050000Y80065476D01*
X82097619Y80113095D01*
X82192857Y80160714D01*
X82288095Y80160714D01*
X82430952Y80113095D01*
X83002380Y79541666D01*
X83002380Y80160714D01*
%TO.C,J1*%
X4452380Y92206666D02*
X5166666Y92206666D01*
X5309523Y92159047D01*
X5404761Y92063809D01*
X5452380Y91920952D01*
X5452380Y91825714D01*
X5452380Y93206666D02*
X5452380Y92635238D01*
X5452380Y92920952D02*
X4452380Y92920952D01*
X4595238Y92825714D01*
X4690476Y92730476D01*
X4738095Y92635238D01*
%TO.C,J2*%
X9452380Y79666666D02*
X10166666Y79666666D01*
X10309523Y79619047D01*
X10404761Y79523809D01*
X10452380Y79380952D01*
X10452380Y79285714D01*
X9547619Y80095238D02*
X9500000Y80142857D01*
X9452380Y80238095D01*
X9452380Y80476190D01*
X9500000Y80571428D01*
X9547619Y80619047D01*
X9642857Y80666666D01*
X9738095Y80666666D01*
X9880952Y80619047D01*
X10452380Y80047619D01*
X10452380Y80666666D01*
%TO.C,J3*%
X27602380Y74596666D02*
X28316666Y74596666D01*
X28459523Y74549047D01*
X28554761Y74453809D01*
X28602380Y74310952D01*
X28602380Y74215714D01*
X27602380Y74977619D02*
X27602380Y75596666D01*
X27983333Y75263333D01*
X27983333Y75406190D01*
X28030952Y75501428D01*
X28078571Y75549047D01*
X28173809Y75596666D01*
X28411904Y75596666D01*
X28507142Y75549047D01*
X28554761Y75501428D01*
X28602380Y75406190D01*
X28602380Y75120476D01*
X28554761Y75025238D01*
X28507142Y74977619D01*
%TO.C,J4*%
X86026666Y15260119D02*
X86026666Y14545833D01*
X85979047Y14402976D01*
X85883809Y14307738D01*
X85740952Y14260119D01*
X85645714Y14260119D01*
X86931428Y14926785D02*
X86931428Y14260119D01*
X86693333Y15307738D02*
X86455238Y14593452D01*
X87074285Y14593452D01*
%TO.C,J5*%
X74914166Y29865119D02*
X74914166Y29150833D01*
X74866547Y29007976D01*
X74771309Y28912738D01*
X74628452Y28865119D01*
X74533214Y28865119D01*
X75866547Y29865119D02*
X75390357Y29865119D01*
X75342738Y29388928D01*
X75390357Y29436547D01*
X75485595Y29484166D01*
X75723690Y29484166D01*
X75818928Y29436547D01*
X75866547Y29388928D01*
X75914166Y29293690D01*
X75914166Y29055595D01*
X75866547Y28960357D01*
X75818928Y28912738D01*
X75723690Y28865119D01*
X75485595Y28865119D01*
X75390357Y28912738D01*
X75342738Y28960357D01*
%TO.C,J6*%
X74914166Y15260119D02*
X74914166Y14545833D01*
X74866547Y14402976D01*
X74771309Y14307738D01*
X74628452Y14260119D01*
X74533214Y14260119D01*
X75818928Y15260119D02*
X75628452Y15260119D01*
X75533214Y15212500D01*
X75485595Y15164880D01*
X75390357Y15022023D01*
X75342738Y14831547D01*
X75342738Y14450595D01*
X75390357Y14355357D01*
X75437976Y14307738D01*
X75533214Y14260119D01*
X75723690Y14260119D01*
X75818928Y14307738D01*
X75866547Y14355357D01*
X75914166Y14450595D01*
X75914166Y14688690D01*
X75866547Y14783928D01*
X75818928Y14831547D01*
X75723690Y14879166D01*
X75533214Y14879166D01*
X75437976Y14831547D01*
X75390357Y14783928D01*
X75342738Y14688690D01*
%TO.C,J7*%
X86026666Y29865119D02*
X86026666Y29150833D01*
X85979047Y29007976D01*
X85883809Y28912738D01*
X85740952Y28865119D01*
X85645714Y28865119D01*
X86407619Y29865119D02*
X87074285Y29865119D01*
X86645714Y28865119D01*
%TO.C,R1*%
X70833333Y75347619D02*
X70500000Y75823809D01*
X70261904Y75347619D02*
X70261904Y76347619D01*
X70642857Y76347619D01*
X70738095Y76300000D01*
X70785714Y76252380D01*
X70833333Y76157142D01*
X70833333Y76014285D01*
X70785714Y75919047D01*
X70738095Y75871428D01*
X70642857Y75823809D01*
X70261904Y75823809D01*
X71785714Y75347619D02*
X71214285Y75347619D01*
X71500000Y75347619D02*
X71500000Y76347619D01*
X71404761Y76204761D01*
X71309523Y76109523D01*
X71214285Y76061904D01*
%TO.C,R2*%
X65238333Y67910119D02*
X64905000Y68386309D01*
X64666904Y67910119D02*
X64666904Y68910119D01*
X65047857Y68910119D01*
X65143095Y68862500D01*
X65190714Y68814880D01*
X65238333Y68719642D01*
X65238333Y68576785D01*
X65190714Y68481547D01*
X65143095Y68433928D01*
X65047857Y68386309D01*
X64666904Y68386309D01*
X65619285Y68814880D02*
X65666904Y68862500D01*
X65762142Y68910119D01*
X66000238Y68910119D01*
X66095476Y68862500D01*
X66143095Y68814880D01*
X66190714Y68719642D01*
X66190714Y68624404D01*
X66143095Y68481547D01*
X65571666Y67910119D01*
X66190714Y67910119D01*
%TO.C,R3*%
X42033333Y78922619D02*
X41700000Y79398809D01*
X41461904Y78922619D02*
X41461904Y79922619D01*
X41842857Y79922619D01*
X41938095Y79875000D01*
X41985714Y79827380D01*
X42033333Y79732142D01*
X42033333Y79589285D01*
X41985714Y79494047D01*
X41938095Y79446428D01*
X41842857Y79398809D01*
X41461904Y79398809D01*
X42366666Y79922619D02*
X42985714Y79922619D01*
X42652380Y79541666D01*
X42795238Y79541666D01*
X42890476Y79494047D01*
X42938095Y79446428D01*
X42985714Y79351190D01*
X42985714Y79113095D01*
X42938095Y79017857D01*
X42890476Y78970238D01*
X42795238Y78922619D01*
X42509523Y78922619D01*
X42414285Y78970238D01*
X42366666Y79017857D01*
%TO.C,R4*%
X65238333Y75547619D02*
X64905000Y76023809D01*
X64666904Y75547619D02*
X64666904Y76547619D01*
X65047857Y76547619D01*
X65143095Y76500000D01*
X65190714Y76452380D01*
X65238333Y76357142D01*
X65238333Y76214285D01*
X65190714Y76119047D01*
X65143095Y76071428D01*
X65047857Y76023809D01*
X64666904Y76023809D01*
X66095476Y76214285D02*
X66095476Y75547619D01*
X65857380Y76595238D02*
X65619285Y75880952D01*
X66238333Y75880952D01*
%TO.C,R5*%
X40045833Y56867619D02*
X39712500Y57343809D01*
X39474404Y56867619D02*
X39474404Y57867619D01*
X39855357Y57867619D01*
X39950595Y57820000D01*
X39998214Y57772380D01*
X40045833Y57677142D01*
X40045833Y57534285D01*
X39998214Y57439047D01*
X39950595Y57391428D01*
X39855357Y57343809D01*
X39474404Y57343809D01*
X40950595Y57867619D02*
X40474404Y57867619D01*
X40426785Y57391428D01*
X40474404Y57439047D01*
X40569642Y57486666D01*
X40807738Y57486666D01*
X40902976Y57439047D01*
X40950595Y57391428D01*
X40998214Y57296190D01*
X40998214Y57058095D01*
X40950595Y56962857D01*
X40902976Y56915238D01*
X40807738Y56867619D01*
X40569642Y56867619D01*
X40474404Y56915238D01*
X40426785Y56962857D01*
%TO.C,R6*%
X48728333Y64952619D02*
X48395000Y65428809D01*
X48156904Y64952619D02*
X48156904Y65952619D01*
X48537857Y65952619D01*
X48633095Y65905000D01*
X48680714Y65857380D01*
X48728333Y65762142D01*
X48728333Y65619285D01*
X48680714Y65524047D01*
X48633095Y65476428D01*
X48537857Y65428809D01*
X48156904Y65428809D01*
X49585476Y65952619D02*
X49395000Y65952619D01*
X49299761Y65905000D01*
X49252142Y65857380D01*
X49156904Y65714523D01*
X49109285Y65524047D01*
X49109285Y65143095D01*
X49156904Y65047857D01*
X49204523Y65000238D01*
X49299761Y64952619D01*
X49490238Y64952619D01*
X49585476Y65000238D01*
X49633095Y65047857D01*
X49680714Y65143095D01*
X49680714Y65381190D01*
X49633095Y65476428D01*
X49585476Y65524047D01*
X49490238Y65571666D01*
X49299761Y65571666D01*
X49204523Y65524047D01*
X49156904Y65476428D01*
X49109285Y65381190D01*
%TO.C,R7*%
X48833333Y70347619D02*
X48500000Y70823809D01*
X48261904Y70347619D02*
X48261904Y71347619D01*
X48642857Y71347619D01*
X48738095Y71300000D01*
X48785714Y71252380D01*
X48833333Y71157142D01*
X48833333Y71014285D01*
X48785714Y70919047D01*
X48738095Y70871428D01*
X48642857Y70823809D01*
X48261904Y70823809D01*
X49166666Y71347619D02*
X49833333Y71347619D01*
X49404761Y70347619D01*
%TO.C,R8*%
X48470833Y21132619D02*
X48137500Y21608809D01*
X47899404Y21132619D02*
X47899404Y22132619D01*
X48280357Y22132619D01*
X48375595Y22085000D01*
X48423214Y22037380D01*
X48470833Y21942142D01*
X48470833Y21799285D01*
X48423214Y21704047D01*
X48375595Y21656428D01*
X48280357Y21608809D01*
X47899404Y21608809D01*
X49042261Y21704047D02*
X48947023Y21751666D01*
X48899404Y21799285D01*
X48851785Y21894523D01*
X48851785Y21942142D01*
X48899404Y22037380D01*
X48947023Y22085000D01*
X49042261Y22132619D01*
X49232738Y22132619D01*
X49327976Y22085000D01*
X49375595Y22037380D01*
X49423214Y21942142D01*
X49423214Y21894523D01*
X49375595Y21799285D01*
X49327976Y21751666D01*
X49232738Y21704047D01*
X49042261Y21704047D01*
X48947023Y21656428D01*
X48899404Y21608809D01*
X48851785Y21513571D01*
X48851785Y21323095D01*
X48899404Y21227857D01*
X48947023Y21180238D01*
X49042261Y21132619D01*
X49232738Y21132619D01*
X49327976Y21180238D01*
X49375595Y21227857D01*
X49423214Y21323095D01*
X49423214Y21513571D01*
X49375595Y21608809D01*
X49327976Y21656428D01*
X49232738Y21704047D01*
%TO.C,R9*%
X48633333Y75747619D02*
X48300000Y76223809D01*
X48061904Y75747619D02*
X48061904Y76747619D01*
X48442857Y76747619D01*
X48538095Y76700000D01*
X48585714Y76652380D01*
X48633333Y76557142D01*
X48633333Y76414285D01*
X48585714Y76319047D01*
X48538095Y76271428D01*
X48442857Y76223809D01*
X48061904Y76223809D01*
X49109523Y75747619D02*
X49300000Y75747619D01*
X49395238Y75795238D01*
X49442857Y75842857D01*
X49538095Y75985714D01*
X49585714Y76176190D01*
X49585714Y76557142D01*
X49538095Y76652380D01*
X49490476Y76700000D01*
X49395238Y76747619D01*
X49204761Y76747619D01*
X49109523Y76700000D01*
X49061904Y76652380D01*
X49014285Y76557142D01*
X49014285Y76319047D01*
X49061904Y76223809D01*
X49109523Y76176190D01*
X49204761Y76128571D01*
X49395238Y76128571D01*
X49490476Y76176190D01*
X49538095Y76223809D01*
X49585714Y76319047D01*
%TO.C,R10*%
X84272380Y34282142D02*
X83796190Y33948809D01*
X84272380Y33710714D02*
X83272380Y33710714D01*
X83272380Y34091666D01*
X83320000Y34186904D01*
X83367619Y34234523D01*
X83462857Y34282142D01*
X83605714Y34282142D01*
X83700952Y34234523D01*
X83748571Y34186904D01*
X83796190Y34091666D01*
X83796190Y33710714D01*
X84272380Y35234523D02*
X84272380Y34663095D01*
X84272380Y34948809D02*
X83272380Y34948809D01*
X83415238Y34853571D01*
X83510476Y34758333D01*
X83558095Y34663095D01*
X83272380Y35853571D02*
X83272380Y35948809D01*
X83320000Y36044047D01*
X83367619Y36091666D01*
X83462857Y36139285D01*
X83653333Y36186904D01*
X83891428Y36186904D01*
X84081904Y36139285D01*
X84177142Y36091666D01*
X84224761Y36044047D01*
X84272380Y35948809D01*
X84272380Y35853571D01*
X84224761Y35758333D01*
X84177142Y35710714D01*
X84081904Y35663095D01*
X83891428Y35615476D01*
X83653333Y35615476D01*
X83462857Y35663095D01*
X83367619Y35710714D01*
X83320000Y35758333D01*
X83272380Y35853571D01*
%TO.C,U1*%
X57340595Y78652619D02*
X57340595Y77843095D01*
X57388214Y77747857D01*
X57435833Y77700238D01*
X57531071Y77652619D01*
X57721547Y77652619D01*
X57816785Y77700238D01*
X57864404Y77747857D01*
X57912023Y77843095D01*
X57912023Y78652619D01*
X58912023Y77652619D02*
X58340595Y77652619D01*
X58626309Y77652619D02*
X58626309Y78652619D01*
X58531071Y78509761D01*
X58435833Y78414523D01*
X58340595Y78366904D01*
%TO.C,U2*%
X30670595Y34427619D02*
X30670595Y33618095D01*
X30718214Y33522857D01*
X30765833Y33475238D01*
X30861071Y33427619D01*
X31051547Y33427619D01*
X31146785Y33475238D01*
X31194404Y33522857D01*
X31242023Y33618095D01*
X31242023Y34427619D01*
X31670595Y34332380D02*
X31718214Y34380000D01*
X31813452Y34427619D01*
X32051547Y34427619D01*
X32146785Y34380000D01*
X32194404Y34332380D01*
X32242023Y34237142D01*
X32242023Y34141904D01*
X32194404Y33999047D01*
X31622976Y33427619D01*
X32242023Y33427619D01*
%TO.C,U3*%
X65278095Y44997619D02*
X65278095Y44188095D01*
X65325714Y44092857D01*
X65373333Y44045238D01*
X65468571Y43997619D01*
X65659047Y43997619D01*
X65754285Y44045238D01*
X65801904Y44092857D01*
X65849523Y44188095D01*
X65849523Y44997619D01*
X66230476Y44997619D02*
X66849523Y44997619D01*
X66516190Y44616666D01*
X66659047Y44616666D01*
X66754285Y44569047D01*
X66801904Y44521428D01*
X66849523Y44426190D01*
X66849523Y44188095D01*
X66801904Y44092857D01*
X66754285Y44045238D01*
X66659047Y43997619D01*
X66373333Y43997619D01*
X66278095Y44045238D01*
X66230476Y44092857D01*
%TO.C,NT1*%
X29654642Y38495119D02*
X29654642Y39495119D01*
X30226071Y38495119D01*
X30226071Y39495119D01*
X30559404Y39495119D02*
X31130833Y39495119D01*
X30845119Y38495119D02*
X30845119Y39495119D01*
X31987976Y38495119D02*
X31416547Y38495119D01*
X31702261Y38495119D02*
X31702261Y39495119D01*
X31607023Y39352261D01*
X31511785Y39257023D01*
X31416547Y39209404D01*
%TO.C,NT2*%
X64172142Y48337619D02*
X64172142Y49337619D01*
X64743571Y48337619D01*
X64743571Y49337619D01*
X65076904Y49337619D02*
X65648333Y49337619D01*
X65362619Y48337619D02*
X65362619Y49337619D01*
X65934047Y49242380D02*
X65981666Y49290000D01*
X66076904Y49337619D01*
X66315000Y49337619D01*
X66410238Y49290000D01*
X66457857Y49242380D01*
X66505476Y49147142D01*
X66505476Y49051904D01*
X66457857Y48909047D01*
X65886428Y48337619D01*
X66505476Y48337619D01*
%TO.C,TP1*%
X65413095Y69445119D02*
X65984523Y69445119D01*
X65698809Y68445119D02*
X65698809Y69445119D01*
X66317857Y68445119D02*
X66317857Y69445119D01*
X66698809Y69445119D01*
X66794047Y69397500D01*
X66841666Y69349880D01*
X66889285Y69254642D01*
X66889285Y69111785D01*
X66841666Y69016547D01*
X66794047Y68968928D01*
X66698809Y68921309D01*
X66317857Y68921309D01*
X67841666Y68445119D02*
X67270238Y68445119D01*
X67555952Y68445119D02*
X67555952Y69445119D01*
X67460714Y69302261D01*
X67365476Y69207023D01*
X67270238Y69159404D01*
%TO.C,TP2*%
X41283095Y72465619D02*
X41854523Y72465619D01*
X41568809Y71465619D02*
X41568809Y72465619D01*
X42187857Y71465619D02*
X42187857Y72465619D01*
X42568809Y72465619D01*
X42664047Y72418000D01*
X42711666Y72370380D01*
X42759285Y72275142D01*
X42759285Y72132285D01*
X42711666Y72037047D01*
X42664047Y71989428D01*
X42568809Y71941809D01*
X42187857Y71941809D01*
X43140238Y72370380D02*
X43187857Y72418000D01*
X43283095Y72465619D01*
X43521190Y72465619D01*
X43616428Y72418000D01*
X43664047Y72370380D01*
X43711666Y72275142D01*
X43711666Y72179904D01*
X43664047Y72037047D01*
X43092619Y71465619D01*
X43711666Y71465619D01*
%TO.C,TP3*%
X61603095Y80847619D02*
X62174523Y80847619D01*
X61888809Y79847619D02*
X61888809Y80847619D01*
X62507857Y79847619D02*
X62507857Y80847619D01*
X62888809Y80847619D01*
X62984047Y80800000D01*
X63031666Y80752380D01*
X63079285Y80657142D01*
X63079285Y80514285D01*
X63031666Y80419047D01*
X62984047Y80371428D01*
X62888809Y80323809D01*
X62507857Y80323809D01*
X63412619Y80847619D02*
X64031666Y80847619D01*
X63698333Y80466666D01*
X63841190Y80466666D01*
X63936428Y80419047D01*
X63984047Y80371428D01*
X64031666Y80276190D01*
X64031666Y80038095D01*
X63984047Y79942857D01*
X63936428Y79895238D01*
X63841190Y79847619D01*
X63555476Y79847619D01*
X63460238Y79895238D01*
X63412619Y79942857D01*
%TO.C,TP4*%
X20010595Y51637619D02*
X20582023Y51637619D01*
X20296309Y50637619D02*
X20296309Y51637619D01*
X20915357Y50637619D02*
X20915357Y51637619D01*
X21296309Y51637619D01*
X21391547Y51590000D01*
X21439166Y51542380D01*
X21486785Y51447142D01*
X21486785Y51304285D01*
X21439166Y51209047D01*
X21391547Y51161428D01*
X21296309Y51113809D01*
X20915357Y51113809D01*
X22343928Y51304285D02*
X22343928Y50637619D01*
X22105833Y51685238D02*
X21867738Y50970952D01*
X22486785Y50970952D01*
%TO.C,TP5*%
X45038095Y50247619D02*
X45609523Y50247619D01*
X45323809Y49247619D02*
X45323809Y50247619D01*
X45942857Y49247619D02*
X45942857Y50247619D01*
X46323809Y50247619D01*
X46419047Y50200000D01*
X46466666Y50152380D01*
X46514285Y50057142D01*
X46514285Y49914285D01*
X46466666Y49819047D01*
X46419047Y49771428D01*
X46323809Y49723809D01*
X45942857Y49723809D01*
X47419047Y50247619D02*
X46942857Y50247619D01*
X46895238Y49771428D01*
X46942857Y49819047D01*
X47038095Y49866666D01*
X47276190Y49866666D01*
X47371428Y49819047D01*
X47419047Y49771428D01*
X47466666Y49676190D01*
X47466666Y49438095D01*
X47419047Y49342857D01*
X47371428Y49295238D01*
X47276190Y49247619D01*
X47038095Y49247619D01*
X46942857Y49295238D01*
X46895238Y49342857D01*
%TO.C,TP6*%
X38038095Y50247619D02*
X38609523Y50247619D01*
X38323809Y49247619D02*
X38323809Y50247619D01*
X38942857Y49247619D02*
X38942857Y50247619D01*
X39323809Y50247619D01*
X39419047Y50200000D01*
X39466666Y50152380D01*
X39514285Y50057142D01*
X39514285Y49914285D01*
X39466666Y49819047D01*
X39419047Y49771428D01*
X39323809Y49723809D01*
X38942857Y49723809D01*
X40371428Y50247619D02*
X40180952Y50247619D01*
X40085714Y50200000D01*
X40038095Y50152380D01*
X39942857Y50009523D01*
X39895238Y49819047D01*
X39895238Y49438095D01*
X39942857Y49342857D01*
X39990476Y49295238D01*
X40085714Y49247619D01*
X40276190Y49247619D01*
X40371428Y49295238D01*
X40419047Y49342857D01*
X40466666Y49438095D01*
X40466666Y49676190D01*
X40419047Y49771428D01*
X40371428Y49819047D01*
X40276190Y49866666D01*
X40085714Y49866666D01*
X39990476Y49819047D01*
X39942857Y49771428D01*
X39895238Y49676190D01*
%TD*%
M02*
