M48
; DRILL file {KiCad (5.1.6)-1} date 04/21/21 19:08:30
; FORMAT={-:-/ absolute / inch / decimal}
; #@! TF.CreationDate,2021-04-21T19:08:30-07:00
; #@! TF.GenerationSoftware,Kicad,Pcbnew,(5.1.6)-1
FMAT,2
INCH
T1C0.0079
T2C0.0157
T3C0.0197
T4C0.0300
T5C0.0394
T6C0.0598
T7C0.0728
T8C0.1089
%
G90
G05
T1
X2.7598Y1.7126
X2.7598Y1.6732
X2.7598Y1.6339
X2.815Y1.7126
X2.815Y1.6732
X2.815Y1.6339
X1.2099Y1.2394
X1.2099Y1.2
X1.2099Y1.1606
X1.2651Y1.2394
X1.2651Y1.2
X1.2651Y1.1606
T2
X0.775Y2.8
X0.775Y2.65
X0.775Y2.5
X0.925Y1.0
X0.9625Y1.0
X1.0Y1.0
X1.275Y2.875
X1.3125Y2.325
X1.35Y1.35
X1.3875Y1.35
X1.425Y1.35
X1.4375Y2.4125
X1.4875Y1.0
X1.5Y2.8875
X1.525Y1.0
X1.5625Y1.0
X1.5875Y2.1875
X1.725Y2.65
X1.725Y2.5
X1.8228Y2.3465
X1.825Y2.45
X1.8701Y2.3465
X1.9375Y3.0875
X1.9625Y3.05
X1.9625Y2.775
X1.9875Y3.0875
X1.9875Y2.8125
X2.0125Y2.775
X2.0784Y1.7034
X2.125Y3.05
X2.125Y3.0125
X2.125Y2.975
X2.125Y2.9375
X2.175Y2.9625
X2.175Y2.925
X2.175Y2.8875
X2.175Y2.85
X2.2283Y2.3465
X2.2677Y2.3465
X2.2875Y3.3
X2.2875Y3.25
X2.2875Y3.2
X2.2875Y3.15
X2.2875Y2.5625
X2.3375Y2.975
X2.3375Y2.8
X2.3562Y3.0063
X2.3562Y2.8312
X2.3625Y2.475
X2.375Y2.975
X2.375Y2.8
X2.4625Y3.2875
X2.475Y2.575
X2.5Y3.325
X2.5Y3.25
X2.525Y1.5375
X2.525Y1.4875
X2.5375Y3.2875
X2.6875Y1.8625
X2.725Y1.8625
X2.7625Y1.8625
X3.0375Y1.4875
X3.0375Y1.4375
X3.125Y1.7
X3.1625Y1.7
X3.2Y1.7
T3
X1.675Y2.77
X1.7362Y1.9567
X1.6378Y1.9567
X0.8375Y1.95
X2.6125Y2.775
X2.475Y3.1
T4
X1.1Y2.8
X1.1Y2.7
X1.1Y2.6
X1.1Y2.5
X1.4Y2.8
X1.4Y2.7
X1.4Y2.6
X1.4Y2.5
T5
X0.7391Y1.8381
X0.8375Y1.8381
X0.9359Y1.8381
X1.2Y2.95
X1.3Y2.95
X2.8516Y3.2244
X2.95Y3.2244
X3.0484Y3.2244
X2.8516Y2.8756
X2.95Y2.8756
X3.0484Y2.8756
X1.1516Y3.2244
X1.25Y3.2244
X1.3484Y3.2244
X3.4Y0.4875
X3.4Y0.3875
X2.9625Y0.4875
X2.9625Y0.3875
X2.9625Y1.0625
X2.9625Y0.9625
X1.5391Y1.8381
X1.6375Y1.8381
X1.7359Y1.8381
X3.4Y1.0625
X3.4Y0.9625
T6
X0.2953Y3.2512
X0.2953Y3.0512
X0.2953Y3.7433
X0.2953Y3.5433
T7
X1.915Y3.5
X2.1Y3.5
X2.285Y3.5
T8
X0.6406Y1.5625
X1.0344Y1.5625
X2.7531Y3.5
X3.1469Y3.5
X2.7531Y2.6
X3.1469Y2.6
X1.0531Y3.5
X1.4469Y3.5
X1.4406Y1.5625
X1.8344Y1.5625
T0
M30
