M48
; DRILL file {KiCad (5.1.6)-1} date 04/18/21 17:58:58
; FORMAT={-:-/ absolute / inch / decimal}
; #@! TF.CreationDate,2021-04-18T17:58:58-07:00
; #@! TF.GenerationSoftware,Kicad,Pcbnew,(5.1.6)-1
FMAT,2
INCH
T1C0.0157
T2C0.0354
T3C0.0394
T4C0.0472
T5C0.0591
T6C0.0598
T7C0.0787
T8C0.1181
%
G90
G05
T1
X1.0827Y1.4528
X1.1339Y1.4528
X1.3228Y1.5512
X1.4016Y1.5512
T2
X0.8661Y3.3858
X0.9173Y3.6811
T3
X3.4134Y2.3472
X3.4346Y1.8358
X2.525Y3.025
X3.125Y1.375
X3.3Y1.375
X1.3268Y1.3228
X3.025Y2.225
X1.9291Y3.2677
X2.126Y3.2677
X2.3228Y3.2677
X2.5197Y3.2677
X3.7638Y1.2913
X3.775Y1.975
X1.925Y3.0
X2.925Y1.75
X1.1102Y1.3268
T4
X1.7913Y1.3976
X2.0866Y1.3976
X3.4663Y1.6386
X3.5776Y1.7499
X3.5776Y1.5272
X3.689Y1.6386
X2.5197Y1.3976
X2.815Y1.3976
T5
X3.4134Y2.0323
T6
X3.475Y0.2
X3.675Y0.2
X0.2362Y3.7402
X0.2362Y3.5402
X1.575Y0.2
X1.775Y0.2
X0.275Y0.7
X0.475Y0.7
X2.875Y0.2
X3.075Y0.2
X2.875Y0.7
X3.075Y0.7
X0.875Y0.7
X1.075Y0.7
X2.175Y0.7
X2.375Y0.7
X1.575Y0.7
X1.775Y0.7
X2.175Y0.2
X2.375Y0.2
X0.275Y0.2
X0.475Y0.2
X3.475Y0.7
X3.675Y0.7
X0.875Y0.2
X1.075Y0.2
T7
X1.2205Y3.7402
X1.2205Y3.2087
X2.0709Y3.7402
X2.378Y3.7402
X2.6969Y3.7402
X2.1063Y2.3
X2.5Y2.3
T8
X3.1063Y3.025
X3.5Y3.025
T0
M30
