%TF.GenerationSoftware,KiCad,Pcbnew,(5.1.6)-1*%
%TF.CreationDate,2021-04-18T17:59:39-07:00*%
%TF.ProjectId,pwr_supply,7077725f-7375-4707-906c-792e6b696361,rev?*%
%TF.SameCoordinates,Original*%
%TF.FileFunction,Copper,L1,Top*%
%TF.FilePolarity,Positive*%
%FSLAX46Y46*%
G04 Gerber Fmt 4.6, Leading zero omitted, Abs format (unit mm)*
G04 Created by KiCad (PCBNEW (5.1.6)-1) date 2021-04-18 17:59:39*
%MOMM*%
%LPD*%
G01*
G04 APERTURE LIST*
%TA.AperFunction,ComponentPad*%
%ADD10R,4.000000X4.000000*%
%TD*%
%TA.AperFunction,ComponentPad*%
%ADD11C,4.000000*%
%TD*%
%TA.AperFunction,ComponentPad*%
%ADD12R,2.400000X2.400000*%
%TD*%
%TA.AperFunction,ComponentPad*%
%ADD13C,2.400000*%
%TD*%
%TA.AperFunction,ComponentPad*%
%ADD14C,2.000000*%
%TD*%
%TA.AperFunction,ComponentPad*%
%ADD15R,2.000000X2.000000*%
%TD*%
%TA.AperFunction,SMDPad,CuDef*%
%ADD16R,6.000000X6.000000*%
%TD*%
%TA.AperFunction,ComponentPad*%
%ADD17R,3.350000X2.000000*%
%TD*%
%TA.AperFunction,SMDPad,CuDef*%
%ADD18R,0.650000X1.500000*%
%TD*%
%TA.AperFunction,ComponentPad*%
%ADD19R,3.000000X3.000000*%
%TD*%
%TA.AperFunction,ComponentPad*%
%ADD20C,3.000000*%
%TD*%
%TA.AperFunction,ComponentPad*%
%ADD21C,2.500000*%
%TD*%
%TA.AperFunction,ComponentPad*%
%ADD22C,1.800000*%
%TD*%
%TA.AperFunction,ComponentPad*%
%ADD23R,1.700000X1.700000*%
%TD*%
%TA.AperFunction,SMDPad,CuDef*%
%ADD24R,4.600000X1.100000*%
%TD*%
%TA.AperFunction,SMDPad,CuDef*%
%ADD25R,9.400000X10.800000*%
%TD*%
%TA.AperFunction,ViaPad*%
%ADD26C,1.500000*%
%TD*%
%TA.AperFunction,ViaPad*%
%ADD27C,2.540000*%
%TD*%
%TA.AperFunction,ViaPad*%
%ADD28C,0.800000*%
%TD*%
%TA.AperFunction,Conductor*%
%ADD29C,0.750000*%
%TD*%
%TA.AperFunction,Conductor*%
%ADD30C,1.000000*%
%TD*%
%TA.AperFunction,Conductor*%
%ADD31C,0.500000*%
%TD*%
%TA.AperFunction,Conductor*%
%ADD32C,2.000000*%
%TD*%
%TA.AperFunction,Conductor*%
%ADD33C,2.500000*%
%TD*%
%TA.AperFunction,Conductor*%
%ADD34C,0.600000*%
%TD*%
%TA.AperFunction,Conductor*%
%ADD35C,0.254000*%
%TD*%
G04 APERTURE END LIST*
D10*
%TO.P,C1,1*%
%TO.N,/rect_ac_+*%
X88900000Y76835000D03*
D11*
%TO.P,C1,2*%
%TO.N,GND*%
X78900000Y76835000D03*
%TD*%
%TO.P,C4,1*%
%TO.N,Net-(C4-Pad1)*%
%TA.AperFunction,SMDPad,CuDef*%
G36*
G01*
X92775000Y49420000D02*
X90625000Y49420000D01*
G75*
G02*
X90375000Y49670000I0J250000D01*
G01*
X90375000Y50595000D01*
G75*
G02*
X90625000Y50845000I250000J0D01*
G01*
X92775000Y50845000D01*
G75*
G02*
X93025000Y50595000I0J-250000D01*
G01*
X93025000Y49670000D01*
G75*
G02*
X92775000Y49420000I-250000J0D01*
G01*
G37*
%TD.AperFunction*%
%TO.P,C4,2*%
%TO.N,Net-(C4-Pad2)*%
%TA.AperFunction,SMDPad,CuDef*%
G36*
G01*
X92775000Y52395000D02*
X90625000Y52395000D01*
G75*
G02*
X90375000Y52645000I0J250000D01*
G01*
X90375000Y53570000D01*
G75*
G02*
X90625000Y53820000I250000J0D01*
G01*
X92775000Y53820000D01*
G75*
G02*
X93025000Y53570000I0J-250000D01*
G01*
X93025000Y52645000D01*
G75*
G02*
X92775000Y52395000I-250000J0D01*
G01*
G37*
%TD.AperFunction*%
%TD*%
%TO.P,C6,1*%
%TO.N,15VDC*%
%TA.AperFunction,SMDPad,CuDef*%
G36*
G01*
X80275000Y38657500D02*
X78125000Y38657500D01*
G75*
G02*
X77875000Y38907500I0J250000D01*
G01*
X77875000Y39832500D01*
G75*
G02*
X78125000Y40082500I250000J0D01*
G01*
X80275000Y40082500D01*
G75*
G02*
X80525000Y39832500I0J-250000D01*
G01*
X80525000Y38907500D01*
G75*
G02*
X80275000Y38657500I-250000J0D01*
G01*
G37*
%TD.AperFunction*%
%TO.P,C6,2*%
%TO.N,Net-(C6-Pad2)*%
%TA.AperFunction,SMDPad,CuDef*%
G36*
G01*
X80275000Y41632500D02*
X78125000Y41632500D01*
G75*
G02*
X77875000Y41882500I0J250000D01*
G01*
X77875000Y42807500D01*
G75*
G02*
X78125000Y43057500I250000J0D01*
G01*
X80275000Y43057500D01*
G75*
G02*
X80525000Y42807500I0J-250000D01*
G01*
X80525000Y41882500D01*
G75*
G02*
X80275000Y41632500I-250000J0D01*
G01*
G37*
%TD.AperFunction*%
%TD*%
D12*
%TO.P,C7,1*%
%TO.N,15VDC*%
X71500000Y35500000D03*
D13*
%TO.P,C7,2*%
%TO.N,GND*%
X64000000Y35500000D03*
%TD*%
%TO.P,C9,1*%
%TO.N,/rect_ac_-*%
%TA.AperFunction,SMDPad,CuDef*%
G36*
G01*
X28287500Y38325000D02*
X28287500Y40475000D01*
G75*
G02*
X28537500Y40725000I250000J0D01*
G01*
X29462500Y40725000D01*
G75*
G02*
X29712500Y40475000I0J-250000D01*
G01*
X29712500Y38325000D01*
G75*
G02*
X29462500Y38075000I-250000J0D01*
G01*
X28537500Y38075000D01*
G75*
G02*
X28287500Y38325000I0J250000D01*
G01*
G37*
%TD.AperFunction*%
%TO.P,C9,2*%
%TO.N,GND*%
%TA.AperFunction,SMDPad,CuDef*%
G36*
G01*
X31262500Y38325000D02*
X31262500Y40475000D01*
G75*
G02*
X31512500Y40725000I250000J0D01*
G01*
X32437500Y40725000D01*
G75*
G02*
X32687500Y40475000I0J-250000D01*
G01*
X32687500Y38325000D01*
G75*
G02*
X32437500Y38075000I-250000J0D01*
G01*
X31512500Y38075000D01*
G75*
G02*
X31262500Y38325000I0J250000D01*
G01*
G37*
%TD.AperFunction*%
%TD*%
D14*
%TO.P,D1,4*%
%TO.N,/rect_ac_-*%
X49000000Y83000000D03*
%TO.P,D1,3*%
%TO.N,/lowside_ac_2*%
X54000000Y83000000D03*
%TO.P,D1,2*%
%TO.N,/lowside_ac_1*%
X59000000Y83000000D03*
D15*
%TO.P,D1,1*%
%TO.N,/rect_ac_+*%
X64000000Y83000000D03*
%TD*%
D16*
%TO.P,F1,1*%
%TO.N,Net-(F1-Pad1)*%
X8890000Y70485000D03*
%TO.P,F1,2*%
%TO.N,Net-(F1-Pad2)*%
X25890000Y70485000D03*
%TD*%
D17*
%TO.P,IC1,9*%
%TO.N,GND*%
X86700000Y51620000D03*
D18*
%TO.P,IC1,8*%
%TO.N,Net-(C4-Pad1)*%
X88605000Y48920000D03*
%TO.P,IC1,7*%
%TO.N,GND*%
X87335000Y48920000D03*
%TO.P,IC1,6*%
%TO.N,Net-(C5-Pad1)*%
X86065000Y48920000D03*
%TO.P,IC1,5*%
%TO.N,Net-(C6-Pad2)*%
X84795000Y48920000D03*
%TO.P,IC1,4*%
%TO.N,Net-(IC1-Pad4)*%
X84795000Y54320000D03*
%TO.P,IC1,3*%
%TO.N,/rect_ac_+*%
X86065000Y54320000D03*
%TO.P,IC1,2*%
X87335000Y54320000D03*
%TO.P,IC1,1*%
%TO.N,Net-(C4-Pad2)*%
X88605000Y54320000D03*
%TD*%
D19*
%TO.P,J1,1*%
%TO.N,Net-(J1-Pad1)*%
X6000000Y95000000D03*
D20*
%TO.P,J1,2*%
%TO.N,Net-(F1-Pad1)*%
X6000000Y89920000D03*
%TD*%
%TO.P,J2,2*%
%TO.N,15VDC*%
X93345000Y5080000D03*
D19*
%TO.P,J2,1*%
%TO.N,GND*%
X88265000Y5080000D03*
%TD*%
%TO.P,J3,1*%
%TO.N,GND*%
X22225000Y17780000D03*
D20*
%TO.P,J3,2*%
%TO.N,-15VDC*%
X27305000Y17780000D03*
%TD*%
%TO.P,J4,2*%
%TO.N,15VDC*%
X45085000Y17780000D03*
D19*
%TO.P,J4,1*%
%TO.N,-15VDC*%
X40005000Y17780000D03*
%TD*%
%TO.P,J5,1*%
%TO.N,GND*%
X88265000Y17780000D03*
D20*
%TO.P,J5,2*%
%TO.N,15VDC*%
X93345000Y17780000D03*
%TD*%
%TO.P,J6,2*%
%TO.N,-15VDC*%
X27305000Y5080000D03*
D19*
%TO.P,J6,1*%
%TO.N,GND*%
X22225000Y5080000D03*
%TD*%
%TO.P,J7,1*%
%TO.N,-15VDC*%
X55245000Y5080000D03*
D20*
%TO.P,J7,2*%
%TO.N,15VDC*%
X60325000Y5080000D03*
%TD*%
D19*
%TO.P,J8,1*%
%TO.N,GND*%
X73025000Y5080000D03*
D20*
%TO.P,J8,2*%
%TO.N,15VDC*%
X78105000Y5080000D03*
%TD*%
%TO.P,J9,2*%
%TO.N,-15VDC*%
X12065000Y5080000D03*
D19*
%TO.P,J9,1*%
%TO.N,GND*%
X6985000Y5080000D03*
%TD*%
%TO.P,J10,1*%
%TO.N,-15VDC*%
X55245000Y17780000D03*
D20*
%TO.P,J10,2*%
%TO.N,15VDC*%
X60325000Y17780000D03*
%TD*%
%TO.P,J11,2*%
%TO.N,15VDC*%
X78105000Y17780000D03*
D19*
%TO.P,J11,1*%
%TO.N,GND*%
X73025000Y17780000D03*
%TD*%
%TO.P,J12,1*%
%TO.N,GND*%
X6985000Y17780000D03*
D20*
%TO.P,J12,2*%
%TO.N,-15VDC*%
X12065000Y17780000D03*
%TD*%
%TO.P,J13,2*%
%TO.N,15VDC*%
X45085000Y5080000D03*
D19*
%TO.P,J13,1*%
%TO.N,-15VDC*%
X40005000Y5080000D03*
%TD*%
D21*
%TO.P,L1,4*%
%TO.N,15VDC*%
X90871573Y38791573D03*
%TO.P,L1,3*%
%TO.N,Net-(C4-Pad1)*%
X90871573Y44448427D03*
%TO.P,L1,2*%
%TO.N,15VDC*%
%TA.AperFunction,ComponentPad*%
G36*
G01*
X88184567Y42892792D02*
X89315938Y41761421D01*
G75*
G02*
X89315938Y41478579I-141421J-141421D01*
G01*
X88184567Y40347208D01*
G75*
G02*
X87901725Y40347208I-141421J141421D01*
G01*
X86770354Y41478579D01*
G75*
G02*
X86770354Y41761421I141421J141421D01*
G01*
X87901725Y42892792D01*
G75*
G02*
X88184567Y42892792I141421J-141421D01*
G01*
G37*
%TD.AperFunction*%
%TO.P,L1,1*%
%TO.N,Net-(C4-Pad1)*%
%TA.AperFunction,ComponentPad*%
G36*
G01*
X93841421Y42892792D02*
X94972792Y41761421D01*
G75*
G02*
X94972792Y41478579I-141421J-141421D01*
G01*
X93841421Y40347208D01*
G75*
G02*
X93558579Y40347208I-141421J141421D01*
G01*
X92427208Y41478579D01*
G75*
G02*
X92427208Y41761421I141421J141421D01*
G01*
X93558579Y42892792D01*
G75*
G02*
X93841421Y42892792I141421J-141421D01*
G01*
G37*
%TD.AperFunction*%
%TD*%
%TO.P,R1,2*%
%TO.N,GND*%
%TA.AperFunction,SMDPad,CuDef*%
G36*
G01*
X80625000Y52082500D02*
X82775000Y52082500D01*
G75*
G02*
X83025000Y51832500I0J-250000D01*
G01*
X83025000Y50907500D01*
G75*
G02*
X82775000Y50657500I-250000J0D01*
G01*
X80625000Y50657500D01*
G75*
G02*
X80375000Y50907500I0J250000D01*
G01*
X80375000Y51832500D01*
G75*
G02*
X80625000Y52082500I250000J0D01*
G01*
G37*
%TD.AperFunction*%
%TO.P,R1,1*%
%TO.N,Net-(IC1-Pad4)*%
%TA.AperFunction,SMDPad,CuDef*%
G36*
G01*
X80625000Y55057500D02*
X82775000Y55057500D01*
G75*
G02*
X83025000Y54807500I0J-250000D01*
G01*
X83025000Y53882500D01*
G75*
G02*
X82775000Y53632500I-250000J0D01*
G01*
X80625000Y53632500D01*
G75*
G02*
X80375000Y53882500I0J250000D01*
G01*
X80375000Y54807500D01*
G75*
G02*
X80625000Y55057500I250000J0D01*
G01*
G37*
%TD.AperFunction*%
%TD*%
%TO.P,R3,1*%
%TO.N,15VDC*%
%TA.AperFunction,SMDPad,CuDef*%
G36*
G01*
X84275000Y41932500D02*
X82125000Y41932500D01*
G75*
G02*
X81875000Y42182500I0J250000D01*
G01*
X81875000Y43107500D01*
G75*
G02*
X82125000Y43357500I250000J0D01*
G01*
X84275000Y43357500D01*
G75*
G02*
X84525000Y43107500I0J-250000D01*
G01*
X84525000Y42182500D01*
G75*
G02*
X84275000Y41932500I-250000J0D01*
G01*
G37*
%TD.AperFunction*%
%TO.P,R3,2*%
%TO.N,Net-(C6-Pad2)*%
%TA.AperFunction,SMDPad,CuDef*%
G36*
G01*
X84275000Y44907500D02*
X82125000Y44907500D01*
G75*
G02*
X81875000Y45157500I0J250000D01*
G01*
X81875000Y46082500D01*
G75*
G02*
X82125000Y46332500I250000J0D01*
G01*
X84275000Y46332500D01*
G75*
G02*
X84525000Y46082500I0J-250000D01*
G01*
X84525000Y45157500D01*
G75*
G02*
X84275000Y44907500I-250000J0D01*
G01*
G37*
%TD.AperFunction*%
%TD*%
%TO.P,R4,2*%
%TO.N,GND*%
%TA.AperFunction,SMDPad,CuDef*%
G36*
G01*
X80275000Y48132500D02*
X78125000Y48132500D01*
G75*
G02*
X77875000Y48382500I0J250000D01*
G01*
X77875000Y49307500D01*
G75*
G02*
X78125000Y49557500I250000J0D01*
G01*
X80275000Y49557500D01*
G75*
G02*
X80525000Y49307500I0J-250000D01*
G01*
X80525000Y48382500D01*
G75*
G02*
X80275000Y48132500I-250000J0D01*
G01*
G37*
%TD.AperFunction*%
%TO.P,R4,1*%
%TO.N,Net-(C6-Pad2)*%
%TA.AperFunction,SMDPad,CuDef*%
G36*
G01*
X80275000Y45157500D02*
X78125000Y45157500D01*
G75*
G02*
X77875000Y45407500I0J250000D01*
G01*
X77875000Y46332500D01*
G75*
G02*
X78125000Y46582500I250000J0D01*
G01*
X80275000Y46582500D01*
G75*
G02*
X80525000Y46332500I0J-250000D01*
G01*
X80525000Y45407500D01*
G75*
G02*
X80275000Y45157500I-250000J0D01*
G01*
G37*
%TD.AperFunction*%
%TD*%
D22*
%TO.P,RV1,1*%
%TO.N,Net-(F1-Pad2)*%
X22000000Y86000000D03*
%TO.P,RV1,2*%
%TO.N,Net-(J1-Pad1)*%
X23300000Y93500000D03*
%TD*%
D10*
%TO.P,C8,1*%
%TO.N,GND*%
X63500000Y58420000D03*
D11*
%TO.P,C8,2*%
%TO.N,/rect_ac_-*%
X53500000Y58420000D03*
%TD*%
D12*
%TO.P,C10,1*%
%TO.N,GND*%
X53000000Y35500000D03*
D13*
%TO.P,C10,2*%
%TO.N,-15VDC*%
X45500000Y35500000D03*
%TD*%
D23*
%TO.P,TP1,1*%
%TO.N,/rect_ac_+*%
X64135000Y76835000D03*
%TD*%
%TO.P,TP3,1*%
%TO.N,/rect_ac_-*%
X48895000Y76200000D03*
%TD*%
%TO.P,TP4,1*%
%TO.N,Net-(IC1-Pad4)*%
X76835000Y56515000D03*
%TD*%
%TO.P,TP5,1*%
%TO.N,Net-(C3-Pad1)*%
X79375000Y34925000D03*
%TD*%
%TO.P,TP7,1*%
%TO.N,Net-(C4-Pad1)*%
X95885000Y50165000D03*
%TD*%
%TO.P,TP8,1*%
%TO.N,Net-(C6-Pad2)*%
X74295000Y44450000D03*
%TD*%
%TO.P,TP9,1*%
%TO.N,Net-(C5-Pad1)*%
X83820000Y34925000D03*
%TD*%
D24*
%TO.P,U1,1*%
%TO.N,GND*%
X23555000Y36830000D03*
%TO.P,U1,2*%
%TO.N,/rect_ac_-*%
X23555000Y39370000D03*
%TO.P,U1,3*%
%TO.N,-15VDC*%
X23555000Y41910000D03*
D25*
%TO.P,U1,2*%
%TO.N,/rect_ac_-*%
X14405000Y39370000D03*
%TD*%
%TO.P,T1,1*%
%TO.N,Net-(F1-Pad2)*%
%TA.AperFunction,ComponentPad*%
G36*
G01*
X32700000Y80000000D02*
X29300000Y80000000D01*
G75*
G02*
X29000000Y80300000I0J300000D01*
G01*
X29000000Y82700000D01*
G75*
G02*
X29300000Y83000000I300000J0D01*
G01*
X32700000Y83000000D01*
G75*
G02*
X33000000Y82700000I0J-300000D01*
G01*
X33000000Y80300000D01*
G75*
G02*
X32700000Y80000000I-300000J0D01*
G01*
G37*
%TD.AperFunction*%
%TO.P,T1,2*%
%TO.N,Net-(J1-Pad1)*%
%TA.AperFunction,ComponentPad*%
G36*
G01*
X32700000Y93500000D02*
X29300000Y93500000D01*
G75*
G02*
X29000000Y93800000I0J300000D01*
G01*
X29000000Y96200000D01*
G75*
G02*
X29300000Y96500000I300000J0D01*
G01*
X32700000Y96500000D01*
G75*
G02*
X33000000Y96200000I0J-300000D01*
G01*
X33000000Y93800000D01*
G75*
G02*
X32700000Y93500000I-300000J0D01*
G01*
G37*
%TD.AperFunction*%
%TO.P,T1,3*%
%TO.N,/lowside_ac_2*%
%TA.AperFunction,ComponentPad*%
G36*
G01*
X51100000Y93300000D02*
X51100000Y96700000D01*
G75*
G02*
X51400000Y97000000I300000J0D01*
G01*
X53800000Y97000000D01*
G75*
G02*
X54100000Y96700000I0J-300000D01*
G01*
X54100000Y93300000D01*
G75*
G02*
X53800000Y93000000I-300000J0D01*
G01*
X51400000Y93000000D01*
G75*
G02*
X51100000Y93300000I0J300000D01*
G01*
G37*
%TD.AperFunction*%
%TO.P,T1,4*%
%TO.N,GND*%
%TA.AperFunction,ComponentPad*%
G36*
G01*
X67000000Y93300000D02*
X67000000Y96700000D01*
G75*
G02*
X67300000Y97000000I300000J0D01*
G01*
X69700000Y97000000D01*
G75*
G02*
X70000000Y96700000I0J-300000D01*
G01*
X70000000Y93300000D01*
G75*
G02*
X69700000Y93000000I-300000J0D01*
G01*
X67300000Y93000000D01*
G75*
G02*
X67000000Y93300000I0J300000D01*
G01*
G37*
%TD.AperFunction*%
%TO.P,T1,5*%
%TO.N,/lowside_ac_1*%
%TA.AperFunction,ComponentPad*%
G36*
G01*
X58900000Y93300000D02*
X58900000Y96700000D01*
G75*
G02*
X59200000Y97000000I300000J0D01*
G01*
X61600000Y97000000D01*
G75*
G02*
X61900000Y96700000I0J-300000D01*
G01*
X61900000Y93300000D01*
G75*
G02*
X61600000Y93000000I-300000J0D01*
G01*
X59200000Y93000000D01*
G75*
G02*
X58900000Y93300000I0J300000D01*
G01*
G37*
%TD.AperFunction*%
%TD*%
D23*
%TO.P,TP2,1*%
%TO.N,GND*%
X28200000Y33700000D03*
%TD*%
%TO.P,TP6,1*%
%TO.N,-15VDC*%
X33700000Y33600000D03*
%TD*%
%TO.P,TP10,1*%
%TO.N,15VDC*%
X95600000Y32800000D03*
%TD*%
D26*
%TO.N,Net-(C5-Pad1)*%
X87240000Y46630000D03*
D27*
%TO.N,/rect_ac_+*%
X86700000Y59620000D03*
D28*
%TO.N,GND*%
X33600000Y39400000D03*
X28800000Y36900000D03*
X27500000Y36900000D03*
X35600000Y39400000D03*
%TD*%
D29*
%TO.N,Net-(C4-Pad1)*%
X88605000Y48920000D02*
X88605000Y47715000D01*
X88605000Y47715000D02*
X88950000Y47370000D01*
X88950000Y47370000D02*
X90450000Y47370000D01*
X90450000Y47370000D02*
X91700000Y48620000D01*
D30*
X91700000Y50132500D02*
X91700000Y48620000D01*
X91700000Y48620000D02*
X91780000Y48620000D01*
X91780000Y48620000D02*
X93000000Y47400000D01*
X93000000Y47400000D02*
X94200000Y47400000D01*
X95885000Y49085000D02*
X95885000Y50165000D01*
X94200000Y47400000D02*
X95885000Y49085000D01*
D29*
%TO.N,Net-(C5-Pad1)*%
X86065000Y47805000D02*
X87240000Y46630000D01*
X86065000Y48920000D02*
X86065000Y47805000D01*
%TO.N,Net-(C6-Pad2)*%
X84795000Y48920000D02*
X84795000Y47715000D01*
X84795000Y47715000D02*
X84200000Y47120000D01*
X84200000Y47120000D02*
X83700000Y47120000D01*
X83200000Y46620000D02*
X83200000Y45620000D01*
X83700000Y47120000D02*
X83200000Y46620000D01*
D31*
X79200000Y45870000D02*
X79200000Y44870000D01*
X79950000Y44120000D02*
X82950000Y44120000D01*
X83200000Y44370000D02*
X83200000Y45620000D01*
X82950000Y44120000D02*
X83200000Y44370000D01*
X79950000Y44120000D02*
X79200000Y43370000D01*
X79200000Y42345000D02*
X79200000Y43370000D01*
X79700000Y44370000D02*
X79450000Y44120000D01*
X79200000Y44870000D02*
X79700000Y44370000D01*
X79700000Y44370000D02*
X79950000Y44120000D01*
D30*
X79200000Y42345000D02*
X79200000Y45870000D01*
D31*
X79200000Y44200000D02*
X76300000Y44200000D01*
X79200000Y43370000D02*
X79200000Y44200000D01*
X79200000Y44200000D02*
X79200000Y45870000D01*
X76050000Y44450000D02*
X74295000Y44450000D01*
X76300000Y44200000D02*
X76050000Y44450000D01*
D29*
%TO.N,Net-(IC1-Pad4)*%
X82080000Y56000000D02*
X81700000Y55620000D01*
X84400000Y56000000D02*
X82080000Y56000000D01*
X84795000Y54320000D02*
X84795000Y55605000D01*
X81700000Y55620000D02*
X81700000Y54345000D01*
X84795000Y55605000D02*
X84400000Y56000000D01*
D31*
X81565000Y56515000D02*
X82080000Y56000000D01*
X76835000Y56515000D02*
X81565000Y56515000D01*
D29*
%TO.N,/rect_ac_+*%
X87335000Y54205000D02*
X87335000Y55870000D01*
X86065000Y54455000D02*
X86065000Y55870000D01*
D32*
X86700000Y74635000D02*
X88900000Y76835000D01*
X86700000Y59620000D02*
X86700000Y74635000D01*
D33*
X86700000Y59620000D02*
X86700000Y57200000D01*
D32*
X86700000Y57200000D02*
X86700000Y58200000D01*
D30*
X87335000Y56565000D02*
X86700000Y57200000D01*
X87335000Y55870000D02*
X87335000Y56565000D01*
X86065000Y56565000D02*
X86700000Y57200000D01*
X86065000Y55870000D02*
X86065000Y56565000D01*
%TO.N,GND*%
X87335000Y50985000D02*
X86700000Y51620000D01*
D34*
X87335000Y48920000D02*
X87335000Y50985000D01*
D29*
X82200000Y49620000D02*
X82950000Y49620000D01*
X82950000Y49620000D02*
X84950000Y51620000D01*
X81700000Y51370000D02*
X81700000Y50120000D01*
X84950000Y51620000D02*
X86700000Y51620000D01*
X81700000Y50120000D02*
X82200000Y49620000D01*
X82200000Y49620000D02*
X82200000Y48120000D01*
X82200000Y48120000D02*
X81450000Y47370000D01*
X81450000Y47370000D02*
X79450000Y47370000D01*
X79200000Y47620000D02*
X79200000Y48845000D01*
X79450000Y47370000D02*
X79200000Y47620000D01*
%TO.N,15VDC*%
X83200000Y42645000D02*
X83200000Y41370000D01*
X83200000Y41370000D02*
X84700000Y39870000D01*
X86293146Y39870000D02*
X88043146Y41620000D01*
X84700000Y39870000D02*
X86293146Y39870000D01*
D30*
X79200000Y39370000D02*
X79200000Y37700000D01*
D32*
X45085000Y17780000D02*
X50365000Y12500000D01*
X60325000Y13825000D02*
X60325000Y17780000D01*
X59000000Y12500000D02*
X60325000Y13825000D01*
X45085000Y7220000D02*
X50365000Y12500000D01*
X45085000Y5080000D02*
X45085000Y7220000D01*
X50365000Y12500000D02*
X57000000Y12500000D01*
X57000000Y12500000D02*
X59000000Y12500000D01*
X60325000Y9175000D02*
X60325000Y5080000D01*
X57000000Y12500000D02*
X60325000Y9175000D01*
D30*
%TO.N,GND*%
X31975000Y39400000D02*
X33600000Y39400000D01*
X33600000Y39400000D02*
X35600000Y39400000D01*
X27430000Y36830000D02*
X27500000Y36900000D01*
X23555000Y36830000D02*
X27430000Y36830000D01*
X28300000Y36900000D02*
X28300000Y33800000D01*
X28800000Y36900000D02*
X28300000Y36900000D01*
X28300000Y33800000D02*
X28200000Y33700000D01*
X28300000Y36900000D02*
X27500000Y36900000D01*
X27500000Y34400000D02*
X28200000Y33700000D01*
X27500000Y36900000D02*
X27500000Y34400000D01*
X28800000Y34300000D02*
X28200000Y33700000D01*
X28800000Y36900000D02*
X28800000Y34300000D01*
%TO.N,/lowside_ac_2*%
X54000000Y93600000D02*
X52600000Y95000000D01*
X54000000Y83000000D02*
X54000000Y93600000D01*
D29*
%TO.N,Net-(C4-Pad2)*%
X88605000Y54320000D02*
X88605000Y55525000D01*
X91700000Y55620000D02*
X91700000Y53107500D01*
X88605000Y55525000D02*
X89200000Y56120000D01*
X89200000Y56120000D02*
X91200000Y56120000D01*
X91200000Y56120000D02*
X91700000Y55620000D01*
D30*
%TO.N,/rect_ac_-*%
X23555000Y39370000D02*
X14405000Y39370000D01*
X28970000Y39370000D02*
X29000000Y39400000D01*
X23555000Y39370000D02*
X28970000Y39370000D01*
D32*
X14405000Y39370000D02*
X14405000Y46595000D01*
X17500000Y42465000D02*
X14405000Y39370000D01*
X17500000Y47500000D02*
X17500000Y42465000D01*
X11500000Y42275000D02*
X14405000Y39370000D01*
X11500000Y47500000D02*
X11500000Y42275000D01*
%TD*%
D35*
%TO.N,Net-(J1-Pad1)*%
G36*
X33957348Y98863046D02*
G01*
X34863046Y97957348D01*
X34873000Y97933316D01*
X34873000Y92066684D01*
X34863046Y92042652D01*
X34457348Y91636954D01*
X34433316Y91627000D01*
X16223497Y91627000D01*
X16169792Y91638415D01*
X16160750Y91639365D01*
X16160744Y91639366D01*
X16160739Y91639366D01*
X16063621Y91648889D01*
X16063607Y91648889D01*
X16032022Y91652000D01*
X12027606Y91652000D01*
X10119092Y93560514D01*
X10099846Y93576308D01*
X10077890Y93588044D01*
X10007180Y93617333D01*
X9983355Y93624560D01*
X9958579Y93627000D01*
X9723491Y93627000D01*
X9669791Y93638414D01*
X9660749Y93639364D01*
X9660743Y93639365D01*
X9660738Y93639365D01*
X9563620Y93648888D01*
X9563618Y93648888D01*
X9532022Y93652000D01*
X2027606Y93652000D01*
X1136954Y94542652D01*
X1127000Y94566684D01*
X1127000Y96933316D01*
X1136954Y96957348D01*
X3042652Y98863046D01*
X3066684Y98873000D01*
X33933316Y98873000D01*
X33957348Y98863046D01*
G37*
X33957348Y98863046D02*
X34863046Y97957348D01*
X34873000Y97933316D01*
X34873000Y92066684D01*
X34863046Y92042652D01*
X34457348Y91636954D01*
X34433316Y91627000D01*
X16223497Y91627000D01*
X16169792Y91638415D01*
X16160750Y91639365D01*
X16160744Y91639366D01*
X16160739Y91639366D01*
X16063621Y91648889D01*
X16063607Y91648889D01*
X16032022Y91652000D01*
X12027606Y91652000D01*
X10119092Y93560514D01*
X10099846Y93576308D01*
X10077890Y93588044D01*
X10007180Y93617333D01*
X9983355Y93624560D01*
X9958579Y93627000D01*
X9723491Y93627000D01*
X9669791Y93638414D01*
X9660749Y93639364D01*
X9660743Y93639365D01*
X9660738Y93639365D01*
X9563620Y93648888D01*
X9563618Y93648888D01*
X9532022Y93652000D01*
X2027606Y93652000D01*
X1136954Y94542652D01*
X1127000Y94566684D01*
X1127000Y96933316D01*
X1136954Y96957348D01*
X3042652Y98863046D01*
X3066684Y98873000D01*
X33933316Y98873000D01*
X33957348Y98863046D01*
%TO.N,Net-(F1-Pad1)*%
G36*
X10910197Y89410197D02*
G01*
X10929443Y89394403D01*
X10951399Y89382667D01*
X10975224Y89375440D01*
X11000000Y89373000D01*
X11235820Y89373000D01*
X11270827Y89366068D01*
X11329317Y89353636D01*
X11338471Y89352674D01*
X11338477Y89352673D01*
X11338482Y89352673D01*
X11433146Y89343391D01*
X11467581Y89340000D01*
X14980394Y89340000D01*
X15873000Y88447394D01*
X15873000Y66052606D01*
X14447394Y64627000D01*
X2552606Y64627000D01*
X1127000Y66052606D01*
X1127000Y90447394D01*
X2019606Y91340000D01*
X8980394Y91340000D01*
X10910197Y89410197D01*
G37*
X10910197Y89410197D02*
X10929443Y89394403D01*
X10951399Y89382667D01*
X10975224Y89375440D01*
X11000000Y89373000D01*
X11235820Y89373000D01*
X11270827Y89366068D01*
X11329317Y89353636D01*
X11338471Y89352674D01*
X11338477Y89352673D01*
X11338482Y89352673D01*
X11433146Y89343391D01*
X11467581Y89340000D01*
X14980394Y89340000D01*
X15873000Y88447394D01*
X15873000Y66052606D01*
X14447394Y64627000D01*
X2552606Y64627000D01*
X1127000Y66052606D01*
X1127000Y90447394D01*
X2019606Y91340000D01*
X8980394Y91340000D01*
X10910197Y89410197D01*
%TO.N,Net-(F1-Pad2)*%
G36*
X34873000Y85947394D02*
G01*
X34873000Y66052606D01*
X33947394Y65127000D01*
X20052606Y65127000D01*
X19127000Y66052606D01*
X19127000Y85947394D01*
X21052606Y87873000D01*
X32947394Y87873000D01*
X34873000Y85947394D01*
G37*
X34873000Y85947394D02*
X34873000Y66052606D01*
X33947394Y65127000D01*
X20052606Y65127000D01*
X19127000Y66052606D01*
X19127000Y85947394D01*
X21052606Y87873000D01*
X32947394Y87873000D01*
X34873000Y85947394D01*
%TO.N,Net-(C4-Pad1)*%
G36*
X94865000Y43775394D02*
G01*
X94865000Y40964606D01*
X94074162Y40173768D01*
X92101866Y40227073D01*
X92073191Y40255748D01*
X91834107Y40415499D01*
X88577000Y43672606D01*
X88577000Y46252279D01*
X88625000Y46493589D01*
X88625000Y46766411D01*
X88577000Y47007721D01*
X88577000Y47493000D01*
X91147394Y47493000D01*
X94865000Y43775394D01*
G37*
X94865000Y43775394D02*
X94865000Y40964606D01*
X94074162Y40173768D01*
X92101866Y40227073D01*
X92073191Y40255748D01*
X91834107Y40415499D01*
X88577000Y43672606D01*
X88577000Y46252279D01*
X88625000Y46493589D01*
X88625000Y46766411D01*
X88577000Y47007721D01*
X88577000Y47493000D01*
X91147394Y47493000D01*
X94865000Y43775394D01*
%TO.N,-15VDC*%
G36*
X9074967Y33970000D02*
G01*
X9087073Y33847087D01*
X9122925Y33728897D01*
X9181147Y33619972D01*
X9259499Y33524499D01*
X9354972Y33446147D01*
X9463897Y33387925D01*
X9582087Y33352073D01*
X9705000Y33339967D01*
X19105000Y33339967D01*
X19227913Y33352073D01*
X19346103Y33387925D01*
X19455028Y33446147D01*
X19550501Y33524499D01*
X19628853Y33619972D01*
X19687075Y33728897D01*
X19722927Y33847087D01*
X19735033Y33970000D01*
X19735033Y38243000D01*
X21004402Y38243000D01*
X21013897Y38237925D01*
X21132087Y38202073D01*
X21255000Y38189967D01*
X25855000Y38189967D01*
X25977913Y38202073D01*
X26096103Y38237925D01*
X26105598Y38243000D01*
X27665543Y38243000D01*
X27674377Y38153314D01*
X27712694Y38027000D01*
X27555364Y38027000D01*
X27500000Y38032453D01*
X27444635Y38027000D01*
X27279069Y38010693D01*
X27102067Y37957000D01*
X26105598Y37957000D01*
X26096103Y37962075D01*
X25977913Y37997927D01*
X25855000Y38010033D01*
X21255000Y38010033D01*
X21132087Y37997927D01*
X21013897Y37962075D01*
X20904972Y37903853D01*
X20809499Y37825501D01*
X20731147Y37730028D01*
X20672925Y37621103D01*
X20637073Y37502913D01*
X20624967Y37380000D01*
X20624967Y36280000D01*
X20637073Y36157087D01*
X20672925Y36038897D01*
X20731147Y35929972D01*
X20809499Y35834499D01*
X20904972Y35756147D01*
X21013897Y35697925D01*
X21132087Y35662073D01*
X21255000Y35649967D01*
X25855000Y35649967D01*
X25977913Y35662073D01*
X26096103Y35697925D01*
X26105598Y35703000D01*
X26373000Y35703000D01*
X26373001Y34455364D01*
X26367548Y34400000D01*
X26373001Y34344636D01*
X26373001Y34344635D01*
X26389308Y34179069D01*
X26403170Y34133372D01*
X26453750Y33966630D01*
X26558400Y33770844D01*
X26663942Y33642240D01*
X26663946Y33642236D01*
X26699236Y33599235D01*
X26719967Y33582222D01*
X26719967Y32850000D01*
X26732073Y32727087D01*
X26767925Y32608897D01*
X26826147Y32499972D01*
X26904499Y32404499D01*
X26999972Y32326147D01*
X27108897Y32267925D01*
X27227087Y32232073D01*
X27350000Y32219967D01*
X29050000Y32219967D01*
X29172913Y32232073D01*
X29291103Y32267925D01*
X29400028Y32326147D01*
X29495501Y32404499D01*
X29573853Y32499972D01*
X29632075Y32608897D01*
X29667927Y32727087D01*
X29670183Y32750000D01*
X32521418Y32750000D01*
X32527732Y32685897D01*
X32546430Y32624257D01*
X32576794Y32567450D01*
X32617657Y32517657D01*
X32667450Y32476794D01*
X32724257Y32446430D01*
X32785897Y32427732D01*
X32850000Y32421418D01*
X33245250Y32423000D01*
X33327000Y32504750D01*
X33327000Y33227000D01*
X34073000Y33227000D01*
X34073000Y32504750D01*
X34154750Y32423000D01*
X34550000Y32421418D01*
X34614103Y32427732D01*
X34675743Y32446430D01*
X34732550Y32476794D01*
X34782343Y32517657D01*
X34823206Y32567450D01*
X34853570Y32624257D01*
X34872268Y32685897D01*
X34878582Y32750000D01*
X34877000Y33145250D01*
X34795250Y33227000D01*
X34073000Y33227000D01*
X33327000Y33227000D01*
X32604750Y33227000D01*
X32523000Y33145250D01*
X32521418Y32750000D01*
X29670183Y32750000D01*
X29680033Y32850000D01*
X29680033Y33595823D01*
X29741600Y33670843D01*
X29846250Y33866629D01*
X29910693Y34079069D01*
X29927000Y34244635D01*
X29927000Y34244645D01*
X29932452Y34299999D01*
X29927000Y34355354D01*
X29927000Y34450000D01*
X32521418Y34450000D01*
X32523000Y34054750D01*
X32604750Y33973000D01*
X33327000Y33973000D01*
X33327000Y34695250D01*
X34073000Y34695250D01*
X34073000Y33973000D01*
X34795250Y33973000D01*
X34877000Y34054750D01*
X34877755Y34243518D01*
X44771020Y34243518D01*
X44926926Y34076646D01*
X45215620Y33992194D01*
X45515242Y33965686D01*
X45814279Y33998141D01*
X46073074Y34076646D01*
X46228980Y34243518D01*
X45500000Y34972498D01*
X44771020Y34243518D01*
X34877755Y34243518D01*
X34878582Y34450000D01*
X34872268Y34514103D01*
X34853570Y34575743D01*
X34823206Y34632550D01*
X34782343Y34682343D01*
X34732550Y34723206D01*
X34675743Y34753570D01*
X34614103Y34772268D01*
X34550000Y34778582D01*
X34154750Y34777000D01*
X34073000Y34695250D01*
X33327000Y34695250D01*
X33245250Y34777000D01*
X32850000Y34778582D01*
X32785897Y34772268D01*
X32724257Y34753570D01*
X32667450Y34723206D01*
X32617657Y34682343D01*
X32576794Y34632550D01*
X32546430Y34575743D01*
X32527732Y34514103D01*
X32521418Y34450000D01*
X29927000Y34450000D01*
X29927000Y35484758D01*
X43965686Y35484758D01*
X43998141Y35185721D01*
X44076646Y34926926D01*
X44243518Y34771020D01*
X44972498Y35500000D01*
X46027502Y35500000D01*
X46756482Y34771020D01*
X46923354Y34926926D01*
X47007806Y35215620D01*
X47034314Y35515242D01*
X47001859Y35814279D01*
X46923354Y36073074D01*
X46756482Y36228980D01*
X46027502Y35500000D01*
X44972498Y35500000D01*
X44243518Y36228980D01*
X44076646Y36073074D01*
X43992194Y35784380D01*
X43965686Y35484758D01*
X29927000Y35484758D01*
X29927000Y36756482D01*
X44771020Y36756482D01*
X45500000Y36027502D01*
X46172498Y36700000D01*
X51169967Y36700000D01*
X51169967Y34300000D01*
X51182073Y34177087D01*
X51217925Y34058897D01*
X51276147Y33949972D01*
X51354499Y33854499D01*
X51449972Y33776147D01*
X51558897Y33717925D01*
X51677087Y33682073D01*
X51800000Y33669967D01*
X54200000Y33669967D01*
X54322913Y33682073D01*
X54441103Y33717925D01*
X54550028Y33776147D01*
X54645501Y33854499D01*
X54723853Y33949972D01*
X54782075Y34058897D01*
X54817927Y34177087D01*
X54830033Y34300000D01*
X54830033Y36700000D01*
X54817927Y36822913D01*
X54782075Y36941103D01*
X54723853Y37050028D01*
X54645501Y37145501D01*
X54550028Y37223853D01*
X54441103Y37282075D01*
X54322913Y37317927D01*
X54200000Y37330033D01*
X51800000Y37330033D01*
X51677087Y37317927D01*
X51558897Y37282075D01*
X51449972Y37223853D01*
X51354499Y37145501D01*
X51276147Y37050028D01*
X51217925Y36941103D01*
X51182073Y36822913D01*
X51169967Y36700000D01*
X46172498Y36700000D01*
X46228980Y36756482D01*
X46073074Y36923354D01*
X45784380Y37007806D01*
X45484758Y37034314D01*
X45185721Y37001859D01*
X44926926Y36923354D01*
X44771020Y36756482D01*
X29927000Y36756482D01*
X29927000Y36844635D01*
X29932453Y36900000D01*
X29910693Y37120931D01*
X29846250Y37333371D01*
X29757558Y37499302D01*
X29799274Y37511956D01*
X29951420Y37593279D01*
X30084777Y37702723D01*
X30194221Y37836080D01*
X30275544Y37988226D01*
X30325623Y38153314D01*
X30342533Y38325000D01*
X30342533Y40475000D01*
X30632467Y40475000D01*
X30632467Y38325000D01*
X30649377Y38153314D01*
X30699456Y37988226D01*
X30780779Y37836080D01*
X30890223Y37702723D01*
X31023580Y37593279D01*
X31175726Y37511956D01*
X31340814Y37461877D01*
X31512500Y37444967D01*
X32437500Y37444967D01*
X32609186Y37461877D01*
X32774274Y37511956D01*
X32926420Y37593279D01*
X33059777Y37702723D01*
X33169221Y37836080D01*
X33250544Y37988226D01*
X33300623Y38153314D01*
X33312411Y38273000D01*
X35655365Y38273000D01*
X35820931Y38289307D01*
X36033371Y38353750D01*
X36229157Y38458400D01*
X36400765Y38599235D01*
X36541600Y38770843D01*
X36646250Y38966629D01*
X36710693Y39179069D01*
X36732453Y39400000D01*
X36710693Y39620931D01*
X36646250Y39833371D01*
X36541600Y40029157D01*
X36400765Y40200765D01*
X36229157Y40341600D01*
X36033371Y40446250D01*
X35820931Y40510693D01*
X35655365Y40527000D01*
X33312411Y40527000D01*
X33300623Y40646686D01*
X33250544Y40811774D01*
X33169221Y40963920D01*
X33059777Y41097277D01*
X32926420Y41206721D01*
X32774274Y41288044D01*
X32609186Y41338123D01*
X32437500Y41355033D01*
X31512500Y41355033D01*
X31340814Y41338123D01*
X31175726Y41288044D01*
X31023580Y41206721D01*
X30890223Y41097277D01*
X30780779Y40963920D01*
X30699456Y40811774D01*
X30649377Y40646686D01*
X30632467Y40475000D01*
X30342533Y40475000D01*
X30325623Y40646686D01*
X30275544Y40811774D01*
X30194221Y40963920D01*
X30084777Y41097277D01*
X29951420Y41206721D01*
X29799274Y41288044D01*
X29634186Y41338123D01*
X29462500Y41355033D01*
X28537500Y41355033D01*
X28365814Y41338123D01*
X28200726Y41288044D01*
X28048580Y41206721D01*
X27915223Y41097277D01*
X27805779Y40963920D01*
X27724456Y40811774D01*
X27674377Y40646686D01*
X27659634Y40497000D01*
X26105598Y40497000D01*
X26096103Y40502075D01*
X25977913Y40537927D01*
X25855000Y40550033D01*
X21255000Y40550033D01*
X21132087Y40537927D01*
X21013897Y40502075D01*
X21004402Y40497000D01*
X19735033Y40497000D01*
X19735033Y41360000D01*
X20926418Y41360000D01*
X20932732Y41295897D01*
X20951430Y41234257D01*
X20981794Y41177450D01*
X21022657Y41127657D01*
X21072450Y41086794D01*
X21129257Y41056430D01*
X21190897Y41037732D01*
X21255000Y41031418D01*
X23100250Y41033000D01*
X23182000Y41114750D01*
X23182000Y41537000D01*
X23928000Y41537000D01*
X23928000Y41114750D01*
X24009750Y41033000D01*
X25855000Y41031418D01*
X25919103Y41037732D01*
X25980743Y41056430D01*
X26037550Y41086794D01*
X26087343Y41127657D01*
X26128206Y41177450D01*
X26158570Y41234257D01*
X26177268Y41295897D01*
X26183582Y41360000D01*
X26182000Y41455250D01*
X26100250Y41537000D01*
X23928000Y41537000D01*
X23182000Y41537000D01*
X21009750Y41537000D01*
X20928000Y41455250D01*
X20926418Y41360000D01*
X19735033Y41360000D01*
X19735033Y42460000D01*
X20926418Y42460000D01*
X20928000Y42364750D01*
X21009750Y42283000D01*
X23182000Y42283000D01*
X23182000Y42705250D01*
X23928000Y42705250D01*
X23928000Y42283000D01*
X26100250Y42283000D01*
X26182000Y42364750D01*
X26183582Y42460000D01*
X26177268Y42524103D01*
X26158570Y42585743D01*
X26128206Y42642550D01*
X26087343Y42692343D01*
X26037550Y42733206D01*
X25980743Y42763570D01*
X25919103Y42782268D01*
X25855000Y42788582D01*
X24009750Y42787000D01*
X23928000Y42705250D01*
X23182000Y42705250D01*
X23100250Y42787000D01*
X21255000Y42788582D01*
X21190897Y42782268D01*
X21129257Y42763570D01*
X21072450Y42733206D01*
X21022657Y42692343D01*
X20981794Y42642550D01*
X20951430Y42585743D01*
X20932732Y42524103D01*
X20926418Y42460000D01*
X19735033Y42460000D01*
X19735033Y42873000D01*
X56933316Y42873000D01*
X56957348Y42863046D01*
X57863046Y41957348D01*
X57873000Y41933316D01*
X57873000Y14127000D01*
X57079914Y14127000D01*
X57000000Y14134871D01*
X56920086Y14127000D01*
X51038925Y14127000D01*
X48885925Y16280000D01*
X53416418Y16280000D01*
X53422732Y16215897D01*
X53441430Y16154257D01*
X53471794Y16097450D01*
X53512657Y16047657D01*
X53562450Y16006794D01*
X53619257Y15976430D01*
X53680897Y15957732D01*
X53745000Y15951418D01*
X54790250Y15953000D01*
X54872000Y16034750D01*
X54872000Y17407000D01*
X55618000Y17407000D01*
X55618000Y16034750D01*
X55699750Y15953000D01*
X56745000Y15951418D01*
X56809103Y15957732D01*
X56870743Y15976430D01*
X56927550Y16006794D01*
X56977343Y16047657D01*
X57018206Y16097450D01*
X57048570Y16154257D01*
X57067268Y16215897D01*
X57073582Y16280000D01*
X57072000Y17325250D01*
X56990250Y17407000D01*
X55618000Y17407000D01*
X54872000Y17407000D01*
X53499750Y17407000D01*
X53418000Y17325250D01*
X53416418Y16280000D01*
X48885925Y16280000D01*
X47212000Y17953925D01*
X47212000Y17989491D01*
X47130261Y18400423D01*
X46969923Y18787512D01*
X46737149Y19135884D01*
X46593033Y19280000D01*
X53416418Y19280000D01*
X53418000Y18234750D01*
X53499750Y18153000D01*
X54872000Y18153000D01*
X54872000Y19525250D01*
X55618000Y19525250D01*
X55618000Y18153000D01*
X56990250Y18153000D01*
X57072000Y18234750D01*
X57073582Y19280000D01*
X57067268Y19344103D01*
X57048570Y19405743D01*
X57018206Y19462550D01*
X56977343Y19512343D01*
X56927550Y19553206D01*
X56870743Y19583570D01*
X56809103Y19602268D01*
X56745000Y19608582D01*
X55699750Y19607000D01*
X55618000Y19525250D01*
X54872000Y19525250D01*
X54790250Y19607000D01*
X53745000Y19608582D01*
X53680897Y19602268D01*
X53619257Y19583570D01*
X53562450Y19553206D01*
X53512657Y19512343D01*
X53471794Y19462550D01*
X53441430Y19405743D01*
X53422732Y19344103D01*
X53416418Y19280000D01*
X46593033Y19280000D01*
X46440884Y19432149D01*
X46092512Y19664923D01*
X45705423Y19825261D01*
X45294491Y19907000D01*
X44875509Y19907000D01*
X44464577Y19825261D01*
X44077488Y19664923D01*
X43729116Y19432149D01*
X43432851Y19135884D01*
X43200077Y18787512D01*
X43039739Y18400423D01*
X42958000Y17989491D01*
X42958000Y17570509D01*
X43039739Y17159577D01*
X43200077Y16772488D01*
X43432851Y16424116D01*
X43729116Y16127851D01*
X44077488Y15895077D01*
X44464577Y15734739D01*
X44875509Y15653000D01*
X44911075Y15653000D01*
X48064075Y12500000D01*
X43991050Y8426975D01*
X43928972Y8376029D01*
X43878026Y8313951D01*
X43878022Y8313947D01*
X43725654Y8128285D01*
X43639992Y7968022D01*
X43574576Y7845638D01*
X43481902Y7540129D01*
X43481543Y7538947D01*
X43450129Y7220000D01*
X43458001Y7140076D01*
X43458001Y6461034D01*
X43432851Y6435884D01*
X43200077Y6087512D01*
X43039739Y5700423D01*
X42958000Y5289491D01*
X42958000Y4870509D01*
X43039739Y4459577D01*
X43200077Y4072488D01*
X43432851Y3724116D01*
X43729116Y3427851D01*
X44077488Y3195077D01*
X44464577Y3034739D01*
X44875509Y2953000D01*
X45294491Y2953000D01*
X45705423Y3034739D01*
X46092512Y3195077D01*
X46440884Y3427851D01*
X46593033Y3580000D01*
X53416418Y3580000D01*
X53422732Y3515897D01*
X53441430Y3454257D01*
X53471794Y3397450D01*
X53512657Y3347657D01*
X53562450Y3306794D01*
X53619257Y3276430D01*
X53680897Y3257732D01*
X53745000Y3251418D01*
X54790250Y3253000D01*
X54872000Y3334750D01*
X54872000Y4707000D01*
X55618000Y4707000D01*
X55618000Y3334750D01*
X55699750Y3253000D01*
X56745000Y3251418D01*
X56809103Y3257732D01*
X56870743Y3276430D01*
X56927550Y3306794D01*
X56977343Y3347657D01*
X57018206Y3397450D01*
X57048570Y3454257D01*
X57067268Y3515897D01*
X57073582Y3580000D01*
X57072000Y4625250D01*
X56990250Y4707000D01*
X55618000Y4707000D01*
X54872000Y4707000D01*
X53499750Y4707000D01*
X53418000Y4625250D01*
X53416418Y3580000D01*
X46593033Y3580000D01*
X46737149Y3724116D01*
X46969923Y4072488D01*
X47130261Y4459577D01*
X47212000Y4870509D01*
X47212000Y5289491D01*
X47130261Y5700423D01*
X46969923Y6087512D01*
X46737149Y6435884D01*
X46712000Y6461033D01*
X46712000Y6546075D01*
X46745925Y6580000D01*
X53416418Y6580000D01*
X53418000Y5534750D01*
X53499750Y5453000D01*
X54872000Y5453000D01*
X54872000Y6825250D01*
X55618000Y6825250D01*
X55618000Y5453000D01*
X56990250Y5453000D01*
X57072000Y5534750D01*
X57073582Y6580000D01*
X57067268Y6644103D01*
X57048570Y6705743D01*
X57018206Y6762550D01*
X56977343Y6812343D01*
X56927550Y6853206D01*
X56870743Y6883570D01*
X56809103Y6902268D01*
X56745000Y6908582D01*
X55699750Y6907000D01*
X55618000Y6825250D01*
X54872000Y6825250D01*
X54790250Y6907000D01*
X53745000Y6908582D01*
X53680897Y6902268D01*
X53619257Y6883570D01*
X53562450Y6853206D01*
X53512657Y6812343D01*
X53471794Y6762550D01*
X53441430Y6705743D01*
X53422732Y6644103D01*
X53416418Y6580000D01*
X46745925Y6580000D01*
X51038925Y10873000D01*
X56326075Y10873000D01*
X57873000Y9326074D01*
X57873000Y2066684D01*
X57863046Y2042652D01*
X56957348Y1136954D01*
X56933316Y1127000D01*
X2066684Y1127000D01*
X2042652Y1136954D01*
X1136954Y2042652D01*
X1127000Y2066684D01*
X1127000Y6580000D01*
X4854967Y6580000D01*
X4854967Y3580000D01*
X4867073Y3457087D01*
X4902925Y3338897D01*
X4961147Y3229972D01*
X5039499Y3134499D01*
X5134972Y3056147D01*
X5243897Y2997925D01*
X5362087Y2962073D01*
X5485000Y2949967D01*
X8485000Y2949967D01*
X8607913Y2962073D01*
X8726103Y2997925D01*
X8835028Y3056147D01*
X8930501Y3134499D01*
X9008853Y3229972D01*
X9067075Y3338897D01*
X9102927Y3457087D01*
X9115033Y3580000D01*
X9115033Y3604287D01*
X11116789Y3604287D01*
X11310191Y3406509D01*
X11651176Y3291409D01*
X12008065Y3245044D01*
X12367141Y3269194D01*
X12714606Y3362933D01*
X12819809Y3406509D01*
X13013211Y3604287D01*
X12065000Y4552498D01*
X11116789Y3604287D01*
X9115033Y3604287D01*
X9115033Y5136935D01*
X10230044Y5136935D01*
X10254194Y4777859D01*
X10347933Y4430394D01*
X10391509Y4325191D01*
X10589287Y4131789D01*
X11537498Y5080000D01*
X12592502Y5080000D01*
X13540713Y4131789D01*
X13738491Y4325191D01*
X13853591Y4666176D01*
X13899956Y5023065D01*
X13875806Y5382141D01*
X13782067Y5729606D01*
X13738491Y5834809D01*
X13540713Y6028211D01*
X12592502Y5080000D01*
X11537498Y5080000D01*
X10589287Y6028211D01*
X10391509Y5834809D01*
X10276409Y5493824D01*
X10230044Y5136935D01*
X9115033Y5136935D01*
X9115033Y6555713D01*
X11116789Y6555713D01*
X12065000Y5607502D01*
X13013211Y6555713D01*
X12989462Y6580000D01*
X20094967Y6580000D01*
X20094967Y3580000D01*
X20107073Y3457087D01*
X20142925Y3338897D01*
X20201147Y3229972D01*
X20279499Y3134499D01*
X20374972Y3056147D01*
X20483897Y2997925D01*
X20602087Y2962073D01*
X20725000Y2949967D01*
X23725000Y2949967D01*
X23847913Y2962073D01*
X23966103Y2997925D01*
X24075028Y3056147D01*
X24170501Y3134499D01*
X24248853Y3229972D01*
X24307075Y3338897D01*
X24342927Y3457087D01*
X24355033Y3580000D01*
X24355033Y3604287D01*
X26356789Y3604287D01*
X26550191Y3406509D01*
X26891176Y3291409D01*
X27248065Y3245044D01*
X27607141Y3269194D01*
X27954606Y3362933D01*
X28059809Y3406509D01*
X28229461Y3580000D01*
X38176418Y3580000D01*
X38182732Y3515897D01*
X38201430Y3454257D01*
X38231794Y3397450D01*
X38272657Y3347657D01*
X38322450Y3306794D01*
X38379257Y3276430D01*
X38440897Y3257732D01*
X38505000Y3251418D01*
X39550250Y3253000D01*
X39632000Y3334750D01*
X39632000Y4707000D01*
X40378000Y4707000D01*
X40378000Y3334750D01*
X40459750Y3253000D01*
X41505000Y3251418D01*
X41569103Y3257732D01*
X41630743Y3276430D01*
X41687550Y3306794D01*
X41737343Y3347657D01*
X41778206Y3397450D01*
X41808570Y3454257D01*
X41827268Y3515897D01*
X41833582Y3580000D01*
X41832000Y4625250D01*
X41750250Y4707000D01*
X40378000Y4707000D01*
X39632000Y4707000D01*
X38259750Y4707000D01*
X38178000Y4625250D01*
X38176418Y3580000D01*
X28229461Y3580000D01*
X28253211Y3604287D01*
X27305000Y4552498D01*
X26356789Y3604287D01*
X24355033Y3604287D01*
X24355033Y5136935D01*
X25470044Y5136935D01*
X25494194Y4777859D01*
X25587933Y4430394D01*
X25631509Y4325191D01*
X25829287Y4131789D01*
X26777498Y5080000D01*
X27832502Y5080000D01*
X28780713Y4131789D01*
X28978491Y4325191D01*
X29093591Y4666176D01*
X29139956Y5023065D01*
X29115806Y5382141D01*
X29022067Y5729606D01*
X28978491Y5834809D01*
X28780713Y6028211D01*
X27832502Y5080000D01*
X26777498Y5080000D01*
X25829287Y6028211D01*
X25631509Y5834809D01*
X25516409Y5493824D01*
X25470044Y5136935D01*
X24355033Y5136935D01*
X24355033Y6555713D01*
X26356789Y6555713D01*
X27305000Y5607502D01*
X28253211Y6555713D01*
X28229462Y6580000D01*
X38176418Y6580000D01*
X38178000Y5534750D01*
X38259750Y5453000D01*
X39632000Y5453000D01*
X39632000Y6825250D01*
X40378000Y6825250D01*
X40378000Y5453000D01*
X41750250Y5453000D01*
X41832000Y5534750D01*
X41833582Y6580000D01*
X41827268Y6644103D01*
X41808570Y6705743D01*
X41778206Y6762550D01*
X41737343Y6812343D01*
X41687550Y6853206D01*
X41630743Y6883570D01*
X41569103Y6902268D01*
X41505000Y6908582D01*
X40459750Y6907000D01*
X40378000Y6825250D01*
X39632000Y6825250D01*
X39550250Y6907000D01*
X38505000Y6908582D01*
X38440897Y6902268D01*
X38379257Y6883570D01*
X38322450Y6853206D01*
X38272657Y6812343D01*
X38231794Y6762550D01*
X38201430Y6705743D01*
X38182732Y6644103D01*
X38176418Y6580000D01*
X28229462Y6580000D01*
X28059809Y6753491D01*
X27718824Y6868591D01*
X27361935Y6914956D01*
X27002859Y6890806D01*
X26655394Y6797067D01*
X26550191Y6753491D01*
X26356789Y6555713D01*
X24355033Y6555713D01*
X24355033Y6580000D01*
X24342927Y6702913D01*
X24307075Y6821103D01*
X24248853Y6930028D01*
X24170501Y7025501D01*
X24075028Y7103853D01*
X23966103Y7162075D01*
X23847913Y7197927D01*
X23725000Y7210033D01*
X20725000Y7210033D01*
X20602087Y7197927D01*
X20483897Y7162075D01*
X20374972Y7103853D01*
X20279499Y7025501D01*
X20201147Y6930028D01*
X20142925Y6821103D01*
X20107073Y6702913D01*
X20094967Y6580000D01*
X12989462Y6580000D01*
X12819809Y6753491D01*
X12478824Y6868591D01*
X12121935Y6914956D01*
X11762859Y6890806D01*
X11415394Y6797067D01*
X11310191Y6753491D01*
X11116789Y6555713D01*
X9115033Y6555713D01*
X9115033Y6580000D01*
X9102927Y6702913D01*
X9067075Y6821103D01*
X9008853Y6930028D01*
X8930501Y7025501D01*
X8835028Y7103853D01*
X8726103Y7162075D01*
X8607913Y7197927D01*
X8485000Y7210033D01*
X5485000Y7210033D01*
X5362087Y7197927D01*
X5243897Y7162075D01*
X5134972Y7103853D01*
X5039499Y7025501D01*
X4961147Y6930028D01*
X4902925Y6821103D01*
X4867073Y6702913D01*
X4854967Y6580000D01*
X1127000Y6580000D01*
X1127000Y19280000D01*
X4854967Y19280000D01*
X4854967Y16280000D01*
X4867073Y16157087D01*
X4902925Y16038897D01*
X4961147Y15929972D01*
X5039499Y15834499D01*
X5134972Y15756147D01*
X5243897Y15697925D01*
X5362087Y15662073D01*
X5485000Y15649967D01*
X8485000Y15649967D01*
X8607913Y15662073D01*
X8726103Y15697925D01*
X8835028Y15756147D01*
X8930501Y15834499D01*
X9008853Y15929972D01*
X9067075Y16038897D01*
X9102927Y16157087D01*
X9115033Y16280000D01*
X9115033Y16304287D01*
X11116789Y16304287D01*
X11310191Y16106509D01*
X11651176Y15991409D01*
X12008065Y15945044D01*
X12367141Y15969194D01*
X12714606Y16062933D01*
X12819809Y16106509D01*
X13013211Y16304287D01*
X12065000Y17252498D01*
X11116789Y16304287D01*
X9115033Y16304287D01*
X9115033Y17836935D01*
X10230044Y17836935D01*
X10254194Y17477859D01*
X10347933Y17130394D01*
X10391509Y17025191D01*
X10589287Y16831789D01*
X11537498Y17780000D01*
X12592502Y17780000D01*
X13540713Y16831789D01*
X13738491Y17025191D01*
X13853591Y17366176D01*
X13899956Y17723065D01*
X13875806Y18082141D01*
X13782067Y18429606D01*
X13738491Y18534809D01*
X13540713Y18728211D01*
X12592502Y17780000D01*
X11537498Y17780000D01*
X10589287Y18728211D01*
X10391509Y18534809D01*
X10276409Y18193824D01*
X10230044Y17836935D01*
X9115033Y17836935D01*
X9115033Y19255713D01*
X11116789Y19255713D01*
X12065000Y18307502D01*
X13013211Y19255713D01*
X12989462Y19280000D01*
X20094967Y19280000D01*
X20094967Y16280000D01*
X20107073Y16157087D01*
X20142925Y16038897D01*
X20201147Y15929972D01*
X20279499Y15834499D01*
X20374972Y15756147D01*
X20483897Y15697925D01*
X20602087Y15662073D01*
X20725000Y15649967D01*
X23725000Y15649967D01*
X23847913Y15662073D01*
X23966103Y15697925D01*
X24075028Y15756147D01*
X24170501Y15834499D01*
X24248853Y15929972D01*
X24307075Y16038897D01*
X24342927Y16157087D01*
X24355033Y16280000D01*
X24355033Y16304287D01*
X26356789Y16304287D01*
X26550191Y16106509D01*
X26891176Y15991409D01*
X27248065Y15945044D01*
X27607141Y15969194D01*
X27954606Y16062933D01*
X28059809Y16106509D01*
X28229461Y16280000D01*
X38176418Y16280000D01*
X38182732Y16215897D01*
X38201430Y16154257D01*
X38231794Y16097450D01*
X38272657Y16047657D01*
X38322450Y16006794D01*
X38379257Y15976430D01*
X38440897Y15957732D01*
X38505000Y15951418D01*
X39550250Y15953000D01*
X39632000Y16034750D01*
X39632000Y17407000D01*
X40378000Y17407000D01*
X40378000Y16034750D01*
X40459750Y15953000D01*
X41505000Y15951418D01*
X41569103Y15957732D01*
X41630743Y15976430D01*
X41687550Y16006794D01*
X41737343Y16047657D01*
X41778206Y16097450D01*
X41808570Y16154257D01*
X41827268Y16215897D01*
X41833582Y16280000D01*
X41832000Y17325250D01*
X41750250Y17407000D01*
X40378000Y17407000D01*
X39632000Y17407000D01*
X38259750Y17407000D01*
X38178000Y17325250D01*
X38176418Y16280000D01*
X28229461Y16280000D01*
X28253211Y16304287D01*
X27305000Y17252498D01*
X26356789Y16304287D01*
X24355033Y16304287D01*
X24355033Y17836935D01*
X25470044Y17836935D01*
X25494194Y17477859D01*
X25587933Y17130394D01*
X25631509Y17025191D01*
X25829287Y16831789D01*
X26777498Y17780000D01*
X27832502Y17780000D01*
X28780713Y16831789D01*
X28978491Y17025191D01*
X29093591Y17366176D01*
X29139956Y17723065D01*
X29115806Y18082141D01*
X29022067Y18429606D01*
X28978491Y18534809D01*
X28780713Y18728211D01*
X27832502Y17780000D01*
X26777498Y17780000D01*
X25829287Y18728211D01*
X25631509Y18534809D01*
X25516409Y18193824D01*
X25470044Y17836935D01*
X24355033Y17836935D01*
X24355033Y19255713D01*
X26356789Y19255713D01*
X27305000Y18307502D01*
X28253211Y19255713D01*
X28229462Y19280000D01*
X38176418Y19280000D01*
X38178000Y18234750D01*
X38259750Y18153000D01*
X39632000Y18153000D01*
X39632000Y19525250D01*
X40378000Y19525250D01*
X40378000Y18153000D01*
X41750250Y18153000D01*
X41832000Y18234750D01*
X41833582Y19280000D01*
X41827268Y19344103D01*
X41808570Y19405743D01*
X41778206Y19462550D01*
X41737343Y19512343D01*
X41687550Y19553206D01*
X41630743Y19583570D01*
X41569103Y19602268D01*
X41505000Y19608582D01*
X40459750Y19607000D01*
X40378000Y19525250D01*
X39632000Y19525250D01*
X39550250Y19607000D01*
X38505000Y19608582D01*
X38440897Y19602268D01*
X38379257Y19583570D01*
X38322450Y19553206D01*
X38272657Y19512343D01*
X38231794Y19462550D01*
X38201430Y19405743D01*
X38182732Y19344103D01*
X38176418Y19280000D01*
X28229462Y19280000D01*
X28059809Y19453491D01*
X27718824Y19568591D01*
X27361935Y19614956D01*
X27002859Y19590806D01*
X26655394Y19497067D01*
X26550191Y19453491D01*
X26356789Y19255713D01*
X24355033Y19255713D01*
X24355033Y19280000D01*
X24342927Y19402913D01*
X24307075Y19521103D01*
X24248853Y19630028D01*
X24170501Y19725501D01*
X24075028Y19803853D01*
X23966103Y19862075D01*
X23847913Y19897927D01*
X23725000Y19910033D01*
X20725000Y19910033D01*
X20602087Y19897927D01*
X20483897Y19862075D01*
X20374972Y19803853D01*
X20279499Y19725501D01*
X20201147Y19630028D01*
X20142925Y19521103D01*
X20107073Y19402913D01*
X20094967Y19280000D01*
X12989462Y19280000D01*
X12819809Y19453491D01*
X12478824Y19568591D01*
X12121935Y19614956D01*
X11762859Y19590806D01*
X11415394Y19497067D01*
X11310191Y19453491D01*
X11116789Y19255713D01*
X9115033Y19255713D01*
X9115033Y19280000D01*
X9102927Y19402913D01*
X9067075Y19521103D01*
X9008853Y19630028D01*
X8930501Y19725501D01*
X8835028Y19803853D01*
X8726103Y19862075D01*
X8607913Y19897927D01*
X8485000Y19910033D01*
X5485000Y19910033D01*
X5362087Y19897927D01*
X5243897Y19862075D01*
X5134972Y19803853D01*
X5039499Y19725501D01*
X4961147Y19630028D01*
X4902925Y19521103D01*
X4867073Y19402913D01*
X4854967Y19280000D01*
X1127000Y19280000D01*
X1127000Y41933316D01*
X1136954Y41957348D01*
X2042652Y42863046D01*
X2066684Y42873000D01*
X9074967Y42873000D01*
X9074967Y33970000D01*
G37*
X9074967Y33970000D02*
X9087073Y33847087D01*
X9122925Y33728897D01*
X9181147Y33619972D01*
X9259499Y33524499D01*
X9354972Y33446147D01*
X9463897Y33387925D01*
X9582087Y33352073D01*
X9705000Y33339967D01*
X19105000Y33339967D01*
X19227913Y33352073D01*
X19346103Y33387925D01*
X19455028Y33446147D01*
X19550501Y33524499D01*
X19628853Y33619972D01*
X19687075Y33728897D01*
X19722927Y33847087D01*
X19735033Y33970000D01*
X19735033Y38243000D01*
X21004402Y38243000D01*
X21013897Y38237925D01*
X21132087Y38202073D01*
X21255000Y38189967D01*
X25855000Y38189967D01*
X25977913Y38202073D01*
X26096103Y38237925D01*
X26105598Y38243000D01*
X27665543Y38243000D01*
X27674377Y38153314D01*
X27712694Y38027000D01*
X27555364Y38027000D01*
X27500000Y38032453D01*
X27444635Y38027000D01*
X27279069Y38010693D01*
X27102067Y37957000D01*
X26105598Y37957000D01*
X26096103Y37962075D01*
X25977913Y37997927D01*
X25855000Y38010033D01*
X21255000Y38010033D01*
X21132087Y37997927D01*
X21013897Y37962075D01*
X20904972Y37903853D01*
X20809499Y37825501D01*
X20731147Y37730028D01*
X20672925Y37621103D01*
X20637073Y37502913D01*
X20624967Y37380000D01*
X20624967Y36280000D01*
X20637073Y36157087D01*
X20672925Y36038897D01*
X20731147Y35929972D01*
X20809499Y35834499D01*
X20904972Y35756147D01*
X21013897Y35697925D01*
X21132087Y35662073D01*
X21255000Y35649967D01*
X25855000Y35649967D01*
X25977913Y35662073D01*
X26096103Y35697925D01*
X26105598Y35703000D01*
X26373000Y35703000D01*
X26373001Y34455364D01*
X26367548Y34400000D01*
X26373001Y34344636D01*
X26373001Y34344635D01*
X26389308Y34179069D01*
X26403170Y34133372D01*
X26453750Y33966630D01*
X26558400Y33770844D01*
X26663942Y33642240D01*
X26663946Y33642236D01*
X26699236Y33599235D01*
X26719967Y33582222D01*
X26719967Y32850000D01*
X26732073Y32727087D01*
X26767925Y32608897D01*
X26826147Y32499972D01*
X26904499Y32404499D01*
X26999972Y32326147D01*
X27108897Y32267925D01*
X27227087Y32232073D01*
X27350000Y32219967D01*
X29050000Y32219967D01*
X29172913Y32232073D01*
X29291103Y32267925D01*
X29400028Y32326147D01*
X29495501Y32404499D01*
X29573853Y32499972D01*
X29632075Y32608897D01*
X29667927Y32727087D01*
X29670183Y32750000D01*
X32521418Y32750000D01*
X32527732Y32685897D01*
X32546430Y32624257D01*
X32576794Y32567450D01*
X32617657Y32517657D01*
X32667450Y32476794D01*
X32724257Y32446430D01*
X32785897Y32427732D01*
X32850000Y32421418D01*
X33245250Y32423000D01*
X33327000Y32504750D01*
X33327000Y33227000D01*
X34073000Y33227000D01*
X34073000Y32504750D01*
X34154750Y32423000D01*
X34550000Y32421418D01*
X34614103Y32427732D01*
X34675743Y32446430D01*
X34732550Y32476794D01*
X34782343Y32517657D01*
X34823206Y32567450D01*
X34853570Y32624257D01*
X34872268Y32685897D01*
X34878582Y32750000D01*
X34877000Y33145250D01*
X34795250Y33227000D01*
X34073000Y33227000D01*
X33327000Y33227000D01*
X32604750Y33227000D01*
X32523000Y33145250D01*
X32521418Y32750000D01*
X29670183Y32750000D01*
X29680033Y32850000D01*
X29680033Y33595823D01*
X29741600Y33670843D01*
X29846250Y33866629D01*
X29910693Y34079069D01*
X29927000Y34244635D01*
X29927000Y34244645D01*
X29932452Y34299999D01*
X29927000Y34355354D01*
X29927000Y34450000D01*
X32521418Y34450000D01*
X32523000Y34054750D01*
X32604750Y33973000D01*
X33327000Y33973000D01*
X33327000Y34695250D01*
X34073000Y34695250D01*
X34073000Y33973000D01*
X34795250Y33973000D01*
X34877000Y34054750D01*
X34877755Y34243518D01*
X44771020Y34243518D01*
X44926926Y34076646D01*
X45215620Y33992194D01*
X45515242Y33965686D01*
X45814279Y33998141D01*
X46073074Y34076646D01*
X46228980Y34243518D01*
X45500000Y34972498D01*
X44771020Y34243518D01*
X34877755Y34243518D01*
X34878582Y34450000D01*
X34872268Y34514103D01*
X34853570Y34575743D01*
X34823206Y34632550D01*
X34782343Y34682343D01*
X34732550Y34723206D01*
X34675743Y34753570D01*
X34614103Y34772268D01*
X34550000Y34778582D01*
X34154750Y34777000D01*
X34073000Y34695250D01*
X33327000Y34695250D01*
X33245250Y34777000D01*
X32850000Y34778582D01*
X32785897Y34772268D01*
X32724257Y34753570D01*
X32667450Y34723206D01*
X32617657Y34682343D01*
X32576794Y34632550D01*
X32546430Y34575743D01*
X32527732Y34514103D01*
X32521418Y34450000D01*
X29927000Y34450000D01*
X29927000Y35484758D01*
X43965686Y35484758D01*
X43998141Y35185721D01*
X44076646Y34926926D01*
X44243518Y34771020D01*
X44972498Y35500000D01*
X46027502Y35500000D01*
X46756482Y34771020D01*
X46923354Y34926926D01*
X47007806Y35215620D01*
X47034314Y35515242D01*
X47001859Y35814279D01*
X46923354Y36073074D01*
X46756482Y36228980D01*
X46027502Y35500000D01*
X44972498Y35500000D01*
X44243518Y36228980D01*
X44076646Y36073074D01*
X43992194Y35784380D01*
X43965686Y35484758D01*
X29927000Y35484758D01*
X29927000Y36756482D01*
X44771020Y36756482D01*
X45500000Y36027502D01*
X46172498Y36700000D01*
X51169967Y36700000D01*
X51169967Y34300000D01*
X51182073Y34177087D01*
X51217925Y34058897D01*
X51276147Y33949972D01*
X51354499Y33854499D01*
X51449972Y33776147D01*
X51558897Y33717925D01*
X51677087Y33682073D01*
X51800000Y33669967D01*
X54200000Y33669967D01*
X54322913Y33682073D01*
X54441103Y33717925D01*
X54550028Y33776147D01*
X54645501Y33854499D01*
X54723853Y33949972D01*
X54782075Y34058897D01*
X54817927Y34177087D01*
X54830033Y34300000D01*
X54830033Y36700000D01*
X54817927Y36822913D01*
X54782075Y36941103D01*
X54723853Y37050028D01*
X54645501Y37145501D01*
X54550028Y37223853D01*
X54441103Y37282075D01*
X54322913Y37317927D01*
X54200000Y37330033D01*
X51800000Y37330033D01*
X51677087Y37317927D01*
X51558897Y37282075D01*
X51449972Y37223853D01*
X51354499Y37145501D01*
X51276147Y37050028D01*
X51217925Y36941103D01*
X51182073Y36822913D01*
X51169967Y36700000D01*
X46172498Y36700000D01*
X46228980Y36756482D01*
X46073074Y36923354D01*
X45784380Y37007806D01*
X45484758Y37034314D01*
X45185721Y37001859D01*
X44926926Y36923354D01*
X44771020Y36756482D01*
X29927000Y36756482D01*
X29927000Y36844635D01*
X29932453Y36900000D01*
X29910693Y37120931D01*
X29846250Y37333371D01*
X29757558Y37499302D01*
X29799274Y37511956D01*
X29951420Y37593279D01*
X30084777Y37702723D01*
X30194221Y37836080D01*
X30275544Y37988226D01*
X30325623Y38153314D01*
X30342533Y38325000D01*
X30342533Y40475000D01*
X30632467Y40475000D01*
X30632467Y38325000D01*
X30649377Y38153314D01*
X30699456Y37988226D01*
X30780779Y37836080D01*
X30890223Y37702723D01*
X31023580Y37593279D01*
X31175726Y37511956D01*
X31340814Y37461877D01*
X31512500Y37444967D01*
X32437500Y37444967D01*
X32609186Y37461877D01*
X32774274Y37511956D01*
X32926420Y37593279D01*
X33059777Y37702723D01*
X33169221Y37836080D01*
X33250544Y37988226D01*
X33300623Y38153314D01*
X33312411Y38273000D01*
X35655365Y38273000D01*
X35820931Y38289307D01*
X36033371Y38353750D01*
X36229157Y38458400D01*
X36400765Y38599235D01*
X36541600Y38770843D01*
X36646250Y38966629D01*
X36710693Y39179069D01*
X36732453Y39400000D01*
X36710693Y39620931D01*
X36646250Y39833371D01*
X36541600Y40029157D01*
X36400765Y40200765D01*
X36229157Y40341600D01*
X36033371Y40446250D01*
X35820931Y40510693D01*
X35655365Y40527000D01*
X33312411Y40527000D01*
X33300623Y40646686D01*
X33250544Y40811774D01*
X33169221Y40963920D01*
X33059777Y41097277D01*
X32926420Y41206721D01*
X32774274Y41288044D01*
X32609186Y41338123D01*
X32437500Y41355033D01*
X31512500Y41355033D01*
X31340814Y41338123D01*
X31175726Y41288044D01*
X31023580Y41206721D01*
X30890223Y41097277D01*
X30780779Y40963920D01*
X30699456Y40811774D01*
X30649377Y40646686D01*
X30632467Y40475000D01*
X30342533Y40475000D01*
X30325623Y40646686D01*
X30275544Y40811774D01*
X30194221Y40963920D01*
X30084777Y41097277D01*
X29951420Y41206721D01*
X29799274Y41288044D01*
X29634186Y41338123D01*
X29462500Y41355033D01*
X28537500Y41355033D01*
X28365814Y41338123D01*
X28200726Y41288044D01*
X28048580Y41206721D01*
X27915223Y41097277D01*
X27805779Y40963920D01*
X27724456Y40811774D01*
X27674377Y40646686D01*
X27659634Y40497000D01*
X26105598Y40497000D01*
X26096103Y40502075D01*
X25977913Y40537927D01*
X25855000Y40550033D01*
X21255000Y40550033D01*
X21132087Y40537927D01*
X21013897Y40502075D01*
X21004402Y40497000D01*
X19735033Y40497000D01*
X19735033Y41360000D01*
X20926418Y41360000D01*
X20932732Y41295897D01*
X20951430Y41234257D01*
X20981794Y41177450D01*
X21022657Y41127657D01*
X21072450Y41086794D01*
X21129257Y41056430D01*
X21190897Y41037732D01*
X21255000Y41031418D01*
X23100250Y41033000D01*
X23182000Y41114750D01*
X23182000Y41537000D01*
X23928000Y41537000D01*
X23928000Y41114750D01*
X24009750Y41033000D01*
X25855000Y41031418D01*
X25919103Y41037732D01*
X25980743Y41056430D01*
X26037550Y41086794D01*
X26087343Y41127657D01*
X26128206Y41177450D01*
X26158570Y41234257D01*
X26177268Y41295897D01*
X26183582Y41360000D01*
X26182000Y41455250D01*
X26100250Y41537000D01*
X23928000Y41537000D01*
X23182000Y41537000D01*
X21009750Y41537000D01*
X20928000Y41455250D01*
X20926418Y41360000D01*
X19735033Y41360000D01*
X19735033Y42460000D01*
X20926418Y42460000D01*
X20928000Y42364750D01*
X21009750Y42283000D01*
X23182000Y42283000D01*
X23182000Y42705250D01*
X23928000Y42705250D01*
X23928000Y42283000D01*
X26100250Y42283000D01*
X26182000Y42364750D01*
X26183582Y42460000D01*
X26177268Y42524103D01*
X26158570Y42585743D01*
X26128206Y42642550D01*
X26087343Y42692343D01*
X26037550Y42733206D01*
X25980743Y42763570D01*
X25919103Y42782268D01*
X25855000Y42788582D01*
X24009750Y42787000D01*
X23928000Y42705250D01*
X23182000Y42705250D01*
X23100250Y42787000D01*
X21255000Y42788582D01*
X21190897Y42782268D01*
X21129257Y42763570D01*
X21072450Y42733206D01*
X21022657Y42692343D01*
X20981794Y42642550D01*
X20951430Y42585743D01*
X20932732Y42524103D01*
X20926418Y42460000D01*
X19735033Y42460000D01*
X19735033Y42873000D01*
X56933316Y42873000D01*
X56957348Y42863046D01*
X57863046Y41957348D01*
X57873000Y41933316D01*
X57873000Y14127000D01*
X57079914Y14127000D01*
X57000000Y14134871D01*
X56920086Y14127000D01*
X51038925Y14127000D01*
X48885925Y16280000D01*
X53416418Y16280000D01*
X53422732Y16215897D01*
X53441430Y16154257D01*
X53471794Y16097450D01*
X53512657Y16047657D01*
X53562450Y16006794D01*
X53619257Y15976430D01*
X53680897Y15957732D01*
X53745000Y15951418D01*
X54790250Y15953000D01*
X54872000Y16034750D01*
X54872000Y17407000D01*
X55618000Y17407000D01*
X55618000Y16034750D01*
X55699750Y15953000D01*
X56745000Y15951418D01*
X56809103Y15957732D01*
X56870743Y15976430D01*
X56927550Y16006794D01*
X56977343Y16047657D01*
X57018206Y16097450D01*
X57048570Y16154257D01*
X57067268Y16215897D01*
X57073582Y16280000D01*
X57072000Y17325250D01*
X56990250Y17407000D01*
X55618000Y17407000D01*
X54872000Y17407000D01*
X53499750Y17407000D01*
X53418000Y17325250D01*
X53416418Y16280000D01*
X48885925Y16280000D01*
X47212000Y17953925D01*
X47212000Y17989491D01*
X47130261Y18400423D01*
X46969923Y18787512D01*
X46737149Y19135884D01*
X46593033Y19280000D01*
X53416418Y19280000D01*
X53418000Y18234750D01*
X53499750Y18153000D01*
X54872000Y18153000D01*
X54872000Y19525250D01*
X55618000Y19525250D01*
X55618000Y18153000D01*
X56990250Y18153000D01*
X57072000Y18234750D01*
X57073582Y19280000D01*
X57067268Y19344103D01*
X57048570Y19405743D01*
X57018206Y19462550D01*
X56977343Y19512343D01*
X56927550Y19553206D01*
X56870743Y19583570D01*
X56809103Y19602268D01*
X56745000Y19608582D01*
X55699750Y19607000D01*
X55618000Y19525250D01*
X54872000Y19525250D01*
X54790250Y19607000D01*
X53745000Y19608582D01*
X53680897Y19602268D01*
X53619257Y19583570D01*
X53562450Y19553206D01*
X53512657Y19512343D01*
X53471794Y19462550D01*
X53441430Y19405743D01*
X53422732Y19344103D01*
X53416418Y19280000D01*
X46593033Y19280000D01*
X46440884Y19432149D01*
X46092512Y19664923D01*
X45705423Y19825261D01*
X45294491Y19907000D01*
X44875509Y19907000D01*
X44464577Y19825261D01*
X44077488Y19664923D01*
X43729116Y19432149D01*
X43432851Y19135884D01*
X43200077Y18787512D01*
X43039739Y18400423D01*
X42958000Y17989491D01*
X42958000Y17570509D01*
X43039739Y17159577D01*
X43200077Y16772488D01*
X43432851Y16424116D01*
X43729116Y16127851D01*
X44077488Y15895077D01*
X44464577Y15734739D01*
X44875509Y15653000D01*
X44911075Y15653000D01*
X48064075Y12500000D01*
X43991050Y8426975D01*
X43928972Y8376029D01*
X43878026Y8313951D01*
X43878022Y8313947D01*
X43725654Y8128285D01*
X43639992Y7968022D01*
X43574576Y7845638D01*
X43481902Y7540129D01*
X43481543Y7538947D01*
X43450129Y7220000D01*
X43458001Y7140076D01*
X43458001Y6461034D01*
X43432851Y6435884D01*
X43200077Y6087512D01*
X43039739Y5700423D01*
X42958000Y5289491D01*
X42958000Y4870509D01*
X43039739Y4459577D01*
X43200077Y4072488D01*
X43432851Y3724116D01*
X43729116Y3427851D01*
X44077488Y3195077D01*
X44464577Y3034739D01*
X44875509Y2953000D01*
X45294491Y2953000D01*
X45705423Y3034739D01*
X46092512Y3195077D01*
X46440884Y3427851D01*
X46593033Y3580000D01*
X53416418Y3580000D01*
X53422732Y3515897D01*
X53441430Y3454257D01*
X53471794Y3397450D01*
X53512657Y3347657D01*
X53562450Y3306794D01*
X53619257Y3276430D01*
X53680897Y3257732D01*
X53745000Y3251418D01*
X54790250Y3253000D01*
X54872000Y3334750D01*
X54872000Y4707000D01*
X55618000Y4707000D01*
X55618000Y3334750D01*
X55699750Y3253000D01*
X56745000Y3251418D01*
X56809103Y3257732D01*
X56870743Y3276430D01*
X56927550Y3306794D01*
X56977343Y3347657D01*
X57018206Y3397450D01*
X57048570Y3454257D01*
X57067268Y3515897D01*
X57073582Y3580000D01*
X57072000Y4625250D01*
X56990250Y4707000D01*
X55618000Y4707000D01*
X54872000Y4707000D01*
X53499750Y4707000D01*
X53418000Y4625250D01*
X53416418Y3580000D01*
X46593033Y3580000D01*
X46737149Y3724116D01*
X46969923Y4072488D01*
X47130261Y4459577D01*
X47212000Y4870509D01*
X47212000Y5289491D01*
X47130261Y5700423D01*
X46969923Y6087512D01*
X46737149Y6435884D01*
X46712000Y6461033D01*
X46712000Y6546075D01*
X46745925Y6580000D01*
X53416418Y6580000D01*
X53418000Y5534750D01*
X53499750Y5453000D01*
X54872000Y5453000D01*
X54872000Y6825250D01*
X55618000Y6825250D01*
X55618000Y5453000D01*
X56990250Y5453000D01*
X57072000Y5534750D01*
X57073582Y6580000D01*
X57067268Y6644103D01*
X57048570Y6705743D01*
X57018206Y6762550D01*
X56977343Y6812343D01*
X56927550Y6853206D01*
X56870743Y6883570D01*
X56809103Y6902268D01*
X56745000Y6908582D01*
X55699750Y6907000D01*
X55618000Y6825250D01*
X54872000Y6825250D01*
X54790250Y6907000D01*
X53745000Y6908582D01*
X53680897Y6902268D01*
X53619257Y6883570D01*
X53562450Y6853206D01*
X53512657Y6812343D01*
X53471794Y6762550D01*
X53441430Y6705743D01*
X53422732Y6644103D01*
X53416418Y6580000D01*
X46745925Y6580000D01*
X51038925Y10873000D01*
X56326075Y10873000D01*
X57873000Y9326074D01*
X57873000Y2066684D01*
X57863046Y2042652D01*
X56957348Y1136954D01*
X56933316Y1127000D01*
X2066684Y1127000D01*
X2042652Y1136954D01*
X1136954Y2042652D01*
X1127000Y2066684D01*
X1127000Y6580000D01*
X4854967Y6580000D01*
X4854967Y3580000D01*
X4867073Y3457087D01*
X4902925Y3338897D01*
X4961147Y3229972D01*
X5039499Y3134499D01*
X5134972Y3056147D01*
X5243897Y2997925D01*
X5362087Y2962073D01*
X5485000Y2949967D01*
X8485000Y2949967D01*
X8607913Y2962073D01*
X8726103Y2997925D01*
X8835028Y3056147D01*
X8930501Y3134499D01*
X9008853Y3229972D01*
X9067075Y3338897D01*
X9102927Y3457087D01*
X9115033Y3580000D01*
X9115033Y3604287D01*
X11116789Y3604287D01*
X11310191Y3406509D01*
X11651176Y3291409D01*
X12008065Y3245044D01*
X12367141Y3269194D01*
X12714606Y3362933D01*
X12819809Y3406509D01*
X13013211Y3604287D01*
X12065000Y4552498D01*
X11116789Y3604287D01*
X9115033Y3604287D01*
X9115033Y5136935D01*
X10230044Y5136935D01*
X10254194Y4777859D01*
X10347933Y4430394D01*
X10391509Y4325191D01*
X10589287Y4131789D01*
X11537498Y5080000D01*
X12592502Y5080000D01*
X13540713Y4131789D01*
X13738491Y4325191D01*
X13853591Y4666176D01*
X13899956Y5023065D01*
X13875806Y5382141D01*
X13782067Y5729606D01*
X13738491Y5834809D01*
X13540713Y6028211D01*
X12592502Y5080000D01*
X11537498Y5080000D01*
X10589287Y6028211D01*
X10391509Y5834809D01*
X10276409Y5493824D01*
X10230044Y5136935D01*
X9115033Y5136935D01*
X9115033Y6555713D01*
X11116789Y6555713D01*
X12065000Y5607502D01*
X13013211Y6555713D01*
X12989462Y6580000D01*
X20094967Y6580000D01*
X20094967Y3580000D01*
X20107073Y3457087D01*
X20142925Y3338897D01*
X20201147Y3229972D01*
X20279499Y3134499D01*
X20374972Y3056147D01*
X20483897Y2997925D01*
X20602087Y2962073D01*
X20725000Y2949967D01*
X23725000Y2949967D01*
X23847913Y2962073D01*
X23966103Y2997925D01*
X24075028Y3056147D01*
X24170501Y3134499D01*
X24248853Y3229972D01*
X24307075Y3338897D01*
X24342927Y3457087D01*
X24355033Y3580000D01*
X24355033Y3604287D01*
X26356789Y3604287D01*
X26550191Y3406509D01*
X26891176Y3291409D01*
X27248065Y3245044D01*
X27607141Y3269194D01*
X27954606Y3362933D01*
X28059809Y3406509D01*
X28229461Y3580000D01*
X38176418Y3580000D01*
X38182732Y3515897D01*
X38201430Y3454257D01*
X38231794Y3397450D01*
X38272657Y3347657D01*
X38322450Y3306794D01*
X38379257Y3276430D01*
X38440897Y3257732D01*
X38505000Y3251418D01*
X39550250Y3253000D01*
X39632000Y3334750D01*
X39632000Y4707000D01*
X40378000Y4707000D01*
X40378000Y3334750D01*
X40459750Y3253000D01*
X41505000Y3251418D01*
X41569103Y3257732D01*
X41630743Y3276430D01*
X41687550Y3306794D01*
X41737343Y3347657D01*
X41778206Y3397450D01*
X41808570Y3454257D01*
X41827268Y3515897D01*
X41833582Y3580000D01*
X41832000Y4625250D01*
X41750250Y4707000D01*
X40378000Y4707000D01*
X39632000Y4707000D01*
X38259750Y4707000D01*
X38178000Y4625250D01*
X38176418Y3580000D01*
X28229461Y3580000D01*
X28253211Y3604287D01*
X27305000Y4552498D01*
X26356789Y3604287D01*
X24355033Y3604287D01*
X24355033Y5136935D01*
X25470044Y5136935D01*
X25494194Y4777859D01*
X25587933Y4430394D01*
X25631509Y4325191D01*
X25829287Y4131789D01*
X26777498Y5080000D01*
X27832502Y5080000D01*
X28780713Y4131789D01*
X28978491Y4325191D01*
X29093591Y4666176D01*
X29139956Y5023065D01*
X29115806Y5382141D01*
X29022067Y5729606D01*
X28978491Y5834809D01*
X28780713Y6028211D01*
X27832502Y5080000D01*
X26777498Y5080000D01*
X25829287Y6028211D01*
X25631509Y5834809D01*
X25516409Y5493824D01*
X25470044Y5136935D01*
X24355033Y5136935D01*
X24355033Y6555713D01*
X26356789Y6555713D01*
X27305000Y5607502D01*
X28253211Y6555713D01*
X28229462Y6580000D01*
X38176418Y6580000D01*
X38178000Y5534750D01*
X38259750Y5453000D01*
X39632000Y5453000D01*
X39632000Y6825250D01*
X40378000Y6825250D01*
X40378000Y5453000D01*
X41750250Y5453000D01*
X41832000Y5534750D01*
X41833582Y6580000D01*
X41827268Y6644103D01*
X41808570Y6705743D01*
X41778206Y6762550D01*
X41737343Y6812343D01*
X41687550Y6853206D01*
X41630743Y6883570D01*
X41569103Y6902268D01*
X41505000Y6908582D01*
X40459750Y6907000D01*
X40378000Y6825250D01*
X39632000Y6825250D01*
X39550250Y6907000D01*
X38505000Y6908582D01*
X38440897Y6902268D01*
X38379257Y6883570D01*
X38322450Y6853206D01*
X38272657Y6812343D01*
X38231794Y6762550D01*
X38201430Y6705743D01*
X38182732Y6644103D01*
X38176418Y6580000D01*
X28229462Y6580000D01*
X28059809Y6753491D01*
X27718824Y6868591D01*
X27361935Y6914956D01*
X27002859Y6890806D01*
X26655394Y6797067D01*
X26550191Y6753491D01*
X26356789Y6555713D01*
X24355033Y6555713D01*
X24355033Y6580000D01*
X24342927Y6702913D01*
X24307075Y6821103D01*
X24248853Y6930028D01*
X24170501Y7025501D01*
X24075028Y7103853D01*
X23966103Y7162075D01*
X23847913Y7197927D01*
X23725000Y7210033D01*
X20725000Y7210033D01*
X20602087Y7197927D01*
X20483897Y7162075D01*
X20374972Y7103853D01*
X20279499Y7025501D01*
X20201147Y6930028D01*
X20142925Y6821103D01*
X20107073Y6702913D01*
X20094967Y6580000D01*
X12989462Y6580000D01*
X12819809Y6753491D01*
X12478824Y6868591D01*
X12121935Y6914956D01*
X11762859Y6890806D01*
X11415394Y6797067D01*
X11310191Y6753491D01*
X11116789Y6555713D01*
X9115033Y6555713D01*
X9115033Y6580000D01*
X9102927Y6702913D01*
X9067075Y6821103D01*
X9008853Y6930028D01*
X8930501Y7025501D01*
X8835028Y7103853D01*
X8726103Y7162075D01*
X8607913Y7197927D01*
X8485000Y7210033D01*
X5485000Y7210033D01*
X5362087Y7197927D01*
X5243897Y7162075D01*
X5134972Y7103853D01*
X5039499Y7025501D01*
X4961147Y6930028D01*
X4902925Y6821103D01*
X4867073Y6702913D01*
X4854967Y6580000D01*
X1127000Y6580000D01*
X1127000Y19280000D01*
X4854967Y19280000D01*
X4854967Y16280000D01*
X4867073Y16157087D01*
X4902925Y16038897D01*
X4961147Y15929972D01*
X5039499Y15834499D01*
X5134972Y15756147D01*
X5243897Y15697925D01*
X5362087Y15662073D01*
X5485000Y15649967D01*
X8485000Y15649967D01*
X8607913Y15662073D01*
X8726103Y15697925D01*
X8835028Y15756147D01*
X8930501Y15834499D01*
X9008853Y15929972D01*
X9067075Y16038897D01*
X9102927Y16157087D01*
X9115033Y16280000D01*
X9115033Y16304287D01*
X11116789Y16304287D01*
X11310191Y16106509D01*
X11651176Y15991409D01*
X12008065Y15945044D01*
X12367141Y15969194D01*
X12714606Y16062933D01*
X12819809Y16106509D01*
X13013211Y16304287D01*
X12065000Y17252498D01*
X11116789Y16304287D01*
X9115033Y16304287D01*
X9115033Y17836935D01*
X10230044Y17836935D01*
X10254194Y17477859D01*
X10347933Y17130394D01*
X10391509Y17025191D01*
X10589287Y16831789D01*
X11537498Y17780000D01*
X12592502Y17780000D01*
X13540713Y16831789D01*
X13738491Y17025191D01*
X13853591Y17366176D01*
X13899956Y17723065D01*
X13875806Y18082141D01*
X13782067Y18429606D01*
X13738491Y18534809D01*
X13540713Y18728211D01*
X12592502Y17780000D01*
X11537498Y17780000D01*
X10589287Y18728211D01*
X10391509Y18534809D01*
X10276409Y18193824D01*
X10230044Y17836935D01*
X9115033Y17836935D01*
X9115033Y19255713D01*
X11116789Y19255713D01*
X12065000Y18307502D01*
X13013211Y19255713D01*
X12989462Y19280000D01*
X20094967Y19280000D01*
X20094967Y16280000D01*
X20107073Y16157087D01*
X20142925Y16038897D01*
X20201147Y15929972D01*
X20279499Y15834499D01*
X20374972Y15756147D01*
X20483897Y15697925D01*
X20602087Y15662073D01*
X20725000Y15649967D01*
X23725000Y15649967D01*
X23847913Y15662073D01*
X23966103Y15697925D01*
X24075028Y15756147D01*
X24170501Y15834499D01*
X24248853Y15929972D01*
X24307075Y16038897D01*
X24342927Y16157087D01*
X24355033Y16280000D01*
X24355033Y16304287D01*
X26356789Y16304287D01*
X26550191Y16106509D01*
X26891176Y15991409D01*
X27248065Y15945044D01*
X27607141Y15969194D01*
X27954606Y16062933D01*
X28059809Y16106509D01*
X28229461Y16280000D01*
X38176418Y16280000D01*
X38182732Y16215897D01*
X38201430Y16154257D01*
X38231794Y16097450D01*
X38272657Y16047657D01*
X38322450Y16006794D01*
X38379257Y15976430D01*
X38440897Y15957732D01*
X38505000Y15951418D01*
X39550250Y15953000D01*
X39632000Y16034750D01*
X39632000Y17407000D01*
X40378000Y17407000D01*
X40378000Y16034750D01*
X40459750Y15953000D01*
X41505000Y15951418D01*
X41569103Y15957732D01*
X41630743Y15976430D01*
X41687550Y16006794D01*
X41737343Y16047657D01*
X41778206Y16097450D01*
X41808570Y16154257D01*
X41827268Y16215897D01*
X41833582Y16280000D01*
X41832000Y17325250D01*
X41750250Y17407000D01*
X40378000Y17407000D01*
X39632000Y17407000D01*
X38259750Y17407000D01*
X38178000Y17325250D01*
X38176418Y16280000D01*
X28229461Y16280000D01*
X28253211Y16304287D01*
X27305000Y17252498D01*
X26356789Y16304287D01*
X24355033Y16304287D01*
X24355033Y17836935D01*
X25470044Y17836935D01*
X25494194Y17477859D01*
X25587933Y17130394D01*
X25631509Y17025191D01*
X25829287Y16831789D01*
X26777498Y17780000D01*
X27832502Y17780000D01*
X28780713Y16831789D01*
X28978491Y17025191D01*
X29093591Y17366176D01*
X29139956Y17723065D01*
X29115806Y18082141D01*
X29022067Y18429606D01*
X28978491Y18534809D01*
X28780713Y18728211D01*
X27832502Y17780000D01*
X26777498Y17780000D01*
X25829287Y18728211D01*
X25631509Y18534809D01*
X25516409Y18193824D01*
X25470044Y17836935D01*
X24355033Y17836935D01*
X24355033Y19255713D01*
X26356789Y19255713D01*
X27305000Y18307502D01*
X28253211Y19255713D01*
X28229462Y19280000D01*
X38176418Y19280000D01*
X38178000Y18234750D01*
X38259750Y18153000D01*
X39632000Y18153000D01*
X39632000Y19525250D01*
X40378000Y19525250D01*
X40378000Y18153000D01*
X41750250Y18153000D01*
X41832000Y18234750D01*
X41833582Y19280000D01*
X41827268Y19344103D01*
X41808570Y19405743D01*
X41778206Y19462550D01*
X41737343Y19512343D01*
X41687550Y19553206D01*
X41630743Y19583570D01*
X41569103Y19602268D01*
X41505000Y19608582D01*
X40459750Y19607000D01*
X40378000Y19525250D01*
X39632000Y19525250D01*
X39550250Y19607000D01*
X38505000Y19608582D01*
X38440897Y19602268D01*
X38379257Y19583570D01*
X38322450Y19553206D01*
X38272657Y19512343D01*
X38231794Y19462550D01*
X38201430Y19405743D01*
X38182732Y19344103D01*
X38176418Y19280000D01*
X28229462Y19280000D01*
X28059809Y19453491D01*
X27718824Y19568591D01*
X27361935Y19614956D01*
X27002859Y19590806D01*
X26655394Y19497067D01*
X26550191Y19453491D01*
X26356789Y19255713D01*
X24355033Y19255713D01*
X24355033Y19280000D01*
X24342927Y19402913D01*
X24307075Y19521103D01*
X24248853Y19630028D01*
X24170501Y19725501D01*
X24075028Y19803853D01*
X23966103Y19862075D01*
X23847913Y19897927D01*
X23725000Y19910033D01*
X20725000Y19910033D01*
X20602087Y19897927D01*
X20483897Y19862075D01*
X20374972Y19803853D01*
X20279499Y19725501D01*
X20201147Y19630028D01*
X20142925Y19521103D01*
X20107073Y19402913D01*
X20094967Y19280000D01*
X12989462Y19280000D01*
X12819809Y19453491D01*
X12478824Y19568591D01*
X12121935Y19614956D01*
X11762859Y19590806D01*
X11415394Y19497067D01*
X11310191Y19453491D01*
X11116789Y19255713D01*
X9115033Y19255713D01*
X9115033Y19280000D01*
X9102927Y19402913D01*
X9067075Y19521103D01*
X9008853Y19630028D01*
X8930501Y19725501D01*
X8835028Y19803853D01*
X8726103Y19862075D01*
X8607913Y19897927D01*
X8485000Y19910033D01*
X5485000Y19910033D01*
X5362087Y19897927D01*
X5243897Y19862075D01*
X5134972Y19803853D01*
X5039499Y19725501D01*
X4961147Y19630028D01*
X4902925Y19521103D01*
X4867073Y19402913D01*
X4854967Y19280000D01*
X1127000Y19280000D01*
X1127000Y41933316D01*
X1136954Y41957348D01*
X2042652Y42863046D01*
X2066684Y42873000D01*
X9074967Y42873000D01*
X9074967Y33970000D01*
%TO.N,/rect_ac_-*%
G36*
X47706155Y82677547D02*
G01*
X47745062Y82549287D01*
X47891397Y82418898D01*
X48345498Y82873000D01*
X49654502Y82873000D01*
X50108603Y82418898D01*
X50254938Y82549287D01*
X50318754Y82802774D01*
X50322288Y82873000D01*
X50933316Y82873000D01*
X50957348Y82863046D01*
X52880908Y80939486D01*
X52900154Y80923692D01*
X52922110Y80911956D01*
X52992820Y80882667D01*
X53016645Y80875440D01*
X53041421Y80873000D01*
X56933316Y80873000D01*
X56957348Y80863046D01*
X57863046Y79957348D01*
X57873000Y79933316D01*
X57873000Y44566684D01*
X57863046Y44542652D01*
X56957348Y43636954D01*
X56933316Y43627000D01*
X19433216Y43627000D01*
X19433582Y44770000D01*
X19427268Y44834103D01*
X19408570Y44895743D01*
X19378206Y44952550D01*
X19337343Y45002343D01*
X19287550Y45043206D01*
X19230743Y45073570D01*
X19169103Y45092268D01*
X19105000Y45098582D01*
X14859750Y45097000D01*
X14778000Y45015250D01*
X14778000Y43627000D01*
X14032000Y43627000D01*
X14032000Y45015250D01*
X13950250Y45097000D01*
X9705000Y45098582D01*
X9640897Y45092268D01*
X9579257Y45073570D01*
X9522450Y45043206D01*
X9472657Y45002343D01*
X9431794Y44952550D01*
X9401430Y44895743D01*
X9382732Y44834103D01*
X9376418Y44770000D01*
X9376784Y43627000D01*
X2066684Y43627000D01*
X2042652Y43636954D01*
X1136954Y44542652D01*
X1127000Y44566684D01*
X1127000Y55933316D01*
X1136954Y55957348D01*
X1762212Y56582606D01*
X52190108Y56582606D01*
X52444968Y56333288D01*
X52872337Y56167557D01*
X53323827Y56088386D01*
X53782088Y56098817D01*
X54229507Y56198451D01*
X54555032Y56333288D01*
X54809892Y56582606D01*
X53500000Y57892498D01*
X52190108Y56582606D01*
X1762212Y56582606D01*
X2042652Y56863046D01*
X2066684Y56873000D01*
X35958579Y56873000D01*
X35983355Y56875440D01*
X36007180Y56882667D01*
X36077890Y56911956D01*
X36099846Y56923692D01*
X36119092Y56939486D01*
X37775779Y58596173D01*
X51168386Y58596173D01*
X51178817Y58137912D01*
X51278451Y57690493D01*
X51413288Y57364968D01*
X51662606Y57110108D01*
X52972498Y58420000D01*
X54027502Y58420000D01*
X55337394Y57110108D01*
X55586712Y57364968D01*
X55752443Y57792337D01*
X55831614Y58243827D01*
X55821183Y58702088D01*
X55721549Y59149507D01*
X55586712Y59475032D01*
X55337394Y59729892D01*
X54027502Y58420000D01*
X52972498Y58420000D01*
X51662606Y59729892D01*
X51413288Y59475032D01*
X51247557Y59047663D01*
X51168386Y58596173D01*
X37775779Y58596173D01*
X39437000Y60257394D01*
X52190108Y60257394D01*
X53500000Y58947502D01*
X54809892Y60257394D01*
X54555032Y60506712D01*
X54127663Y60672443D01*
X53676173Y60751614D01*
X53217912Y60741183D01*
X52770493Y60641549D01*
X52444968Y60506712D01*
X52190108Y60257394D01*
X39437000Y60257394D01*
X43060514Y63880908D01*
X43076308Y63900154D01*
X43088044Y63922110D01*
X43117333Y63992820D01*
X43124560Y64016645D01*
X43127000Y64041421D01*
X43127000Y75350000D01*
X47716418Y75350000D01*
X47722732Y75285897D01*
X47741430Y75224257D01*
X47771794Y75167450D01*
X47812657Y75117657D01*
X47862450Y75076794D01*
X47919257Y75046430D01*
X47980897Y75027732D01*
X48045000Y75021418D01*
X48440250Y75023000D01*
X48522000Y75104750D01*
X48522000Y75827000D01*
X49268000Y75827000D01*
X49268000Y75104750D01*
X49349750Y75023000D01*
X49745000Y75021418D01*
X49809103Y75027732D01*
X49870743Y75046430D01*
X49927550Y75076794D01*
X49977343Y75117657D01*
X50018206Y75167450D01*
X50048570Y75224257D01*
X50067268Y75285897D01*
X50073582Y75350000D01*
X50072000Y75745250D01*
X49990250Y75827000D01*
X49268000Y75827000D01*
X48522000Y75827000D01*
X47799750Y75827000D01*
X47718000Y75745250D01*
X47716418Y75350000D01*
X43127000Y75350000D01*
X43127000Y77050000D01*
X47716418Y77050000D01*
X47718000Y76654750D01*
X47799750Y76573000D01*
X48522000Y76573000D01*
X48522000Y77295250D01*
X49268000Y77295250D01*
X49268000Y76573000D01*
X49990250Y76573000D01*
X50072000Y76654750D01*
X50073582Y77050000D01*
X50067268Y77114103D01*
X50048570Y77175743D01*
X50018206Y77232550D01*
X49977343Y77282343D01*
X49927550Y77323206D01*
X49870743Y77353570D01*
X49809103Y77372268D01*
X49745000Y77378582D01*
X49349750Y77377000D01*
X49268000Y77295250D01*
X48522000Y77295250D01*
X48440250Y77377000D01*
X48045000Y77378582D01*
X47980897Y77372268D01*
X47919257Y77353570D01*
X47862450Y77323206D01*
X47812657Y77282343D01*
X47771794Y77232550D01*
X47741430Y77175743D01*
X47722732Y77114103D01*
X47716418Y77050000D01*
X43127000Y77050000D01*
X43127000Y81891397D01*
X48418898Y81891397D01*
X48549287Y81745062D01*
X48802774Y81681246D01*
X49063840Y81668109D01*
X49322453Y81706155D01*
X49450713Y81745062D01*
X49581102Y81891397D01*
X49000000Y82472498D01*
X48418898Y81891397D01*
X43127000Y81891397D01*
X43127000Y81933316D01*
X43136954Y81957348D01*
X44042652Y82863046D01*
X44066684Y82873000D01*
X47677401Y82873000D01*
X47706155Y82677547D01*
G37*
X47706155Y82677547D02*
X47745062Y82549287D01*
X47891397Y82418898D01*
X48345498Y82873000D01*
X49654502Y82873000D01*
X50108603Y82418898D01*
X50254938Y82549287D01*
X50318754Y82802774D01*
X50322288Y82873000D01*
X50933316Y82873000D01*
X50957348Y82863046D01*
X52880908Y80939486D01*
X52900154Y80923692D01*
X52922110Y80911956D01*
X52992820Y80882667D01*
X53016645Y80875440D01*
X53041421Y80873000D01*
X56933316Y80873000D01*
X56957348Y80863046D01*
X57863046Y79957348D01*
X57873000Y79933316D01*
X57873000Y44566684D01*
X57863046Y44542652D01*
X56957348Y43636954D01*
X56933316Y43627000D01*
X19433216Y43627000D01*
X19433582Y44770000D01*
X19427268Y44834103D01*
X19408570Y44895743D01*
X19378206Y44952550D01*
X19337343Y45002343D01*
X19287550Y45043206D01*
X19230743Y45073570D01*
X19169103Y45092268D01*
X19105000Y45098582D01*
X14859750Y45097000D01*
X14778000Y45015250D01*
X14778000Y43627000D01*
X14032000Y43627000D01*
X14032000Y45015250D01*
X13950250Y45097000D01*
X9705000Y45098582D01*
X9640897Y45092268D01*
X9579257Y45073570D01*
X9522450Y45043206D01*
X9472657Y45002343D01*
X9431794Y44952550D01*
X9401430Y44895743D01*
X9382732Y44834103D01*
X9376418Y44770000D01*
X9376784Y43627000D01*
X2066684Y43627000D01*
X2042652Y43636954D01*
X1136954Y44542652D01*
X1127000Y44566684D01*
X1127000Y55933316D01*
X1136954Y55957348D01*
X1762212Y56582606D01*
X52190108Y56582606D01*
X52444968Y56333288D01*
X52872337Y56167557D01*
X53323827Y56088386D01*
X53782088Y56098817D01*
X54229507Y56198451D01*
X54555032Y56333288D01*
X54809892Y56582606D01*
X53500000Y57892498D01*
X52190108Y56582606D01*
X1762212Y56582606D01*
X2042652Y56863046D01*
X2066684Y56873000D01*
X35958579Y56873000D01*
X35983355Y56875440D01*
X36007180Y56882667D01*
X36077890Y56911956D01*
X36099846Y56923692D01*
X36119092Y56939486D01*
X37775779Y58596173D01*
X51168386Y58596173D01*
X51178817Y58137912D01*
X51278451Y57690493D01*
X51413288Y57364968D01*
X51662606Y57110108D01*
X52972498Y58420000D01*
X54027502Y58420000D01*
X55337394Y57110108D01*
X55586712Y57364968D01*
X55752443Y57792337D01*
X55831614Y58243827D01*
X55821183Y58702088D01*
X55721549Y59149507D01*
X55586712Y59475032D01*
X55337394Y59729892D01*
X54027502Y58420000D01*
X52972498Y58420000D01*
X51662606Y59729892D01*
X51413288Y59475032D01*
X51247557Y59047663D01*
X51168386Y58596173D01*
X37775779Y58596173D01*
X39437000Y60257394D01*
X52190108Y60257394D01*
X53500000Y58947502D01*
X54809892Y60257394D01*
X54555032Y60506712D01*
X54127663Y60672443D01*
X53676173Y60751614D01*
X53217912Y60741183D01*
X52770493Y60641549D01*
X52444968Y60506712D01*
X52190108Y60257394D01*
X39437000Y60257394D01*
X43060514Y63880908D01*
X43076308Y63900154D01*
X43088044Y63922110D01*
X43117333Y63992820D01*
X43124560Y64016645D01*
X43127000Y64041421D01*
X43127000Y75350000D01*
X47716418Y75350000D01*
X47722732Y75285897D01*
X47741430Y75224257D01*
X47771794Y75167450D01*
X47812657Y75117657D01*
X47862450Y75076794D01*
X47919257Y75046430D01*
X47980897Y75027732D01*
X48045000Y75021418D01*
X48440250Y75023000D01*
X48522000Y75104750D01*
X48522000Y75827000D01*
X49268000Y75827000D01*
X49268000Y75104750D01*
X49349750Y75023000D01*
X49745000Y75021418D01*
X49809103Y75027732D01*
X49870743Y75046430D01*
X49927550Y75076794D01*
X49977343Y75117657D01*
X50018206Y75167450D01*
X50048570Y75224257D01*
X50067268Y75285897D01*
X50073582Y75350000D01*
X50072000Y75745250D01*
X49990250Y75827000D01*
X49268000Y75827000D01*
X48522000Y75827000D01*
X47799750Y75827000D01*
X47718000Y75745250D01*
X47716418Y75350000D01*
X43127000Y75350000D01*
X43127000Y77050000D01*
X47716418Y77050000D01*
X47718000Y76654750D01*
X47799750Y76573000D01*
X48522000Y76573000D01*
X48522000Y77295250D01*
X49268000Y77295250D01*
X49268000Y76573000D01*
X49990250Y76573000D01*
X50072000Y76654750D01*
X50073582Y77050000D01*
X50067268Y77114103D01*
X50048570Y77175743D01*
X50018206Y77232550D01*
X49977343Y77282343D01*
X49927550Y77323206D01*
X49870743Y77353570D01*
X49809103Y77372268D01*
X49745000Y77378582D01*
X49349750Y77377000D01*
X49268000Y77295250D01*
X48522000Y77295250D01*
X48440250Y77377000D01*
X48045000Y77378582D01*
X47980897Y77372268D01*
X47919257Y77353570D01*
X47862450Y77323206D01*
X47812657Y77282343D01*
X47771794Y77232550D01*
X47741430Y77175743D01*
X47722732Y77114103D01*
X47716418Y77050000D01*
X43127000Y77050000D01*
X43127000Y81891397D01*
X48418898Y81891397D01*
X48549287Y81745062D01*
X48802774Y81681246D01*
X49063840Y81668109D01*
X49322453Y81706155D01*
X49450713Y81745062D01*
X49581102Y81891397D01*
X49000000Y82472498D01*
X48418898Y81891397D01*
X43127000Y81891397D01*
X43127000Y81933316D01*
X43136954Y81957348D01*
X44042652Y82863046D01*
X44066684Y82873000D01*
X47677401Y82873000D01*
X47706155Y82677547D01*
%TO.N,GND*%
G36*
X97957348Y98863046D02*
G01*
X98863046Y97957348D01*
X98873000Y97933316D01*
X98873000Y87066684D01*
X98863046Y87042652D01*
X97957348Y86136954D01*
X97933316Y86127000D01*
X66566684Y86127000D01*
X66542652Y86136954D01*
X66136954Y86542652D01*
X66127000Y86566684D01*
X66127000Y93000000D01*
X66671418Y93000000D01*
X66677732Y92935897D01*
X66696430Y92874257D01*
X66726794Y92817450D01*
X66767657Y92767657D01*
X66817450Y92726794D01*
X66874257Y92696430D01*
X66935897Y92677732D01*
X67000000Y92671418D01*
X68045250Y92673000D01*
X68127000Y92754750D01*
X68127000Y94627000D01*
X68873000Y94627000D01*
X68873000Y92754750D01*
X68954750Y92673000D01*
X70000000Y92671418D01*
X70064103Y92677732D01*
X70125743Y92696430D01*
X70182550Y92726794D01*
X70232343Y92767657D01*
X70273206Y92817450D01*
X70303570Y92874257D01*
X70322268Y92935897D01*
X70328582Y93000000D01*
X70327000Y94545250D01*
X70245250Y94627000D01*
X68873000Y94627000D01*
X68127000Y94627000D01*
X66754750Y94627000D01*
X66673000Y94545250D01*
X66671418Y93000000D01*
X66127000Y93000000D01*
X66127000Y97000000D01*
X66671418Y97000000D01*
X66673000Y95454750D01*
X66754750Y95373000D01*
X68127000Y95373000D01*
X68127000Y97245250D01*
X68873000Y97245250D01*
X68873000Y95373000D01*
X70245250Y95373000D01*
X70327000Y95454750D01*
X70328582Y97000000D01*
X70322268Y97064103D01*
X70303570Y97125743D01*
X70273206Y97182550D01*
X70232343Y97232343D01*
X70182550Y97273206D01*
X70125743Y97303570D01*
X70064103Y97322268D01*
X70000000Y97328582D01*
X68954750Y97327000D01*
X68873000Y97245250D01*
X68127000Y97245250D01*
X68045250Y97327000D01*
X67000000Y97328582D01*
X66935897Y97322268D01*
X66874257Y97303570D01*
X66817450Y97273206D01*
X66767657Y97232343D01*
X66726794Y97182550D01*
X66696430Y97125743D01*
X66677732Y97064103D01*
X66671418Y97000000D01*
X66127000Y97000000D01*
X66127000Y97933316D01*
X66136954Y97957348D01*
X67042652Y98863046D01*
X67066684Y98873000D01*
X97933316Y98873000D01*
X97957348Y98863046D01*
G37*
X97957348Y98863046D02*
X98863046Y97957348D01*
X98873000Y97933316D01*
X98873000Y87066684D01*
X98863046Y87042652D01*
X97957348Y86136954D01*
X97933316Y86127000D01*
X66566684Y86127000D01*
X66542652Y86136954D01*
X66136954Y86542652D01*
X66127000Y86566684D01*
X66127000Y93000000D01*
X66671418Y93000000D01*
X66677732Y92935897D01*
X66696430Y92874257D01*
X66726794Y92817450D01*
X66767657Y92767657D01*
X66817450Y92726794D01*
X66874257Y92696430D01*
X66935897Y92677732D01*
X67000000Y92671418D01*
X68045250Y92673000D01*
X68127000Y92754750D01*
X68127000Y94627000D01*
X68873000Y94627000D01*
X68873000Y92754750D01*
X68954750Y92673000D01*
X70000000Y92671418D01*
X70064103Y92677732D01*
X70125743Y92696430D01*
X70182550Y92726794D01*
X70232343Y92767657D01*
X70273206Y92817450D01*
X70303570Y92874257D01*
X70322268Y92935897D01*
X70328582Y93000000D01*
X70327000Y94545250D01*
X70245250Y94627000D01*
X68873000Y94627000D01*
X68127000Y94627000D01*
X66754750Y94627000D01*
X66673000Y94545250D01*
X66671418Y93000000D01*
X66127000Y93000000D01*
X66127000Y97000000D01*
X66671418Y97000000D01*
X66673000Y95454750D01*
X66754750Y95373000D01*
X68127000Y95373000D01*
X68127000Y97245250D01*
X68873000Y97245250D01*
X68873000Y95373000D01*
X70245250Y95373000D01*
X70327000Y95454750D01*
X70328582Y97000000D01*
X70322268Y97064103D01*
X70303570Y97125743D01*
X70273206Y97182550D01*
X70232343Y97232343D01*
X70182550Y97273206D01*
X70125743Y97303570D01*
X70064103Y97322268D01*
X70000000Y97328582D01*
X68954750Y97327000D01*
X68873000Y97245250D01*
X68127000Y97245250D01*
X68045250Y97327000D01*
X67000000Y97328582D01*
X66935897Y97322268D01*
X66874257Y97303570D01*
X66817450Y97273206D01*
X66767657Y97232343D01*
X66726794Y97182550D01*
X66696430Y97125743D01*
X66677732Y97064103D01*
X66671418Y97000000D01*
X66127000Y97000000D01*
X66127000Y97933316D01*
X66136954Y97957348D01*
X67042652Y98863046D01*
X67066684Y98873000D01*
X97933316Y98873000D01*
X97957348Y98863046D01*
%TO.N,/lowside_ac_2*%
G36*
X55957348Y98863046D02*
G01*
X56363046Y98457348D01*
X56373000Y98433316D01*
X56373000Y83566684D01*
X56363046Y83542652D01*
X55957348Y83136954D01*
X55933316Y83127000D01*
X55322599Y83127000D01*
X55293845Y83322453D01*
X55254938Y83450713D01*
X55108603Y83581102D01*
X54654502Y83127000D01*
X53345498Y83127000D01*
X52891397Y83581102D01*
X52745062Y83450713D01*
X52681246Y83197226D01*
X52677712Y83127000D01*
X51759712Y83127000D01*
X51472645Y83414067D01*
X51377631Y83492043D01*
X51269231Y83549984D01*
X51198521Y83579273D01*
X51080901Y83614952D01*
X50958579Y83627000D01*
X50501340Y83627000D01*
X50441828Y83770673D01*
X50263773Y84037152D01*
X50192322Y84108603D01*
X53418898Y84108603D01*
X54000000Y83527502D01*
X54581102Y84108603D01*
X54450713Y84254938D01*
X54197226Y84318754D01*
X53936160Y84331891D01*
X53677547Y84293845D01*
X53549287Y84254938D01*
X53418898Y84108603D01*
X50192322Y84108603D01*
X50037152Y84263773D01*
X49770673Y84441828D01*
X49474578Y84564475D01*
X49160245Y84627000D01*
X48839755Y84627000D01*
X48525422Y84564475D01*
X48229327Y84441828D01*
X47962848Y84263773D01*
X47736227Y84037152D01*
X47558172Y83770673D01*
X47498660Y83627000D01*
X44041421Y83627000D01*
X43919100Y83614952D01*
X43801479Y83579273D01*
X43730769Y83549984D01*
X43664854Y83514752D01*
X43136954Y84042652D01*
X43127000Y84066684D01*
X43127000Y93000000D01*
X50771418Y93000000D01*
X50777732Y92935897D01*
X50796430Y92874257D01*
X50826794Y92817450D01*
X50867657Y92767657D01*
X50917450Y92726794D01*
X50974257Y92696430D01*
X51035897Y92677732D01*
X51100000Y92671418D01*
X52145250Y92673000D01*
X52227000Y92754750D01*
X52227000Y94627000D01*
X52973000Y94627000D01*
X52973000Y92754750D01*
X53054750Y92673000D01*
X54100000Y92671418D01*
X54164103Y92677732D01*
X54225743Y92696430D01*
X54282550Y92726794D01*
X54332343Y92767657D01*
X54373206Y92817450D01*
X54403570Y92874257D01*
X54422268Y92935897D01*
X54428582Y93000000D01*
X54427000Y94545250D01*
X54345250Y94627000D01*
X52973000Y94627000D01*
X52227000Y94627000D01*
X50854750Y94627000D01*
X50773000Y94545250D01*
X50771418Y93000000D01*
X43127000Y93000000D01*
X43127000Y97000000D01*
X50771418Y97000000D01*
X50773000Y95454750D01*
X50854750Y95373000D01*
X52227000Y95373000D01*
X52227000Y97245250D01*
X52973000Y97245250D01*
X52973000Y95373000D01*
X54345250Y95373000D01*
X54427000Y95454750D01*
X54428582Y97000000D01*
X54422268Y97064103D01*
X54403570Y97125743D01*
X54373206Y97182550D01*
X54332343Y97232343D01*
X54282550Y97273206D01*
X54225743Y97303570D01*
X54164103Y97322268D01*
X54100000Y97328582D01*
X53054750Y97327000D01*
X52973000Y97245250D01*
X52227000Y97245250D01*
X52145250Y97327000D01*
X51100000Y97328582D01*
X51035897Y97322268D01*
X50974257Y97303570D01*
X50917450Y97273206D01*
X50867657Y97232343D01*
X50826794Y97182550D01*
X50796430Y97125743D01*
X50777732Y97064103D01*
X50771418Y97000000D01*
X43127000Y97000000D01*
X43127000Y97933316D01*
X43136954Y97957348D01*
X44042652Y98863046D01*
X44066684Y98873000D01*
X55933316Y98873000D01*
X55957348Y98863046D01*
G37*
X55957348Y98863046D02*
X56363046Y98457348D01*
X56373000Y98433316D01*
X56373000Y83566684D01*
X56363046Y83542652D01*
X55957348Y83136954D01*
X55933316Y83127000D01*
X55322599Y83127000D01*
X55293845Y83322453D01*
X55254938Y83450713D01*
X55108603Y83581102D01*
X54654502Y83127000D01*
X53345498Y83127000D01*
X52891397Y83581102D01*
X52745062Y83450713D01*
X52681246Y83197226D01*
X52677712Y83127000D01*
X51759712Y83127000D01*
X51472645Y83414067D01*
X51377631Y83492043D01*
X51269231Y83549984D01*
X51198521Y83579273D01*
X51080901Y83614952D01*
X50958579Y83627000D01*
X50501340Y83627000D01*
X50441828Y83770673D01*
X50263773Y84037152D01*
X50192322Y84108603D01*
X53418898Y84108603D01*
X54000000Y83527502D01*
X54581102Y84108603D01*
X54450713Y84254938D01*
X54197226Y84318754D01*
X53936160Y84331891D01*
X53677547Y84293845D01*
X53549287Y84254938D01*
X53418898Y84108603D01*
X50192322Y84108603D01*
X50037152Y84263773D01*
X49770673Y84441828D01*
X49474578Y84564475D01*
X49160245Y84627000D01*
X48839755Y84627000D01*
X48525422Y84564475D01*
X48229327Y84441828D01*
X47962848Y84263773D01*
X47736227Y84037152D01*
X47558172Y83770673D01*
X47498660Y83627000D01*
X44041421Y83627000D01*
X43919100Y83614952D01*
X43801479Y83579273D01*
X43730769Y83549984D01*
X43664854Y83514752D01*
X43136954Y84042652D01*
X43127000Y84066684D01*
X43127000Y93000000D01*
X50771418Y93000000D01*
X50777732Y92935897D01*
X50796430Y92874257D01*
X50826794Y92817450D01*
X50867657Y92767657D01*
X50917450Y92726794D01*
X50974257Y92696430D01*
X51035897Y92677732D01*
X51100000Y92671418D01*
X52145250Y92673000D01*
X52227000Y92754750D01*
X52227000Y94627000D01*
X52973000Y94627000D01*
X52973000Y92754750D01*
X53054750Y92673000D01*
X54100000Y92671418D01*
X54164103Y92677732D01*
X54225743Y92696430D01*
X54282550Y92726794D01*
X54332343Y92767657D01*
X54373206Y92817450D01*
X54403570Y92874257D01*
X54422268Y92935897D01*
X54428582Y93000000D01*
X54427000Y94545250D01*
X54345250Y94627000D01*
X52973000Y94627000D01*
X52227000Y94627000D01*
X50854750Y94627000D01*
X50773000Y94545250D01*
X50771418Y93000000D01*
X43127000Y93000000D01*
X43127000Y97000000D01*
X50771418Y97000000D01*
X50773000Y95454750D01*
X50854750Y95373000D01*
X52227000Y95373000D01*
X52227000Y97245250D01*
X52973000Y97245250D01*
X52973000Y95373000D01*
X54345250Y95373000D01*
X54427000Y95454750D01*
X54428582Y97000000D01*
X54422268Y97064103D01*
X54403570Y97125743D01*
X54373206Y97182550D01*
X54332343Y97232343D01*
X54282550Y97273206D01*
X54225743Y97303570D01*
X54164103Y97322268D01*
X54100000Y97328582D01*
X53054750Y97327000D01*
X52973000Y97245250D01*
X52227000Y97245250D01*
X52145250Y97327000D01*
X51100000Y97328582D01*
X51035897Y97322268D01*
X50974257Y97303570D01*
X50917450Y97273206D01*
X50867657Y97232343D01*
X50826794Y97182550D01*
X50796430Y97125743D01*
X50777732Y97064103D01*
X50771418Y97000000D01*
X43127000Y97000000D01*
X43127000Y97933316D01*
X43136954Y97957348D01*
X44042652Y98863046D01*
X44066684Y98873000D01*
X55933316Y98873000D01*
X55957348Y98863046D01*
%TO.N,/lowside_ac_1*%
G36*
X64957348Y98863046D02*
G01*
X65363046Y98457348D01*
X65373000Y98433316D01*
X65373000Y84505001D01*
X65350028Y84523853D01*
X65241103Y84582075D01*
X65122913Y84617927D01*
X65000000Y84630033D01*
X63000000Y84630033D01*
X62877087Y84617927D01*
X62758897Y84582075D01*
X62649972Y84523853D01*
X62554499Y84445501D01*
X62476147Y84350028D01*
X62417925Y84241103D01*
X62382073Y84122913D01*
X62369967Y84000000D01*
X62369967Y82127000D01*
X60011872Y82127000D01*
X60206188Y82321316D01*
X60108605Y82418899D01*
X60254938Y82549287D01*
X60318754Y82802774D01*
X60331891Y83063840D01*
X60293845Y83322453D01*
X60254938Y83450713D01*
X60108603Y83581102D01*
X59527502Y83000000D01*
X59541644Y82985858D01*
X59014142Y82458356D01*
X59000000Y82472498D01*
X58985858Y82458356D01*
X58458356Y82985858D01*
X58472498Y83000000D01*
X57891397Y83581102D01*
X57745062Y83450713D01*
X57681246Y83197226D01*
X57668109Y82936160D01*
X57706155Y82677547D01*
X57745062Y82549287D01*
X57891395Y82418899D01*
X57793812Y82321316D01*
X57988128Y82127000D01*
X57566684Y82127000D01*
X57542652Y82136954D01*
X57136954Y82542652D01*
X57127000Y82566684D01*
X57127000Y84108603D01*
X58418898Y84108603D01*
X59000000Y83527502D01*
X59581102Y84108603D01*
X59450713Y84254938D01*
X59197226Y84318754D01*
X58936160Y84331891D01*
X58677547Y84293845D01*
X58549287Y84254938D01*
X58418898Y84108603D01*
X57127000Y84108603D01*
X57127000Y93000000D01*
X58571418Y93000000D01*
X58577732Y92935897D01*
X58596430Y92874257D01*
X58626794Y92817450D01*
X58667657Y92767657D01*
X58717450Y92726794D01*
X58774257Y92696430D01*
X58835897Y92677732D01*
X58900000Y92671418D01*
X59945250Y92673000D01*
X60027000Y92754750D01*
X60027000Y94627000D01*
X60773000Y94627000D01*
X60773000Y92754750D01*
X60854750Y92673000D01*
X61900000Y92671418D01*
X61964103Y92677732D01*
X62025743Y92696430D01*
X62082550Y92726794D01*
X62132343Y92767657D01*
X62173206Y92817450D01*
X62203570Y92874257D01*
X62222268Y92935897D01*
X62228582Y93000000D01*
X62227000Y94545250D01*
X62145250Y94627000D01*
X60773000Y94627000D01*
X60027000Y94627000D01*
X58654750Y94627000D01*
X58573000Y94545250D01*
X58571418Y93000000D01*
X57127000Y93000000D01*
X57127000Y97000000D01*
X58571418Y97000000D01*
X58573000Y95454750D01*
X58654750Y95373000D01*
X60027000Y95373000D01*
X60027000Y97245250D01*
X60773000Y97245250D01*
X60773000Y95373000D01*
X62145250Y95373000D01*
X62227000Y95454750D01*
X62228582Y97000000D01*
X62222268Y97064103D01*
X62203570Y97125743D01*
X62173206Y97182550D01*
X62132343Y97232343D01*
X62082550Y97273206D01*
X62025743Y97303570D01*
X61964103Y97322268D01*
X61900000Y97328582D01*
X60854750Y97327000D01*
X60773000Y97245250D01*
X60027000Y97245250D01*
X59945250Y97327000D01*
X58900000Y97328582D01*
X58835897Y97322268D01*
X58774257Y97303570D01*
X58717450Y97273206D01*
X58667657Y97232343D01*
X58626794Y97182550D01*
X58596430Y97125743D01*
X58577732Y97064103D01*
X58571418Y97000000D01*
X57127000Y97000000D01*
X57127000Y98433316D01*
X57136954Y98457348D01*
X57542652Y98863046D01*
X57566684Y98873000D01*
X64933316Y98873000D01*
X64957348Y98863046D01*
G37*
X64957348Y98863046D02*
X65363046Y98457348D01*
X65373000Y98433316D01*
X65373000Y84505001D01*
X65350028Y84523853D01*
X65241103Y84582075D01*
X65122913Y84617927D01*
X65000000Y84630033D01*
X63000000Y84630033D01*
X62877087Y84617927D01*
X62758897Y84582075D01*
X62649972Y84523853D01*
X62554499Y84445501D01*
X62476147Y84350028D01*
X62417925Y84241103D01*
X62382073Y84122913D01*
X62369967Y84000000D01*
X62369967Y82127000D01*
X60011872Y82127000D01*
X60206188Y82321316D01*
X60108605Y82418899D01*
X60254938Y82549287D01*
X60318754Y82802774D01*
X60331891Y83063840D01*
X60293845Y83322453D01*
X60254938Y83450713D01*
X60108603Y83581102D01*
X59527502Y83000000D01*
X59541644Y82985858D01*
X59014142Y82458356D01*
X59000000Y82472498D01*
X58985858Y82458356D01*
X58458356Y82985858D01*
X58472498Y83000000D01*
X57891397Y83581102D01*
X57745062Y83450713D01*
X57681246Y83197226D01*
X57668109Y82936160D01*
X57706155Y82677547D01*
X57745062Y82549287D01*
X57891395Y82418899D01*
X57793812Y82321316D01*
X57988128Y82127000D01*
X57566684Y82127000D01*
X57542652Y82136954D01*
X57136954Y82542652D01*
X57127000Y82566684D01*
X57127000Y84108603D01*
X58418898Y84108603D01*
X59000000Y83527502D01*
X59581102Y84108603D01*
X59450713Y84254938D01*
X59197226Y84318754D01*
X58936160Y84331891D01*
X58677547Y84293845D01*
X58549287Y84254938D01*
X58418898Y84108603D01*
X57127000Y84108603D01*
X57127000Y93000000D01*
X58571418Y93000000D01*
X58577732Y92935897D01*
X58596430Y92874257D01*
X58626794Y92817450D01*
X58667657Y92767657D01*
X58717450Y92726794D01*
X58774257Y92696430D01*
X58835897Y92677732D01*
X58900000Y92671418D01*
X59945250Y92673000D01*
X60027000Y92754750D01*
X60027000Y94627000D01*
X60773000Y94627000D01*
X60773000Y92754750D01*
X60854750Y92673000D01*
X61900000Y92671418D01*
X61964103Y92677732D01*
X62025743Y92696430D01*
X62082550Y92726794D01*
X62132343Y92767657D01*
X62173206Y92817450D01*
X62203570Y92874257D01*
X62222268Y92935897D01*
X62228582Y93000000D01*
X62227000Y94545250D01*
X62145250Y94627000D01*
X60773000Y94627000D01*
X60027000Y94627000D01*
X58654750Y94627000D01*
X58573000Y94545250D01*
X58571418Y93000000D01*
X57127000Y93000000D01*
X57127000Y97000000D01*
X58571418Y97000000D01*
X58573000Y95454750D01*
X58654750Y95373000D01*
X60027000Y95373000D01*
X60027000Y97245250D01*
X60773000Y97245250D01*
X60773000Y95373000D01*
X62145250Y95373000D01*
X62227000Y95454750D01*
X62228582Y97000000D01*
X62222268Y97064103D01*
X62203570Y97125743D01*
X62173206Y97182550D01*
X62132343Y97232343D01*
X62082550Y97273206D01*
X62025743Y97303570D01*
X61964103Y97322268D01*
X61900000Y97328582D01*
X60854750Y97327000D01*
X60773000Y97245250D01*
X60027000Y97245250D01*
X59945250Y97327000D01*
X58900000Y97328582D01*
X58835897Y97322268D01*
X58774257Y97303570D01*
X58717450Y97273206D01*
X58667657Y97232343D01*
X58626794Y97182550D01*
X58596430Y97125743D01*
X58577732Y97064103D01*
X58571418Y97000000D01*
X57127000Y97000000D01*
X57127000Y98433316D01*
X57136954Y98457348D01*
X57542652Y98863046D01*
X57566684Y98873000D01*
X64933316Y98873000D01*
X64957348Y98863046D01*
%TO.N,15VDC*%
G36*
X77244967Y42807500D02*
G01*
X77244967Y41882500D01*
X77261877Y41710814D01*
X77311956Y41545726D01*
X77393279Y41393580D01*
X77502723Y41260223D01*
X77636080Y41150779D01*
X77788226Y41069456D01*
X77953314Y41019377D01*
X78125000Y41002467D01*
X80275000Y41002467D01*
X80446686Y41019377D01*
X80611774Y41069456D01*
X80763920Y41150779D01*
X80897277Y41260223D01*
X80989831Y41373000D01*
X84900000Y41373000D01*
X84924776Y41375440D01*
X84948600Y41382667D01*
X85019311Y41411956D01*
X85041268Y41423692D01*
X85060513Y41439486D01*
X85076307Y41458731D01*
X85088044Y41480689D01*
X85117333Y41551400D01*
X85124560Y41575224D01*
X85127000Y41600000D01*
X85127000Y41620000D01*
X86300350Y41620000D01*
X86306664Y41555897D01*
X86325362Y41494257D01*
X86355727Y41437450D01*
X86396590Y41387657D01*
X86783258Y41003226D01*
X86898870Y41003226D01*
X87515644Y41620000D01*
X86898870Y42236774D01*
X86783258Y42236774D01*
X86396590Y41852343D01*
X86355727Y41802550D01*
X86325362Y41745743D01*
X86306664Y41684103D01*
X86300350Y41620000D01*
X85127000Y41620000D01*
X85127000Y42873000D01*
X87426372Y42873000D01*
X87426372Y42764276D01*
X88043146Y42147502D01*
X88057288Y42161644D01*
X88584790Y41634142D01*
X88570648Y41620000D01*
X89187422Y41003226D01*
X89303034Y41003226D01*
X89560847Y41259547D01*
X91186445Y39633949D01*
X90885714Y39333218D01*
X91413218Y38805714D01*
X91713949Y39106445D01*
X91880908Y38939486D01*
X91900154Y38923692D01*
X91922110Y38911956D01*
X91992820Y38882667D01*
X92016645Y38875440D01*
X92041421Y38873000D01*
X97933316Y38873000D01*
X97957348Y38863046D01*
X98863046Y37957348D01*
X98873000Y37933316D01*
X98873000Y2066684D01*
X98863046Y2042652D01*
X97957348Y1136954D01*
X97933316Y1127000D01*
X60066684Y1127000D01*
X60042652Y1136954D01*
X59136954Y2042652D01*
X59127000Y2066684D01*
X59127000Y3682598D01*
X59291051Y3518547D01*
X59376790Y3604286D01*
X59570191Y3406509D01*
X59911176Y3291409D01*
X60268065Y3245044D01*
X60627141Y3269194D01*
X60974606Y3362933D01*
X61079809Y3406509D01*
X61273211Y3604287D01*
X60325000Y4552498D01*
X60310858Y4538356D01*
X59783356Y5065858D01*
X59797498Y5080000D01*
X60852502Y5080000D01*
X61800713Y4131789D01*
X61998491Y4325191D01*
X62113591Y4666176D01*
X62159956Y5023065D01*
X62135806Y5382141D01*
X62042067Y5729606D01*
X61998491Y5834809D01*
X61800713Y6028211D01*
X60852502Y5080000D01*
X59797498Y5080000D01*
X59783356Y5094142D01*
X60310858Y5621644D01*
X60325000Y5607502D01*
X61273211Y6555713D01*
X61249462Y6580000D01*
X70894967Y6580000D01*
X70894967Y3580000D01*
X70907073Y3457087D01*
X70942925Y3338897D01*
X71001147Y3229972D01*
X71079499Y3134499D01*
X71174972Y3056147D01*
X71283897Y2997925D01*
X71402087Y2962073D01*
X71525000Y2949967D01*
X74525000Y2949967D01*
X74647913Y2962073D01*
X74766103Y2997925D01*
X74875028Y3056147D01*
X74970501Y3134499D01*
X75048853Y3229972D01*
X75107075Y3338897D01*
X75142927Y3457087D01*
X75155033Y3580000D01*
X75155033Y3604287D01*
X77156789Y3604287D01*
X77350191Y3406509D01*
X77691176Y3291409D01*
X78048065Y3245044D01*
X78407141Y3269194D01*
X78754606Y3362933D01*
X78859809Y3406509D01*
X79053211Y3604287D01*
X78105000Y4552498D01*
X77156789Y3604287D01*
X75155033Y3604287D01*
X75155033Y5136935D01*
X76270044Y5136935D01*
X76294194Y4777859D01*
X76387933Y4430394D01*
X76431509Y4325191D01*
X76629287Y4131789D01*
X77577498Y5080000D01*
X78632502Y5080000D01*
X79580713Y4131789D01*
X79778491Y4325191D01*
X79893591Y4666176D01*
X79939956Y5023065D01*
X79915806Y5382141D01*
X79822067Y5729606D01*
X79778491Y5834809D01*
X79580713Y6028211D01*
X78632502Y5080000D01*
X77577498Y5080000D01*
X76629287Y6028211D01*
X76431509Y5834809D01*
X76316409Y5493824D01*
X76270044Y5136935D01*
X75155033Y5136935D01*
X75155033Y6555713D01*
X77156789Y6555713D01*
X78105000Y5607502D01*
X79053211Y6555713D01*
X79029462Y6580000D01*
X86134967Y6580000D01*
X86134967Y3580000D01*
X86147073Y3457087D01*
X86182925Y3338897D01*
X86241147Y3229972D01*
X86319499Y3134499D01*
X86414972Y3056147D01*
X86523897Y2997925D01*
X86642087Y2962073D01*
X86765000Y2949967D01*
X89765000Y2949967D01*
X89887913Y2962073D01*
X90006103Y2997925D01*
X90115028Y3056147D01*
X90210501Y3134499D01*
X90288853Y3229972D01*
X90347075Y3338897D01*
X90382927Y3457087D01*
X90395033Y3580000D01*
X90395033Y3604287D01*
X92396789Y3604287D01*
X92590191Y3406509D01*
X92931176Y3291409D01*
X93288065Y3245044D01*
X93647141Y3269194D01*
X93994606Y3362933D01*
X94099809Y3406509D01*
X94293211Y3604287D01*
X93345000Y4552498D01*
X92396789Y3604287D01*
X90395033Y3604287D01*
X90395033Y5136935D01*
X91510044Y5136935D01*
X91534194Y4777859D01*
X91627933Y4430394D01*
X91671509Y4325191D01*
X91869287Y4131789D01*
X92817498Y5080000D01*
X93872502Y5080000D01*
X94820713Y4131789D01*
X95018491Y4325191D01*
X95133591Y4666176D01*
X95179956Y5023065D01*
X95155806Y5382141D01*
X95062067Y5729606D01*
X95018491Y5834809D01*
X94820713Y6028211D01*
X93872502Y5080000D01*
X92817498Y5080000D01*
X91869287Y6028211D01*
X91671509Y5834809D01*
X91556409Y5493824D01*
X91510044Y5136935D01*
X90395033Y5136935D01*
X90395033Y6555713D01*
X92396789Y6555713D01*
X93345000Y5607502D01*
X94293211Y6555713D01*
X94099809Y6753491D01*
X93758824Y6868591D01*
X93401935Y6914956D01*
X93042859Y6890806D01*
X92695394Y6797067D01*
X92590191Y6753491D01*
X92396789Y6555713D01*
X90395033Y6555713D01*
X90395033Y6580000D01*
X90382927Y6702913D01*
X90347075Y6821103D01*
X90288853Y6930028D01*
X90210501Y7025501D01*
X90115028Y7103853D01*
X90006103Y7162075D01*
X89887913Y7197927D01*
X89765000Y7210033D01*
X86765000Y7210033D01*
X86642087Y7197927D01*
X86523897Y7162075D01*
X86414972Y7103853D01*
X86319499Y7025501D01*
X86241147Y6930028D01*
X86182925Y6821103D01*
X86147073Y6702913D01*
X86134967Y6580000D01*
X79029462Y6580000D01*
X78859809Y6753491D01*
X78518824Y6868591D01*
X78161935Y6914956D01*
X77802859Y6890806D01*
X77455394Y6797067D01*
X77350191Y6753491D01*
X77156789Y6555713D01*
X75155033Y6555713D01*
X75155033Y6580000D01*
X75142927Y6702913D01*
X75107075Y6821103D01*
X75048853Y6930028D01*
X74970501Y7025501D01*
X74875028Y7103853D01*
X74766103Y7162075D01*
X74647913Y7197927D01*
X74525000Y7210033D01*
X71525000Y7210033D01*
X71402087Y7197927D01*
X71283897Y7162075D01*
X71174972Y7103853D01*
X71079499Y7025501D01*
X71001147Y6930028D01*
X70942925Y6821103D01*
X70907073Y6702913D01*
X70894967Y6580000D01*
X61249462Y6580000D01*
X61079809Y6753491D01*
X60738824Y6868591D01*
X60381935Y6914956D01*
X60022859Y6890806D01*
X59675394Y6797067D01*
X59570191Y6753491D01*
X59376790Y6555714D01*
X59291051Y6641453D01*
X59127000Y6477402D01*
X59127000Y16382598D01*
X59291051Y16218547D01*
X59376790Y16304286D01*
X59570191Y16106509D01*
X59911176Y15991409D01*
X60268065Y15945044D01*
X60627141Y15969194D01*
X60974606Y16062933D01*
X61079809Y16106509D01*
X61273211Y16304287D01*
X60325000Y17252498D01*
X60310858Y17238356D01*
X59783356Y17765858D01*
X59797498Y17780000D01*
X60852502Y17780000D01*
X61800713Y16831789D01*
X61998491Y17025191D01*
X62113591Y17366176D01*
X62159956Y17723065D01*
X62135806Y18082141D01*
X62042067Y18429606D01*
X61998491Y18534809D01*
X61800713Y18728211D01*
X60852502Y17780000D01*
X59797498Y17780000D01*
X59783356Y17794142D01*
X60310858Y18321644D01*
X60325000Y18307502D01*
X61273211Y19255713D01*
X61249462Y19280000D01*
X70894967Y19280000D01*
X70894967Y16280000D01*
X70907073Y16157087D01*
X70942925Y16038897D01*
X71001147Y15929972D01*
X71079499Y15834499D01*
X71174972Y15756147D01*
X71283897Y15697925D01*
X71402087Y15662073D01*
X71525000Y15649967D01*
X74525000Y15649967D01*
X74647913Y15662073D01*
X74766103Y15697925D01*
X74875028Y15756147D01*
X74970501Y15834499D01*
X75048853Y15929972D01*
X75107075Y16038897D01*
X75142927Y16157087D01*
X75155033Y16280000D01*
X75155033Y16304287D01*
X77156789Y16304287D01*
X77350191Y16106509D01*
X77691176Y15991409D01*
X78048065Y15945044D01*
X78407141Y15969194D01*
X78754606Y16062933D01*
X78859809Y16106509D01*
X79053211Y16304287D01*
X78105000Y17252498D01*
X77156789Y16304287D01*
X75155033Y16304287D01*
X75155033Y17836935D01*
X76270044Y17836935D01*
X76294194Y17477859D01*
X76387933Y17130394D01*
X76431509Y17025191D01*
X76629287Y16831789D01*
X77577498Y17780000D01*
X78632502Y17780000D01*
X79580713Y16831789D01*
X79778491Y17025191D01*
X79893591Y17366176D01*
X79939956Y17723065D01*
X79915806Y18082141D01*
X79822067Y18429606D01*
X79778491Y18534809D01*
X79580713Y18728211D01*
X78632502Y17780000D01*
X77577498Y17780000D01*
X76629287Y18728211D01*
X76431509Y18534809D01*
X76316409Y18193824D01*
X76270044Y17836935D01*
X75155033Y17836935D01*
X75155033Y19255713D01*
X77156789Y19255713D01*
X78105000Y18307502D01*
X79053211Y19255713D01*
X79029462Y19280000D01*
X86134967Y19280000D01*
X86134967Y16280000D01*
X86147073Y16157087D01*
X86182925Y16038897D01*
X86241147Y15929972D01*
X86319499Y15834499D01*
X86414972Y15756147D01*
X86523897Y15697925D01*
X86642087Y15662073D01*
X86765000Y15649967D01*
X89765000Y15649967D01*
X89887913Y15662073D01*
X90006103Y15697925D01*
X90115028Y15756147D01*
X90210501Y15834499D01*
X90288853Y15929972D01*
X90347075Y16038897D01*
X90382927Y16157087D01*
X90395033Y16280000D01*
X90395033Y16304287D01*
X92396789Y16304287D01*
X92590191Y16106509D01*
X92931176Y15991409D01*
X93288065Y15945044D01*
X93647141Y15969194D01*
X93994606Y16062933D01*
X94099809Y16106509D01*
X94293211Y16304287D01*
X93345000Y17252498D01*
X92396789Y16304287D01*
X90395033Y16304287D01*
X90395033Y17836935D01*
X91510044Y17836935D01*
X91534194Y17477859D01*
X91627933Y17130394D01*
X91671509Y17025191D01*
X91869287Y16831789D01*
X92817498Y17780000D01*
X93872502Y17780000D01*
X94820713Y16831789D01*
X95018491Y17025191D01*
X95133591Y17366176D01*
X95179956Y17723065D01*
X95155806Y18082141D01*
X95062067Y18429606D01*
X95018491Y18534809D01*
X94820713Y18728211D01*
X93872502Y17780000D01*
X92817498Y17780000D01*
X91869287Y18728211D01*
X91671509Y18534809D01*
X91556409Y18193824D01*
X91510044Y17836935D01*
X90395033Y17836935D01*
X90395033Y19255713D01*
X92396789Y19255713D01*
X93345000Y18307502D01*
X94293211Y19255713D01*
X94099809Y19453491D01*
X93758824Y19568591D01*
X93401935Y19614956D01*
X93042859Y19590806D01*
X92695394Y19497067D01*
X92590191Y19453491D01*
X92396789Y19255713D01*
X90395033Y19255713D01*
X90395033Y19280000D01*
X90382927Y19402913D01*
X90347075Y19521103D01*
X90288853Y19630028D01*
X90210501Y19725501D01*
X90115028Y19803853D01*
X90006103Y19862075D01*
X89887913Y19897927D01*
X89765000Y19910033D01*
X86765000Y19910033D01*
X86642087Y19897927D01*
X86523897Y19862075D01*
X86414972Y19803853D01*
X86319499Y19725501D01*
X86241147Y19630028D01*
X86182925Y19521103D01*
X86147073Y19402913D01*
X86134967Y19280000D01*
X79029462Y19280000D01*
X78859809Y19453491D01*
X78518824Y19568591D01*
X78161935Y19614956D01*
X77802859Y19590806D01*
X77455394Y19497067D01*
X77350191Y19453491D01*
X77156789Y19255713D01*
X75155033Y19255713D01*
X75155033Y19280000D01*
X75142927Y19402913D01*
X75107075Y19521103D01*
X75048853Y19630028D01*
X74970501Y19725501D01*
X74875028Y19803853D01*
X74766103Y19862075D01*
X74647913Y19897927D01*
X74525000Y19910033D01*
X71525000Y19910033D01*
X71402087Y19897927D01*
X71283897Y19862075D01*
X71174972Y19803853D01*
X71079499Y19725501D01*
X71001147Y19630028D01*
X70942925Y19521103D01*
X70907073Y19402913D01*
X70894967Y19280000D01*
X61249462Y19280000D01*
X61079809Y19453491D01*
X60738824Y19568591D01*
X60381935Y19614956D01*
X60022859Y19590806D01*
X59675394Y19497067D01*
X59570191Y19453491D01*
X59376790Y19255714D01*
X59291051Y19341453D01*
X59127000Y19177402D01*
X59127000Y31950000D01*
X94421418Y31950000D01*
X94427732Y31885897D01*
X94446430Y31824257D01*
X94476794Y31767450D01*
X94517657Y31717657D01*
X94567450Y31676794D01*
X94624257Y31646430D01*
X94685897Y31627732D01*
X94750000Y31621418D01*
X95145250Y31623000D01*
X95227000Y31704750D01*
X95227000Y32427000D01*
X95973000Y32427000D01*
X95973000Y31704750D01*
X96054750Y31623000D01*
X96450000Y31621418D01*
X96514103Y31627732D01*
X96575743Y31646430D01*
X96632550Y31676794D01*
X96682343Y31717657D01*
X96723206Y31767450D01*
X96753570Y31824257D01*
X96772268Y31885897D01*
X96778582Y31950000D01*
X96777000Y32345250D01*
X96695250Y32427000D01*
X95973000Y32427000D01*
X95227000Y32427000D01*
X94504750Y32427000D01*
X94423000Y32345250D01*
X94421418Y31950000D01*
X59127000Y31950000D01*
X59127000Y35679944D01*
X62173000Y35679944D01*
X62173000Y35320056D01*
X62243211Y34967084D01*
X62380934Y34634591D01*
X62580876Y34335355D01*
X62835355Y34080876D01*
X63134591Y33880934D01*
X63467084Y33743211D01*
X63820056Y33673000D01*
X64179944Y33673000D01*
X64532916Y33743211D01*
X64865409Y33880934D01*
X65164645Y34080876D01*
X65383769Y34300000D01*
X69971418Y34300000D01*
X69977732Y34235897D01*
X69996430Y34174257D01*
X70026794Y34117450D01*
X70067657Y34067657D01*
X70117450Y34026794D01*
X70174257Y33996430D01*
X70235897Y33977732D01*
X70300000Y33971418D01*
X71045250Y33973000D01*
X71127000Y34054750D01*
X71127000Y35127000D01*
X71873000Y35127000D01*
X71873000Y34054750D01*
X71954750Y33973000D01*
X72700000Y33971418D01*
X72764103Y33977732D01*
X72825743Y33996430D01*
X72882550Y34026794D01*
X72932343Y34067657D01*
X72973206Y34117450D01*
X73003570Y34174257D01*
X73022268Y34235897D01*
X73028582Y34300000D01*
X73027000Y35045250D01*
X72945250Y35127000D01*
X71873000Y35127000D01*
X71127000Y35127000D01*
X70054750Y35127000D01*
X69973000Y35045250D01*
X69971418Y34300000D01*
X65383769Y34300000D01*
X65419124Y34335355D01*
X65619066Y34634591D01*
X65756789Y34967084D01*
X65827000Y35320056D01*
X65827000Y35679944D01*
X65808093Y35775000D01*
X77894967Y35775000D01*
X77894967Y34075000D01*
X77907073Y33952087D01*
X77942925Y33833897D01*
X78001147Y33724972D01*
X78079499Y33629499D01*
X78174972Y33551147D01*
X78283897Y33492925D01*
X78402087Y33457073D01*
X78525000Y33444967D01*
X80225000Y33444967D01*
X80347913Y33457073D01*
X80466103Y33492925D01*
X80575028Y33551147D01*
X80670501Y33629499D01*
X80748853Y33724972D01*
X80807075Y33833897D01*
X80842927Y33952087D01*
X80855033Y34075000D01*
X80855033Y35775000D01*
X82339967Y35775000D01*
X82339967Y34075000D01*
X82352073Y33952087D01*
X82387925Y33833897D01*
X82446147Y33724972D01*
X82524499Y33629499D01*
X82619972Y33551147D01*
X82728897Y33492925D01*
X82847087Y33457073D01*
X82970000Y33444967D01*
X84670000Y33444967D01*
X84792913Y33457073D01*
X84911103Y33492925D01*
X85020028Y33551147D01*
X85115501Y33629499D01*
X85132325Y33650000D01*
X94421418Y33650000D01*
X94423000Y33254750D01*
X94504750Y33173000D01*
X95227000Y33173000D01*
X95227000Y33895250D01*
X95973000Y33895250D01*
X95973000Y33173000D01*
X96695250Y33173000D01*
X96777000Y33254750D01*
X96778582Y33650000D01*
X96772268Y33714103D01*
X96753570Y33775743D01*
X96723206Y33832550D01*
X96682343Y33882343D01*
X96632550Y33923206D01*
X96575743Y33953570D01*
X96514103Y33972268D01*
X96450000Y33978582D01*
X96054750Y33977000D01*
X95973000Y33895250D01*
X95227000Y33895250D01*
X95145250Y33977000D01*
X94750000Y33978582D01*
X94685897Y33972268D01*
X94624257Y33953570D01*
X94567450Y33923206D01*
X94517657Y33882343D01*
X94476794Y33832550D01*
X94446430Y33775743D01*
X94427732Y33714103D01*
X94421418Y33650000D01*
X85132325Y33650000D01*
X85193853Y33724972D01*
X85252075Y33833897D01*
X85287927Y33952087D01*
X85300033Y34075000D01*
X85300033Y35775000D01*
X85287927Y35897913D01*
X85252075Y36016103D01*
X85193853Y36125028D01*
X85115501Y36220501D01*
X85020028Y36298853D01*
X84911103Y36357075D01*
X84792913Y36392927D01*
X84670000Y36405033D01*
X82970000Y36405033D01*
X82847087Y36392927D01*
X82728897Y36357075D01*
X82619972Y36298853D01*
X82524499Y36220501D01*
X82446147Y36125028D01*
X82387925Y36016103D01*
X82352073Y35897913D01*
X82339967Y35775000D01*
X80855033Y35775000D01*
X80842927Y35897913D01*
X80807075Y36016103D01*
X80748853Y36125028D01*
X80670501Y36220501D01*
X80575028Y36298853D01*
X80466103Y36357075D01*
X80347913Y36392927D01*
X80225000Y36405033D01*
X78525000Y36405033D01*
X78402087Y36392927D01*
X78283897Y36357075D01*
X78174972Y36298853D01*
X78079499Y36220501D01*
X78001147Y36125028D01*
X77942925Y36016103D01*
X77907073Y35897913D01*
X77894967Y35775000D01*
X65808093Y35775000D01*
X65756789Y36032916D01*
X65619066Y36365409D01*
X65419124Y36664645D01*
X65383769Y36700000D01*
X69971418Y36700000D01*
X69973000Y35954750D01*
X70054750Y35873000D01*
X71127000Y35873000D01*
X71127000Y36945250D01*
X71873000Y36945250D01*
X71873000Y35873000D01*
X72945250Y35873000D01*
X73027000Y35954750D01*
X73028582Y36700000D01*
X73022268Y36764103D01*
X73003570Y36825743D01*
X72973206Y36882550D01*
X72932343Y36932343D01*
X72882550Y36973206D01*
X72825743Y37003570D01*
X72764103Y37022268D01*
X72700000Y37028582D01*
X71954750Y37027000D01*
X71873000Y36945250D01*
X71127000Y36945250D01*
X71045250Y37027000D01*
X70300000Y37028582D01*
X70235897Y37022268D01*
X70174257Y37003570D01*
X70117450Y36973206D01*
X70067657Y36932343D01*
X70026794Y36882550D01*
X69996430Y36825743D01*
X69977732Y36764103D01*
X69971418Y36700000D01*
X65383769Y36700000D01*
X65164645Y36919124D01*
X64865409Y37119066D01*
X64532916Y37256789D01*
X64179944Y37327000D01*
X63820056Y37327000D01*
X63467084Y37256789D01*
X63134591Y37119066D01*
X62835355Y36919124D01*
X62580876Y36664645D01*
X62380934Y36365409D01*
X62243211Y36032916D01*
X62173000Y35679944D01*
X59127000Y35679944D01*
X59127000Y40400000D01*
X77373000Y40400000D01*
X77373000Y38100000D01*
X77375440Y38075224D01*
X77382667Y38051400D01*
X77411956Y37980689D01*
X77423692Y37958732D01*
X77439486Y37939487D01*
X77458731Y37923693D01*
X77480689Y37911956D01*
X77551400Y37882667D01*
X77575224Y37875440D01*
X77600000Y37873000D01*
X80900000Y37873000D01*
X80924776Y37875440D01*
X80948600Y37882667D01*
X81019311Y37911956D01*
X81041268Y37923692D01*
X81060513Y37939486D01*
X81076307Y37958731D01*
X81088044Y37980689D01*
X81117333Y38051400D01*
X81124560Y38075224D01*
X81127000Y38100000D01*
X81127000Y38182240D01*
X89408779Y38182240D01*
X89522673Y37970178D01*
X89487752Y37935257D01*
X89749259Y37673750D01*
X89753309Y37668835D01*
X89758045Y37664964D01*
X90015257Y37407752D01*
X90049823Y37442318D01*
X90262240Y37328779D01*
X90498573Y37335716D01*
X90498573Y37891069D01*
X90857432Y38249928D01*
X90885714Y38249928D01*
X91244573Y37891069D01*
X91244573Y37335716D01*
X91480906Y37328779D01*
X91692968Y37442673D01*
X91727889Y37407752D01*
X91989396Y37669259D01*
X91994311Y37673309D01*
X91998182Y37678045D01*
X92255394Y37935257D01*
X92220828Y37969823D01*
X92334367Y38182240D01*
X92327430Y38418573D01*
X91772077Y38418573D01*
X91413218Y38777432D01*
X90885714Y38249928D01*
X90857432Y38249928D01*
X90329928Y38777432D01*
X89971069Y38418573D01*
X89415716Y38418573D01*
X89408779Y38182240D01*
X81127000Y38182240D01*
X81127000Y39400906D01*
X89408779Y39400906D01*
X89415716Y39164573D01*
X89971069Y39164573D01*
X90329928Y38805714D01*
X90857432Y39333218D01*
X90498573Y39692077D01*
X90498573Y40247430D01*
X90262240Y40254367D01*
X90050178Y40140473D01*
X90015257Y40175394D01*
X89753750Y39913887D01*
X89748835Y39909837D01*
X89744964Y39905101D01*
X89487752Y39647889D01*
X89522318Y39613323D01*
X89408779Y39400906D01*
X81127000Y39400906D01*
X81127000Y40400000D01*
X81124560Y40424776D01*
X81117333Y40448600D01*
X81106099Y40475724D01*
X87426372Y40475724D01*
X87426372Y40360112D01*
X87810803Y39973444D01*
X87860596Y39932581D01*
X87917403Y39902216D01*
X87979043Y39883518D01*
X88043146Y39877204D01*
X88107249Y39883518D01*
X88168889Y39902216D01*
X88225696Y39932581D01*
X88275489Y39973444D01*
X88659920Y40360112D01*
X88659920Y40475724D01*
X88043146Y41092498D01*
X87426372Y40475724D01*
X81106099Y40475724D01*
X81088044Y40519311D01*
X81076308Y40541268D01*
X81060514Y40560513D01*
X81041269Y40576307D01*
X81019311Y40588044D01*
X80948600Y40617333D01*
X80924776Y40624560D01*
X80900000Y40627000D01*
X77600000Y40627000D01*
X77575224Y40624560D01*
X77551400Y40617333D01*
X77480689Y40588044D01*
X77458732Y40576308D01*
X77439487Y40560514D01*
X77423693Y40541269D01*
X77411956Y40519311D01*
X77382667Y40448600D01*
X77375440Y40424776D01*
X77373000Y40400000D01*
X59127000Y40400000D01*
X59127000Y41933316D01*
X59136954Y41957348D01*
X60042652Y42863046D01*
X60066684Y42873000D01*
X77251418Y42873000D01*
X77244967Y42807500D01*
G37*
X77244967Y42807500D02*
X77244967Y41882500D01*
X77261877Y41710814D01*
X77311956Y41545726D01*
X77393279Y41393580D01*
X77502723Y41260223D01*
X77636080Y41150779D01*
X77788226Y41069456D01*
X77953314Y41019377D01*
X78125000Y41002467D01*
X80275000Y41002467D01*
X80446686Y41019377D01*
X80611774Y41069456D01*
X80763920Y41150779D01*
X80897277Y41260223D01*
X80989831Y41373000D01*
X84900000Y41373000D01*
X84924776Y41375440D01*
X84948600Y41382667D01*
X85019311Y41411956D01*
X85041268Y41423692D01*
X85060513Y41439486D01*
X85076307Y41458731D01*
X85088044Y41480689D01*
X85117333Y41551400D01*
X85124560Y41575224D01*
X85127000Y41600000D01*
X85127000Y41620000D01*
X86300350Y41620000D01*
X86306664Y41555897D01*
X86325362Y41494257D01*
X86355727Y41437450D01*
X86396590Y41387657D01*
X86783258Y41003226D01*
X86898870Y41003226D01*
X87515644Y41620000D01*
X86898870Y42236774D01*
X86783258Y42236774D01*
X86396590Y41852343D01*
X86355727Y41802550D01*
X86325362Y41745743D01*
X86306664Y41684103D01*
X86300350Y41620000D01*
X85127000Y41620000D01*
X85127000Y42873000D01*
X87426372Y42873000D01*
X87426372Y42764276D01*
X88043146Y42147502D01*
X88057288Y42161644D01*
X88584790Y41634142D01*
X88570648Y41620000D01*
X89187422Y41003226D01*
X89303034Y41003226D01*
X89560847Y41259547D01*
X91186445Y39633949D01*
X90885714Y39333218D01*
X91413218Y38805714D01*
X91713949Y39106445D01*
X91880908Y38939486D01*
X91900154Y38923692D01*
X91922110Y38911956D01*
X91992820Y38882667D01*
X92016645Y38875440D01*
X92041421Y38873000D01*
X97933316Y38873000D01*
X97957348Y38863046D01*
X98863046Y37957348D01*
X98873000Y37933316D01*
X98873000Y2066684D01*
X98863046Y2042652D01*
X97957348Y1136954D01*
X97933316Y1127000D01*
X60066684Y1127000D01*
X60042652Y1136954D01*
X59136954Y2042652D01*
X59127000Y2066684D01*
X59127000Y3682598D01*
X59291051Y3518547D01*
X59376790Y3604286D01*
X59570191Y3406509D01*
X59911176Y3291409D01*
X60268065Y3245044D01*
X60627141Y3269194D01*
X60974606Y3362933D01*
X61079809Y3406509D01*
X61273211Y3604287D01*
X60325000Y4552498D01*
X60310858Y4538356D01*
X59783356Y5065858D01*
X59797498Y5080000D01*
X60852502Y5080000D01*
X61800713Y4131789D01*
X61998491Y4325191D01*
X62113591Y4666176D01*
X62159956Y5023065D01*
X62135806Y5382141D01*
X62042067Y5729606D01*
X61998491Y5834809D01*
X61800713Y6028211D01*
X60852502Y5080000D01*
X59797498Y5080000D01*
X59783356Y5094142D01*
X60310858Y5621644D01*
X60325000Y5607502D01*
X61273211Y6555713D01*
X61249462Y6580000D01*
X70894967Y6580000D01*
X70894967Y3580000D01*
X70907073Y3457087D01*
X70942925Y3338897D01*
X71001147Y3229972D01*
X71079499Y3134499D01*
X71174972Y3056147D01*
X71283897Y2997925D01*
X71402087Y2962073D01*
X71525000Y2949967D01*
X74525000Y2949967D01*
X74647913Y2962073D01*
X74766103Y2997925D01*
X74875028Y3056147D01*
X74970501Y3134499D01*
X75048853Y3229972D01*
X75107075Y3338897D01*
X75142927Y3457087D01*
X75155033Y3580000D01*
X75155033Y3604287D01*
X77156789Y3604287D01*
X77350191Y3406509D01*
X77691176Y3291409D01*
X78048065Y3245044D01*
X78407141Y3269194D01*
X78754606Y3362933D01*
X78859809Y3406509D01*
X79053211Y3604287D01*
X78105000Y4552498D01*
X77156789Y3604287D01*
X75155033Y3604287D01*
X75155033Y5136935D01*
X76270044Y5136935D01*
X76294194Y4777859D01*
X76387933Y4430394D01*
X76431509Y4325191D01*
X76629287Y4131789D01*
X77577498Y5080000D01*
X78632502Y5080000D01*
X79580713Y4131789D01*
X79778491Y4325191D01*
X79893591Y4666176D01*
X79939956Y5023065D01*
X79915806Y5382141D01*
X79822067Y5729606D01*
X79778491Y5834809D01*
X79580713Y6028211D01*
X78632502Y5080000D01*
X77577498Y5080000D01*
X76629287Y6028211D01*
X76431509Y5834809D01*
X76316409Y5493824D01*
X76270044Y5136935D01*
X75155033Y5136935D01*
X75155033Y6555713D01*
X77156789Y6555713D01*
X78105000Y5607502D01*
X79053211Y6555713D01*
X79029462Y6580000D01*
X86134967Y6580000D01*
X86134967Y3580000D01*
X86147073Y3457087D01*
X86182925Y3338897D01*
X86241147Y3229972D01*
X86319499Y3134499D01*
X86414972Y3056147D01*
X86523897Y2997925D01*
X86642087Y2962073D01*
X86765000Y2949967D01*
X89765000Y2949967D01*
X89887913Y2962073D01*
X90006103Y2997925D01*
X90115028Y3056147D01*
X90210501Y3134499D01*
X90288853Y3229972D01*
X90347075Y3338897D01*
X90382927Y3457087D01*
X90395033Y3580000D01*
X90395033Y3604287D01*
X92396789Y3604287D01*
X92590191Y3406509D01*
X92931176Y3291409D01*
X93288065Y3245044D01*
X93647141Y3269194D01*
X93994606Y3362933D01*
X94099809Y3406509D01*
X94293211Y3604287D01*
X93345000Y4552498D01*
X92396789Y3604287D01*
X90395033Y3604287D01*
X90395033Y5136935D01*
X91510044Y5136935D01*
X91534194Y4777859D01*
X91627933Y4430394D01*
X91671509Y4325191D01*
X91869287Y4131789D01*
X92817498Y5080000D01*
X93872502Y5080000D01*
X94820713Y4131789D01*
X95018491Y4325191D01*
X95133591Y4666176D01*
X95179956Y5023065D01*
X95155806Y5382141D01*
X95062067Y5729606D01*
X95018491Y5834809D01*
X94820713Y6028211D01*
X93872502Y5080000D01*
X92817498Y5080000D01*
X91869287Y6028211D01*
X91671509Y5834809D01*
X91556409Y5493824D01*
X91510044Y5136935D01*
X90395033Y5136935D01*
X90395033Y6555713D01*
X92396789Y6555713D01*
X93345000Y5607502D01*
X94293211Y6555713D01*
X94099809Y6753491D01*
X93758824Y6868591D01*
X93401935Y6914956D01*
X93042859Y6890806D01*
X92695394Y6797067D01*
X92590191Y6753491D01*
X92396789Y6555713D01*
X90395033Y6555713D01*
X90395033Y6580000D01*
X90382927Y6702913D01*
X90347075Y6821103D01*
X90288853Y6930028D01*
X90210501Y7025501D01*
X90115028Y7103853D01*
X90006103Y7162075D01*
X89887913Y7197927D01*
X89765000Y7210033D01*
X86765000Y7210033D01*
X86642087Y7197927D01*
X86523897Y7162075D01*
X86414972Y7103853D01*
X86319499Y7025501D01*
X86241147Y6930028D01*
X86182925Y6821103D01*
X86147073Y6702913D01*
X86134967Y6580000D01*
X79029462Y6580000D01*
X78859809Y6753491D01*
X78518824Y6868591D01*
X78161935Y6914956D01*
X77802859Y6890806D01*
X77455394Y6797067D01*
X77350191Y6753491D01*
X77156789Y6555713D01*
X75155033Y6555713D01*
X75155033Y6580000D01*
X75142927Y6702913D01*
X75107075Y6821103D01*
X75048853Y6930028D01*
X74970501Y7025501D01*
X74875028Y7103853D01*
X74766103Y7162075D01*
X74647913Y7197927D01*
X74525000Y7210033D01*
X71525000Y7210033D01*
X71402087Y7197927D01*
X71283897Y7162075D01*
X71174972Y7103853D01*
X71079499Y7025501D01*
X71001147Y6930028D01*
X70942925Y6821103D01*
X70907073Y6702913D01*
X70894967Y6580000D01*
X61249462Y6580000D01*
X61079809Y6753491D01*
X60738824Y6868591D01*
X60381935Y6914956D01*
X60022859Y6890806D01*
X59675394Y6797067D01*
X59570191Y6753491D01*
X59376790Y6555714D01*
X59291051Y6641453D01*
X59127000Y6477402D01*
X59127000Y16382598D01*
X59291051Y16218547D01*
X59376790Y16304286D01*
X59570191Y16106509D01*
X59911176Y15991409D01*
X60268065Y15945044D01*
X60627141Y15969194D01*
X60974606Y16062933D01*
X61079809Y16106509D01*
X61273211Y16304287D01*
X60325000Y17252498D01*
X60310858Y17238356D01*
X59783356Y17765858D01*
X59797498Y17780000D01*
X60852502Y17780000D01*
X61800713Y16831789D01*
X61998491Y17025191D01*
X62113591Y17366176D01*
X62159956Y17723065D01*
X62135806Y18082141D01*
X62042067Y18429606D01*
X61998491Y18534809D01*
X61800713Y18728211D01*
X60852502Y17780000D01*
X59797498Y17780000D01*
X59783356Y17794142D01*
X60310858Y18321644D01*
X60325000Y18307502D01*
X61273211Y19255713D01*
X61249462Y19280000D01*
X70894967Y19280000D01*
X70894967Y16280000D01*
X70907073Y16157087D01*
X70942925Y16038897D01*
X71001147Y15929972D01*
X71079499Y15834499D01*
X71174972Y15756147D01*
X71283897Y15697925D01*
X71402087Y15662073D01*
X71525000Y15649967D01*
X74525000Y15649967D01*
X74647913Y15662073D01*
X74766103Y15697925D01*
X74875028Y15756147D01*
X74970501Y15834499D01*
X75048853Y15929972D01*
X75107075Y16038897D01*
X75142927Y16157087D01*
X75155033Y16280000D01*
X75155033Y16304287D01*
X77156789Y16304287D01*
X77350191Y16106509D01*
X77691176Y15991409D01*
X78048065Y15945044D01*
X78407141Y15969194D01*
X78754606Y16062933D01*
X78859809Y16106509D01*
X79053211Y16304287D01*
X78105000Y17252498D01*
X77156789Y16304287D01*
X75155033Y16304287D01*
X75155033Y17836935D01*
X76270044Y17836935D01*
X76294194Y17477859D01*
X76387933Y17130394D01*
X76431509Y17025191D01*
X76629287Y16831789D01*
X77577498Y17780000D01*
X78632502Y17780000D01*
X79580713Y16831789D01*
X79778491Y17025191D01*
X79893591Y17366176D01*
X79939956Y17723065D01*
X79915806Y18082141D01*
X79822067Y18429606D01*
X79778491Y18534809D01*
X79580713Y18728211D01*
X78632502Y17780000D01*
X77577498Y17780000D01*
X76629287Y18728211D01*
X76431509Y18534809D01*
X76316409Y18193824D01*
X76270044Y17836935D01*
X75155033Y17836935D01*
X75155033Y19255713D01*
X77156789Y19255713D01*
X78105000Y18307502D01*
X79053211Y19255713D01*
X79029462Y19280000D01*
X86134967Y19280000D01*
X86134967Y16280000D01*
X86147073Y16157087D01*
X86182925Y16038897D01*
X86241147Y15929972D01*
X86319499Y15834499D01*
X86414972Y15756147D01*
X86523897Y15697925D01*
X86642087Y15662073D01*
X86765000Y15649967D01*
X89765000Y15649967D01*
X89887913Y15662073D01*
X90006103Y15697925D01*
X90115028Y15756147D01*
X90210501Y15834499D01*
X90288853Y15929972D01*
X90347075Y16038897D01*
X90382927Y16157087D01*
X90395033Y16280000D01*
X90395033Y16304287D01*
X92396789Y16304287D01*
X92590191Y16106509D01*
X92931176Y15991409D01*
X93288065Y15945044D01*
X93647141Y15969194D01*
X93994606Y16062933D01*
X94099809Y16106509D01*
X94293211Y16304287D01*
X93345000Y17252498D01*
X92396789Y16304287D01*
X90395033Y16304287D01*
X90395033Y17836935D01*
X91510044Y17836935D01*
X91534194Y17477859D01*
X91627933Y17130394D01*
X91671509Y17025191D01*
X91869287Y16831789D01*
X92817498Y17780000D01*
X93872502Y17780000D01*
X94820713Y16831789D01*
X95018491Y17025191D01*
X95133591Y17366176D01*
X95179956Y17723065D01*
X95155806Y18082141D01*
X95062067Y18429606D01*
X95018491Y18534809D01*
X94820713Y18728211D01*
X93872502Y17780000D01*
X92817498Y17780000D01*
X91869287Y18728211D01*
X91671509Y18534809D01*
X91556409Y18193824D01*
X91510044Y17836935D01*
X90395033Y17836935D01*
X90395033Y19255713D01*
X92396789Y19255713D01*
X93345000Y18307502D01*
X94293211Y19255713D01*
X94099809Y19453491D01*
X93758824Y19568591D01*
X93401935Y19614956D01*
X93042859Y19590806D01*
X92695394Y19497067D01*
X92590191Y19453491D01*
X92396789Y19255713D01*
X90395033Y19255713D01*
X90395033Y19280000D01*
X90382927Y19402913D01*
X90347075Y19521103D01*
X90288853Y19630028D01*
X90210501Y19725501D01*
X90115028Y19803853D01*
X90006103Y19862075D01*
X89887913Y19897927D01*
X89765000Y19910033D01*
X86765000Y19910033D01*
X86642087Y19897927D01*
X86523897Y19862075D01*
X86414972Y19803853D01*
X86319499Y19725501D01*
X86241147Y19630028D01*
X86182925Y19521103D01*
X86147073Y19402913D01*
X86134967Y19280000D01*
X79029462Y19280000D01*
X78859809Y19453491D01*
X78518824Y19568591D01*
X78161935Y19614956D01*
X77802859Y19590806D01*
X77455394Y19497067D01*
X77350191Y19453491D01*
X77156789Y19255713D01*
X75155033Y19255713D01*
X75155033Y19280000D01*
X75142927Y19402913D01*
X75107075Y19521103D01*
X75048853Y19630028D01*
X74970501Y19725501D01*
X74875028Y19803853D01*
X74766103Y19862075D01*
X74647913Y19897927D01*
X74525000Y19910033D01*
X71525000Y19910033D01*
X71402087Y19897927D01*
X71283897Y19862075D01*
X71174972Y19803853D01*
X71079499Y19725501D01*
X71001147Y19630028D01*
X70942925Y19521103D01*
X70907073Y19402913D01*
X70894967Y19280000D01*
X61249462Y19280000D01*
X61079809Y19453491D01*
X60738824Y19568591D01*
X60381935Y19614956D01*
X60022859Y19590806D01*
X59675394Y19497067D01*
X59570191Y19453491D01*
X59376790Y19255714D01*
X59291051Y19341453D01*
X59127000Y19177402D01*
X59127000Y31950000D01*
X94421418Y31950000D01*
X94427732Y31885897D01*
X94446430Y31824257D01*
X94476794Y31767450D01*
X94517657Y31717657D01*
X94567450Y31676794D01*
X94624257Y31646430D01*
X94685897Y31627732D01*
X94750000Y31621418D01*
X95145250Y31623000D01*
X95227000Y31704750D01*
X95227000Y32427000D01*
X95973000Y32427000D01*
X95973000Y31704750D01*
X96054750Y31623000D01*
X96450000Y31621418D01*
X96514103Y31627732D01*
X96575743Y31646430D01*
X96632550Y31676794D01*
X96682343Y31717657D01*
X96723206Y31767450D01*
X96753570Y31824257D01*
X96772268Y31885897D01*
X96778582Y31950000D01*
X96777000Y32345250D01*
X96695250Y32427000D01*
X95973000Y32427000D01*
X95227000Y32427000D01*
X94504750Y32427000D01*
X94423000Y32345250D01*
X94421418Y31950000D01*
X59127000Y31950000D01*
X59127000Y35679944D01*
X62173000Y35679944D01*
X62173000Y35320056D01*
X62243211Y34967084D01*
X62380934Y34634591D01*
X62580876Y34335355D01*
X62835355Y34080876D01*
X63134591Y33880934D01*
X63467084Y33743211D01*
X63820056Y33673000D01*
X64179944Y33673000D01*
X64532916Y33743211D01*
X64865409Y33880934D01*
X65164645Y34080876D01*
X65383769Y34300000D01*
X69971418Y34300000D01*
X69977732Y34235897D01*
X69996430Y34174257D01*
X70026794Y34117450D01*
X70067657Y34067657D01*
X70117450Y34026794D01*
X70174257Y33996430D01*
X70235897Y33977732D01*
X70300000Y33971418D01*
X71045250Y33973000D01*
X71127000Y34054750D01*
X71127000Y35127000D01*
X71873000Y35127000D01*
X71873000Y34054750D01*
X71954750Y33973000D01*
X72700000Y33971418D01*
X72764103Y33977732D01*
X72825743Y33996430D01*
X72882550Y34026794D01*
X72932343Y34067657D01*
X72973206Y34117450D01*
X73003570Y34174257D01*
X73022268Y34235897D01*
X73028582Y34300000D01*
X73027000Y35045250D01*
X72945250Y35127000D01*
X71873000Y35127000D01*
X71127000Y35127000D01*
X70054750Y35127000D01*
X69973000Y35045250D01*
X69971418Y34300000D01*
X65383769Y34300000D01*
X65419124Y34335355D01*
X65619066Y34634591D01*
X65756789Y34967084D01*
X65827000Y35320056D01*
X65827000Y35679944D01*
X65808093Y35775000D01*
X77894967Y35775000D01*
X77894967Y34075000D01*
X77907073Y33952087D01*
X77942925Y33833897D01*
X78001147Y33724972D01*
X78079499Y33629499D01*
X78174972Y33551147D01*
X78283897Y33492925D01*
X78402087Y33457073D01*
X78525000Y33444967D01*
X80225000Y33444967D01*
X80347913Y33457073D01*
X80466103Y33492925D01*
X80575028Y33551147D01*
X80670501Y33629499D01*
X80748853Y33724972D01*
X80807075Y33833897D01*
X80842927Y33952087D01*
X80855033Y34075000D01*
X80855033Y35775000D01*
X82339967Y35775000D01*
X82339967Y34075000D01*
X82352073Y33952087D01*
X82387925Y33833897D01*
X82446147Y33724972D01*
X82524499Y33629499D01*
X82619972Y33551147D01*
X82728897Y33492925D01*
X82847087Y33457073D01*
X82970000Y33444967D01*
X84670000Y33444967D01*
X84792913Y33457073D01*
X84911103Y33492925D01*
X85020028Y33551147D01*
X85115501Y33629499D01*
X85132325Y33650000D01*
X94421418Y33650000D01*
X94423000Y33254750D01*
X94504750Y33173000D01*
X95227000Y33173000D01*
X95227000Y33895250D01*
X95973000Y33895250D01*
X95973000Y33173000D01*
X96695250Y33173000D01*
X96777000Y33254750D01*
X96778582Y33650000D01*
X96772268Y33714103D01*
X96753570Y33775743D01*
X96723206Y33832550D01*
X96682343Y33882343D01*
X96632550Y33923206D01*
X96575743Y33953570D01*
X96514103Y33972268D01*
X96450000Y33978582D01*
X96054750Y33977000D01*
X95973000Y33895250D01*
X95227000Y33895250D01*
X95145250Y33977000D01*
X94750000Y33978582D01*
X94685897Y33972268D01*
X94624257Y33953570D01*
X94567450Y33923206D01*
X94517657Y33882343D01*
X94476794Y33832550D01*
X94446430Y33775743D01*
X94427732Y33714103D01*
X94421418Y33650000D01*
X85132325Y33650000D01*
X85193853Y33724972D01*
X85252075Y33833897D01*
X85287927Y33952087D01*
X85300033Y34075000D01*
X85300033Y35775000D01*
X85287927Y35897913D01*
X85252075Y36016103D01*
X85193853Y36125028D01*
X85115501Y36220501D01*
X85020028Y36298853D01*
X84911103Y36357075D01*
X84792913Y36392927D01*
X84670000Y36405033D01*
X82970000Y36405033D01*
X82847087Y36392927D01*
X82728897Y36357075D01*
X82619972Y36298853D01*
X82524499Y36220501D01*
X82446147Y36125028D01*
X82387925Y36016103D01*
X82352073Y35897913D01*
X82339967Y35775000D01*
X80855033Y35775000D01*
X80842927Y35897913D01*
X80807075Y36016103D01*
X80748853Y36125028D01*
X80670501Y36220501D01*
X80575028Y36298853D01*
X80466103Y36357075D01*
X80347913Y36392927D01*
X80225000Y36405033D01*
X78525000Y36405033D01*
X78402087Y36392927D01*
X78283897Y36357075D01*
X78174972Y36298853D01*
X78079499Y36220501D01*
X78001147Y36125028D01*
X77942925Y36016103D01*
X77907073Y35897913D01*
X77894967Y35775000D01*
X65808093Y35775000D01*
X65756789Y36032916D01*
X65619066Y36365409D01*
X65419124Y36664645D01*
X65383769Y36700000D01*
X69971418Y36700000D01*
X69973000Y35954750D01*
X70054750Y35873000D01*
X71127000Y35873000D01*
X71127000Y36945250D01*
X71873000Y36945250D01*
X71873000Y35873000D01*
X72945250Y35873000D01*
X73027000Y35954750D01*
X73028582Y36700000D01*
X73022268Y36764103D01*
X73003570Y36825743D01*
X72973206Y36882550D01*
X72932343Y36932343D01*
X72882550Y36973206D01*
X72825743Y37003570D01*
X72764103Y37022268D01*
X72700000Y37028582D01*
X71954750Y37027000D01*
X71873000Y36945250D01*
X71127000Y36945250D01*
X71045250Y37027000D01*
X70300000Y37028582D01*
X70235897Y37022268D01*
X70174257Y37003570D01*
X70117450Y36973206D01*
X70067657Y36932343D01*
X70026794Y36882550D01*
X69996430Y36825743D01*
X69977732Y36764103D01*
X69971418Y36700000D01*
X65383769Y36700000D01*
X65164645Y36919124D01*
X64865409Y37119066D01*
X64532916Y37256789D01*
X64179944Y37327000D01*
X63820056Y37327000D01*
X63467084Y37256789D01*
X63134591Y37119066D01*
X62835355Y36919124D01*
X62580876Y36664645D01*
X62380934Y36365409D01*
X62243211Y36032916D01*
X62173000Y35679944D01*
X59127000Y35679944D01*
X59127000Y40400000D01*
X77373000Y40400000D01*
X77373000Y38100000D01*
X77375440Y38075224D01*
X77382667Y38051400D01*
X77411956Y37980689D01*
X77423692Y37958732D01*
X77439486Y37939487D01*
X77458731Y37923693D01*
X77480689Y37911956D01*
X77551400Y37882667D01*
X77575224Y37875440D01*
X77600000Y37873000D01*
X80900000Y37873000D01*
X80924776Y37875440D01*
X80948600Y37882667D01*
X81019311Y37911956D01*
X81041268Y37923692D01*
X81060513Y37939486D01*
X81076307Y37958731D01*
X81088044Y37980689D01*
X81117333Y38051400D01*
X81124560Y38075224D01*
X81127000Y38100000D01*
X81127000Y38182240D01*
X89408779Y38182240D01*
X89522673Y37970178D01*
X89487752Y37935257D01*
X89749259Y37673750D01*
X89753309Y37668835D01*
X89758045Y37664964D01*
X90015257Y37407752D01*
X90049823Y37442318D01*
X90262240Y37328779D01*
X90498573Y37335716D01*
X90498573Y37891069D01*
X90857432Y38249928D01*
X90885714Y38249928D01*
X91244573Y37891069D01*
X91244573Y37335716D01*
X91480906Y37328779D01*
X91692968Y37442673D01*
X91727889Y37407752D01*
X91989396Y37669259D01*
X91994311Y37673309D01*
X91998182Y37678045D01*
X92255394Y37935257D01*
X92220828Y37969823D01*
X92334367Y38182240D01*
X92327430Y38418573D01*
X91772077Y38418573D01*
X91413218Y38777432D01*
X90885714Y38249928D01*
X90857432Y38249928D01*
X90329928Y38777432D01*
X89971069Y38418573D01*
X89415716Y38418573D01*
X89408779Y38182240D01*
X81127000Y38182240D01*
X81127000Y39400906D01*
X89408779Y39400906D01*
X89415716Y39164573D01*
X89971069Y39164573D01*
X90329928Y38805714D01*
X90857432Y39333218D01*
X90498573Y39692077D01*
X90498573Y40247430D01*
X90262240Y40254367D01*
X90050178Y40140473D01*
X90015257Y40175394D01*
X89753750Y39913887D01*
X89748835Y39909837D01*
X89744964Y39905101D01*
X89487752Y39647889D01*
X89522318Y39613323D01*
X89408779Y39400906D01*
X81127000Y39400906D01*
X81127000Y40400000D01*
X81124560Y40424776D01*
X81117333Y40448600D01*
X81106099Y40475724D01*
X87426372Y40475724D01*
X87426372Y40360112D01*
X87810803Y39973444D01*
X87860596Y39932581D01*
X87917403Y39902216D01*
X87979043Y39883518D01*
X88043146Y39877204D01*
X88107249Y39883518D01*
X88168889Y39902216D01*
X88225696Y39932581D01*
X88275489Y39973444D01*
X88659920Y40360112D01*
X88659920Y40475724D01*
X88043146Y41092498D01*
X87426372Y40475724D01*
X81106099Y40475724D01*
X81088044Y40519311D01*
X81076308Y40541268D01*
X81060514Y40560513D01*
X81041269Y40576307D01*
X81019311Y40588044D01*
X80948600Y40617333D01*
X80924776Y40624560D01*
X80900000Y40627000D01*
X77600000Y40627000D01*
X77575224Y40624560D01*
X77551400Y40617333D01*
X77480689Y40588044D01*
X77458732Y40576308D01*
X77439487Y40560514D01*
X77423693Y40541269D01*
X77411956Y40519311D01*
X77382667Y40448600D01*
X77375440Y40424776D01*
X77373000Y40400000D01*
X59127000Y40400000D01*
X59127000Y41933316D01*
X59136954Y41957348D01*
X60042652Y42863046D01*
X60066684Y42873000D01*
X77251418Y42873000D01*
X77244967Y42807500D01*
%TO.N,/rect_ac_+*%
G36*
X97957348Y85363046D02*
G01*
X98863046Y84457348D01*
X98873000Y84433316D01*
X98873000Y40066684D01*
X98863046Y40042652D01*
X98335146Y39514752D01*
X98269231Y39549984D01*
X98198521Y39579273D01*
X98080901Y39614952D01*
X97958579Y39627000D01*
X95627000Y39627000D01*
X95627000Y41397230D01*
X95645455Y41458069D01*
X95661404Y41620000D01*
X95645455Y41781931D01*
X95627000Y41842770D01*
X95627000Y47233182D01*
X96642764Y48248945D01*
X96685765Y48284235D01*
X96721055Y48327236D01*
X96721058Y48327239D01*
X96826600Y48455843D01*
X96931250Y48651629D01*
X96953865Y48726179D01*
X96976103Y48732925D01*
X97085028Y48791147D01*
X97180501Y48869499D01*
X97258853Y48964972D01*
X97317075Y49073897D01*
X97352927Y49192087D01*
X97365033Y49315000D01*
X97365033Y51015000D01*
X97352927Y51137913D01*
X97317075Y51256103D01*
X97258853Y51365028D01*
X97180501Y51460501D01*
X97085028Y51538853D01*
X96976103Y51597075D01*
X96857913Y51632927D01*
X96735000Y51645033D01*
X95035000Y51645033D01*
X94912087Y51632927D01*
X94793897Y51597075D01*
X94684972Y51538853D01*
X94589499Y51460501D01*
X94511147Y51365028D01*
X94452925Y51256103D01*
X94417073Y51137913D01*
X94404967Y51015000D01*
X94404967Y49774639D01*
X93655033Y50524573D01*
X93655033Y50595000D01*
X93638123Y50766686D01*
X93627000Y50803354D01*
X93627000Y52436646D01*
X93638123Y52473314D01*
X93655033Y52645000D01*
X93655033Y53570000D01*
X93638123Y53741686D01*
X93627000Y53778354D01*
X93627000Y54458579D01*
X93624560Y54483355D01*
X93617333Y54507180D01*
X93588044Y54577890D01*
X93576308Y54599846D01*
X93560514Y54619092D01*
X92702000Y55477606D01*
X92702000Y55570777D01*
X92706848Y55620000D01*
X92687502Y55816427D01*
X92630206Y56005304D01*
X92619460Y56025408D01*
X92537164Y56179375D01*
X92411949Y56331949D01*
X92373709Y56363332D01*
X91943332Y56793709D01*
X91911949Y56831949D01*
X91759375Y56957164D01*
X91585304Y57050206D01*
X91396426Y57107502D01*
X91249223Y57122000D01*
X91249216Y57122000D01*
X91200000Y57126847D01*
X91150784Y57122000D01*
X89249215Y57122000D01*
X89199999Y57126847D01*
X89150783Y57122000D01*
X89150777Y57122000D01*
X89023612Y57109476D01*
X89003573Y57107502D01*
X88959613Y57094166D01*
X88814696Y57050206D01*
X88640625Y56957164D01*
X88488051Y56831949D01*
X88456668Y56793709D01*
X87931286Y56268327D01*
X87893052Y56236949D01*
X87861674Y56198715D01*
X87767837Y56084375D01*
X87674794Y55910303D01*
X87617498Y55721426D01*
X87614841Y55694447D01*
X87557348Y55636954D01*
X87533316Y55627000D01*
X85866684Y55627000D01*
X85842652Y55636954D01*
X85793899Y55685707D01*
X85782502Y55801426D01*
X85725206Y55990304D01*
X85632164Y56164375D01*
X85506949Y56316949D01*
X85468709Y56348332D01*
X85143332Y56673709D01*
X85111949Y56711949D01*
X84959375Y56837164D01*
X84785304Y56930206D01*
X84596426Y56987502D01*
X84449223Y57002000D01*
X84449216Y57002000D01*
X84400000Y57006847D01*
X84350784Y57002000D01*
X82318265Y57002000D01*
X82215597Y57104668D01*
X82188133Y57138133D01*
X82054592Y57247727D01*
X81902237Y57329162D01*
X81736922Y57379310D01*
X81608079Y57392000D01*
X81565000Y57396243D01*
X81521921Y57392000D01*
X78312374Y57392000D01*
X78302927Y57487913D01*
X78267075Y57606103D01*
X78208853Y57715028D01*
X78130501Y57810501D01*
X78035028Y57888853D01*
X77926103Y57947075D01*
X77807913Y57982927D01*
X77685000Y57995033D01*
X75985000Y57995033D01*
X75862087Y57982927D01*
X75743897Y57947075D01*
X75634972Y57888853D01*
X75539499Y57810501D01*
X75461147Y57715028D01*
X75402925Y57606103D01*
X75367073Y57487913D01*
X75354967Y57365000D01*
X75354967Y55665000D01*
X75367073Y55542087D01*
X75402925Y55423897D01*
X75461147Y55314972D01*
X75539499Y55219499D01*
X75634972Y55141147D01*
X75743897Y55082925D01*
X75862087Y55047073D01*
X75985000Y55034967D01*
X77685000Y55034967D01*
X77807913Y55047073D01*
X77926103Y55082925D01*
X78035028Y55141147D01*
X78130501Y55219499D01*
X78208853Y55314972D01*
X78267075Y55423897D01*
X78302927Y55542087D01*
X78312374Y55638000D01*
X80345771Y55638000D01*
X80288226Y55620544D01*
X80136080Y55539221D01*
X80002723Y55429777D01*
X79893279Y55296420D01*
X79811956Y55144274D01*
X79761877Y54979186D01*
X79744967Y54807500D01*
X79744967Y53882500D01*
X79761877Y53710814D01*
X79811956Y53545726D01*
X79873000Y53431520D01*
X79873000Y52283480D01*
X79811956Y52169274D01*
X79761877Y52004186D01*
X79744967Y51832500D01*
X79744967Y50924573D01*
X79007927Y50187533D01*
X78125000Y50187533D01*
X77953314Y50170623D01*
X77788226Y50120544D01*
X77636080Y50039221D01*
X77502723Y49929777D01*
X77393279Y49796420D01*
X77311956Y49644274D01*
X77261877Y49479186D01*
X77244967Y49307500D01*
X77244967Y48382500D01*
X77261877Y48210814D01*
X77311956Y48045726D01*
X77373000Y47931520D01*
X77373000Y46783480D01*
X77311956Y46669274D01*
X77261877Y46504186D01*
X77244967Y46332500D01*
X77244967Y45407500D01*
X77261877Y45235814D01*
X77310053Y45077000D01*
X76668421Y45077000D01*
X76539592Y45182727D01*
X76387237Y45264162D01*
X76221922Y45314310D01*
X76093079Y45327000D01*
X76050000Y45331243D01*
X76006921Y45327000D01*
X75772374Y45327000D01*
X75762927Y45422913D01*
X75727075Y45541103D01*
X75668853Y45650028D01*
X75590501Y45745501D01*
X75495028Y45823853D01*
X75386103Y45882075D01*
X75267913Y45917927D01*
X75145000Y45930033D01*
X73445000Y45930033D01*
X73322087Y45917927D01*
X73203897Y45882075D01*
X73094972Y45823853D01*
X72999499Y45745501D01*
X72921147Y45650028D01*
X72862925Y45541103D01*
X72827073Y45422913D01*
X72814967Y45300000D01*
X72814967Y43627000D01*
X60066684Y43627000D01*
X60042652Y43636954D01*
X59136954Y44542652D01*
X59127000Y44566684D01*
X59127000Y60420000D01*
X60869967Y60420000D01*
X60869967Y56420000D01*
X60882073Y56297087D01*
X60917925Y56178897D01*
X60976147Y56069972D01*
X61054499Y55974499D01*
X61149972Y55896147D01*
X61258897Y55837925D01*
X61377087Y55802073D01*
X61500000Y55789967D01*
X65500000Y55789967D01*
X65622913Y55802073D01*
X65741103Y55837925D01*
X65850028Y55896147D01*
X65945501Y55974499D01*
X66023853Y56069972D01*
X66082075Y56178897D01*
X66117927Y56297087D01*
X66130033Y56420000D01*
X66130033Y60420000D01*
X66117927Y60542913D01*
X66082075Y60661103D01*
X66023853Y60770028D01*
X65945501Y60865501D01*
X65850028Y60943853D01*
X65741103Y61002075D01*
X65622913Y61037927D01*
X65500000Y61050033D01*
X61500000Y61050033D01*
X61377087Y61037927D01*
X61258897Y61002075D01*
X61149972Y60943853D01*
X61054499Y60865501D01*
X60976147Y60770028D01*
X60917925Y60661103D01*
X60882073Y60542913D01*
X60869967Y60420000D01*
X59127000Y60420000D01*
X59127000Y75985000D01*
X62956418Y75985000D01*
X62962732Y75920897D01*
X62981430Y75859257D01*
X63011794Y75802450D01*
X63052657Y75752657D01*
X63102450Y75711794D01*
X63159257Y75681430D01*
X63220897Y75662732D01*
X63285000Y75656418D01*
X63680250Y75658000D01*
X63762000Y75739750D01*
X63762000Y76462000D01*
X64508000Y76462000D01*
X64508000Y75739750D01*
X64589750Y75658000D01*
X64985000Y75656418D01*
X65049103Y75662732D01*
X65110743Y75681430D01*
X65167550Y75711794D01*
X65217343Y75752657D01*
X65258206Y75802450D01*
X65288570Y75859257D01*
X65307268Y75920897D01*
X65313582Y75985000D01*
X65312000Y76380250D01*
X65230250Y76462000D01*
X64508000Y76462000D01*
X63762000Y76462000D01*
X63039750Y76462000D01*
X62958000Y76380250D01*
X62956418Y75985000D01*
X59127000Y75985000D01*
X59127000Y77093737D01*
X76273000Y77093737D01*
X76273000Y76576263D01*
X76373954Y76068732D01*
X76571983Y75590649D01*
X76859476Y75160385D01*
X77225385Y74794476D01*
X77655649Y74506983D01*
X78133732Y74308954D01*
X78641263Y74208000D01*
X79158737Y74208000D01*
X79666268Y74308954D01*
X80144351Y74506983D01*
X80574615Y74794476D01*
X80615139Y74835000D01*
X86571418Y74835000D01*
X86577732Y74770897D01*
X86596430Y74709257D01*
X86626794Y74652450D01*
X86667657Y74602657D01*
X86717450Y74561794D01*
X86774257Y74531430D01*
X86835897Y74512732D01*
X86900000Y74506418D01*
X88445250Y74508000D01*
X88527000Y74589750D01*
X88527000Y76462000D01*
X89273000Y76462000D01*
X89273000Y74589750D01*
X89354750Y74508000D01*
X90900000Y74506418D01*
X90964103Y74512732D01*
X91025743Y74531430D01*
X91082550Y74561794D01*
X91132343Y74602657D01*
X91173206Y74652450D01*
X91203570Y74709257D01*
X91222268Y74770897D01*
X91228582Y74835000D01*
X91227000Y76380250D01*
X91145250Y76462000D01*
X89273000Y76462000D01*
X88527000Y76462000D01*
X86654750Y76462000D01*
X86573000Y76380250D01*
X86571418Y74835000D01*
X80615139Y74835000D01*
X80940524Y75160385D01*
X81228017Y75590649D01*
X81426046Y76068732D01*
X81527000Y76576263D01*
X81527000Y77093737D01*
X81426046Y77601268D01*
X81228017Y78079351D01*
X80940524Y78509615D01*
X80615139Y78835000D01*
X86571418Y78835000D01*
X86573000Y77289750D01*
X86654750Y77208000D01*
X88527000Y77208000D01*
X88527000Y79080250D01*
X89273000Y79080250D01*
X89273000Y77208000D01*
X91145250Y77208000D01*
X91227000Y77289750D01*
X91228582Y78835000D01*
X91222268Y78899103D01*
X91203570Y78960743D01*
X91173206Y79017550D01*
X91132343Y79067343D01*
X91082550Y79108206D01*
X91025743Y79138570D01*
X90964103Y79157268D01*
X90900000Y79163582D01*
X89354750Y79162000D01*
X89273000Y79080250D01*
X88527000Y79080250D01*
X88445250Y79162000D01*
X86900000Y79163582D01*
X86835897Y79157268D01*
X86774257Y79138570D01*
X86717450Y79108206D01*
X86667657Y79067343D01*
X86626794Y79017550D01*
X86596430Y78960743D01*
X86577732Y78899103D01*
X86571418Y78835000D01*
X80615139Y78835000D01*
X80574615Y78875524D01*
X80144351Y79163017D01*
X79666268Y79361046D01*
X79158737Y79462000D01*
X78641263Y79462000D01*
X78133732Y79361046D01*
X77655649Y79163017D01*
X77225385Y78875524D01*
X76859476Y78509615D01*
X76571983Y78079351D01*
X76373954Y77601268D01*
X76273000Y77093737D01*
X59127000Y77093737D01*
X59127000Y77685000D01*
X62956418Y77685000D01*
X62958000Y77289750D01*
X63039750Y77208000D01*
X63762000Y77208000D01*
X63762000Y77930250D01*
X64508000Y77930250D01*
X64508000Y77208000D01*
X65230250Y77208000D01*
X65312000Y77289750D01*
X65313582Y77685000D01*
X65307268Y77749103D01*
X65288570Y77810743D01*
X65258206Y77867550D01*
X65217343Y77917343D01*
X65167550Y77958206D01*
X65110743Y77988570D01*
X65049103Y78007268D01*
X64985000Y78013582D01*
X64589750Y78012000D01*
X64508000Y77930250D01*
X63762000Y77930250D01*
X63680250Y78012000D01*
X63285000Y78013582D01*
X63220897Y78007268D01*
X63159257Y77988570D01*
X63102450Y77958206D01*
X63052657Y77917343D01*
X63011794Y77867550D01*
X62981430Y77810743D01*
X62962732Y77749103D01*
X62956418Y77685000D01*
X59127000Y77685000D01*
X59127000Y79933316D01*
X59136954Y79957348D01*
X60042652Y80863046D01*
X60066684Y80873000D01*
X64958579Y80873000D01*
X64983355Y80875440D01*
X65007180Y80882667D01*
X65077890Y80911956D01*
X65099846Y80923692D01*
X65119092Y80939486D01*
X66060514Y81880908D01*
X66076308Y81900154D01*
X66088044Y81922110D01*
X66117333Y81992820D01*
X66124560Y82016645D01*
X66127000Y82041421D01*
X66127000Y84933316D01*
X66136954Y84957348D01*
X66542652Y85363046D01*
X66566684Y85373000D01*
X97933316Y85373000D01*
X97957348Y85363046D01*
G37*
X97957348Y85363046D02*
X98863046Y84457348D01*
X98873000Y84433316D01*
X98873000Y40066684D01*
X98863046Y40042652D01*
X98335146Y39514752D01*
X98269231Y39549984D01*
X98198521Y39579273D01*
X98080901Y39614952D01*
X97958579Y39627000D01*
X95627000Y39627000D01*
X95627000Y41397230D01*
X95645455Y41458069D01*
X95661404Y41620000D01*
X95645455Y41781931D01*
X95627000Y41842770D01*
X95627000Y47233182D01*
X96642764Y48248945D01*
X96685765Y48284235D01*
X96721055Y48327236D01*
X96721058Y48327239D01*
X96826600Y48455843D01*
X96931250Y48651629D01*
X96953865Y48726179D01*
X96976103Y48732925D01*
X97085028Y48791147D01*
X97180501Y48869499D01*
X97258853Y48964972D01*
X97317075Y49073897D01*
X97352927Y49192087D01*
X97365033Y49315000D01*
X97365033Y51015000D01*
X97352927Y51137913D01*
X97317075Y51256103D01*
X97258853Y51365028D01*
X97180501Y51460501D01*
X97085028Y51538853D01*
X96976103Y51597075D01*
X96857913Y51632927D01*
X96735000Y51645033D01*
X95035000Y51645033D01*
X94912087Y51632927D01*
X94793897Y51597075D01*
X94684972Y51538853D01*
X94589499Y51460501D01*
X94511147Y51365028D01*
X94452925Y51256103D01*
X94417073Y51137913D01*
X94404967Y51015000D01*
X94404967Y49774639D01*
X93655033Y50524573D01*
X93655033Y50595000D01*
X93638123Y50766686D01*
X93627000Y50803354D01*
X93627000Y52436646D01*
X93638123Y52473314D01*
X93655033Y52645000D01*
X93655033Y53570000D01*
X93638123Y53741686D01*
X93627000Y53778354D01*
X93627000Y54458579D01*
X93624560Y54483355D01*
X93617333Y54507180D01*
X93588044Y54577890D01*
X93576308Y54599846D01*
X93560514Y54619092D01*
X92702000Y55477606D01*
X92702000Y55570777D01*
X92706848Y55620000D01*
X92687502Y55816427D01*
X92630206Y56005304D01*
X92619460Y56025408D01*
X92537164Y56179375D01*
X92411949Y56331949D01*
X92373709Y56363332D01*
X91943332Y56793709D01*
X91911949Y56831949D01*
X91759375Y56957164D01*
X91585304Y57050206D01*
X91396426Y57107502D01*
X91249223Y57122000D01*
X91249216Y57122000D01*
X91200000Y57126847D01*
X91150784Y57122000D01*
X89249215Y57122000D01*
X89199999Y57126847D01*
X89150783Y57122000D01*
X89150777Y57122000D01*
X89023612Y57109476D01*
X89003573Y57107502D01*
X88959613Y57094166D01*
X88814696Y57050206D01*
X88640625Y56957164D01*
X88488051Y56831949D01*
X88456668Y56793709D01*
X87931286Y56268327D01*
X87893052Y56236949D01*
X87861674Y56198715D01*
X87767837Y56084375D01*
X87674794Y55910303D01*
X87617498Y55721426D01*
X87614841Y55694447D01*
X87557348Y55636954D01*
X87533316Y55627000D01*
X85866684Y55627000D01*
X85842652Y55636954D01*
X85793899Y55685707D01*
X85782502Y55801426D01*
X85725206Y55990304D01*
X85632164Y56164375D01*
X85506949Y56316949D01*
X85468709Y56348332D01*
X85143332Y56673709D01*
X85111949Y56711949D01*
X84959375Y56837164D01*
X84785304Y56930206D01*
X84596426Y56987502D01*
X84449223Y57002000D01*
X84449216Y57002000D01*
X84400000Y57006847D01*
X84350784Y57002000D01*
X82318265Y57002000D01*
X82215597Y57104668D01*
X82188133Y57138133D01*
X82054592Y57247727D01*
X81902237Y57329162D01*
X81736922Y57379310D01*
X81608079Y57392000D01*
X81565000Y57396243D01*
X81521921Y57392000D01*
X78312374Y57392000D01*
X78302927Y57487913D01*
X78267075Y57606103D01*
X78208853Y57715028D01*
X78130501Y57810501D01*
X78035028Y57888853D01*
X77926103Y57947075D01*
X77807913Y57982927D01*
X77685000Y57995033D01*
X75985000Y57995033D01*
X75862087Y57982927D01*
X75743897Y57947075D01*
X75634972Y57888853D01*
X75539499Y57810501D01*
X75461147Y57715028D01*
X75402925Y57606103D01*
X75367073Y57487913D01*
X75354967Y57365000D01*
X75354967Y55665000D01*
X75367073Y55542087D01*
X75402925Y55423897D01*
X75461147Y55314972D01*
X75539499Y55219499D01*
X75634972Y55141147D01*
X75743897Y55082925D01*
X75862087Y55047073D01*
X75985000Y55034967D01*
X77685000Y55034967D01*
X77807913Y55047073D01*
X77926103Y55082925D01*
X78035028Y55141147D01*
X78130501Y55219499D01*
X78208853Y55314972D01*
X78267075Y55423897D01*
X78302927Y55542087D01*
X78312374Y55638000D01*
X80345771Y55638000D01*
X80288226Y55620544D01*
X80136080Y55539221D01*
X80002723Y55429777D01*
X79893279Y55296420D01*
X79811956Y55144274D01*
X79761877Y54979186D01*
X79744967Y54807500D01*
X79744967Y53882500D01*
X79761877Y53710814D01*
X79811956Y53545726D01*
X79873000Y53431520D01*
X79873000Y52283480D01*
X79811956Y52169274D01*
X79761877Y52004186D01*
X79744967Y51832500D01*
X79744967Y50924573D01*
X79007927Y50187533D01*
X78125000Y50187533D01*
X77953314Y50170623D01*
X77788226Y50120544D01*
X77636080Y50039221D01*
X77502723Y49929777D01*
X77393279Y49796420D01*
X77311956Y49644274D01*
X77261877Y49479186D01*
X77244967Y49307500D01*
X77244967Y48382500D01*
X77261877Y48210814D01*
X77311956Y48045726D01*
X77373000Y47931520D01*
X77373000Y46783480D01*
X77311956Y46669274D01*
X77261877Y46504186D01*
X77244967Y46332500D01*
X77244967Y45407500D01*
X77261877Y45235814D01*
X77310053Y45077000D01*
X76668421Y45077000D01*
X76539592Y45182727D01*
X76387237Y45264162D01*
X76221922Y45314310D01*
X76093079Y45327000D01*
X76050000Y45331243D01*
X76006921Y45327000D01*
X75772374Y45327000D01*
X75762927Y45422913D01*
X75727075Y45541103D01*
X75668853Y45650028D01*
X75590501Y45745501D01*
X75495028Y45823853D01*
X75386103Y45882075D01*
X75267913Y45917927D01*
X75145000Y45930033D01*
X73445000Y45930033D01*
X73322087Y45917927D01*
X73203897Y45882075D01*
X73094972Y45823853D01*
X72999499Y45745501D01*
X72921147Y45650028D01*
X72862925Y45541103D01*
X72827073Y45422913D01*
X72814967Y45300000D01*
X72814967Y43627000D01*
X60066684Y43627000D01*
X60042652Y43636954D01*
X59136954Y44542652D01*
X59127000Y44566684D01*
X59127000Y60420000D01*
X60869967Y60420000D01*
X60869967Y56420000D01*
X60882073Y56297087D01*
X60917925Y56178897D01*
X60976147Y56069972D01*
X61054499Y55974499D01*
X61149972Y55896147D01*
X61258897Y55837925D01*
X61377087Y55802073D01*
X61500000Y55789967D01*
X65500000Y55789967D01*
X65622913Y55802073D01*
X65741103Y55837925D01*
X65850028Y55896147D01*
X65945501Y55974499D01*
X66023853Y56069972D01*
X66082075Y56178897D01*
X66117927Y56297087D01*
X66130033Y56420000D01*
X66130033Y60420000D01*
X66117927Y60542913D01*
X66082075Y60661103D01*
X66023853Y60770028D01*
X65945501Y60865501D01*
X65850028Y60943853D01*
X65741103Y61002075D01*
X65622913Y61037927D01*
X65500000Y61050033D01*
X61500000Y61050033D01*
X61377087Y61037927D01*
X61258897Y61002075D01*
X61149972Y60943853D01*
X61054499Y60865501D01*
X60976147Y60770028D01*
X60917925Y60661103D01*
X60882073Y60542913D01*
X60869967Y60420000D01*
X59127000Y60420000D01*
X59127000Y75985000D01*
X62956418Y75985000D01*
X62962732Y75920897D01*
X62981430Y75859257D01*
X63011794Y75802450D01*
X63052657Y75752657D01*
X63102450Y75711794D01*
X63159257Y75681430D01*
X63220897Y75662732D01*
X63285000Y75656418D01*
X63680250Y75658000D01*
X63762000Y75739750D01*
X63762000Y76462000D01*
X64508000Y76462000D01*
X64508000Y75739750D01*
X64589750Y75658000D01*
X64985000Y75656418D01*
X65049103Y75662732D01*
X65110743Y75681430D01*
X65167550Y75711794D01*
X65217343Y75752657D01*
X65258206Y75802450D01*
X65288570Y75859257D01*
X65307268Y75920897D01*
X65313582Y75985000D01*
X65312000Y76380250D01*
X65230250Y76462000D01*
X64508000Y76462000D01*
X63762000Y76462000D01*
X63039750Y76462000D01*
X62958000Y76380250D01*
X62956418Y75985000D01*
X59127000Y75985000D01*
X59127000Y77093737D01*
X76273000Y77093737D01*
X76273000Y76576263D01*
X76373954Y76068732D01*
X76571983Y75590649D01*
X76859476Y75160385D01*
X77225385Y74794476D01*
X77655649Y74506983D01*
X78133732Y74308954D01*
X78641263Y74208000D01*
X79158737Y74208000D01*
X79666268Y74308954D01*
X80144351Y74506983D01*
X80574615Y74794476D01*
X80615139Y74835000D01*
X86571418Y74835000D01*
X86577732Y74770897D01*
X86596430Y74709257D01*
X86626794Y74652450D01*
X86667657Y74602657D01*
X86717450Y74561794D01*
X86774257Y74531430D01*
X86835897Y74512732D01*
X86900000Y74506418D01*
X88445250Y74508000D01*
X88527000Y74589750D01*
X88527000Y76462000D01*
X89273000Y76462000D01*
X89273000Y74589750D01*
X89354750Y74508000D01*
X90900000Y74506418D01*
X90964103Y74512732D01*
X91025743Y74531430D01*
X91082550Y74561794D01*
X91132343Y74602657D01*
X91173206Y74652450D01*
X91203570Y74709257D01*
X91222268Y74770897D01*
X91228582Y74835000D01*
X91227000Y76380250D01*
X91145250Y76462000D01*
X89273000Y76462000D01*
X88527000Y76462000D01*
X86654750Y76462000D01*
X86573000Y76380250D01*
X86571418Y74835000D01*
X80615139Y74835000D01*
X80940524Y75160385D01*
X81228017Y75590649D01*
X81426046Y76068732D01*
X81527000Y76576263D01*
X81527000Y77093737D01*
X81426046Y77601268D01*
X81228017Y78079351D01*
X80940524Y78509615D01*
X80615139Y78835000D01*
X86571418Y78835000D01*
X86573000Y77289750D01*
X86654750Y77208000D01*
X88527000Y77208000D01*
X88527000Y79080250D01*
X89273000Y79080250D01*
X89273000Y77208000D01*
X91145250Y77208000D01*
X91227000Y77289750D01*
X91228582Y78835000D01*
X91222268Y78899103D01*
X91203570Y78960743D01*
X91173206Y79017550D01*
X91132343Y79067343D01*
X91082550Y79108206D01*
X91025743Y79138570D01*
X90964103Y79157268D01*
X90900000Y79163582D01*
X89354750Y79162000D01*
X89273000Y79080250D01*
X88527000Y79080250D01*
X88445250Y79162000D01*
X86900000Y79163582D01*
X86835897Y79157268D01*
X86774257Y79138570D01*
X86717450Y79108206D01*
X86667657Y79067343D01*
X86626794Y79017550D01*
X86596430Y78960743D01*
X86577732Y78899103D01*
X86571418Y78835000D01*
X80615139Y78835000D01*
X80574615Y78875524D01*
X80144351Y79163017D01*
X79666268Y79361046D01*
X79158737Y79462000D01*
X78641263Y79462000D01*
X78133732Y79361046D01*
X77655649Y79163017D01*
X77225385Y78875524D01*
X76859476Y78509615D01*
X76571983Y78079351D01*
X76373954Y77601268D01*
X76273000Y77093737D01*
X59127000Y77093737D01*
X59127000Y77685000D01*
X62956418Y77685000D01*
X62958000Y77289750D01*
X63039750Y77208000D01*
X63762000Y77208000D01*
X63762000Y77930250D01*
X64508000Y77930250D01*
X64508000Y77208000D01*
X65230250Y77208000D01*
X65312000Y77289750D01*
X65313582Y77685000D01*
X65307268Y77749103D01*
X65288570Y77810743D01*
X65258206Y77867550D01*
X65217343Y77917343D01*
X65167550Y77958206D01*
X65110743Y77988570D01*
X65049103Y78007268D01*
X64985000Y78013582D01*
X64589750Y78012000D01*
X64508000Y77930250D01*
X63762000Y77930250D01*
X63680250Y78012000D01*
X63285000Y78013582D01*
X63220897Y78007268D01*
X63159257Y77988570D01*
X63102450Y77958206D01*
X63052657Y77917343D01*
X63011794Y77867550D01*
X62981430Y77810743D01*
X62962732Y77749103D01*
X62956418Y77685000D01*
X59127000Y77685000D01*
X59127000Y79933316D01*
X59136954Y79957348D01*
X60042652Y80863046D01*
X60066684Y80873000D01*
X64958579Y80873000D01*
X64983355Y80875440D01*
X65007180Y80882667D01*
X65077890Y80911956D01*
X65099846Y80923692D01*
X65119092Y80939486D01*
X66060514Y81880908D01*
X66076308Y81900154D01*
X66088044Y81922110D01*
X66117333Y81992820D01*
X66124560Y82016645D01*
X66127000Y82041421D01*
X66127000Y84933316D01*
X66136954Y84957348D01*
X66542652Y85363046D01*
X66566684Y85373000D01*
X97933316Y85373000D01*
X97957348Y85363046D01*
%TD*%
M02*
