%TF.GenerationSoftware,KiCad,Pcbnew,(5.1.6)-1*%
%TF.CreationDate,2021-04-18T17:59:39-07:00*%
%TF.ProjectId,pwr_supply,7077725f-7375-4707-906c-792e6b696361,rev?*%
%TF.SameCoordinates,Original*%
%TF.FileFunction,Copper,L2,Bot*%
%TF.FilePolarity,Positive*%
%FSLAX46Y46*%
G04 Gerber Fmt 4.6, Leading zero omitted, Abs format (unit mm)*
G04 Created by KiCad (PCBNEW (5.1.6)-1) date 2021-04-18 17:59:39*
%MOMM*%
%LPD*%
G01*
G04 APERTURE LIST*
%TA.AperFunction,ComponentPad*%
%ADD10R,4.000000X4.000000*%
%TD*%
%TA.AperFunction,ComponentPad*%
%ADD11C,4.000000*%
%TD*%
%TA.AperFunction,ComponentPad*%
%ADD12R,2.400000X2.400000*%
%TD*%
%TA.AperFunction,ComponentPad*%
%ADD13C,2.400000*%
%TD*%
%TA.AperFunction,ComponentPad*%
%ADD14C,2.000000*%
%TD*%
%TA.AperFunction,ComponentPad*%
%ADD15R,2.000000X2.000000*%
%TD*%
%TA.AperFunction,ComponentPad*%
%ADD16R,3.350000X2.000000*%
%TD*%
%TA.AperFunction,ComponentPad*%
%ADD17R,3.000000X3.000000*%
%TD*%
%TA.AperFunction,ComponentPad*%
%ADD18C,3.000000*%
%TD*%
%TA.AperFunction,ComponentPad*%
%ADD19C,2.500000*%
%TD*%
%TA.AperFunction,ComponentPad*%
%ADD20C,1.800000*%
%TD*%
%TA.AperFunction,ComponentPad*%
%ADD21R,1.700000X1.700000*%
%TD*%
%TA.AperFunction,ViaPad*%
%ADD22C,1.500000*%
%TD*%
%TA.AperFunction,ViaPad*%
%ADD23C,2.540000*%
%TD*%
%TA.AperFunction,ViaPad*%
%ADD24C,0.800000*%
%TD*%
%TA.AperFunction,Conductor*%
%ADD25C,0.250000*%
%TD*%
%TA.AperFunction,Conductor*%
%ADD26C,0.500000*%
%TD*%
%TA.AperFunction,Conductor*%
%ADD27C,1.000000*%
%TD*%
%TA.AperFunction,Conductor*%
%ADD28C,0.254000*%
%TD*%
G04 APERTURE END LIST*
D10*
%TO.P,C1,1*%
%TO.N,/rect_ac_+*%
X88900000Y76835000D03*
D11*
%TO.P,C1,2*%
%TO.N,GND*%
X78900000Y76835000D03*
%TD*%
%TO.P,C2,2*%
%TO.N,/rect_ac_+*%
%TA.AperFunction,SMDPad,CuDef*%
G36*
G01*
X87775000Y56145000D02*
X85625000Y56145000D01*
G75*
G02*
X85375000Y56395000I0J250000D01*
G01*
X85375000Y57320000D01*
G75*
G02*
X85625000Y57570000I250000J0D01*
G01*
X87775000Y57570000D01*
G75*
G02*
X88025000Y57320000I0J-250000D01*
G01*
X88025000Y56395000D01*
G75*
G02*
X87775000Y56145000I-250000J0D01*
G01*
G37*
%TD.AperFunction*%
%TO.P,C2,1*%
%TO.N,GND*%
%TA.AperFunction,SMDPad,CuDef*%
G36*
G01*
X87775000Y53170000D02*
X85625000Y53170000D01*
G75*
G02*
X85375000Y53420000I0J250000D01*
G01*
X85375000Y54345000D01*
G75*
G02*
X85625000Y54595000I250000J0D01*
G01*
X87775000Y54595000D01*
G75*
G02*
X88025000Y54345000I0J-250000D01*
G01*
X88025000Y53420000D01*
G75*
G02*
X87775000Y53170000I-250000J0D01*
G01*
G37*
%TD.AperFunction*%
%TD*%
%TO.P,C3,1*%
%TO.N,Net-(C3-Pad1)*%
%TA.AperFunction,SMDPad,CuDef*%
G36*
G01*
X80275000Y42182500D02*
X78125000Y42182500D01*
G75*
G02*
X77875000Y42432500I0J250000D01*
G01*
X77875000Y43357500D01*
G75*
G02*
X78125000Y43607500I250000J0D01*
G01*
X80275000Y43607500D01*
G75*
G02*
X80525000Y43357500I0J-250000D01*
G01*
X80525000Y42432500D01*
G75*
G02*
X80275000Y42182500I-250000J0D01*
G01*
G37*
%TD.AperFunction*%
%TO.P,C3,2*%
%TO.N,GND*%
%TA.AperFunction,SMDPad,CuDef*%
G36*
G01*
X80275000Y45157500D02*
X78125000Y45157500D01*
G75*
G02*
X77875000Y45407500I0J250000D01*
G01*
X77875000Y46332500D01*
G75*
G02*
X78125000Y46582500I250000J0D01*
G01*
X80275000Y46582500D01*
G75*
G02*
X80525000Y46332500I0J-250000D01*
G01*
X80525000Y45407500D01*
G75*
G02*
X80275000Y45157500I-250000J0D01*
G01*
G37*
%TD.AperFunction*%
%TD*%
%TO.P,C5,2*%
%TO.N,GND*%
%TA.AperFunction,SMDPad,CuDef*%
G36*
G01*
X82912500Y47695000D02*
X82912500Y45545000D01*
G75*
G02*
X82662500Y45295000I-250000J0D01*
G01*
X81737500Y45295000D01*
G75*
G02*
X81487500Y45545000I0J250000D01*
G01*
X81487500Y47695000D01*
G75*
G02*
X81737500Y47945000I250000J0D01*
G01*
X82662500Y47945000D01*
G75*
G02*
X82912500Y47695000I0J-250000D01*
G01*
G37*
%TD.AperFunction*%
%TO.P,C5,1*%
%TO.N,Net-(C5-Pad1)*%
%TA.AperFunction,SMDPad,CuDef*%
G36*
G01*
X85887500Y47695000D02*
X85887500Y45545000D01*
G75*
G02*
X85637500Y45295000I-250000J0D01*
G01*
X84712500Y45295000D01*
G75*
G02*
X84462500Y45545000I0J250000D01*
G01*
X84462500Y47695000D01*
G75*
G02*
X84712500Y47945000I250000J0D01*
G01*
X85637500Y47945000D01*
G75*
G02*
X85887500Y47695000I0J-250000D01*
G01*
G37*
%TD.AperFunction*%
%TD*%
D12*
%TO.P,C7,1*%
%TO.N,15VDC*%
X71500000Y35500000D03*
D13*
%TO.P,C7,2*%
%TO.N,GND*%
X64000000Y35500000D03*
%TD*%
D14*
%TO.P,D1,4*%
%TO.N,/rect_ac_-*%
X49000000Y83000000D03*
%TO.P,D1,3*%
%TO.N,/lowside_ac_2*%
X54000000Y83000000D03*
%TO.P,D1,2*%
%TO.N,/lowside_ac_1*%
X59000000Y83000000D03*
D15*
%TO.P,D1,1*%
%TO.N,/rect_ac_+*%
X64000000Y83000000D03*
%TD*%
D16*
%TO.P,IC1,9*%
%TO.N,GND*%
X86700000Y51620000D03*
%TD*%
D17*
%TO.P,J1,1*%
%TO.N,Net-(J1-Pad1)*%
X6000000Y95000000D03*
D18*
%TO.P,J1,2*%
%TO.N,Net-(F1-Pad1)*%
X6000000Y89920000D03*
%TD*%
%TO.P,J2,2*%
%TO.N,15VDC*%
X93345000Y5080000D03*
D17*
%TO.P,J2,1*%
%TO.N,GND*%
X88265000Y5080000D03*
%TD*%
%TO.P,J3,1*%
%TO.N,GND*%
X22225000Y17780000D03*
D18*
%TO.P,J3,2*%
%TO.N,-15VDC*%
X27305000Y17780000D03*
%TD*%
%TO.P,J4,2*%
%TO.N,15VDC*%
X45085000Y17780000D03*
D17*
%TO.P,J4,1*%
%TO.N,-15VDC*%
X40005000Y17780000D03*
%TD*%
%TO.P,J5,1*%
%TO.N,GND*%
X88265000Y17780000D03*
D18*
%TO.P,J5,2*%
%TO.N,15VDC*%
X93345000Y17780000D03*
%TD*%
%TO.P,J6,2*%
%TO.N,-15VDC*%
X27305000Y5080000D03*
D17*
%TO.P,J6,1*%
%TO.N,GND*%
X22225000Y5080000D03*
%TD*%
%TO.P,J7,1*%
%TO.N,-15VDC*%
X55245000Y5080000D03*
D18*
%TO.P,J7,2*%
%TO.N,15VDC*%
X60325000Y5080000D03*
%TD*%
D17*
%TO.P,J8,1*%
%TO.N,GND*%
X73025000Y5080000D03*
D18*
%TO.P,J8,2*%
%TO.N,15VDC*%
X78105000Y5080000D03*
%TD*%
%TO.P,J9,2*%
%TO.N,-15VDC*%
X12065000Y5080000D03*
D17*
%TO.P,J9,1*%
%TO.N,GND*%
X6985000Y5080000D03*
%TD*%
%TO.P,J10,1*%
%TO.N,-15VDC*%
X55245000Y17780000D03*
D18*
%TO.P,J10,2*%
%TO.N,15VDC*%
X60325000Y17780000D03*
%TD*%
%TO.P,J11,2*%
%TO.N,15VDC*%
X78105000Y17780000D03*
D17*
%TO.P,J11,1*%
%TO.N,GND*%
X73025000Y17780000D03*
%TD*%
%TO.P,J12,1*%
%TO.N,GND*%
X6985000Y17780000D03*
D18*
%TO.P,J12,2*%
%TO.N,-15VDC*%
X12065000Y17780000D03*
%TD*%
%TO.P,J13,2*%
%TO.N,15VDC*%
X45085000Y5080000D03*
D17*
%TO.P,J13,1*%
%TO.N,-15VDC*%
X40005000Y5080000D03*
%TD*%
D19*
%TO.P,L1,4*%
%TO.N,15VDC*%
X90871573Y38791573D03*
%TO.P,L1,3*%
%TO.N,Net-(C4-Pad1)*%
X90871573Y44448427D03*
%TO.P,L1,2*%
%TO.N,15VDC*%
%TA.AperFunction,ComponentPad*%
G36*
G01*
X88184567Y42892792D02*
X89315938Y41761421D01*
G75*
G02*
X89315938Y41478579I-141421J-141421D01*
G01*
X88184567Y40347208D01*
G75*
G02*
X87901725Y40347208I-141421J141421D01*
G01*
X86770354Y41478579D01*
G75*
G02*
X86770354Y41761421I141421J141421D01*
G01*
X87901725Y42892792D01*
G75*
G02*
X88184567Y42892792I141421J-141421D01*
G01*
G37*
%TD.AperFunction*%
%TO.P,L1,1*%
%TO.N,Net-(C4-Pad1)*%
%TA.AperFunction,ComponentPad*%
G36*
G01*
X93841421Y42892792D02*
X94972792Y41761421D01*
G75*
G02*
X94972792Y41478579I-141421J-141421D01*
G01*
X93841421Y40347208D01*
G75*
G02*
X93558579Y40347208I-141421J141421D01*
G01*
X92427208Y41478579D01*
G75*
G02*
X92427208Y41761421I141421J141421D01*
G01*
X93558579Y42892792D01*
G75*
G02*
X93841421Y42892792I141421J-141421D01*
G01*
G37*
%TD.AperFunction*%
%TD*%
%TO.P,R2,2*%
%TO.N,Net-(C3-Pad1)*%
%TA.AperFunction,SMDPad,CuDef*%
G36*
G01*
X82925000Y44195000D02*
X82925000Y42045000D01*
G75*
G02*
X82675000Y41795000I-250000J0D01*
G01*
X81750000Y41795000D01*
G75*
G02*
X81500000Y42045000I0J250000D01*
G01*
X81500000Y44195000D01*
G75*
G02*
X81750000Y44445000I250000J0D01*
G01*
X82675000Y44445000D01*
G75*
G02*
X82925000Y44195000I0J-250000D01*
G01*
G37*
%TD.AperFunction*%
%TO.P,R2,1*%
%TO.N,Net-(C5-Pad1)*%
%TA.AperFunction,SMDPad,CuDef*%
G36*
G01*
X85900000Y44195000D02*
X85900000Y42045000D01*
G75*
G02*
X85650000Y41795000I-250000J0D01*
G01*
X84725000Y41795000D01*
G75*
G02*
X84475000Y42045000I0J250000D01*
G01*
X84475000Y44195000D01*
G75*
G02*
X84725000Y44445000I250000J0D01*
G01*
X85650000Y44445000D01*
G75*
G02*
X85900000Y44195000I0J-250000D01*
G01*
G37*
%TD.AperFunction*%
%TD*%
D20*
%TO.P,RV1,1*%
%TO.N,Net-(F1-Pad2)*%
X22000000Y86000000D03*
%TO.P,RV1,2*%
%TO.N,Net-(J1-Pad1)*%
X23300000Y93500000D03*
%TD*%
D10*
%TO.P,C8,1*%
%TO.N,GND*%
X63500000Y58420000D03*
D11*
%TO.P,C8,2*%
%TO.N,/rect_ac_-*%
X53500000Y58420000D03*
%TD*%
D12*
%TO.P,C10,1*%
%TO.N,GND*%
X53000000Y35500000D03*
D13*
%TO.P,C10,2*%
%TO.N,-15VDC*%
X45500000Y35500000D03*
%TD*%
D21*
%TO.P,TP1,1*%
%TO.N,/rect_ac_+*%
X64135000Y76835000D03*
%TD*%
%TO.P,TP3,1*%
%TO.N,/rect_ac_-*%
X48895000Y76200000D03*
%TD*%
%TO.P,TP4,1*%
%TO.N,Net-(IC1-Pad4)*%
X76835000Y56515000D03*
%TD*%
%TO.P,TP5,1*%
%TO.N,Net-(C3-Pad1)*%
X79375000Y34925000D03*
%TD*%
%TO.P,TP7,1*%
%TO.N,Net-(C4-Pad1)*%
X95885000Y50165000D03*
%TD*%
%TO.P,TP8,1*%
%TO.N,Net-(C6-Pad2)*%
X74295000Y44450000D03*
%TD*%
%TO.P,TP9,1*%
%TO.N,Net-(C5-Pad1)*%
X83820000Y34925000D03*
%TD*%
%TO.P,T1,1*%
%TO.N,Net-(F1-Pad2)*%
%TA.AperFunction,ComponentPad*%
G36*
G01*
X32700000Y80000000D02*
X29300000Y80000000D01*
G75*
G02*
X29000000Y80300000I0J300000D01*
G01*
X29000000Y82700000D01*
G75*
G02*
X29300000Y83000000I300000J0D01*
G01*
X32700000Y83000000D01*
G75*
G02*
X33000000Y82700000I0J-300000D01*
G01*
X33000000Y80300000D01*
G75*
G02*
X32700000Y80000000I-300000J0D01*
G01*
G37*
%TD.AperFunction*%
%TO.P,T1,2*%
%TO.N,Net-(J1-Pad1)*%
%TA.AperFunction,ComponentPad*%
G36*
G01*
X32700000Y93500000D02*
X29300000Y93500000D01*
G75*
G02*
X29000000Y93800000I0J300000D01*
G01*
X29000000Y96200000D01*
G75*
G02*
X29300000Y96500000I300000J0D01*
G01*
X32700000Y96500000D01*
G75*
G02*
X33000000Y96200000I0J-300000D01*
G01*
X33000000Y93800000D01*
G75*
G02*
X32700000Y93500000I-300000J0D01*
G01*
G37*
%TD.AperFunction*%
%TO.P,T1,3*%
%TO.N,/lowside_ac_2*%
%TA.AperFunction,ComponentPad*%
G36*
G01*
X51100000Y93300000D02*
X51100000Y96700000D01*
G75*
G02*
X51400000Y97000000I300000J0D01*
G01*
X53800000Y97000000D01*
G75*
G02*
X54100000Y96700000I0J-300000D01*
G01*
X54100000Y93300000D01*
G75*
G02*
X53800000Y93000000I-300000J0D01*
G01*
X51400000Y93000000D01*
G75*
G02*
X51100000Y93300000I0J300000D01*
G01*
G37*
%TD.AperFunction*%
%TO.P,T1,4*%
%TO.N,GND*%
%TA.AperFunction,ComponentPad*%
G36*
G01*
X67000000Y93300000D02*
X67000000Y96700000D01*
G75*
G02*
X67300000Y97000000I300000J0D01*
G01*
X69700000Y97000000D01*
G75*
G02*
X70000000Y96700000I0J-300000D01*
G01*
X70000000Y93300000D01*
G75*
G02*
X69700000Y93000000I-300000J0D01*
G01*
X67300000Y93000000D01*
G75*
G02*
X67000000Y93300000I0J300000D01*
G01*
G37*
%TD.AperFunction*%
%TO.P,T1,5*%
%TO.N,/lowside_ac_1*%
%TA.AperFunction,ComponentPad*%
G36*
G01*
X58900000Y93300000D02*
X58900000Y96700000D01*
G75*
G02*
X59200000Y97000000I300000J0D01*
G01*
X61600000Y97000000D01*
G75*
G02*
X61900000Y96700000I0J-300000D01*
G01*
X61900000Y93300000D01*
G75*
G02*
X61600000Y93000000I-300000J0D01*
G01*
X59200000Y93000000D01*
G75*
G02*
X58900000Y93300000I0J300000D01*
G01*
G37*
%TD.AperFunction*%
%TD*%
%TO.P,TP2,1*%
%TO.N,GND*%
X28200000Y33700000D03*
%TD*%
%TO.P,TP6,1*%
%TO.N,-15VDC*%
X33700000Y33600000D03*
%TD*%
%TO.P,TP10,1*%
%TO.N,15VDC*%
X95600000Y32800000D03*
%TD*%
D22*
%TO.N,Net-(C5-Pad1)*%
X87240000Y46630000D03*
D23*
%TO.N,/rect_ac_+*%
X86700000Y59620000D03*
D24*
%TO.N,GND*%
X33600000Y39400000D03*
X28800000Y36900000D03*
X27500000Y36900000D03*
X35600000Y39400000D03*
%TD*%
D25*
%TO.N,Net-(C5-Pad1)*%
X85187500Y46607500D02*
X85175000Y46620000D01*
X85187500Y43370000D02*
X85187500Y46607500D01*
D26*
X83820000Y34925000D02*
X83820000Y42820000D01*
X84120000Y43120000D02*
X85187500Y43120000D01*
X83820000Y42820000D02*
X84120000Y43120000D01*
X85175000Y43132500D02*
X85187500Y43120000D01*
X85175000Y46620000D02*
X85175000Y43132500D01*
X85187500Y43120000D02*
X84380000Y43120000D01*
D27*
%TO.N,/rect_ac_+*%
X86950000Y56870000D02*
X86700000Y57120000D01*
X86700000Y56857500D02*
X86700000Y59620000D01*
D25*
%TO.N,Net-(C3-Pad1)*%
X80975000Y42895000D02*
X79200000Y42895000D01*
D26*
X81987500Y42895000D02*
X82212500Y43120000D01*
X79200000Y42895000D02*
X81987500Y42895000D01*
X79200000Y35100000D02*
X79375000Y34925000D01*
X79200000Y42895000D02*
X79200000Y35100000D01*
%TO.N,GND*%
X81380000Y46620000D02*
X82200000Y46620000D01*
X79500000Y47500000D02*
X80500000Y47500000D01*
X80500000Y47500000D02*
X81380000Y46620000D01*
X79200000Y45870000D02*
X79200000Y47200000D01*
X79200000Y47200000D02*
X79500000Y47500000D01*
%TD*%
D28*
%TO.N,Net-(C5-Pad1)*%
G36*
X87322347Y47274390D02*
G01*
X87313638Y45994271D01*
X86790748Y45835000D01*
X85827000Y45835000D01*
X85827000Y47565000D01*
X86305212Y47565000D01*
X87322347Y47274390D01*
G37*
X87322347Y47274390D02*
X87313638Y45994271D01*
X86790748Y45835000D01*
X85827000Y45835000D01*
X85827000Y47565000D01*
X86305212Y47565000D01*
X87322347Y47274390D01*
%TO.N,Net-(F1-Pad2)*%
G36*
X34873000Y85947394D02*
G01*
X34873000Y66052606D01*
X33947394Y65127000D01*
X20052606Y65127000D01*
X19127000Y66052606D01*
X19127000Y85947394D01*
X21052606Y87873000D01*
X32947394Y87873000D01*
X34873000Y85947394D01*
G37*
X34873000Y85947394D02*
X34873000Y66052606D01*
X33947394Y65127000D01*
X20052606Y65127000D01*
X19127000Y66052606D01*
X19127000Y85947394D01*
X21052606Y87873000D01*
X32947394Y87873000D01*
X34873000Y85947394D01*
%TO.N,Net-(F1-Pad1)*%
G36*
X10910197Y89410197D02*
G01*
X10929443Y89394403D01*
X10951399Y89382667D01*
X10975224Y89375440D01*
X11000000Y89373000D01*
X11235820Y89373000D01*
X11270827Y89366068D01*
X11329317Y89353636D01*
X11338471Y89352674D01*
X11338477Y89352673D01*
X11338482Y89352673D01*
X11433146Y89343391D01*
X11467581Y89340000D01*
X14980394Y89340000D01*
X15873000Y88447394D01*
X15873000Y66052606D01*
X14447394Y64627000D01*
X2552606Y64627000D01*
X1127000Y66052606D01*
X1127000Y90447394D01*
X2019606Y91340000D01*
X8980394Y91340000D01*
X10910197Y89410197D01*
G37*
X10910197Y89410197D02*
X10929443Y89394403D01*
X10951399Y89382667D01*
X10975224Y89375440D01*
X11000000Y89373000D01*
X11235820Y89373000D01*
X11270827Y89366068D01*
X11329317Y89353636D01*
X11338471Y89352674D01*
X11338477Y89352673D01*
X11338482Y89352673D01*
X11433146Y89343391D01*
X11467581Y89340000D01*
X14980394Y89340000D01*
X15873000Y88447394D01*
X15873000Y66052606D01*
X14447394Y64627000D01*
X2552606Y64627000D01*
X1127000Y66052606D01*
X1127000Y90447394D01*
X2019606Y91340000D01*
X8980394Y91340000D01*
X10910197Y89410197D01*
%TO.N,Net-(J1-Pad1)*%
G36*
X33957348Y98863046D02*
G01*
X34863046Y97957348D01*
X34873000Y97933316D01*
X34873000Y92066684D01*
X34863046Y92042652D01*
X34457348Y91636954D01*
X34433316Y91627000D01*
X16223497Y91627000D01*
X16169792Y91638415D01*
X16160750Y91639365D01*
X16160744Y91639366D01*
X16160739Y91639366D01*
X16063621Y91648889D01*
X16063607Y91648889D01*
X16032022Y91652000D01*
X12027606Y91652000D01*
X10119092Y93560514D01*
X10099846Y93576308D01*
X10077890Y93588044D01*
X10007180Y93617333D01*
X9983355Y93624560D01*
X9958579Y93627000D01*
X9723491Y93627000D01*
X9669791Y93638414D01*
X9660749Y93639364D01*
X9660743Y93639365D01*
X9660738Y93639365D01*
X9563620Y93648888D01*
X9563618Y93648888D01*
X9532022Y93652000D01*
X2027606Y93652000D01*
X1136954Y94542652D01*
X1127000Y94566684D01*
X1127000Y96933316D01*
X1136954Y96957348D01*
X3042652Y98863046D01*
X3066684Y98873000D01*
X33933316Y98873000D01*
X33957348Y98863046D01*
G37*
X33957348Y98863046D02*
X34863046Y97957348D01*
X34873000Y97933316D01*
X34873000Y92066684D01*
X34863046Y92042652D01*
X34457348Y91636954D01*
X34433316Y91627000D01*
X16223497Y91627000D01*
X16169792Y91638415D01*
X16160750Y91639365D01*
X16160744Y91639366D01*
X16160739Y91639366D01*
X16063621Y91648889D01*
X16063607Y91648889D01*
X16032022Y91652000D01*
X12027606Y91652000D01*
X10119092Y93560514D01*
X10099846Y93576308D01*
X10077890Y93588044D01*
X10007180Y93617333D01*
X9983355Y93624560D01*
X9958579Y93627000D01*
X9723491Y93627000D01*
X9669791Y93638414D01*
X9660749Y93639364D01*
X9660743Y93639365D01*
X9660738Y93639365D01*
X9563620Y93648888D01*
X9563618Y93648888D01*
X9532022Y93652000D01*
X2027606Y93652000D01*
X1136954Y94542652D01*
X1127000Y94566684D01*
X1127000Y96933316D01*
X1136954Y96957348D01*
X3042652Y98863046D01*
X3066684Y98873000D01*
X33933316Y98873000D01*
X33957348Y98863046D01*
%TO.N,GND*%
G36*
X97957348Y98863046D02*
G01*
X98863046Y97957348D01*
X98873000Y97933316D01*
X98873000Y2066684D01*
X98863046Y2042652D01*
X97957348Y1136954D01*
X97933316Y1127000D01*
X2066684Y1127000D01*
X2042652Y1136954D01*
X1136954Y2042652D01*
X1127000Y2066684D01*
X1127000Y5289491D01*
X9938000Y5289491D01*
X9938000Y4870509D01*
X10019739Y4459577D01*
X10180077Y4072488D01*
X10412851Y3724116D01*
X10709116Y3427851D01*
X11057488Y3195077D01*
X11444577Y3034739D01*
X11855509Y2953000D01*
X12274491Y2953000D01*
X12685423Y3034739D01*
X13072512Y3195077D01*
X13420884Y3427851D01*
X13717149Y3724116D01*
X13949923Y4072488D01*
X14110261Y4459577D01*
X14192000Y4870509D01*
X14192000Y5289491D01*
X25178000Y5289491D01*
X25178000Y4870509D01*
X25259739Y4459577D01*
X25420077Y4072488D01*
X25652851Y3724116D01*
X25949116Y3427851D01*
X26297488Y3195077D01*
X26684577Y3034739D01*
X27095509Y2953000D01*
X27514491Y2953000D01*
X27925423Y3034739D01*
X28312512Y3195077D01*
X28660884Y3427851D01*
X28957149Y3724116D01*
X29189923Y4072488D01*
X29350261Y4459577D01*
X29432000Y4870509D01*
X29432000Y5289491D01*
X29350261Y5700423D01*
X29189923Y6087512D01*
X28957149Y6435884D01*
X28813033Y6580000D01*
X37874967Y6580000D01*
X37874967Y3580000D01*
X37887073Y3457087D01*
X37922925Y3338897D01*
X37981147Y3229972D01*
X38059499Y3134499D01*
X38154972Y3056147D01*
X38263897Y2997925D01*
X38382087Y2962073D01*
X38505000Y2949967D01*
X41505000Y2949967D01*
X41627913Y2962073D01*
X41746103Y2997925D01*
X41855028Y3056147D01*
X41950501Y3134499D01*
X42028853Y3229972D01*
X42087075Y3338897D01*
X42122927Y3457087D01*
X42135033Y3580000D01*
X42135033Y5289491D01*
X42958000Y5289491D01*
X42958000Y4870509D01*
X43039739Y4459577D01*
X43200077Y4072488D01*
X43432851Y3724116D01*
X43729116Y3427851D01*
X44077488Y3195077D01*
X44464577Y3034739D01*
X44875509Y2953000D01*
X45294491Y2953000D01*
X45705423Y3034739D01*
X46092512Y3195077D01*
X46440884Y3427851D01*
X46737149Y3724116D01*
X46969923Y4072488D01*
X47130261Y4459577D01*
X47212000Y4870509D01*
X47212000Y5289491D01*
X47130261Y5700423D01*
X46969923Y6087512D01*
X46737149Y6435884D01*
X46593033Y6580000D01*
X53114967Y6580000D01*
X53114967Y3580000D01*
X53127073Y3457087D01*
X53162925Y3338897D01*
X53221147Y3229972D01*
X53299499Y3134499D01*
X53394972Y3056147D01*
X53503897Y2997925D01*
X53622087Y2962073D01*
X53745000Y2949967D01*
X56745000Y2949967D01*
X56867913Y2962073D01*
X56986103Y2997925D01*
X57095028Y3056147D01*
X57190501Y3134499D01*
X57268853Y3229972D01*
X57327075Y3338897D01*
X57362927Y3457087D01*
X57375033Y3580000D01*
X57375033Y5289491D01*
X58198000Y5289491D01*
X58198000Y4870509D01*
X58279739Y4459577D01*
X58440077Y4072488D01*
X58672851Y3724116D01*
X58969116Y3427851D01*
X59317488Y3195077D01*
X59704577Y3034739D01*
X60115509Y2953000D01*
X60534491Y2953000D01*
X60945423Y3034739D01*
X61332512Y3195077D01*
X61680884Y3427851D01*
X61977149Y3724116D01*
X62209923Y4072488D01*
X62370261Y4459577D01*
X62452000Y4870509D01*
X62452000Y5289491D01*
X75978000Y5289491D01*
X75978000Y4870509D01*
X76059739Y4459577D01*
X76220077Y4072488D01*
X76452851Y3724116D01*
X76749116Y3427851D01*
X77097488Y3195077D01*
X77484577Y3034739D01*
X77895509Y2953000D01*
X78314491Y2953000D01*
X78725423Y3034739D01*
X79112512Y3195077D01*
X79460884Y3427851D01*
X79757149Y3724116D01*
X79989923Y4072488D01*
X80150261Y4459577D01*
X80232000Y4870509D01*
X80232000Y5289491D01*
X91218000Y5289491D01*
X91218000Y4870509D01*
X91299739Y4459577D01*
X91460077Y4072488D01*
X91692851Y3724116D01*
X91989116Y3427851D01*
X92337488Y3195077D01*
X92724577Y3034739D01*
X93135509Y2953000D01*
X93554491Y2953000D01*
X93965423Y3034739D01*
X94352512Y3195077D01*
X94700884Y3427851D01*
X94997149Y3724116D01*
X95229923Y4072488D01*
X95390261Y4459577D01*
X95472000Y4870509D01*
X95472000Y5289491D01*
X95390261Y5700423D01*
X95229923Y6087512D01*
X94997149Y6435884D01*
X94700884Y6732149D01*
X94352512Y6964923D01*
X93965423Y7125261D01*
X93554491Y7207000D01*
X93135509Y7207000D01*
X92724577Y7125261D01*
X92337488Y6964923D01*
X91989116Y6732149D01*
X91692851Y6435884D01*
X91460077Y6087512D01*
X91299739Y5700423D01*
X91218000Y5289491D01*
X80232000Y5289491D01*
X80150261Y5700423D01*
X79989923Y6087512D01*
X79757149Y6435884D01*
X79460884Y6732149D01*
X79112512Y6964923D01*
X78725423Y7125261D01*
X78314491Y7207000D01*
X77895509Y7207000D01*
X77484577Y7125261D01*
X77097488Y6964923D01*
X76749116Y6732149D01*
X76452851Y6435884D01*
X76220077Y6087512D01*
X76059739Y5700423D01*
X75978000Y5289491D01*
X62452000Y5289491D01*
X62370261Y5700423D01*
X62209923Y6087512D01*
X61977149Y6435884D01*
X61680884Y6732149D01*
X61332512Y6964923D01*
X60945423Y7125261D01*
X60534491Y7207000D01*
X60115509Y7207000D01*
X59704577Y7125261D01*
X59317488Y6964923D01*
X58969116Y6732149D01*
X58672851Y6435884D01*
X58440077Y6087512D01*
X58279739Y5700423D01*
X58198000Y5289491D01*
X57375033Y5289491D01*
X57375033Y6580000D01*
X57362927Y6702913D01*
X57327075Y6821103D01*
X57268853Y6930028D01*
X57190501Y7025501D01*
X57095028Y7103853D01*
X56986103Y7162075D01*
X56867913Y7197927D01*
X56745000Y7210033D01*
X53745000Y7210033D01*
X53622087Y7197927D01*
X53503897Y7162075D01*
X53394972Y7103853D01*
X53299499Y7025501D01*
X53221147Y6930028D01*
X53162925Y6821103D01*
X53127073Y6702913D01*
X53114967Y6580000D01*
X46593033Y6580000D01*
X46440884Y6732149D01*
X46092512Y6964923D01*
X45705423Y7125261D01*
X45294491Y7207000D01*
X44875509Y7207000D01*
X44464577Y7125261D01*
X44077488Y6964923D01*
X43729116Y6732149D01*
X43432851Y6435884D01*
X43200077Y6087512D01*
X43039739Y5700423D01*
X42958000Y5289491D01*
X42135033Y5289491D01*
X42135033Y6580000D01*
X42122927Y6702913D01*
X42087075Y6821103D01*
X42028853Y6930028D01*
X41950501Y7025501D01*
X41855028Y7103853D01*
X41746103Y7162075D01*
X41627913Y7197927D01*
X41505000Y7210033D01*
X38505000Y7210033D01*
X38382087Y7197927D01*
X38263897Y7162075D01*
X38154972Y7103853D01*
X38059499Y7025501D01*
X37981147Y6930028D01*
X37922925Y6821103D01*
X37887073Y6702913D01*
X37874967Y6580000D01*
X28813033Y6580000D01*
X28660884Y6732149D01*
X28312512Y6964923D01*
X27925423Y7125261D01*
X27514491Y7207000D01*
X27095509Y7207000D01*
X26684577Y7125261D01*
X26297488Y6964923D01*
X25949116Y6732149D01*
X25652851Y6435884D01*
X25420077Y6087512D01*
X25259739Y5700423D01*
X25178000Y5289491D01*
X14192000Y5289491D01*
X14110261Y5700423D01*
X13949923Y6087512D01*
X13717149Y6435884D01*
X13420884Y6732149D01*
X13072512Y6964923D01*
X12685423Y7125261D01*
X12274491Y7207000D01*
X11855509Y7207000D01*
X11444577Y7125261D01*
X11057488Y6964923D01*
X10709116Y6732149D01*
X10412851Y6435884D01*
X10180077Y6087512D01*
X10019739Y5700423D01*
X9938000Y5289491D01*
X1127000Y5289491D01*
X1127000Y17989491D01*
X9938000Y17989491D01*
X9938000Y17570509D01*
X10019739Y17159577D01*
X10180077Y16772488D01*
X10412851Y16424116D01*
X10709116Y16127851D01*
X11057488Y15895077D01*
X11444577Y15734739D01*
X11855509Y15653000D01*
X12274491Y15653000D01*
X12685423Y15734739D01*
X13072512Y15895077D01*
X13420884Y16127851D01*
X13717149Y16424116D01*
X13949923Y16772488D01*
X14110261Y17159577D01*
X14192000Y17570509D01*
X14192000Y17989491D01*
X25178000Y17989491D01*
X25178000Y17570509D01*
X25259739Y17159577D01*
X25420077Y16772488D01*
X25652851Y16424116D01*
X25949116Y16127851D01*
X26297488Y15895077D01*
X26684577Y15734739D01*
X27095509Y15653000D01*
X27514491Y15653000D01*
X27925423Y15734739D01*
X28312512Y15895077D01*
X28660884Y16127851D01*
X28957149Y16424116D01*
X29189923Y16772488D01*
X29350261Y17159577D01*
X29432000Y17570509D01*
X29432000Y17989491D01*
X29350261Y18400423D01*
X29189923Y18787512D01*
X28957149Y19135884D01*
X28813033Y19280000D01*
X37874967Y19280000D01*
X37874967Y16280000D01*
X37887073Y16157087D01*
X37922925Y16038897D01*
X37981147Y15929972D01*
X38059499Y15834499D01*
X38154972Y15756147D01*
X38263897Y15697925D01*
X38382087Y15662073D01*
X38505000Y15649967D01*
X41505000Y15649967D01*
X41627913Y15662073D01*
X41746103Y15697925D01*
X41855028Y15756147D01*
X41950501Y15834499D01*
X42028853Y15929972D01*
X42087075Y16038897D01*
X42122927Y16157087D01*
X42135033Y16280000D01*
X42135033Y17989491D01*
X42958000Y17989491D01*
X42958000Y17570509D01*
X43039739Y17159577D01*
X43200077Y16772488D01*
X43432851Y16424116D01*
X43729116Y16127851D01*
X44077488Y15895077D01*
X44464577Y15734739D01*
X44875509Y15653000D01*
X45294491Y15653000D01*
X45705423Y15734739D01*
X46092512Y15895077D01*
X46440884Y16127851D01*
X46737149Y16424116D01*
X46969923Y16772488D01*
X47130261Y17159577D01*
X47212000Y17570509D01*
X47212000Y17989491D01*
X47130261Y18400423D01*
X46969923Y18787512D01*
X46737149Y19135884D01*
X46593033Y19280000D01*
X53114967Y19280000D01*
X53114967Y16280000D01*
X53127073Y16157087D01*
X53162925Y16038897D01*
X53221147Y15929972D01*
X53299499Y15834499D01*
X53394972Y15756147D01*
X53503897Y15697925D01*
X53622087Y15662073D01*
X53745000Y15649967D01*
X56745000Y15649967D01*
X56867913Y15662073D01*
X56986103Y15697925D01*
X57095028Y15756147D01*
X57190501Y15834499D01*
X57268853Y15929972D01*
X57327075Y16038897D01*
X57362927Y16157087D01*
X57375033Y16280000D01*
X57375033Y17989491D01*
X58198000Y17989491D01*
X58198000Y17570509D01*
X58279739Y17159577D01*
X58440077Y16772488D01*
X58672851Y16424116D01*
X58969116Y16127851D01*
X59317488Y15895077D01*
X59704577Y15734739D01*
X60115509Y15653000D01*
X60534491Y15653000D01*
X60945423Y15734739D01*
X61332512Y15895077D01*
X61680884Y16127851D01*
X61977149Y16424116D01*
X62209923Y16772488D01*
X62370261Y17159577D01*
X62452000Y17570509D01*
X62452000Y17989491D01*
X75978000Y17989491D01*
X75978000Y17570509D01*
X76059739Y17159577D01*
X76220077Y16772488D01*
X76452851Y16424116D01*
X76749116Y16127851D01*
X77097488Y15895077D01*
X77484577Y15734739D01*
X77895509Y15653000D01*
X78314491Y15653000D01*
X78725423Y15734739D01*
X79112512Y15895077D01*
X79460884Y16127851D01*
X79757149Y16424116D01*
X79989923Y16772488D01*
X80150261Y17159577D01*
X80232000Y17570509D01*
X80232000Y17989491D01*
X91218000Y17989491D01*
X91218000Y17570509D01*
X91299739Y17159577D01*
X91460077Y16772488D01*
X91692851Y16424116D01*
X91989116Y16127851D01*
X92337488Y15895077D01*
X92724577Y15734739D01*
X93135509Y15653000D01*
X93554491Y15653000D01*
X93965423Y15734739D01*
X94352512Y15895077D01*
X94700884Y16127851D01*
X94997149Y16424116D01*
X95229923Y16772488D01*
X95390261Y17159577D01*
X95472000Y17570509D01*
X95472000Y17989491D01*
X95390261Y18400423D01*
X95229923Y18787512D01*
X94997149Y19135884D01*
X94700884Y19432149D01*
X94352512Y19664923D01*
X93965423Y19825261D01*
X93554491Y19907000D01*
X93135509Y19907000D01*
X92724577Y19825261D01*
X92337488Y19664923D01*
X91989116Y19432149D01*
X91692851Y19135884D01*
X91460077Y18787512D01*
X91299739Y18400423D01*
X91218000Y17989491D01*
X80232000Y17989491D01*
X80150261Y18400423D01*
X79989923Y18787512D01*
X79757149Y19135884D01*
X79460884Y19432149D01*
X79112512Y19664923D01*
X78725423Y19825261D01*
X78314491Y19907000D01*
X77895509Y19907000D01*
X77484577Y19825261D01*
X77097488Y19664923D01*
X76749116Y19432149D01*
X76452851Y19135884D01*
X76220077Y18787512D01*
X76059739Y18400423D01*
X75978000Y17989491D01*
X62452000Y17989491D01*
X62370261Y18400423D01*
X62209923Y18787512D01*
X61977149Y19135884D01*
X61680884Y19432149D01*
X61332512Y19664923D01*
X60945423Y19825261D01*
X60534491Y19907000D01*
X60115509Y19907000D01*
X59704577Y19825261D01*
X59317488Y19664923D01*
X58969116Y19432149D01*
X58672851Y19135884D01*
X58440077Y18787512D01*
X58279739Y18400423D01*
X58198000Y17989491D01*
X57375033Y17989491D01*
X57375033Y19280000D01*
X57362927Y19402913D01*
X57327075Y19521103D01*
X57268853Y19630028D01*
X57190501Y19725501D01*
X57095028Y19803853D01*
X56986103Y19862075D01*
X56867913Y19897927D01*
X56745000Y19910033D01*
X53745000Y19910033D01*
X53622087Y19897927D01*
X53503897Y19862075D01*
X53394972Y19803853D01*
X53299499Y19725501D01*
X53221147Y19630028D01*
X53162925Y19521103D01*
X53127073Y19402913D01*
X53114967Y19280000D01*
X46593033Y19280000D01*
X46440884Y19432149D01*
X46092512Y19664923D01*
X45705423Y19825261D01*
X45294491Y19907000D01*
X44875509Y19907000D01*
X44464577Y19825261D01*
X44077488Y19664923D01*
X43729116Y19432149D01*
X43432851Y19135884D01*
X43200077Y18787512D01*
X43039739Y18400423D01*
X42958000Y17989491D01*
X42135033Y17989491D01*
X42135033Y19280000D01*
X42122927Y19402913D01*
X42087075Y19521103D01*
X42028853Y19630028D01*
X41950501Y19725501D01*
X41855028Y19803853D01*
X41746103Y19862075D01*
X41627913Y19897927D01*
X41505000Y19910033D01*
X38505000Y19910033D01*
X38382087Y19897927D01*
X38263897Y19862075D01*
X38154972Y19803853D01*
X38059499Y19725501D01*
X37981147Y19630028D01*
X37922925Y19521103D01*
X37887073Y19402913D01*
X37874967Y19280000D01*
X28813033Y19280000D01*
X28660884Y19432149D01*
X28312512Y19664923D01*
X27925423Y19825261D01*
X27514491Y19907000D01*
X27095509Y19907000D01*
X26684577Y19825261D01*
X26297488Y19664923D01*
X25949116Y19432149D01*
X25652851Y19135884D01*
X25420077Y18787512D01*
X25259739Y18400423D01*
X25178000Y17989491D01*
X14192000Y17989491D01*
X14110261Y18400423D01*
X13949923Y18787512D01*
X13717149Y19135884D01*
X13420884Y19432149D01*
X13072512Y19664923D01*
X12685423Y19825261D01*
X12274491Y19907000D01*
X11855509Y19907000D01*
X11444577Y19825261D01*
X11057488Y19664923D01*
X10709116Y19432149D01*
X10412851Y19135884D01*
X10180077Y18787512D01*
X10019739Y18400423D01*
X9938000Y17989491D01*
X1127000Y17989491D01*
X1127000Y34450000D01*
X32219967Y34450000D01*
X32219967Y32750000D01*
X32232073Y32627087D01*
X32267925Y32508897D01*
X32326147Y32399972D01*
X32404499Y32304499D01*
X32499972Y32226147D01*
X32608897Y32167925D01*
X32727087Y32132073D01*
X32850000Y32119967D01*
X34550000Y32119967D01*
X34672913Y32132073D01*
X34791103Y32167925D01*
X34900028Y32226147D01*
X34995501Y32304499D01*
X35073853Y32399972D01*
X35132075Y32508897D01*
X35167927Y32627087D01*
X35180033Y32750000D01*
X35180033Y34450000D01*
X35167927Y34572913D01*
X35132075Y34691103D01*
X35073853Y34800028D01*
X34995501Y34895501D01*
X34900028Y34973853D01*
X34791103Y35032075D01*
X34672913Y35067927D01*
X34550000Y35080033D01*
X32850000Y35080033D01*
X32727087Y35067927D01*
X32608897Y35032075D01*
X32499972Y34973853D01*
X32404499Y34895501D01*
X32326147Y34800028D01*
X32267925Y34691103D01*
X32232073Y34572913D01*
X32219967Y34450000D01*
X1127000Y34450000D01*
X1127000Y35679944D01*
X43673000Y35679944D01*
X43673000Y35320056D01*
X43743211Y34967084D01*
X43880934Y34634591D01*
X44080876Y34335355D01*
X44335355Y34080876D01*
X44634591Y33880934D01*
X44967084Y33743211D01*
X45320056Y33673000D01*
X45679944Y33673000D01*
X46032916Y33743211D01*
X46365409Y33880934D01*
X46664645Y34080876D01*
X46919124Y34335355D01*
X47119066Y34634591D01*
X47256789Y34967084D01*
X47327000Y35320056D01*
X47327000Y35679944D01*
X47256789Y36032916D01*
X47119066Y36365409D01*
X46919124Y36664645D01*
X46883769Y36700000D01*
X69669967Y36700000D01*
X69669967Y34300000D01*
X69682073Y34177087D01*
X69717925Y34058897D01*
X69776147Y33949972D01*
X69854499Y33854499D01*
X69949972Y33776147D01*
X70058897Y33717925D01*
X70177087Y33682073D01*
X70300000Y33669967D01*
X72700000Y33669967D01*
X72822913Y33682073D01*
X72941103Y33717925D01*
X73050028Y33776147D01*
X73145501Y33854499D01*
X73223853Y33949972D01*
X73282075Y34058897D01*
X73317927Y34177087D01*
X73330033Y34300000D01*
X73330033Y36700000D01*
X73317927Y36822913D01*
X73282075Y36941103D01*
X73223853Y37050028D01*
X73145501Y37145501D01*
X73050028Y37223853D01*
X72941103Y37282075D01*
X72822913Y37317927D01*
X72700000Y37330033D01*
X70300000Y37330033D01*
X70177087Y37317927D01*
X70058897Y37282075D01*
X69949972Y37223853D01*
X69854499Y37145501D01*
X69776147Y37050028D01*
X69717925Y36941103D01*
X69682073Y36822913D01*
X69669967Y36700000D01*
X46883769Y36700000D01*
X46664645Y36919124D01*
X46365409Y37119066D01*
X46032916Y37256789D01*
X45679944Y37327000D01*
X45320056Y37327000D01*
X44967084Y37256789D01*
X44634591Y37119066D01*
X44335355Y36919124D01*
X44080876Y36664645D01*
X43880934Y36365409D01*
X43743211Y36032916D01*
X43673000Y35679944D01*
X1127000Y35679944D01*
X1127000Y45300000D01*
X72814967Y45300000D01*
X72814967Y43600000D01*
X72827073Y43477087D01*
X72862925Y43358897D01*
X72921147Y43249972D01*
X72999499Y43154499D01*
X73094972Y43076147D01*
X73203897Y43017925D01*
X73322087Y42982073D01*
X73445000Y42969967D01*
X75145000Y42969967D01*
X75267913Y42982073D01*
X75386103Y43017925D01*
X75495028Y43076147D01*
X75590501Y43154499D01*
X75668853Y43249972D01*
X75726328Y43357500D01*
X77244967Y43357500D01*
X77244967Y42432500D01*
X77261877Y42260814D01*
X77311956Y42095726D01*
X77393279Y41943580D01*
X77502723Y41810223D01*
X77636080Y41700779D01*
X77788226Y41619456D01*
X77953314Y41569377D01*
X78125000Y41552467D01*
X78323000Y41552467D01*
X78323001Y36368937D01*
X78283897Y36357075D01*
X78174972Y36298853D01*
X78079499Y36220501D01*
X78001147Y36125028D01*
X77942925Y36016103D01*
X77907073Y35897913D01*
X77894967Y35775000D01*
X77894967Y34075000D01*
X77907073Y33952087D01*
X77942925Y33833897D01*
X78001147Y33724972D01*
X78079499Y33629499D01*
X78174972Y33551147D01*
X78283897Y33492925D01*
X78402087Y33457073D01*
X78525000Y33444967D01*
X80225000Y33444967D01*
X80347913Y33457073D01*
X80466103Y33492925D01*
X80575028Y33551147D01*
X80670501Y33629499D01*
X80748853Y33724972D01*
X80807075Y33833897D01*
X80842927Y33952087D01*
X80855033Y34075000D01*
X80855033Y35775000D01*
X80842927Y35897913D01*
X80807075Y36016103D01*
X80748853Y36125028D01*
X80670501Y36220501D01*
X80575028Y36298853D01*
X80466103Y36357075D01*
X80347913Y36392927D01*
X80225000Y36405033D01*
X80077000Y36405033D01*
X80077000Y41552467D01*
X80275000Y41552467D01*
X80446686Y41569377D01*
X80611774Y41619456D01*
X80763920Y41700779D01*
X80897277Y41810223D01*
X80903657Y41817997D01*
X80936956Y41708226D01*
X81018279Y41556080D01*
X81127723Y41422723D01*
X81261080Y41313279D01*
X81413226Y41231956D01*
X81578314Y41181877D01*
X81750000Y41164967D01*
X82675000Y41164967D01*
X82846686Y41181877D01*
X82943001Y41211094D01*
X82943000Y36402374D01*
X82847087Y36392927D01*
X82728897Y36357075D01*
X82619972Y36298853D01*
X82524499Y36220501D01*
X82446147Y36125028D01*
X82387925Y36016103D01*
X82352073Y35897913D01*
X82339967Y35775000D01*
X82339967Y34075000D01*
X82352073Y33952087D01*
X82387925Y33833897D01*
X82446147Y33724972D01*
X82524499Y33629499D01*
X82619972Y33551147D01*
X82728897Y33492925D01*
X82847087Y33457073D01*
X82970000Y33444967D01*
X84670000Y33444967D01*
X84792913Y33457073D01*
X84911103Y33492925D01*
X85020028Y33551147D01*
X85115501Y33629499D01*
X85132325Y33650000D01*
X94119967Y33650000D01*
X94119967Y31950000D01*
X94132073Y31827087D01*
X94167925Y31708897D01*
X94226147Y31599972D01*
X94304499Y31504499D01*
X94399972Y31426147D01*
X94508897Y31367925D01*
X94627087Y31332073D01*
X94750000Y31319967D01*
X96450000Y31319967D01*
X96572913Y31332073D01*
X96691103Y31367925D01*
X96800028Y31426147D01*
X96895501Y31504499D01*
X96973853Y31599972D01*
X97032075Y31708897D01*
X97067927Y31827087D01*
X97080033Y31950000D01*
X97080033Y33650000D01*
X97067927Y33772913D01*
X97032075Y33891103D01*
X96973853Y34000028D01*
X96895501Y34095501D01*
X96800028Y34173853D01*
X96691103Y34232075D01*
X96572913Y34267927D01*
X96450000Y34280033D01*
X94750000Y34280033D01*
X94627087Y34267927D01*
X94508897Y34232075D01*
X94399972Y34173853D01*
X94304499Y34095501D01*
X94226147Y34000028D01*
X94167925Y33891103D01*
X94132073Y33772913D01*
X94119967Y33650000D01*
X85132325Y33650000D01*
X85193853Y33724972D01*
X85252075Y33833897D01*
X85287927Y33952087D01*
X85300033Y34075000D01*
X85300033Y35775000D01*
X85287927Y35897913D01*
X85252075Y36016103D01*
X85193853Y36125028D01*
X85115501Y36220501D01*
X85020028Y36298853D01*
X84911103Y36357075D01*
X84792913Y36392927D01*
X84697000Y36402374D01*
X84697000Y38976441D01*
X88994573Y38976441D01*
X88994573Y38606705D01*
X89066705Y38244072D01*
X89208197Y37902480D01*
X89413612Y37595055D01*
X89675055Y37333612D01*
X89982480Y37128197D01*
X90324072Y36986705D01*
X90686705Y36914573D01*
X91056441Y36914573D01*
X91419074Y36986705D01*
X91760666Y37128197D01*
X92068091Y37333612D01*
X92329534Y37595055D01*
X92534949Y37902480D01*
X92676441Y38244072D01*
X92748573Y38606705D01*
X92748573Y38976441D01*
X92676441Y39339074D01*
X92534949Y39680666D01*
X92329534Y39988091D01*
X92068091Y40249534D01*
X91760666Y40454949D01*
X91419074Y40596441D01*
X91056441Y40668573D01*
X90686705Y40668573D01*
X90324072Y40596441D01*
X89982480Y40454949D01*
X89675055Y40249534D01*
X89413612Y39988091D01*
X89208197Y39680666D01*
X89066705Y39339074D01*
X88994573Y38976441D01*
X84697000Y38976441D01*
X84697000Y41167725D01*
X84725000Y41164967D01*
X85650000Y41164967D01*
X85821686Y41181877D01*
X85986774Y41231956D01*
X86138920Y41313279D01*
X86141075Y41315048D01*
X86144924Y41302360D01*
X86221628Y41158858D01*
X86324853Y41033078D01*
X87456224Y39901707D01*
X87582004Y39798482D01*
X87725506Y39721778D01*
X87881215Y39674545D01*
X88043146Y39658596D01*
X88205077Y39674545D01*
X88360786Y39721778D01*
X88504288Y39798482D01*
X88630068Y39901707D01*
X89761439Y41033078D01*
X89864664Y41158858D01*
X89941368Y41302360D01*
X89988601Y41458069D01*
X90004550Y41620000D01*
X91738596Y41620000D01*
X91754545Y41458069D01*
X91801778Y41302360D01*
X91878482Y41158858D01*
X91981707Y41033078D01*
X93113078Y39901707D01*
X93238858Y39798482D01*
X93382360Y39721778D01*
X93538069Y39674545D01*
X93700000Y39658596D01*
X93861931Y39674545D01*
X94017640Y39721778D01*
X94161142Y39798482D01*
X94286922Y39901707D01*
X95418293Y41033078D01*
X95521518Y41158858D01*
X95598222Y41302360D01*
X95645455Y41458069D01*
X95661404Y41620000D01*
X95645455Y41781931D01*
X95598222Y41937640D01*
X95521518Y42081142D01*
X95418293Y42206922D01*
X94286922Y43338293D01*
X94161142Y43441518D01*
X94017640Y43518222D01*
X93861931Y43565455D01*
X93700000Y43581404D01*
X93538069Y43565455D01*
X93382360Y43518222D01*
X93238858Y43441518D01*
X93113078Y43338293D01*
X91981707Y42206922D01*
X91878482Y42081142D01*
X91801778Y41937640D01*
X91754545Y41781931D01*
X91738596Y41620000D01*
X90004550Y41620000D01*
X89988601Y41781931D01*
X89941368Y41937640D01*
X89864664Y42081142D01*
X89761439Y42206922D01*
X88630068Y43338293D01*
X88504288Y43441518D01*
X88360786Y43518222D01*
X88205077Y43565455D01*
X88043146Y43581404D01*
X87881215Y43565455D01*
X87725506Y43518222D01*
X87582004Y43441518D01*
X87456224Y43338293D01*
X86530033Y42412102D01*
X86530033Y44195000D01*
X86513123Y44366686D01*
X86463044Y44531774D01*
X86408781Y44633295D01*
X88994573Y44633295D01*
X88994573Y44263559D01*
X89066705Y43900926D01*
X89208197Y43559334D01*
X89413612Y43251909D01*
X89675055Y42990466D01*
X89982480Y42785051D01*
X90324072Y42643559D01*
X90686705Y42571427D01*
X91056441Y42571427D01*
X91419074Y42643559D01*
X91760666Y42785051D01*
X92068091Y42990466D01*
X92329534Y43251909D01*
X92534949Y43559334D01*
X92676441Y43900926D01*
X92748573Y44263559D01*
X92748573Y44633295D01*
X92676441Y44995928D01*
X92534949Y45337520D01*
X92329534Y45644945D01*
X92068091Y45906388D01*
X91760666Y46111803D01*
X91419074Y46253295D01*
X91056441Y46325427D01*
X90686705Y46325427D01*
X90324072Y46253295D01*
X89982480Y46111803D01*
X89675055Y45906388D01*
X89413612Y45644945D01*
X89208197Y45337520D01*
X89066705Y44995928D01*
X88994573Y44633295D01*
X86408781Y44633295D01*
X86381721Y44683920D01*
X86272277Y44817277D01*
X86201784Y44875129D01*
X86259777Y44922723D01*
X86369221Y45056080D01*
X86378265Y45073000D01*
X88700000Y45073000D01*
X88724776Y45075440D01*
X88748600Y45082667D01*
X88819311Y45111956D01*
X88841268Y45123692D01*
X88860513Y45139486D01*
X88876307Y45158731D01*
X88888044Y45180689D01*
X88917333Y45251400D01*
X88924560Y45275224D01*
X88927000Y45300000D01*
X88927000Y47158579D01*
X88924560Y47183355D01*
X88917333Y47207180D01*
X88888044Y47277890D01*
X88876308Y47299846D01*
X88860514Y47319092D01*
X87919092Y48260514D01*
X87899846Y48276308D01*
X87877890Y48288044D01*
X87807180Y48317333D01*
X87783355Y48324560D01*
X87758579Y48327000D01*
X86247930Y48327000D01*
X86126420Y48426721D01*
X85974274Y48508044D01*
X85809186Y48558123D01*
X85637500Y48575033D01*
X84712500Y48575033D01*
X84540814Y48558123D01*
X84375726Y48508044D01*
X84223580Y48426721D01*
X84102070Y48327000D01*
X83500000Y48327000D01*
X83475224Y48324560D01*
X83451400Y48317333D01*
X83380689Y48288044D01*
X83358732Y48276308D01*
X83339487Y48260514D01*
X83323693Y48241269D01*
X83311956Y48219311D01*
X83273720Y48127000D01*
X83127000Y48127000D01*
X83127000Y48400000D01*
X83124560Y48424776D01*
X83117333Y48448600D01*
X83088044Y48519311D01*
X83076308Y48541268D01*
X83060514Y48560513D01*
X83041269Y48576307D01*
X83019311Y48588044D01*
X82948600Y48617333D01*
X82924776Y48624560D01*
X82900000Y48627000D01*
X81600000Y48627000D01*
X81575224Y48624560D01*
X81551400Y48617333D01*
X81480689Y48588044D01*
X81458732Y48576308D01*
X81439487Y48560514D01*
X81423693Y48541269D01*
X81411956Y48519311D01*
X81382667Y48448600D01*
X81375440Y48424776D01*
X81373000Y48400000D01*
X81373000Y48026466D01*
X81371148Y48015055D01*
X80908630Y46627502D01*
X80908363Y46627139D01*
X80907934Y46627000D01*
X77600000Y46627000D01*
X77575224Y46624560D01*
X77551400Y46617333D01*
X77480689Y46588044D01*
X77458732Y46576308D01*
X77439487Y46560514D01*
X77423693Y46541269D01*
X77411956Y46519311D01*
X77382667Y46448600D01*
X77375440Y46424776D01*
X77373000Y46400000D01*
X77373000Y43808480D01*
X77311956Y43694274D01*
X77261877Y43529186D01*
X77244967Y43357500D01*
X75726328Y43357500D01*
X75727075Y43358897D01*
X75762927Y43477087D01*
X75775033Y43600000D01*
X75775033Y45300000D01*
X75762927Y45422913D01*
X75727075Y45541103D01*
X75668853Y45650028D01*
X75590501Y45745501D01*
X75495028Y45823853D01*
X75386103Y45882075D01*
X75267913Y45917927D01*
X75145000Y45930033D01*
X73445000Y45930033D01*
X73322087Y45917927D01*
X73203897Y45882075D01*
X73094972Y45823853D01*
X72999499Y45745501D01*
X72921147Y45650028D01*
X72862925Y45541103D01*
X72827073Y45422913D01*
X72814967Y45300000D01*
X1127000Y45300000D01*
X1127000Y51015000D01*
X94404967Y51015000D01*
X94404967Y49315000D01*
X94417073Y49192087D01*
X94452925Y49073897D01*
X94511147Y48964972D01*
X94589499Y48869499D01*
X94684972Y48791147D01*
X94793897Y48732925D01*
X94912087Y48697073D01*
X95035000Y48684967D01*
X96735000Y48684967D01*
X96857913Y48697073D01*
X96976103Y48732925D01*
X97085028Y48791147D01*
X97180501Y48869499D01*
X97258853Y48964972D01*
X97317075Y49073897D01*
X97352927Y49192087D01*
X97365033Y49315000D01*
X97365033Y51015000D01*
X97352927Y51137913D01*
X97317075Y51256103D01*
X97258853Y51365028D01*
X97180501Y51460501D01*
X97085028Y51538853D01*
X96976103Y51597075D01*
X96857913Y51632927D01*
X96735000Y51645033D01*
X95035000Y51645033D01*
X94912087Y51632927D01*
X94793897Y51597075D01*
X94684972Y51538853D01*
X94589499Y51460501D01*
X94511147Y51365028D01*
X94452925Y51256103D01*
X94417073Y51137913D01*
X94404967Y51015000D01*
X1127000Y51015000D01*
X1127000Y55933316D01*
X1136954Y55957348D01*
X2042652Y56863046D01*
X2066684Y56873000D01*
X35958579Y56873000D01*
X35983355Y56875440D01*
X36007180Y56882667D01*
X36077890Y56911956D01*
X36099846Y56923692D01*
X36119092Y56939486D01*
X37858343Y58678737D01*
X50873000Y58678737D01*
X50873000Y58161263D01*
X50973954Y57653732D01*
X51171983Y57175649D01*
X51459476Y56745385D01*
X51825385Y56379476D01*
X52255649Y56091983D01*
X52733732Y55893954D01*
X53241263Y55793000D01*
X53758737Y55793000D01*
X54266268Y55893954D01*
X54744351Y56091983D01*
X55174615Y56379476D01*
X55540524Y56745385D01*
X55828017Y57175649D01*
X55906448Y57365000D01*
X75354967Y57365000D01*
X75354967Y55665000D01*
X75367073Y55542087D01*
X75402925Y55423897D01*
X75461147Y55314972D01*
X75539499Y55219499D01*
X75634972Y55141147D01*
X75743897Y55082925D01*
X75862087Y55047073D01*
X75985000Y55034967D01*
X77685000Y55034967D01*
X77807913Y55047073D01*
X77926103Y55082925D01*
X78035028Y55141147D01*
X78130501Y55219499D01*
X78208853Y55314972D01*
X78267075Y55423897D01*
X78302927Y55542087D01*
X78315033Y55665000D01*
X78315033Y57320000D01*
X84744967Y57320000D01*
X84744967Y56395000D01*
X84761877Y56223314D01*
X84811956Y56058226D01*
X84893279Y55906080D01*
X85002723Y55772723D01*
X85136080Y55663279D01*
X85288226Y55581956D01*
X85453314Y55531877D01*
X85625000Y55514967D01*
X87775000Y55514967D01*
X87946686Y55531877D01*
X88111774Y55581956D01*
X88263920Y55663279D01*
X88397277Y55772723D01*
X88506721Y55906080D01*
X88588044Y56058226D01*
X88638123Y56223314D01*
X88655033Y56395000D01*
X88655033Y57320000D01*
X88638123Y57491686D01*
X88588044Y57656774D01*
X88506721Y57808920D01*
X88397277Y57942277D01*
X88263920Y58051721D01*
X88111774Y58133044D01*
X87946686Y58183123D01*
X87945958Y58183195D01*
X88173496Y58410733D01*
X88381100Y58721433D01*
X88524100Y59066665D01*
X88597000Y59433162D01*
X88597000Y59806838D01*
X88524100Y60173335D01*
X88381100Y60518567D01*
X88173496Y60829267D01*
X87909267Y61093496D01*
X87598567Y61301100D01*
X87253335Y61444100D01*
X86886838Y61517000D01*
X86513162Y61517000D01*
X86146665Y61444100D01*
X85801433Y61301100D01*
X85490733Y61093496D01*
X85226504Y60829267D01*
X85018900Y60518567D01*
X84875900Y60173335D01*
X84803000Y59806838D01*
X84803000Y59433162D01*
X84875900Y59066665D01*
X85018900Y58721433D01*
X85226504Y58410733D01*
X85454042Y58183195D01*
X85453314Y58183123D01*
X85288226Y58133044D01*
X85136080Y58051721D01*
X85002723Y57942277D01*
X84893279Y57808920D01*
X84811956Y57656774D01*
X84761877Y57491686D01*
X84744967Y57320000D01*
X78315033Y57320000D01*
X78315033Y57365000D01*
X78302927Y57487913D01*
X78267075Y57606103D01*
X78208853Y57715028D01*
X78130501Y57810501D01*
X78035028Y57888853D01*
X77926103Y57947075D01*
X77807913Y57982927D01*
X77685000Y57995033D01*
X75985000Y57995033D01*
X75862087Y57982927D01*
X75743897Y57947075D01*
X75634972Y57888853D01*
X75539499Y57810501D01*
X75461147Y57715028D01*
X75402925Y57606103D01*
X75367073Y57487913D01*
X75354967Y57365000D01*
X55906448Y57365000D01*
X56026046Y57653732D01*
X56127000Y58161263D01*
X56127000Y58678737D01*
X56026046Y59186268D01*
X55828017Y59664351D01*
X55540524Y60094615D01*
X55174615Y60460524D01*
X54744351Y60748017D01*
X54266268Y60946046D01*
X53758737Y61047000D01*
X53241263Y61047000D01*
X52733732Y60946046D01*
X52255649Y60748017D01*
X51825385Y60460524D01*
X51459476Y60094615D01*
X51171983Y59664351D01*
X50973954Y59186268D01*
X50873000Y58678737D01*
X37858343Y58678737D01*
X43060514Y63880908D01*
X43076308Y63900154D01*
X43088044Y63922110D01*
X43117333Y63992820D01*
X43124560Y64016645D01*
X43127000Y64041421D01*
X43127000Y77050000D01*
X47414967Y77050000D01*
X47414967Y75350000D01*
X47427073Y75227087D01*
X47462925Y75108897D01*
X47521147Y74999972D01*
X47599499Y74904499D01*
X47694972Y74826147D01*
X47803897Y74767925D01*
X47922087Y74732073D01*
X48045000Y74719967D01*
X49745000Y74719967D01*
X49867913Y74732073D01*
X49986103Y74767925D01*
X50095028Y74826147D01*
X50190501Y74904499D01*
X50268853Y74999972D01*
X50327075Y75108897D01*
X50362927Y75227087D01*
X50375033Y75350000D01*
X50375033Y77050000D01*
X50362927Y77172913D01*
X50327075Y77291103D01*
X50268853Y77400028D01*
X50190501Y77495501D01*
X50095028Y77573853D01*
X49986103Y77632075D01*
X49867913Y77667927D01*
X49745000Y77680033D01*
X48045000Y77680033D01*
X47922087Y77667927D01*
X47803897Y77632075D01*
X47694972Y77573853D01*
X47599499Y77495501D01*
X47521147Y77400028D01*
X47462925Y77291103D01*
X47427073Y77172913D01*
X47414967Y77050000D01*
X43127000Y77050000D01*
X43127000Y77685000D01*
X62654967Y77685000D01*
X62654967Y75985000D01*
X62667073Y75862087D01*
X62702925Y75743897D01*
X62761147Y75634972D01*
X62839499Y75539499D01*
X62934972Y75461147D01*
X63043897Y75402925D01*
X63162087Y75367073D01*
X63285000Y75354967D01*
X64985000Y75354967D01*
X65107913Y75367073D01*
X65226103Y75402925D01*
X65335028Y75461147D01*
X65430501Y75539499D01*
X65508853Y75634972D01*
X65567075Y75743897D01*
X65602927Y75862087D01*
X65615033Y75985000D01*
X65615033Y77685000D01*
X65602927Y77807913D01*
X65567075Y77926103D01*
X65508853Y78035028D01*
X65430501Y78130501D01*
X65335028Y78208853D01*
X65226103Y78267075D01*
X65107913Y78302927D01*
X64985000Y78315033D01*
X63285000Y78315033D01*
X63162087Y78302927D01*
X63043897Y78267075D01*
X62934972Y78208853D01*
X62839499Y78130501D01*
X62761147Y78035028D01*
X62702925Y77926103D01*
X62667073Y77807913D01*
X62654967Y77685000D01*
X43127000Y77685000D01*
X43127000Y78835000D01*
X86269967Y78835000D01*
X86269967Y74835000D01*
X86282073Y74712087D01*
X86317925Y74593897D01*
X86376147Y74484972D01*
X86454499Y74389499D01*
X86549972Y74311147D01*
X86658897Y74252925D01*
X86777087Y74217073D01*
X86900000Y74204967D01*
X90900000Y74204967D01*
X91022913Y74217073D01*
X91141103Y74252925D01*
X91250028Y74311147D01*
X91345501Y74389499D01*
X91423853Y74484972D01*
X91482075Y74593897D01*
X91517927Y74712087D01*
X91530033Y74835000D01*
X91530033Y78835000D01*
X91517927Y78957913D01*
X91482075Y79076103D01*
X91423853Y79185028D01*
X91345501Y79280501D01*
X91250028Y79358853D01*
X91141103Y79417075D01*
X91022913Y79452927D01*
X90900000Y79465033D01*
X86900000Y79465033D01*
X86777087Y79452927D01*
X86658897Y79417075D01*
X86549972Y79358853D01*
X86454499Y79280501D01*
X86376147Y79185028D01*
X86317925Y79076103D01*
X86282073Y78957913D01*
X86269967Y78835000D01*
X43127000Y78835000D01*
X43127000Y83160245D01*
X47373000Y83160245D01*
X47373000Y82839755D01*
X47435525Y82525422D01*
X47558172Y82229327D01*
X47736227Y81962848D01*
X47962848Y81736227D01*
X48229327Y81558172D01*
X48525422Y81435525D01*
X48839755Y81373000D01*
X49160245Y81373000D01*
X49474578Y81435525D01*
X49770673Y81558172D01*
X50037152Y81736227D01*
X50263773Y81962848D01*
X50441828Y82229327D01*
X50564475Y82525422D01*
X50627000Y82839755D01*
X50627000Y83160245D01*
X52373000Y83160245D01*
X52373000Y82839755D01*
X52435525Y82525422D01*
X52558172Y82229327D01*
X52736227Y81962848D01*
X52962848Y81736227D01*
X53229327Y81558172D01*
X53525422Y81435525D01*
X53839755Y81373000D01*
X54160245Y81373000D01*
X54474578Y81435525D01*
X54770673Y81558172D01*
X55037152Y81736227D01*
X55263773Y81962848D01*
X55441828Y82229327D01*
X55564475Y82525422D01*
X55627000Y82839755D01*
X55627000Y83160245D01*
X57373000Y83160245D01*
X57373000Y82839755D01*
X57435525Y82525422D01*
X57558172Y82229327D01*
X57736227Y81962848D01*
X57962848Y81736227D01*
X58229327Y81558172D01*
X58525422Y81435525D01*
X58839755Y81373000D01*
X59160245Y81373000D01*
X59474578Y81435525D01*
X59770673Y81558172D01*
X60037152Y81736227D01*
X60263773Y81962848D01*
X60441828Y82229327D01*
X60564475Y82525422D01*
X60627000Y82839755D01*
X60627000Y83160245D01*
X60564475Y83474578D01*
X60441828Y83770673D01*
X60288598Y84000000D01*
X62369967Y84000000D01*
X62369967Y82000000D01*
X62382073Y81877087D01*
X62417925Y81758897D01*
X62476147Y81649972D01*
X62554499Y81554499D01*
X62649972Y81476147D01*
X62758897Y81417925D01*
X62877087Y81382073D01*
X63000000Y81369967D01*
X65000000Y81369967D01*
X65122913Y81382073D01*
X65241103Y81417925D01*
X65350028Y81476147D01*
X65445501Y81554499D01*
X65523853Y81649972D01*
X65582075Y81758897D01*
X65617927Y81877087D01*
X65630033Y82000000D01*
X65630033Y84000000D01*
X65617927Y84122913D01*
X65582075Y84241103D01*
X65523853Y84350028D01*
X65445501Y84445501D01*
X65350028Y84523853D01*
X65241103Y84582075D01*
X65122913Y84617927D01*
X65000000Y84630033D01*
X63000000Y84630033D01*
X62877087Y84617927D01*
X62758897Y84582075D01*
X62649972Y84523853D01*
X62554499Y84445501D01*
X62476147Y84350028D01*
X62417925Y84241103D01*
X62382073Y84122913D01*
X62369967Y84000000D01*
X60288598Y84000000D01*
X60263773Y84037152D01*
X60037152Y84263773D01*
X59770673Y84441828D01*
X59474578Y84564475D01*
X59160245Y84627000D01*
X58839755Y84627000D01*
X58525422Y84564475D01*
X58229327Y84441828D01*
X57962848Y84263773D01*
X57736227Y84037152D01*
X57558172Y83770673D01*
X57435525Y83474578D01*
X57373000Y83160245D01*
X55627000Y83160245D01*
X55564475Y83474578D01*
X55441828Y83770673D01*
X55263773Y84037152D01*
X55037152Y84263773D01*
X54770673Y84441828D01*
X54474578Y84564475D01*
X54160245Y84627000D01*
X53839755Y84627000D01*
X53525422Y84564475D01*
X53229327Y84441828D01*
X52962848Y84263773D01*
X52736227Y84037152D01*
X52558172Y83770673D01*
X52435525Y83474578D01*
X52373000Y83160245D01*
X50627000Y83160245D01*
X50564475Y83474578D01*
X50441828Y83770673D01*
X50263773Y84037152D01*
X50037152Y84263773D01*
X49770673Y84441828D01*
X49474578Y84564475D01*
X49160245Y84627000D01*
X48839755Y84627000D01*
X48525422Y84564475D01*
X48229327Y84441828D01*
X47962848Y84263773D01*
X47736227Y84037152D01*
X47558172Y83770673D01*
X47435525Y83474578D01*
X47373000Y83160245D01*
X43127000Y83160245D01*
X43127000Y96700000D01*
X50469967Y96700000D01*
X50469967Y93300000D01*
X50487837Y93118560D01*
X50540762Y92944092D01*
X50626706Y92783301D01*
X50742367Y92642367D01*
X50883301Y92526706D01*
X51044092Y92440762D01*
X51218560Y92387837D01*
X51400000Y92369967D01*
X53800000Y92369967D01*
X53981440Y92387837D01*
X54155908Y92440762D01*
X54316699Y92526706D01*
X54457633Y92642367D01*
X54573294Y92783301D01*
X54659238Y92944092D01*
X54712163Y93118560D01*
X54730033Y93300000D01*
X54730033Y96700000D01*
X58269967Y96700000D01*
X58269967Y93300000D01*
X58287837Y93118560D01*
X58340762Y92944092D01*
X58426706Y92783301D01*
X58542367Y92642367D01*
X58683301Y92526706D01*
X58844092Y92440762D01*
X59018560Y92387837D01*
X59200000Y92369967D01*
X61600000Y92369967D01*
X61781440Y92387837D01*
X61955908Y92440762D01*
X62116699Y92526706D01*
X62257633Y92642367D01*
X62373294Y92783301D01*
X62459238Y92944092D01*
X62512163Y93118560D01*
X62530033Y93300000D01*
X62530033Y96700000D01*
X62512163Y96881440D01*
X62459238Y97055908D01*
X62373294Y97216699D01*
X62257633Y97357633D01*
X62116699Y97473294D01*
X61955908Y97559238D01*
X61781440Y97612163D01*
X61600000Y97630033D01*
X59200000Y97630033D01*
X59018560Y97612163D01*
X58844092Y97559238D01*
X58683301Y97473294D01*
X58542367Y97357633D01*
X58426706Y97216699D01*
X58340762Y97055908D01*
X58287837Y96881440D01*
X58269967Y96700000D01*
X54730033Y96700000D01*
X54712163Y96881440D01*
X54659238Y97055908D01*
X54573294Y97216699D01*
X54457633Y97357633D01*
X54316699Y97473294D01*
X54155908Y97559238D01*
X53981440Y97612163D01*
X53800000Y97630033D01*
X51400000Y97630033D01*
X51218560Y97612163D01*
X51044092Y97559238D01*
X50883301Y97473294D01*
X50742367Y97357633D01*
X50626706Y97216699D01*
X50540762Y97055908D01*
X50487837Y96881440D01*
X50469967Y96700000D01*
X43127000Y96700000D01*
X43127000Y97933316D01*
X43136954Y97957348D01*
X44042652Y98863046D01*
X44066684Y98873000D01*
X97933316Y98873000D01*
X97957348Y98863046D01*
G37*
X97957348Y98863046D02*
X98863046Y97957348D01*
X98873000Y97933316D01*
X98873000Y2066684D01*
X98863046Y2042652D01*
X97957348Y1136954D01*
X97933316Y1127000D01*
X2066684Y1127000D01*
X2042652Y1136954D01*
X1136954Y2042652D01*
X1127000Y2066684D01*
X1127000Y5289491D01*
X9938000Y5289491D01*
X9938000Y4870509D01*
X10019739Y4459577D01*
X10180077Y4072488D01*
X10412851Y3724116D01*
X10709116Y3427851D01*
X11057488Y3195077D01*
X11444577Y3034739D01*
X11855509Y2953000D01*
X12274491Y2953000D01*
X12685423Y3034739D01*
X13072512Y3195077D01*
X13420884Y3427851D01*
X13717149Y3724116D01*
X13949923Y4072488D01*
X14110261Y4459577D01*
X14192000Y4870509D01*
X14192000Y5289491D01*
X25178000Y5289491D01*
X25178000Y4870509D01*
X25259739Y4459577D01*
X25420077Y4072488D01*
X25652851Y3724116D01*
X25949116Y3427851D01*
X26297488Y3195077D01*
X26684577Y3034739D01*
X27095509Y2953000D01*
X27514491Y2953000D01*
X27925423Y3034739D01*
X28312512Y3195077D01*
X28660884Y3427851D01*
X28957149Y3724116D01*
X29189923Y4072488D01*
X29350261Y4459577D01*
X29432000Y4870509D01*
X29432000Y5289491D01*
X29350261Y5700423D01*
X29189923Y6087512D01*
X28957149Y6435884D01*
X28813033Y6580000D01*
X37874967Y6580000D01*
X37874967Y3580000D01*
X37887073Y3457087D01*
X37922925Y3338897D01*
X37981147Y3229972D01*
X38059499Y3134499D01*
X38154972Y3056147D01*
X38263897Y2997925D01*
X38382087Y2962073D01*
X38505000Y2949967D01*
X41505000Y2949967D01*
X41627913Y2962073D01*
X41746103Y2997925D01*
X41855028Y3056147D01*
X41950501Y3134499D01*
X42028853Y3229972D01*
X42087075Y3338897D01*
X42122927Y3457087D01*
X42135033Y3580000D01*
X42135033Y5289491D01*
X42958000Y5289491D01*
X42958000Y4870509D01*
X43039739Y4459577D01*
X43200077Y4072488D01*
X43432851Y3724116D01*
X43729116Y3427851D01*
X44077488Y3195077D01*
X44464577Y3034739D01*
X44875509Y2953000D01*
X45294491Y2953000D01*
X45705423Y3034739D01*
X46092512Y3195077D01*
X46440884Y3427851D01*
X46737149Y3724116D01*
X46969923Y4072488D01*
X47130261Y4459577D01*
X47212000Y4870509D01*
X47212000Y5289491D01*
X47130261Y5700423D01*
X46969923Y6087512D01*
X46737149Y6435884D01*
X46593033Y6580000D01*
X53114967Y6580000D01*
X53114967Y3580000D01*
X53127073Y3457087D01*
X53162925Y3338897D01*
X53221147Y3229972D01*
X53299499Y3134499D01*
X53394972Y3056147D01*
X53503897Y2997925D01*
X53622087Y2962073D01*
X53745000Y2949967D01*
X56745000Y2949967D01*
X56867913Y2962073D01*
X56986103Y2997925D01*
X57095028Y3056147D01*
X57190501Y3134499D01*
X57268853Y3229972D01*
X57327075Y3338897D01*
X57362927Y3457087D01*
X57375033Y3580000D01*
X57375033Y5289491D01*
X58198000Y5289491D01*
X58198000Y4870509D01*
X58279739Y4459577D01*
X58440077Y4072488D01*
X58672851Y3724116D01*
X58969116Y3427851D01*
X59317488Y3195077D01*
X59704577Y3034739D01*
X60115509Y2953000D01*
X60534491Y2953000D01*
X60945423Y3034739D01*
X61332512Y3195077D01*
X61680884Y3427851D01*
X61977149Y3724116D01*
X62209923Y4072488D01*
X62370261Y4459577D01*
X62452000Y4870509D01*
X62452000Y5289491D01*
X75978000Y5289491D01*
X75978000Y4870509D01*
X76059739Y4459577D01*
X76220077Y4072488D01*
X76452851Y3724116D01*
X76749116Y3427851D01*
X77097488Y3195077D01*
X77484577Y3034739D01*
X77895509Y2953000D01*
X78314491Y2953000D01*
X78725423Y3034739D01*
X79112512Y3195077D01*
X79460884Y3427851D01*
X79757149Y3724116D01*
X79989923Y4072488D01*
X80150261Y4459577D01*
X80232000Y4870509D01*
X80232000Y5289491D01*
X91218000Y5289491D01*
X91218000Y4870509D01*
X91299739Y4459577D01*
X91460077Y4072488D01*
X91692851Y3724116D01*
X91989116Y3427851D01*
X92337488Y3195077D01*
X92724577Y3034739D01*
X93135509Y2953000D01*
X93554491Y2953000D01*
X93965423Y3034739D01*
X94352512Y3195077D01*
X94700884Y3427851D01*
X94997149Y3724116D01*
X95229923Y4072488D01*
X95390261Y4459577D01*
X95472000Y4870509D01*
X95472000Y5289491D01*
X95390261Y5700423D01*
X95229923Y6087512D01*
X94997149Y6435884D01*
X94700884Y6732149D01*
X94352512Y6964923D01*
X93965423Y7125261D01*
X93554491Y7207000D01*
X93135509Y7207000D01*
X92724577Y7125261D01*
X92337488Y6964923D01*
X91989116Y6732149D01*
X91692851Y6435884D01*
X91460077Y6087512D01*
X91299739Y5700423D01*
X91218000Y5289491D01*
X80232000Y5289491D01*
X80150261Y5700423D01*
X79989923Y6087512D01*
X79757149Y6435884D01*
X79460884Y6732149D01*
X79112512Y6964923D01*
X78725423Y7125261D01*
X78314491Y7207000D01*
X77895509Y7207000D01*
X77484577Y7125261D01*
X77097488Y6964923D01*
X76749116Y6732149D01*
X76452851Y6435884D01*
X76220077Y6087512D01*
X76059739Y5700423D01*
X75978000Y5289491D01*
X62452000Y5289491D01*
X62370261Y5700423D01*
X62209923Y6087512D01*
X61977149Y6435884D01*
X61680884Y6732149D01*
X61332512Y6964923D01*
X60945423Y7125261D01*
X60534491Y7207000D01*
X60115509Y7207000D01*
X59704577Y7125261D01*
X59317488Y6964923D01*
X58969116Y6732149D01*
X58672851Y6435884D01*
X58440077Y6087512D01*
X58279739Y5700423D01*
X58198000Y5289491D01*
X57375033Y5289491D01*
X57375033Y6580000D01*
X57362927Y6702913D01*
X57327075Y6821103D01*
X57268853Y6930028D01*
X57190501Y7025501D01*
X57095028Y7103853D01*
X56986103Y7162075D01*
X56867913Y7197927D01*
X56745000Y7210033D01*
X53745000Y7210033D01*
X53622087Y7197927D01*
X53503897Y7162075D01*
X53394972Y7103853D01*
X53299499Y7025501D01*
X53221147Y6930028D01*
X53162925Y6821103D01*
X53127073Y6702913D01*
X53114967Y6580000D01*
X46593033Y6580000D01*
X46440884Y6732149D01*
X46092512Y6964923D01*
X45705423Y7125261D01*
X45294491Y7207000D01*
X44875509Y7207000D01*
X44464577Y7125261D01*
X44077488Y6964923D01*
X43729116Y6732149D01*
X43432851Y6435884D01*
X43200077Y6087512D01*
X43039739Y5700423D01*
X42958000Y5289491D01*
X42135033Y5289491D01*
X42135033Y6580000D01*
X42122927Y6702913D01*
X42087075Y6821103D01*
X42028853Y6930028D01*
X41950501Y7025501D01*
X41855028Y7103853D01*
X41746103Y7162075D01*
X41627913Y7197927D01*
X41505000Y7210033D01*
X38505000Y7210033D01*
X38382087Y7197927D01*
X38263897Y7162075D01*
X38154972Y7103853D01*
X38059499Y7025501D01*
X37981147Y6930028D01*
X37922925Y6821103D01*
X37887073Y6702913D01*
X37874967Y6580000D01*
X28813033Y6580000D01*
X28660884Y6732149D01*
X28312512Y6964923D01*
X27925423Y7125261D01*
X27514491Y7207000D01*
X27095509Y7207000D01*
X26684577Y7125261D01*
X26297488Y6964923D01*
X25949116Y6732149D01*
X25652851Y6435884D01*
X25420077Y6087512D01*
X25259739Y5700423D01*
X25178000Y5289491D01*
X14192000Y5289491D01*
X14110261Y5700423D01*
X13949923Y6087512D01*
X13717149Y6435884D01*
X13420884Y6732149D01*
X13072512Y6964923D01*
X12685423Y7125261D01*
X12274491Y7207000D01*
X11855509Y7207000D01*
X11444577Y7125261D01*
X11057488Y6964923D01*
X10709116Y6732149D01*
X10412851Y6435884D01*
X10180077Y6087512D01*
X10019739Y5700423D01*
X9938000Y5289491D01*
X1127000Y5289491D01*
X1127000Y17989491D01*
X9938000Y17989491D01*
X9938000Y17570509D01*
X10019739Y17159577D01*
X10180077Y16772488D01*
X10412851Y16424116D01*
X10709116Y16127851D01*
X11057488Y15895077D01*
X11444577Y15734739D01*
X11855509Y15653000D01*
X12274491Y15653000D01*
X12685423Y15734739D01*
X13072512Y15895077D01*
X13420884Y16127851D01*
X13717149Y16424116D01*
X13949923Y16772488D01*
X14110261Y17159577D01*
X14192000Y17570509D01*
X14192000Y17989491D01*
X25178000Y17989491D01*
X25178000Y17570509D01*
X25259739Y17159577D01*
X25420077Y16772488D01*
X25652851Y16424116D01*
X25949116Y16127851D01*
X26297488Y15895077D01*
X26684577Y15734739D01*
X27095509Y15653000D01*
X27514491Y15653000D01*
X27925423Y15734739D01*
X28312512Y15895077D01*
X28660884Y16127851D01*
X28957149Y16424116D01*
X29189923Y16772488D01*
X29350261Y17159577D01*
X29432000Y17570509D01*
X29432000Y17989491D01*
X29350261Y18400423D01*
X29189923Y18787512D01*
X28957149Y19135884D01*
X28813033Y19280000D01*
X37874967Y19280000D01*
X37874967Y16280000D01*
X37887073Y16157087D01*
X37922925Y16038897D01*
X37981147Y15929972D01*
X38059499Y15834499D01*
X38154972Y15756147D01*
X38263897Y15697925D01*
X38382087Y15662073D01*
X38505000Y15649967D01*
X41505000Y15649967D01*
X41627913Y15662073D01*
X41746103Y15697925D01*
X41855028Y15756147D01*
X41950501Y15834499D01*
X42028853Y15929972D01*
X42087075Y16038897D01*
X42122927Y16157087D01*
X42135033Y16280000D01*
X42135033Y17989491D01*
X42958000Y17989491D01*
X42958000Y17570509D01*
X43039739Y17159577D01*
X43200077Y16772488D01*
X43432851Y16424116D01*
X43729116Y16127851D01*
X44077488Y15895077D01*
X44464577Y15734739D01*
X44875509Y15653000D01*
X45294491Y15653000D01*
X45705423Y15734739D01*
X46092512Y15895077D01*
X46440884Y16127851D01*
X46737149Y16424116D01*
X46969923Y16772488D01*
X47130261Y17159577D01*
X47212000Y17570509D01*
X47212000Y17989491D01*
X47130261Y18400423D01*
X46969923Y18787512D01*
X46737149Y19135884D01*
X46593033Y19280000D01*
X53114967Y19280000D01*
X53114967Y16280000D01*
X53127073Y16157087D01*
X53162925Y16038897D01*
X53221147Y15929972D01*
X53299499Y15834499D01*
X53394972Y15756147D01*
X53503897Y15697925D01*
X53622087Y15662073D01*
X53745000Y15649967D01*
X56745000Y15649967D01*
X56867913Y15662073D01*
X56986103Y15697925D01*
X57095028Y15756147D01*
X57190501Y15834499D01*
X57268853Y15929972D01*
X57327075Y16038897D01*
X57362927Y16157087D01*
X57375033Y16280000D01*
X57375033Y17989491D01*
X58198000Y17989491D01*
X58198000Y17570509D01*
X58279739Y17159577D01*
X58440077Y16772488D01*
X58672851Y16424116D01*
X58969116Y16127851D01*
X59317488Y15895077D01*
X59704577Y15734739D01*
X60115509Y15653000D01*
X60534491Y15653000D01*
X60945423Y15734739D01*
X61332512Y15895077D01*
X61680884Y16127851D01*
X61977149Y16424116D01*
X62209923Y16772488D01*
X62370261Y17159577D01*
X62452000Y17570509D01*
X62452000Y17989491D01*
X75978000Y17989491D01*
X75978000Y17570509D01*
X76059739Y17159577D01*
X76220077Y16772488D01*
X76452851Y16424116D01*
X76749116Y16127851D01*
X77097488Y15895077D01*
X77484577Y15734739D01*
X77895509Y15653000D01*
X78314491Y15653000D01*
X78725423Y15734739D01*
X79112512Y15895077D01*
X79460884Y16127851D01*
X79757149Y16424116D01*
X79989923Y16772488D01*
X80150261Y17159577D01*
X80232000Y17570509D01*
X80232000Y17989491D01*
X91218000Y17989491D01*
X91218000Y17570509D01*
X91299739Y17159577D01*
X91460077Y16772488D01*
X91692851Y16424116D01*
X91989116Y16127851D01*
X92337488Y15895077D01*
X92724577Y15734739D01*
X93135509Y15653000D01*
X93554491Y15653000D01*
X93965423Y15734739D01*
X94352512Y15895077D01*
X94700884Y16127851D01*
X94997149Y16424116D01*
X95229923Y16772488D01*
X95390261Y17159577D01*
X95472000Y17570509D01*
X95472000Y17989491D01*
X95390261Y18400423D01*
X95229923Y18787512D01*
X94997149Y19135884D01*
X94700884Y19432149D01*
X94352512Y19664923D01*
X93965423Y19825261D01*
X93554491Y19907000D01*
X93135509Y19907000D01*
X92724577Y19825261D01*
X92337488Y19664923D01*
X91989116Y19432149D01*
X91692851Y19135884D01*
X91460077Y18787512D01*
X91299739Y18400423D01*
X91218000Y17989491D01*
X80232000Y17989491D01*
X80150261Y18400423D01*
X79989923Y18787512D01*
X79757149Y19135884D01*
X79460884Y19432149D01*
X79112512Y19664923D01*
X78725423Y19825261D01*
X78314491Y19907000D01*
X77895509Y19907000D01*
X77484577Y19825261D01*
X77097488Y19664923D01*
X76749116Y19432149D01*
X76452851Y19135884D01*
X76220077Y18787512D01*
X76059739Y18400423D01*
X75978000Y17989491D01*
X62452000Y17989491D01*
X62370261Y18400423D01*
X62209923Y18787512D01*
X61977149Y19135884D01*
X61680884Y19432149D01*
X61332512Y19664923D01*
X60945423Y19825261D01*
X60534491Y19907000D01*
X60115509Y19907000D01*
X59704577Y19825261D01*
X59317488Y19664923D01*
X58969116Y19432149D01*
X58672851Y19135884D01*
X58440077Y18787512D01*
X58279739Y18400423D01*
X58198000Y17989491D01*
X57375033Y17989491D01*
X57375033Y19280000D01*
X57362927Y19402913D01*
X57327075Y19521103D01*
X57268853Y19630028D01*
X57190501Y19725501D01*
X57095028Y19803853D01*
X56986103Y19862075D01*
X56867913Y19897927D01*
X56745000Y19910033D01*
X53745000Y19910033D01*
X53622087Y19897927D01*
X53503897Y19862075D01*
X53394972Y19803853D01*
X53299499Y19725501D01*
X53221147Y19630028D01*
X53162925Y19521103D01*
X53127073Y19402913D01*
X53114967Y19280000D01*
X46593033Y19280000D01*
X46440884Y19432149D01*
X46092512Y19664923D01*
X45705423Y19825261D01*
X45294491Y19907000D01*
X44875509Y19907000D01*
X44464577Y19825261D01*
X44077488Y19664923D01*
X43729116Y19432149D01*
X43432851Y19135884D01*
X43200077Y18787512D01*
X43039739Y18400423D01*
X42958000Y17989491D01*
X42135033Y17989491D01*
X42135033Y19280000D01*
X42122927Y19402913D01*
X42087075Y19521103D01*
X42028853Y19630028D01*
X41950501Y19725501D01*
X41855028Y19803853D01*
X41746103Y19862075D01*
X41627913Y19897927D01*
X41505000Y19910033D01*
X38505000Y19910033D01*
X38382087Y19897927D01*
X38263897Y19862075D01*
X38154972Y19803853D01*
X38059499Y19725501D01*
X37981147Y19630028D01*
X37922925Y19521103D01*
X37887073Y19402913D01*
X37874967Y19280000D01*
X28813033Y19280000D01*
X28660884Y19432149D01*
X28312512Y19664923D01*
X27925423Y19825261D01*
X27514491Y19907000D01*
X27095509Y19907000D01*
X26684577Y19825261D01*
X26297488Y19664923D01*
X25949116Y19432149D01*
X25652851Y19135884D01*
X25420077Y18787512D01*
X25259739Y18400423D01*
X25178000Y17989491D01*
X14192000Y17989491D01*
X14110261Y18400423D01*
X13949923Y18787512D01*
X13717149Y19135884D01*
X13420884Y19432149D01*
X13072512Y19664923D01*
X12685423Y19825261D01*
X12274491Y19907000D01*
X11855509Y19907000D01*
X11444577Y19825261D01*
X11057488Y19664923D01*
X10709116Y19432149D01*
X10412851Y19135884D01*
X10180077Y18787512D01*
X10019739Y18400423D01*
X9938000Y17989491D01*
X1127000Y17989491D01*
X1127000Y34450000D01*
X32219967Y34450000D01*
X32219967Y32750000D01*
X32232073Y32627087D01*
X32267925Y32508897D01*
X32326147Y32399972D01*
X32404499Y32304499D01*
X32499972Y32226147D01*
X32608897Y32167925D01*
X32727087Y32132073D01*
X32850000Y32119967D01*
X34550000Y32119967D01*
X34672913Y32132073D01*
X34791103Y32167925D01*
X34900028Y32226147D01*
X34995501Y32304499D01*
X35073853Y32399972D01*
X35132075Y32508897D01*
X35167927Y32627087D01*
X35180033Y32750000D01*
X35180033Y34450000D01*
X35167927Y34572913D01*
X35132075Y34691103D01*
X35073853Y34800028D01*
X34995501Y34895501D01*
X34900028Y34973853D01*
X34791103Y35032075D01*
X34672913Y35067927D01*
X34550000Y35080033D01*
X32850000Y35080033D01*
X32727087Y35067927D01*
X32608897Y35032075D01*
X32499972Y34973853D01*
X32404499Y34895501D01*
X32326147Y34800028D01*
X32267925Y34691103D01*
X32232073Y34572913D01*
X32219967Y34450000D01*
X1127000Y34450000D01*
X1127000Y35679944D01*
X43673000Y35679944D01*
X43673000Y35320056D01*
X43743211Y34967084D01*
X43880934Y34634591D01*
X44080876Y34335355D01*
X44335355Y34080876D01*
X44634591Y33880934D01*
X44967084Y33743211D01*
X45320056Y33673000D01*
X45679944Y33673000D01*
X46032916Y33743211D01*
X46365409Y33880934D01*
X46664645Y34080876D01*
X46919124Y34335355D01*
X47119066Y34634591D01*
X47256789Y34967084D01*
X47327000Y35320056D01*
X47327000Y35679944D01*
X47256789Y36032916D01*
X47119066Y36365409D01*
X46919124Y36664645D01*
X46883769Y36700000D01*
X69669967Y36700000D01*
X69669967Y34300000D01*
X69682073Y34177087D01*
X69717925Y34058897D01*
X69776147Y33949972D01*
X69854499Y33854499D01*
X69949972Y33776147D01*
X70058897Y33717925D01*
X70177087Y33682073D01*
X70300000Y33669967D01*
X72700000Y33669967D01*
X72822913Y33682073D01*
X72941103Y33717925D01*
X73050028Y33776147D01*
X73145501Y33854499D01*
X73223853Y33949972D01*
X73282075Y34058897D01*
X73317927Y34177087D01*
X73330033Y34300000D01*
X73330033Y36700000D01*
X73317927Y36822913D01*
X73282075Y36941103D01*
X73223853Y37050028D01*
X73145501Y37145501D01*
X73050028Y37223853D01*
X72941103Y37282075D01*
X72822913Y37317927D01*
X72700000Y37330033D01*
X70300000Y37330033D01*
X70177087Y37317927D01*
X70058897Y37282075D01*
X69949972Y37223853D01*
X69854499Y37145501D01*
X69776147Y37050028D01*
X69717925Y36941103D01*
X69682073Y36822913D01*
X69669967Y36700000D01*
X46883769Y36700000D01*
X46664645Y36919124D01*
X46365409Y37119066D01*
X46032916Y37256789D01*
X45679944Y37327000D01*
X45320056Y37327000D01*
X44967084Y37256789D01*
X44634591Y37119066D01*
X44335355Y36919124D01*
X44080876Y36664645D01*
X43880934Y36365409D01*
X43743211Y36032916D01*
X43673000Y35679944D01*
X1127000Y35679944D01*
X1127000Y45300000D01*
X72814967Y45300000D01*
X72814967Y43600000D01*
X72827073Y43477087D01*
X72862925Y43358897D01*
X72921147Y43249972D01*
X72999499Y43154499D01*
X73094972Y43076147D01*
X73203897Y43017925D01*
X73322087Y42982073D01*
X73445000Y42969967D01*
X75145000Y42969967D01*
X75267913Y42982073D01*
X75386103Y43017925D01*
X75495028Y43076147D01*
X75590501Y43154499D01*
X75668853Y43249972D01*
X75726328Y43357500D01*
X77244967Y43357500D01*
X77244967Y42432500D01*
X77261877Y42260814D01*
X77311956Y42095726D01*
X77393279Y41943580D01*
X77502723Y41810223D01*
X77636080Y41700779D01*
X77788226Y41619456D01*
X77953314Y41569377D01*
X78125000Y41552467D01*
X78323000Y41552467D01*
X78323001Y36368937D01*
X78283897Y36357075D01*
X78174972Y36298853D01*
X78079499Y36220501D01*
X78001147Y36125028D01*
X77942925Y36016103D01*
X77907073Y35897913D01*
X77894967Y35775000D01*
X77894967Y34075000D01*
X77907073Y33952087D01*
X77942925Y33833897D01*
X78001147Y33724972D01*
X78079499Y33629499D01*
X78174972Y33551147D01*
X78283897Y33492925D01*
X78402087Y33457073D01*
X78525000Y33444967D01*
X80225000Y33444967D01*
X80347913Y33457073D01*
X80466103Y33492925D01*
X80575028Y33551147D01*
X80670501Y33629499D01*
X80748853Y33724972D01*
X80807075Y33833897D01*
X80842927Y33952087D01*
X80855033Y34075000D01*
X80855033Y35775000D01*
X80842927Y35897913D01*
X80807075Y36016103D01*
X80748853Y36125028D01*
X80670501Y36220501D01*
X80575028Y36298853D01*
X80466103Y36357075D01*
X80347913Y36392927D01*
X80225000Y36405033D01*
X80077000Y36405033D01*
X80077000Y41552467D01*
X80275000Y41552467D01*
X80446686Y41569377D01*
X80611774Y41619456D01*
X80763920Y41700779D01*
X80897277Y41810223D01*
X80903657Y41817997D01*
X80936956Y41708226D01*
X81018279Y41556080D01*
X81127723Y41422723D01*
X81261080Y41313279D01*
X81413226Y41231956D01*
X81578314Y41181877D01*
X81750000Y41164967D01*
X82675000Y41164967D01*
X82846686Y41181877D01*
X82943001Y41211094D01*
X82943000Y36402374D01*
X82847087Y36392927D01*
X82728897Y36357075D01*
X82619972Y36298853D01*
X82524499Y36220501D01*
X82446147Y36125028D01*
X82387925Y36016103D01*
X82352073Y35897913D01*
X82339967Y35775000D01*
X82339967Y34075000D01*
X82352073Y33952087D01*
X82387925Y33833897D01*
X82446147Y33724972D01*
X82524499Y33629499D01*
X82619972Y33551147D01*
X82728897Y33492925D01*
X82847087Y33457073D01*
X82970000Y33444967D01*
X84670000Y33444967D01*
X84792913Y33457073D01*
X84911103Y33492925D01*
X85020028Y33551147D01*
X85115501Y33629499D01*
X85132325Y33650000D01*
X94119967Y33650000D01*
X94119967Y31950000D01*
X94132073Y31827087D01*
X94167925Y31708897D01*
X94226147Y31599972D01*
X94304499Y31504499D01*
X94399972Y31426147D01*
X94508897Y31367925D01*
X94627087Y31332073D01*
X94750000Y31319967D01*
X96450000Y31319967D01*
X96572913Y31332073D01*
X96691103Y31367925D01*
X96800028Y31426147D01*
X96895501Y31504499D01*
X96973853Y31599972D01*
X97032075Y31708897D01*
X97067927Y31827087D01*
X97080033Y31950000D01*
X97080033Y33650000D01*
X97067927Y33772913D01*
X97032075Y33891103D01*
X96973853Y34000028D01*
X96895501Y34095501D01*
X96800028Y34173853D01*
X96691103Y34232075D01*
X96572913Y34267927D01*
X96450000Y34280033D01*
X94750000Y34280033D01*
X94627087Y34267927D01*
X94508897Y34232075D01*
X94399972Y34173853D01*
X94304499Y34095501D01*
X94226147Y34000028D01*
X94167925Y33891103D01*
X94132073Y33772913D01*
X94119967Y33650000D01*
X85132325Y33650000D01*
X85193853Y33724972D01*
X85252075Y33833897D01*
X85287927Y33952087D01*
X85300033Y34075000D01*
X85300033Y35775000D01*
X85287927Y35897913D01*
X85252075Y36016103D01*
X85193853Y36125028D01*
X85115501Y36220501D01*
X85020028Y36298853D01*
X84911103Y36357075D01*
X84792913Y36392927D01*
X84697000Y36402374D01*
X84697000Y38976441D01*
X88994573Y38976441D01*
X88994573Y38606705D01*
X89066705Y38244072D01*
X89208197Y37902480D01*
X89413612Y37595055D01*
X89675055Y37333612D01*
X89982480Y37128197D01*
X90324072Y36986705D01*
X90686705Y36914573D01*
X91056441Y36914573D01*
X91419074Y36986705D01*
X91760666Y37128197D01*
X92068091Y37333612D01*
X92329534Y37595055D01*
X92534949Y37902480D01*
X92676441Y38244072D01*
X92748573Y38606705D01*
X92748573Y38976441D01*
X92676441Y39339074D01*
X92534949Y39680666D01*
X92329534Y39988091D01*
X92068091Y40249534D01*
X91760666Y40454949D01*
X91419074Y40596441D01*
X91056441Y40668573D01*
X90686705Y40668573D01*
X90324072Y40596441D01*
X89982480Y40454949D01*
X89675055Y40249534D01*
X89413612Y39988091D01*
X89208197Y39680666D01*
X89066705Y39339074D01*
X88994573Y38976441D01*
X84697000Y38976441D01*
X84697000Y41167725D01*
X84725000Y41164967D01*
X85650000Y41164967D01*
X85821686Y41181877D01*
X85986774Y41231956D01*
X86138920Y41313279D01*
X86141075Y41315048D01*
X86144924Y41302360D01*
X86221628Y41158858D01*
X86324853Y41033078D01*
X87456224Y39901707D01*
X87582004Y39798482D01*
X87725506Y39721778D01*
X87881215Y39674545D01*
X88043146Y39658596D01*
X88205077Y39674545D01*
X88360786Y39721778D01*
X88504288Y39798482D01*
X88630068Y39901707D01*
X89761439Y41033078D01*
X89864664Y41158858D01*
X89941368Y41302360D01*
X89988601Y41458069D01*
X90004550Y41620000D01*
X91738596Y41620000D01*
X91754545Y41458069D01*
X91801778Y41302360D01*
X91878482Y41158858D01*
X91981707Y41033078D01*
X93113078Y39901707D01*
X93238858Y39798482D01*
X93382360Y39721778D01*
X93538069Y39674545D01*
X93700000Y39658596D01*
X93861931Y39674545D01*
X94017640Y39721778D01*
X94161142Y39798482D01*
X94286922Y39901707D01*
X95418293Y41033078D01*
X95521518Y41158858D01*
X95598222Y41302360D01*
X95645455Y41458069D01*
X95661404Y41620000D01*
X95645455Y41781931D01*
X95598222Y41937640D01*
X95521518Y42081142D01*
X95418293Y42206922D01*
X94286922Y43338293D01*
X94161142Y43441518D01*
X94017640Y43518222D01*
X93861931Y43565455D01*
X93700000Y43581404D01*
X93538069Y43565455D01*
X93382360Y43518222D01*
X93238858Y43441518D01*
X93113078Y43338293D01*
X91981707Y42206922D01*
X91878482Y42081142D01*
X91801778Y41937640D01*
X91754545Y41781931D01*
X91738596Y41620000D01*
X90004550Y41620000D01*
X89988601Y41781931D01*
X89941368Y41937640D01*
X89864664Y42081142D01*
X89761439Y42206922D01*
X88630068Y43338293D01*
X88504288Y43441518D01*
X88360786Y43518222D01*
X88205077Y43565455D01*
X88043146Y43581404D01*
X87881215Y43565455D01*
X87725506Y43518222D01*
X87582004Y43441518D01*
X87456224Y43338293D01*
X86530033Y42412102D01*
X86530033Y44195000D01*
X86513123Y44366686D01*
X86463044Y44531774D01*
X86408781Y44633295D01*
X88994573Y44633295D01*
X88994573Y44263559D01*
X89066705Y43900926D01*
X89208197Y43559334D01*
X89413612Y43251909D01*
X89675055Y42990466D01*
X89982480Y42785051D01*
X90324072Y42643559D01*
X90686705Y42571427D01*
X91056441Y42571427D01*
X91419074Y42643559D01*
X91760666Y42785051D01*
X92068091Y42990466D01*
X92329534Y43251909D01*
X92534949Y43559334D01*
X92676441Y43900926D01*
X92748573Y44263559D01*
X92748573Y44633295D01*
X92676441Y44995928D01*
X92534949Y45337520D01*
X92329534Y45644945D01*
X92068091Y45906388D01*
X91760666Y46111803D01*
X91419074Y46253295D01*
X91056441Y46325427D01*
X90686705Y46325427D01*
X90324072Y46253295D01*
X89982480Y46111803D01*
X89675055Y45906388D01*
X89413612Y45644945D01*
X89208197Y45337520D01*
X89066705Y44995928D01*
X88994573Y44633295D01*
X86408781Y44633295D01*
X86381721Y44683920D01*
X86272277Y44817277D01*
X86201784Y44875129D01*
X86259777Y44922723D01*
X86369221Y45056080D01*
X86378265Y45073000D01*
X88700000Y45073000D01*
X88724776Y45075440D01*
X88748600Y45082667D01*
X88819311Y45111956D01*
X88841268Y45123692D01*
X88860513Y45139486D01*
X88876307Y45158731D01*
X88888044Y45180689D01*
X88917333Y45251400D01*
X88924560Y45275224D01*
X88927000Y45300000D01*
X88927000Y47158579D01*
X88924560Y47183355D01*
X88917333Y47207180D01*
X88888044Y47277890D01*
X88876308Y47299846D01*
X88860514Y47319092D01*
X87919092Y48260514D01*
X87899846Y48276308D01*
X87877890Y48288044D01*
X87807180Y48317333D01*
X87783355Y48324560D01*
X87758579Y48327000D01*
X86247930Y48327000D01*
X86126420Y48426721D01*
X85974274Y48508044D01*
X85809186Y48558123D01*
X85637500Y48575033D01*
X84712500Y48575033D01*
X84540814Y48558123D01*
X84375726Y48508044D01*
X84223580Y48426721D01*
X84102070Y48327000D01*
X83500000Y48327000D01*
X83475224Y48324560D01*
X83451400Y48317333D01*
X83380689Y48288044D01*
X83358732Y48276308D01*
X83339487Y48260514D01*
X83323693Y48241269D01*
X83311956Y48219311D01*
X83273720Y48127000D01*
X83127000Y48127000D01*
X83127000Y48400000D01*
X83124560Y48424776D01*
X83117333Y48448600D01*
X83088044Y48519311D01*
X83076308Y48541268D01*
X83060514Y48560513D01*
X83041269Y48576307D01*
X83019311Y48588044D01*
X82948600Y48617333D01*
X82924776Y48624560D01*
X82900000Y48627000D01*
X81600000Y48627000D01*
X81575224Y48624560D01*
X81551400Y48617333D01*
X81480689Y48588044D01*
X81458732Y48576308D01*
X81439487Y48560514D01*
X81423693Y48541269D01*
X81411956Y48519311D01*
X81382667Y48448600D01*
X81375440Y48424776D01*
X81373000Y48400000D01*
X81373000Y48026466D01*
X81371148Y48015055D01*
X80908630Y46627502D01*
X80908363Y46627139D01*
X80907934Y46627000D01*
X77600000Y46627000D01*
X77575224Y46624560D01*
X77551400Y46617333D01*
X77480689Y46588044D01*
X77458732Y46576308D01*
X77439487Y46560514D01*
X77423693Y46541269D01*
X77411956Y46519311D01*
X77382667Y46448600D01*
X77375440Y46424776D01*
X77373000Y46400000D01*
X77373000Y43808480D01*
X77311956Y43694274D01*
X77261877Y43529186D01*
X77244967Y43357500D01*
X75726328Y43357500D01*
X75727075Y43358897D01*
X75762927Y43477087D01*
X75775033Y43600000D01*
X75775033Y45300000D01*
X75762927Y45422913D01*
X75727075Y45541103D01*
X75668853Y45650028D01*
X75590501Y45745501D01*
X75495028Y45823853D01*
X75386103Y45882075D01*
X75267913Y45917927D01*
X75145000Y45930033D01*
X73445000Y45930033D01*
X73322087Y45917927D01*
X73203897Y45882075D01*
X73094972Y45823853D01*
X72999499Y45745501D01*
X72921147Y45650028D01*
X72862925Y45541103D01*
X72827073Y45422913D01*
X72814967Y45300000D01*
X1127000Y45300000D01*
X1127000Y51015000D01*
X94404967Y51015000D01*
X94404967Y49315000D01*
X94417073Y49192087D01*
X94452925Y49073897D01*
X94511147Y48964972D01*
X94589499Y48869499D01*
X94684972Y48791147D01*
X94793897Y48732925D01*
X94912087Y48697073D01*
X95035000Y48684967D01*
X96735000Y48684967D01*
X96857913Y48697073D01*
X96976103Y48732925D01*
X97085028Y48791147D01*
X97180501Y48869499D01*
X97258853Y48964972D01*
X97317075Y49073897D01*
X97352927Y49192087D01*
X97365033Y49315000D01*
X97365033Y51015000D01*
X97352927Y51137913D01*
X97317075Y51256103D01*
X97258853Y51365028D01*
X97180501Y51460501D01*
X97085028Y51538853D01*
X96976103Y51597075D01*
X96857913Y51632927D01*
X96735000Y51645033D01*
X95035000Y51645033D01*
X94912087Y51632927D01*
X94793897Y51597075D01*
X94684972Y51538853D01*
X94589499Y51460501D01*
X94511147Y51365028D01*
X94452925Y51256103D01*
X94417073Y51137913D01*
X94404967Y51015000D01*
X1127000Y51015000D01*
X1127000Y55933316D01*
X1136954Y55957348D01*
X2042652Y56863046D01*
X2066684Y56873000D01*
X35958579Y56873000D01*
X35983355Y56875440D01*
X36007180Y56882667D01*
X36077890Y56911956D01*
X36099846Y56923692D01*
X36119092Y56939486D01*
X37858343Y58678737D01*
X50873000Y58678737D01*
X50873000Y58161263D01*
X50973954Y57653732D01*
X51171983Y57175649D01*
X51459476Y56745385D01*
X51825385Y56379476D01*
X52255649Y56091983D01*
X52733732Y55893954D01*
X53241263Y55793000D01*
X53758737Y55793000D01*
X54266268Y55893954D01*
X54744351Y56091983D01*
X55174615Y56379476D01*
X55540524Y56745385D01*
X55828017Y57175649D01*
X55906448Y57365000D01*
X75354967Y57365000D01*
X75354967Y55665000D01*
X75367073Y55542087D01*
X75402925Y55423897D01*
X75461147Y55314972D01*
X75539499Y55219499D01*
X75634972Y55141147D01*
X75743897Y55082925D01*
X75862087Y55047073D01*
X75985000Y55034967D01*
X77685000Y55034967D01*
X77807913Y55047073D01*
X77926103Y55082925D01*
X78035028Y55141147D01*
X78130501Y55219499D01*
X78208853Y55314972D01*
X78267075Y55423897D01*
X78302927Y55542087D01*
X78315033Y55665000D01*
X78315033Y57320000D01*
X84744967Y57320000D01*
X84744967Y56395000D01*
X84761877Y56223314D01*
X84811956Y56058226D01*
X84893279Y55906080D01*
X85002723Y55772723D01*
X85136080Y55663279D01*
X85288226Y55581956D01*
X85453314Y55531877D01*
X85625000Y55514967D01*
X87775000Y55514967D01*
X87946686Y55531877D01*
X88111774Y55581956D01*
X88263920Y55663279D01*
X88397277Y55772723D01*
X88506721Y55906080D01*
X88588044Y56058226D01*
X88638123Y56223314D01*
X88655033Y56395000D01*
X88655033Y57320000D01*
X88638123Y57491686D01*
X88588044Y57656774D01*
X88506721Y57808920D01*
X88397277Y57942277D01*
X88263920Y58051721D01*
X88111774Y58133044D01*
X87946686Y58183123D01*
X87945958Y58183195D01*
X88173496Y58410733D01*
X88381100Y58721433D01*
X88524100Y59066665D01*
X88597000Y59433162D01*
X88597000Y59806838D01*
X88524100Y60173335D01*
X88381100Y60518567D01*
X88173496Y60829267D01*
X87909267Y61093496D01*
X87598567Y61301100D01*
X87253335Y61444100D01*
X86886838Y61517000D01*
X86513162Y61517000D01*
X86146665Y61444100D01*
X85801433Y61301100D01*
X85490733Y61093496D01*
X85226504Y60829267D01*
X85018900Y60518567D01*
X84875900Y60173335D01*
X84803000Y59806838D01*
X84803000Y59433162D01*
X84875900Y59066665D01*
X85018900Y58721433D01*
X85226504Y58410733D01*
X85454042Y58183195D01*
X85453314Y58183123D01*
X85288226Y58133044D01*
X85136080Y58051721D01*
X85002723Y57942277D01*
X84893279Y57808920D01*
X84811956Y57656774D01*
X84761877Y57491686D01*
X84744967Y57320000D01*
X78315033Y57320000D01*
X78315033Y57365000D01*
X78302927Y57487913D01*
X78267075Y57606103D01*
X78208853Y57715028D01*
X78130501Y57810501D01*
X78035028Y57888853D01*
X77926103Y57947075D01*
X77807913Y57982927D01*
X77685000Y57995033D01*
X75985000Y57995033D01*
X75862087Y57982927D01*
X75743897Y57947075D01*
X75634972Y57888853D01*
X75539499Y57810501D01*
X75461147Y57715028D01*
X75402925Y57606103D01*
X75367073Y57487913D01*
X75354967Y57365000D01*
X55906448Y57365000D01*
X56026046Y57653732D01*
X56127000Y58161263D01*
X56127000Y58678737D01*
X56026046Y59186268D01*
X55828017Y59664351D01*
X55540524Y60094615D01*
X55174615Y60460524D01*
X54744351Y60748017D01*
X54266268Y60946046D01*
X53758737Y61047000D01*
X53241263Y61047000D01*
X52733732Y60946046D01*
X52255649Y60748017D01*
X51825385Y60460524D01*
X51459476Y60094615D01*
X51171983Y59664351D01*
X50973954Y59186268D01*
X50873000Y58678737D01*
X37858343Y58678737D01*
X43060514Y63880908D01*
X43076308Y63900154D01*
X43088044Y63922110D01*
X43117333Y63992820D01*
X43124560Y64016645D01*
X43127000Y64041421D01*
X43127000Y77050000D01*
X47414967Y77050000D01*
X47414967Y75350000D01*
X47427073Y75227087D01*
X47462925Y75108897D01*
X47521147Y74999972D01*
X47599499Y74904499D01*
X47694972Y74826147D01*
X47803897Y74767925D01*
X47922087Y74732073D01*
X48045000Y74719967D01*
X49745000Y74719967D01*
X49867913Y74732073D01*
X49986103Y74767925D01*
X50095028Y74826147D01*
X50190501Y74904499D01*
X50268853Y74999972D01*
X50327075Y75108897D01*
X50362927Y75227087D01*
X50375033Y75350000D01*
X50375033Y77050000D01*
X50362927Y77172913D01*
X50327075Y77291103D01*
X50268853Y77400028D01*
X50190501Y77495501D01*
X50095028Y77573853D01*
X49986103Y77632075D01*
X49867913Y77667927D01*
X49745000Y77680033D01*
X48045000Y77680033D01*
X47922087Y77667927D01*
X47803897Y77632075D01*
X47694972Y77573853D01*
X47599499Y77495501D01*
X47521147Y77400028D01*
X47462925Y77291103D01*
X47427073Y77172913D01*
X47414967Y77050000D01*
X43127000Y77050000D01*
X43127000Y77685000D01*
X62654967Y77685000D01*
X62654967Y75985000D01*
X62667073Y75862087D01*
X62702925Y75743897D01*
X62761147Y75634972D01*
X62839499Y75539499D01*
X62934972Y75461147D01*
X63043897Y75402925D01*
X63162087Y75367073D01*
X63285000Y75354967D01*
X64985000Y75354967D01*
X65107913Y75367073D01*
X65226103Y75402925D01*
X65335028Y75461147D01*
X65430501Y75539499D01*
X65508853Y75634972D01*
X65567075Y75743897D01*
X65602927Y75862087D01*
X65615033Y75985000D01*
X65615033Y77685000D01*
X65602927Y77807913D01*
X65567075Y77926103D01*
X65508853Y78035028D01*
X65430501Y78130501D01*
X65335028Y78208853D01*
X65226103Y78267075D01*
X65107913Y78302927D01*
X64985000Y78315033D01*
X63285000Y78315033D01*
X63162087Y78302927D01*
X63043897Y78267075D01*
X62934972Y78208853D01*
X62839499Y78130501D01*
X62761147Y78035028D01*
X62702925Y77926103D01*
X62667073Y77807913D01*
X62654967Y77685000D01*
X43127000Y77685000D01*
X43127000Y78835000D01*
X86269967Y78835000D01*
X86269967Y74835000D01*
X86282073Y74712087D01*
X86317925Y74593897D01*
X86376147Y74484972D01*
X86454499Y74389499D01*
X86549972Y74311147D01*
X86658897Y74252925D01*
X86777087Y74217073D01*
X86900000Y74204967D01*
X90900000Y74204967D01*
X91022913Y74217073D01*
X91141103Y74252925D01*
X91250028Y74311147D01*
X91345501Y74389499D01*
X91423853Y74484972D01*
X91482075Y74593897D01*
X91517927Y74712087D01*
X91530033Y74835000D01*
X91530033Y78835000D01*
X91517927Y78957913D01*
X91482075Y79076103D01*
X91423853Y79185028D01*
X91345501Y79280501D01*
X91250028Y79358853D01*
X91141103Y79417075D01*
X91022913Y79452927D01*
X90900000Y79465033D01*
X86900000Y79465033D01*
X86777087Y79452927D01*
X86658897Y79417075D01*
X86549972Y79358853D01*
X86454499Y79280501D01*
X86376147Y79185028D01*
X86317925Y79076103D01*
X86282073Y78957913D01*
X86269967Y78835000D01*
X43127000Y78835000D01*
X43127000Y83160245D01*
X47373000Y83160245D01*
X47373000Y82839755D01*
X47435525Y82525422D01*
X47558172Y82229327D01*
X47736227Y81962848D01*
X47962848Y81736227D01*
X48229327Y81558172D01*
X48525422Y81435525D01*
X48839755Y81373000D01*
X49160245Y81373000D01*
X49474578Y81435525D01*
X49770673Y81558172D01*
X50037152Y81736227D01*
X50263773Y81962848D01*
X50441828Y82229327D01*
X50564475Y82525422D01*
X50627000Y82839755D01*
X50627000Y83160245D01*
X52373000Y83160245D01*
X52373000Y82839755D01*
X52435525Y82525422D01*
X52558172Y82229327D01*
X52736227Y81962848D01*
X52962848Y81736227D01*
X53229327Y81558172D01*
X53525422Y81435525D01*
X53839755Y81373000D01*
X54160245Y81373000D01*
X54474578Y81435525D01*
X54770673Y81558172D01*
X55037152Y81736227D01*
X55263773Y81962848D01*
X55441828Y82229327D01*
X55564475Y82525422D01*
X55627000Y82839755D01*
X55627000Y83160245D01*
X57373000Y83160245D01*
X57373000Y82839755D01*
X57435525Y82525422D01*
X57558172Y82229327D01*
X57736227Y81962848D01*
X57962848Y81736227D01*
X58229327Y81558172D01*
X58525422Y81435525D01*
X58839755Y81373000D01*
X59160245Y81373000D01*
X59474578Y81435525D01*
X59770673Y81558172D01*
X60037152Y81736227D01*
X60263773Y81962848D01*
X60441828Y82229327D01*
X60564475Y82525422D01*
X60627000Y82839755D01*
X60627000Y83160245D01*
X60564475Y83474578D01*
X60441828Y83770673D01*
X60288598Y84000000D01*
X62369967Y84000000D01*
X62369967Y82000000D01*
X62382073Y81877087D01*
X62417925Y81758897D01*
X62476147Y81649972D01*
X62554499Y81554499D01*
X62649972Y81476147D01*
X62758897Y81417925D01*
X62877087Y81382073D01*
X63000000Y81369967D01*
X65000000Y81369967D01*
X65122913Y81382073D01*
X65241103Y81417925D01*
X65350028Y81476147D01*
X65445501Y81554499D01*
X65523853Y81649972D01*
X65582075Y81758897D01*
X65617927Y81877087D01*
X65630033Y82000000D01*
X65630033Y84000000D01*
X65617927Y84122913D01*
X65582075Y84241103D01*
X65523853Y84350028D01*
X65445501Y84445501D01*
X65350028Y84523853D01*
X65241103Y84582075D01*
X65122913Y84617927D01*
X65000000Y84630033D01*
X63000000Y84630033D01*
X62877087Y84617927D01*
X62758897Y84582075D01*
X62649972Y84523853D01*
X62554499Y84445501D01*
X62476147Y84350028D01*
X62417925Y84241103D01*
X62382073Y84122913D01*
X62369967Y84000000D01*
X60288598Y84000000D01*
X60263773Y84037152D01*
X60037152Y84263773D01*
X59770673Y84441828D01*
X59474578Y84564475D01*
X59160245Y84627000D01*
X58839755Y84627000D01*
X58525422Y84564475D01*
X58229327Y84441828D01*
X57962848Y84263773D01*
X57736227Y84037152D01*
X57558172Y83770673D01*
X57435525Y83474578D01*
X57373000Y83160245D01*
X55627000Y83160245D01*
X55564475Y83474578D01*
X55441828Y83770673D01*
X55263773Y84037152D01*
X55037152Y84263773D01*
X54770673Y84441828D01*
X54474578Y84564475D01*
X54160245Y84627000D01*
X53839755Y84627000D01*
X53525422Y84564475D01*
X53229327Y84441828D01*
X52962848Y84263773D01*
X52736227Y84037152D01*
X52558172Y83770673D01*
X52435525Y83474578D01*
X52373000Y83160245D01*
X50627000Y83160245D01*
X50564475Y83474578D01*
X50441828Y83770673D01*
X50263773Y84037152D01*
X50037152Y84263773D01*
X49770673Y84441828D01*
X49474578Y84564475D01*
X49160245Y84627000D01*
X48839755Y84627000D01*
X48525422Y84564475D01*
X48229327Y84441828D01*
X47962848Y84263773D01*
X47736227Y84037152D01*
X47558172Y83770673D01*
X47435525Y83474578D01*
X47373000Y83160245D01*
X43127000Y83160245D01*
X43127000Y96700000D01*
X50469967Y96700000D01*
X50469967Y93300000D01*
X50487837Y93118560D01*
X50540762Y92944092D01*
X50626706Y92783301D01*
X50742367Y92642367D01*
X50883301Y92526706D01*
X51044092Y92440762D01*
X51218560Y92387837D01*
X51400000Y92369967D01*
X53800000Y92369967D01*
X53981440Y92387837D01*
X54155908Y92440762D01*
X54316699Y92526706D01*
X54457633Y92642367D01*
X54573294Y92783301D01*
X54659238Y92944092D01*
X54712163Y93118560D01*
X54730033Y93300000D01*
X54730033Y96700000D01*
X58269967Y96700000D01*
X58269967Y93300000D01*
X58287837Y93118560D01*
X58340762Y92944092D01*
X58426706Y92783301D01*
X58542367Y92642367D01*
X58683301Y92526706D01*
X58844092Y92440762D01*
X59018560Y92387837D01*
X59200000Y92369967D01*
X61600000Y92369967D01*
X61781440Y92387837D01*
X61955908Y92440762D01*
X62116699Y92526706D01*
X62257633Y92642367D01*
X62373294Y92783301D01*
X62459238Y92944092D01*
X62512163Y93118560D01*
X62530033Y93300000D01*
X62530033Y96700000D01*
X62512163Y96881440D01*
X62459238Y97055908D01*
X62373294Y97216699D01*
X62257633Y97357633D01*
X62116699Y97473294D01*
X61955908Y97559238D01*
X61781440Y97612163D01*
X61600000Y97630033D01*
X59200000Y97630033D01*
X59018560Y97612163D01*
X58844092Y97559238D01*
X58683301Y97473294D01*
X58542367Y97357633D01*
X58426706Y97216699D01*
X58340762Y97055908D01*
X58287837Y96881440D01*
X58269967Y96700000D01*
X54730033Y96700000D01*
X54712163Y96881440D01*
X54659238Y97055908D01*
X54573294Y97216699D01*
X54457633Y97357633D01*
X54316699Y97473294D01*
X54155908Y97559238D01*
X53981440Y97612163D01*
X53800000Y97630033D01*
X51400000Y97630033D01*
X51218560Y97612163D01*
X51044092Y97559238D01*
X50883301Y97473294D01*
X50742367Y97357633D01*
X50626706Y97216699D01*
X50540762Y97055908D01*
X50487837Y96881440D01*
X50469967Y96700000D01*
X43127000Y96700000D01*
X43127000Y97933316D01*
X43136954Y97957348D01*
X44042652Y98863046D01*
X44066684Y98873000D01*
X97933316Y98873000D01*
X97957348Y98863046D01*
%TD*%
M02*
