%TF.GenerationSoftware,KiCad,Pcbnew,(5.1.6)-1*%
%TF.CreationDate,2021-04-18T17:59:39-07:00*%
%TF.ProjectId,pwr_supply,7077725f-7375-4707-906c-792e6b696361,rev?*%
%TF.SameCoordinates,Original*%
%TF.FileFunction,Legend,Top*%
%TF.FilePolarity,Positive*%
%FSLAX46Y46*%
G04 Gerber Fmt 4.6, Leading zero omitted, Abs format (unit mm)*
G04 Created by KiCad (PCBNEW (5.1.6)-1) date 2021-04-18 17:59:39*
%MOMM*%
%LPD*%
G01*
G04 APERTURE LIST*
%ADD10C,0.150000*%
%ADD11C,0.120000*%
%ADD12C,0.100000*%
%ADD13C,0.200000*%
%ADD14C,0.254000*%
G04 APERTURE END LIST*
D10*
X4810714Y23344285D02*
X4572619Y23344285D01*
X4572619Y24772857D01*
X4810714Y24772857D01*
X5715476Y24630000D02*
X5620238Y24677619D01*
X5477380Y24677619D01*
X5334523Y24630000D01*
X5239285Y24534761D01*
X5191666Y24439523D01*
X5144047Y24249047D01*
X5144047Y24106190D01*
X5191666Y23915714D01*
X5239285Y23820476D01*
X5334523Y23725238D01*
X5477380Y23677619D01*
X5572619Y23677619D01*
X5715476Y23725238D01*
X5763095Y23772857D01*
X5763095Y24106190D01*
X5572619Y24106190D01*
X6191666Y23677619D02*
X6191666Y24677619D01*
X6763095Y23677619D01*
X6763095Y24677619D01*
X7239285Y23677619D02*
X7239285Y24677619D01*
X7477380Y24677619D01*
X7620238Y24630000D01*
X7715476Y24534761D01*
X7763095Y24439523D01*
X7810714Y24249047D01*
X7810714Y24106190D01*
X7763095Y23915714D01*
X7715476Y23820476D01*
X7620238Y23725238D01*
X7477380Y23677619D01*
X7239285Y23677619D01*
X8144047Y23344285D02*
X8382142Y23344285D01*
X8382142Y24772857D01*
X8144047Y24772857D01*
X9953571Y23296666D02*
X9905952Y23344285D01*
X9810714Y23487142D01*
X9763095Y23582380D01*
X9715476Y23725238D01*
X9667857Y23963333D01*
X9667857Y24153809D01*
X9715476Y24391904D01*
X9763095Y24534761D01*
X9810714Y24630000D01*
X9905952Y24772857D01*
X9953571Y24820476D01*
X10334523Y24058571D02*
X11096428Y24058571D01*
X12096428Y23677619D02*
X11525000Y23677619D01*
X11810714Y23677619D02*
X11810714Y24677619D01*
X11715476Y24534761D01*
X11620238Y24439523D01*
X11525000Y24391904D01*
X13001190Y24677619D02*
X12525000Y24677619D01*
X12477380Y24201428D01*
X12525000Y24249047D01*
X12620238Y24296666D01*
X12858333Y24296666D01*
X12953571Y24249047D01*
X13001190Y24201428D01*
X13048809Y24106190D01*
X13048809Y23868095D01*
X13001190Y23772857D01*
X12953571Y23725238D01*
X12858333Y23677619D01*
X12620238Y23677619D01*
X12525000Y23725238D01*
X12477380Y23772857D01*
X13334523Y24677619D02*
X13667857Y23677619D01*
X14001190Y24677619D01*
X14239285Y23296666D02*
X14286904Y23344285D01*
X14382142Y23487142D01*
X14429761Y23582380D01*
X14477380Y23725238D01*
X14525000Y23963333D01*
X14525000Y24153809D01*
X14477380Y24391904D01*
X14429761Y24534761D01*
X14382142Y24630000D01*
X14286904Y24772857D01*
X14239285Y24820476D01*
X4810714Y10644285D02*
X4572619Y10644285D01*
X4572619Y12072857D01*
X4810714Y12072857D01*
X5715476Y11930000D02*
X5620238Y11977619D01*
X5477380Y11977619D01*
X5334523Y11930000D01*
X5239285Y11834761D01*
X5191666Y11739523D01*
X5144047Y11549047D01*
X5144047Y11406190D01*
X5191666Y11215714D01*
X5239285Y11120476D01*
X5334523Y11025238D01*
X5477380Y10977619D01*
X5572619Y10977619D01*
X5715476Y11025238D01*
X5763095Y11072857D01*
X5763095Y11406190D01*
X5572619Y11406190D01*
X6191666Y10977619D02*
X6191666Y11977619D01*
X6763095Y10977619D01*
X6763095Y11977619D01*
X7239285Y10977619D02*
X7239285Y11977619D01*
X7477380Y11977619D01*
X7620238Y11930000D01*
X7715476Y11834761D01*
X7763095Y11739523D01*
X7810714Y11549047D01*
X7810714Y11406190D01*
X7763095Y11215714D01*
X7715476Y11120476D01*
X7620238Y11025238D01*
X7477380Y10977619D01*
X7239285Y10977619D01*
X8144047Y10644285D02*
X8382142Y10644285D01*
X8382142Y12072857D01*
X8144047Y12072857D01*
X9953571Y10596666D02*
X9905952Y10644285D01*
X9810714Y10787142D01*
X9763095Y10882380D01*
X9715476Y11025238D01*
X9667857Y11263333D01*
X9667857Y11453809D01*
X9715476Y11691904D01*
X9763095Y11834761D01*
X9810714Y11930000D01*
X9905952Y12072857D01*
X9953571Y12120476D01*
X10334523Y11358571D02*
X11096428Y11358571D01*
X12096428Y10977619D02*
X11525000Y10977619D01*
X11810714Y10977619D02*
X11810714Y11977619D01*
X11715476Y11834761D01*
X11620238Y11739523D01*
X11525000Y11691904D01*
X13001190Y11977619D02*
X12525000Y11977619D01*
X12477380Y11501428D01*
X12525000Y11549047D01*
X12620238Y11596666D01*
X12858333Y11596666D01*
X12953571Y11549047D01*
X13001190Y11501428D01*
X13048809Y11406190D01*
X13048809Y11168095D01*
X13001190Y11072857D01*
X12953571Y11025238D01*
X12858333Y10977619D01*
X12620238Y10977619D01*
X12525000Y11025238D01*
X12477380Y11072857D01*
X13334523Y11977619D02*
X13667857Y10977619D01*
X14001190Y11977619D01*
X14239285Y10596666D02*
X14286904Y10644285D01*
X14382142Y10787142D01*
X14429761Y10882380D01*
X14477380Y11025238D01*
X14525000Y11263333D01*
X14525000Y11453809D01*
X14477380Y11691904D01*
X14429761Y11834761D01*
X14382142Y11930000D01*
X14286904Y12072857D01*
X14239285Y12120476D01*
X20050714Y10644285D02*
X19812619Y10644285D01*
X19812619Y12072857D01*
X20050714Y12072857D01*
X20955476Y11930000D02*
X20860238Y11977619D01*
X20717380Y11977619D01*
X20574523Y11930000D01*
X20479285Y11834761D01*
X20431666Y11739523D01*
X20384047Y11549047D01*
X20384047Y11406190D01*
X20431666Y11215714D01*
X20479285Y11120476D01*
X20574523Y11025238D01*
X20717380Y10977619D01*
X20812619Y10977619D01*
X20955476Y11025238D01*
X21003095Y11072857D01*
X21003095Y11406190D01*
X20812619Y11406190D01*
X21431666Y10977619D02*
X21431666Y11977619D01*
X22003095Y10977619D01*
X22003095Y11977619D01*
X22479285Y10977619D02*
X22479285Y11977619D01*
X22717380Y11977619D01*
X22860238Y11930000D01*
X22955476Y11834761D01*
X23003095Y11739523D01*
X23050714Y11549047D01*
X23050714Y11406190D01*
X23003095Y11215714D01*
X22955476Y11120476D01*
X22860238Y11025238D01*
X22717380Y10977619D01*
X22479285Y10977619D01*
X23384047Y10644285D02*
X23622142Y10644285D01*
X23622142Y12072857D01*
X23384047Y12072857D01*
X25193571Y10596666D02*
X25145952Y10644285D01*
X25050714Y10787142D01*
X25003095Y10882380D01*
X24955476Y11025238D01*
X24907857Y11263333D01*
X24907857Y11453809D01*
X24955476Y11691904D01*
X25003095Y11834761D01*
X25050714Y11930000D01*
X25145952Y12072857D01*
X25193571Y12120476D01*
X25574523Y11358571D02*
X26336428Y11358571D01*
X27336428Y10977619D02*
X26765000Y10977619D01*
X27050714Y10977619D02*
X27050714Y11977619D01*
X26955476Y11834761D01*
X26860238Y11739523D01*
X26765000Y11691904D01*
X28241190Y11977619D02*
X27765000Y11977619D01*
X27717380Y11501428D01*
X27765000Y11549047D01*
X27860238Y11596666D01*
X28098333Y11596666D01*
X28193571Y11549047D01*
X28241190Y11501428D01*
X28288809Y11406190D01*
X28288809Y11168095D01*
X28241190Y11072857D01*
X28193571Y11025238D01*
X28098333Y10977619D01*
X27860238Y10977619D01*
X27765000Y11025238D01*
X27717380Y11072857D01*
X28574523Y11977619D02*
X28907857Y10977619D01*
X29241190Y11977619D01*
X29479285Y10596666D02*
X29526904Y10644285D01*
X29622142Y10787142D01*
X29669761Y10882380D01*
X29717380Y11025238D01*
X29765000Y11263333D01*
X29765000Y11453809D01*
X29717380Y11691904D01*
X29669761Y11834761D01*
X29622142Y11930000D01*
X29526904Y12072857D01*
X29479285Y12120476D01*
X20050714Y23344285D02*
X19812619Y23344285D01*
X19812619Y24772857D01*
X20050714Y24772857D01*
X20955476Y24630000D02*
X20860238Y24677619D01*
X20717380Y24677619D01*
X20574523Y24630000D01*
X20479285Y24534761D01*
X20431666Y24439523D01*
X20384047Y24249047D01*
X20384047Y24106190D01*
X20431666Y23915714D01*
X20479285Y23820476D01*
X20574523Y23725238D01*
X20717380Y23677619D01*
X20812619Y23677619D01*
X20955476Y23725238D01*
X21003095Y23772857D01*
X21003095Y24106190D01*
X20812619Y24106190D01*
X21431666Y23677619D02*
X21431666Y24677619D01*
X22003095Y23677619D01*
X22003095Y24677619D01*
X22479285Y23677619D02*
X22479285Y24677619D01*
X22717380Y24677619D01*
X22860238Y24630000D01*
X22955476Y24534761D01*
X23003095Y24439523D01*
X23050714Y24249047D01*
X23050714Y24106190D01*
X23003095Y23915714D01*
X22955476Y23820476D01*
X22860238Y23725238D01*
X22717380Y23677619D01*
X22479285Y23677619D01*
X23384047Y23344285D02*
X23622142Y23344285D01*
X23622142Y24772857D01*
X23384047Y24772857D01*
X25193571Y23296666D02*
X25145952Y23344285D01*
X25050714Y23487142D01*
X25003095Y23582380D01*
X24955476Y23725238D01*
X24907857Y23963333D01*
X24907857Y24153809D01*
X24955476Y24391904D01*
X25003095Y24534761D01*
X25050714Y24630000D01*
X25145952Y24772857D01*
X25193571Y24820476D01*
X25574523Y24058571D02*
X26336428Y24058571D01*
X27336428Y23677619D02*
X26765000Y23677619D01*
X27050714Y23677619D02*
X27050714Y24677619D01*
X26955476Y24534761D01*
X26860238Y24439523D01*
X26765000Y24391904D01*
X28241190Y24677619D02*
X27765000Y24677619D01*
X27717380Y24201428D01*
X27765000Y24249047D01*
X27860238Y24296666D01*
X28098333Y24296666D01*
X28193571Y24249047D01*
X28241190Y24201428D01*
X28288809Y24106190D01*
X28288809Y23868095D01*
X28241190Y23772857D01*
X28193571Y23725238D01*
X28098333Y23677619D01*
X27860238Y23677619D01*
X27765000Y23725238D01*
X27717380Y23772857D01*
X28574523Y24677619D02*
X28907857Y23677619D01*
X29241190Y24677619D01*
X29479285Y23296666D02*
X29526904Y23344285D01*
X29622142Y23487142D01*
X29669761Y23582380D01*
X29717380Y23725238D01*
X29765000Y23963333D01*
X29765000Y24153809D01*
X29717380Y24391904D01*
X29669761Y24534761D01*
X29622142Y24630000D01*
X29526904Y24772857D01*
X29479285Y24820476D01*
X37973571Y10644285D02*
X37735476Y10644285D01*
X37735476Y12072857D01*
X37973571Y12072857D01*
X38354523Y11358571D02*
X39116428Y11358571D01*
X40116428Y10977619D02*
X39545000Y10977619D01*
X39830714Y10977619D02*
X39830714Y11977619D01*
X39735476Y11834761D01*
X39640238Y11739523D01*
X39545000Y11691904D01*
X41021190Y11977619D02*
X40545000Y11977619D01*
X40497380Y11501428D01*
X40545000Y11549047D01*
X40640238Y11596666D01*
X40878333Y11596666D01*
X40973571Y11549047D01*
X41021190Y11501428D01*
X41068809Y11406190D01*
X41068809Y11168095D01*
X41021190Y11072857D01*
X40973571Y11025238D01*
X40878333Y10977619D01*
X40640238Y10977619D01*
X40545000Y11025238D01*
X40497380Y11072857D01*
X41354523Y11977619D02*
X41687857Y10977619D01*
X42021190Y11977619D01*
X42259285Y10644285D02*
X42497380Y10644285D01*
X42497380Y12072857D01*
X42259285Y12072857D01*
X44068809Y10596666D02*
X44021190Y10644285D01*
X43925952Y10787142D01*
X43878333Y10882380D01*
X43830714Y11025238D01*
X43783095Y11263333D01*
X43783095Y11453809D01*
X43830714Y11691904D01*
X43878333Y11834761D01*
X43925952Y11930000D01*
X44021190Y12072857D01*
X44068809Y12120476D01*
X44973571Y10977619D02*
X44402142Y10977619D01*
X44687857Y10977619D02*
X44687857Y11977619D01*
X44592619Y11834761D01*
X44497380Y11739523D01*
X44402142Y11691904D01*
X45878333Y11977619D02*
X45402142Y11977619D01*
X45354523Y11501428D01*
X45402142Y11549047D01*
X45497380Y11596666D01*
X45735476Y11596666D01*
X45830714Y11549047D01*
X45878333Y11501428D01*
X45925952Y11406190D01*
X45925952Y11168095D01*
X45878333Y11072857D01*
X45830714Y11025238D01*
X45735476Y10977619D01*
X45497380Y10977619D01*
X45402142Y11025238D01*
X45354523Y11072857D01*
X46211666Y11977619D02*
X46545000Y10977619D01*
X46878333Y11977619D01*
X47116428Y10596666D02*
X47164047Y10644285D01*
X47259285Y10787142D01*
X47306904Y10882380D01*
X47354523Y11025238D01*
X47402142Y11263333D01*
X47402142Y11453809D01*
X47354523Y11691904D01*
X47306904Y11834761D01*
X47259285Y11930000D01*
X47164047Y12072857D01*
X47116428Y12120476D01*
X53213571Y10644285D02*
X52975476Y10644285D01*
X52975476Y12072857D01*
X53213571Y12072857D01*
X53594523Y11358571D02*
X54356428Y11358571D01*
X55356428Y10977619D02*
X54785000Y10977619D01*
X55070714Y10977619D02*
X55070714Y11977619D01*
X54975476Y11834761D01*
X54880238Y11739523D01*
X54785000Y11691904D01*
X56261190Y11977619D02*
X55785000Y11977619D01*
X55737380Y11501428D01*
X55785000Y11549047D01*
X55880238Y11596666D01*
X56118333Y11596666D01*
X56213571Y11549047D01*
X56261190Y11501428D01*
X56308809Y11406190D01*
X56308809Y11168095D01*
X56261190Y11072857D01*
X56213571Y11025238D01*
X56118333Y10977619D01*
X55880238Y10977619D01*
X55785000Y11025238D01*
X55737380Y11072857D01*
X56594523Y11977619D02*
X56927857Y10977619D01*
X57261190Y11977619D01*
X57499285Y10644285D02*
X57737380Y10644285D01*
X57737380Y12072857D01*
X57499285Y12072857D01*
X59308809Y10596666D02*
X59261190Y10644285D01*
X59165952Y10787142D01*
X59118333Y10882380D01*
X59070714Y11025238D01*
X59023095Y11263333D01*
X59023095Y11453809D01*
X59070714Y11691904D01*
X59118333Y11834761D01*
X59165952Y11930000D01*
X59261190Y12072857D01*
X59308809Y12120476D01*
X60213571Y10977619D02*
X59642142Y10977619D01*
X59927857Y10977619D02*
X59927857Y11977619D01*
X59832619Y11834761D01*
X59737380Y11739523D01*
X59642142Y11691904D01*
X61118333Y11977619D02*
X60642142Y11977619D01*
X60594523Y11501428D01*
X60642142Y11549047D01*
X60737380Y11596666D01*
X60975476Y11596666D01*
X61070714Y11549047D01*
X61118333Y11501428D01*
X61165952Y11406190D01*
X61165952Y11168095D01*
X61118333Y11072857D01*
X61070714Y11025238D01*
X60975476Y10977619D01*
X60737380Y10977619D01*
X60642142Y11025238D01*
X60594523Y11072857D01*
X61451666Y11977619D02*
X61785000Y10977619D01*
X62118333Y11977619D01*
X62356428Y10596666D02*
X62404047Y10644285D01*
X62499285Y10787142D01*
X62546904Y10882380D01*
X62594523Y11025238D01*
X62642142Y11263333D01*
X62642142Y11453809D01*
X62594523Y11691904D01*
X62546904Y11834761D01*
X62499285Y11930000D01*
X62404047Y12072857D01*
X62356428Y12120476D01*
X37973571Y23344285D02*
X37735476Y23344285D01*
X37735476Y24772857D01*
X37973571Y24772857D01*
X38354523Y24058571D02*
X39116428Y24058571D01*
X40116428Y23677619D02*
X39545000Y23677619D01*
X39830714Y23677619D02*
X39830714Y24677619D01*
X39735476Y24534761D01*
X39640238Y24439523D01*
X39545000Y24391904D01*
X41021190Y24677619D02*
X40545000Y24677619D01*
X40497380Y24201428D01*
X40545000Y24249047D01*
X40640238Y24296666D01*
X40878333Y24296666D01*
X40973571Y24249047D01*
X41021190Y24201428D01*
X41068809Y24106190D01*
X41068809Y23868095D01*
X41021190Y23772857D01*
X40973571Y23725238D01*
X40878333Y23677619D01*
X40640238Y23677619D01*
X40545000Y23725238D01*
X40497380Y23772857D01*
X41354523Y24677619D02*
X41687857Y23677619D01*
X42021190Y24677619D01*
X42259285Y23344285D02*
X42497380Y23344285D01*
X42497380Y24772857D01*
X42259285Y24772857D01*
X44068809Y23296666D02*
X44021190Y23344285D01*
X43925952Y23487142D01*
X43878333Y23582380D01*
X43830714Y23725238D01*
X43783095Y23963333D01*
X43783095Y24153809D01*
X43830714Y24391904D01*
X43878333Y24534761D01*
X43925952Y24630000D01*
X44021190Y24772857D01*
X44068809Y24820476D01*
X44973571Y23677619D02*
X44402142Y23677619D01*
X44687857Y23677619D02*
X44687857Y24677619D01*
X44592619Y24534761D01*
X44497380Y24439523D01*
X44402142Y24391904D01*
X45878333Y24677619D02*
X45402142Y24677619D01*
X45354523Y24201428D01*
X45402142Y24249047D01*
X45497380Y24296666D01*
X45735476Y24296666D01*
X45830714Y24249047D01*
X45878333Y24201428D01*
X45925952Y24106190D01*
X45925952Y23868095D01*
X45878333Y23772857D01*
X45830714Y23725238D01*
X45735476Y23677619D01*
X45497380Y23677619D01*
X45402142Y23725238D01*
X45354523Y23772857D01*
X46211666Y24677619D02*
X46545000Y23677619D01*
X46878333Y24677619D01*
X47116428Y23296666D02*
X47164047Y23344285D01*
X47259285Y23487142D01*
X47306904Y23582380D01*
X47354523Y23725238D01*
X47402142Y23963333D01*
X47402142Y24153809D01*
X47354523Y24391904D01*
X47306904Y24534761D01*
X47259285Y24630000D01*
X47164047Y24772857D01*
X47116428Y24820476D01*
X53213571Y23344285D02*
X52975476Y23344285D01*
X52975476Y24772857D01*
X53213571Y24772857D01*
X53594523Y24058571D02*
X54356428Y24058571D01*
X55356428Y23677619D02*
X54785000Y23677619D01*
X55070714Y23677619D02*
X55070714Y24677619D01*
X54975476Y24534761D01*
X54880238Y24439523D01*
X54785000Y24391904D01*
X56261190Y24677619D02*
X55785000Y24677619D01*
X55737380Y24201428D01*
X55785000Y24249047D01*
X55880238Y24296666D01*
X56118333Y24296666D01*
X56213571Y24249047D01*
X56261190Y24201428D01*
X56308809Y24106190D01*
X56308809Y23868095D01*
X56261190Y23772857D01*
X56213571Y23725238D01*
X56118333Y23677619D01*
X55880238Y23677619D01*
X55785000Y23725238D01*
X55737380Y23772857D01*
X56594523Y24677619D02*
X56927857Y23677619D01*
X57261190Y24677619D01*
X57499285Y23344285D02*
X57737380Y23344285D01*
X57737380Y24772857D01*
X57499285Y24772857D01*
X59308809Y23296666D02*
X59261190Y23344285D01*
X59165952Y23487142D01*
X59118333Y23582380D01*
X59070714Y23725238D01*
X59023095Y23963333D01*
X59023095Y24153809D01*
X59070714Y24391904D01*
X59118333Y24534761D01*
X59165952Y24630000D01*
X59261190Y24772857D01*
X59308809Y24820476D01*
X60213571Y23677619D02*
X59642142Y23677619D01*
X59927857Y23677619D02*
X59927857Y24677619D01*
X59832619Y24534761D01*
X59737380Y24439523D01*
X59642142Y24391904D01*
X61118333Y24677619D02*
X60642142Y24677619D01*
X60594523Y24201428D01*
X60642142Y24249047D01*
X60737380Y24296666D01*
X60975476Y24296666D01*
X61070714Y24249047D01*
X61118333Y24201428D01*
X61165952Y24106190D01*
X61165952Y23868095D01*
X61118333Y23772857D01*
X61070714Y23725238D01*
X60975476Y23677619D01*
X60737380Y23677619D01*
X60642142Y23725238D01*
X60594523Y23772857D01*
X61451666Y24677619D02*
X61785000Y23677619D01*
X62118333Y24677619D01*
X62356428Y23296666D02*
X62404047Y23344285D01*
X62499285Y23487142D01*
X62546904Y23582380D01*
X62594523Y23725238D01*
X62642142Y23963333D01*
X62642142Y24153809D01*
X62594523Y24391904D01*
X62546904Y24534761D01*
X62499285Y24630000D01*
X62404047Y24772857D01*
X62356428Y24820476D01*
X86904761Y10644285D02*
X86666666Y10644285D01*
X86666666Y12072857D01*
X86904761Y12072857D01*
X87809523Y11930000D02*
X87714285Y11977619D01*
X87571428Y11977619D01*
X87428571Y11930000D01*
X87333333Y11834761D01*
X87285714Y11739523D01*
X87238095Y11549047D01*
X87238095Y11406190D01*
X87285714Y11215714D01*
X87333333Y11120476D01*
X87428571Y11025238D01*
X87571428Y10977619D01*
X87666666Y10977619D01*
X87809523Y11025238D01*
X87857142Y11072857D01*
X87857142Y11406190D01*
X87666666Y11406190D01*
X88285714Y10977619D02*
X88285714Y11977619D01*
X88857142Y10977619D01*
X88857142Y11977619D01*
X89333333Y10977619D02*
X89333333Y11977619D01*
X89571428Y11977619D01*
X89714285Y11930000D01*
X89809523Y11834761D01*
X89857142Y11739523D01*
X89904761Y11549047D01*
X89904761Y11406190D01*
X89857142Y11215714D01*
X89809523Y11120476D01*
X89714285Y11025238D01*
X89571428Y10977619D01*
X89333333Y10977619D01*
X90238095Y10644285D02*
X90476190Y10644285D01*
X90476190Y12072857D01*
X90238095Y12072857D01*
X92047619Y10596666D02*
X92000000Y10644285D01*
X91904761Y10787142D01*
X91857142Y10882380D01*
X91809523Y11025238D01*
X91761904Y11263333D01*
X91761904Y11453809D01*
X91809523Y11691904D01*
X91857142Y11834761D01*
X91904761Y11930000D01*
X92000000Y12072857D01*
X92047619Y12120476D01*
X92952380Y10977619D02*
X92380952Y10977619D01*
X92666666Y10977619D02*
X92666666Y11977619D01*
X92571428Y11834761D01*
X92476190Y11739523D01*
X92380952Y11691904D01*
X93857142Y11977619D02*
X93380952Y11977619D01*
X93333333Y11501428D01*
X93380952Y11549047D01*
X93476190Y11596666D01*
X93714285Y11596666D01*
X93809523Y11549047D01*
X93857142Y11501428D01*
X93904761Y11406190D01*
X93904761Y11168095D01*
X93857142Y11072857D01*
X93809523Y11025238D01*
X93714285Y10977619D01*
X93476190Y10977619D01*
X93380952Y11025238D01*
X93333333Y11072857D01*
X94190476Y11977619D02*
X94523809Y10977619D01*
X94857142Y11977619D01*
X95095238Y10596666D02*
X95142857Y10644285D01*
X95238095Y10787142D01*
X95285714Y10882380D01*
X95333333Y11025238D01*
X95380952Y11263333D01*
X95380952Y11453809D01*
X95333333Y11691904D01*
X95285714Y11834761D01*
X95238095Y11930000D01*
X95142857Y12072857D01*
X95095238Y12120476D01*
X71304761Y10644285D02*
X71066666Y10644285D01*
X71066666Y12072857D01*
X71304761Y12072857D01*
X72209523Y11930000D02*
X72114285Y11977619D01*
X71971428Y11977619D01*
X71828571Y11930000D01*
X71733333Y11834761D01*
X71685714Y11739523D01*
X71638095Y11549047D01*
X71638095Y11406190D01*
X71685714Y11215714D01*
X71733333Y11120476D01*
X71828571Y11025238D01*
X71971428Y10977619D01*
X72066666Y10977619D01*
X72209523Y11025238D01*
X72257142Y11072857D01*
X72257142Y11406190D01*
X72066666Y11406190D01*
X72685714Y10977619D02*
X72685714Y11977619D01*
X73257142Y10977619D01*
X73257142Y11977619D01*
X73733333Y10977619D02*
X73733333Y11977619D01*
X73971428Y11977619D01*
X74114285Y11930000D01*
X74209523Y11834761D01*
X74257142Y11739523D01*
X74304761Y11549047D01*
X74304761Y11406190D01*
X74257142Y11215714D01*
X74209523Y11120476D01*
X74114285Y11025238D01*
X73971428Y10977619D01*
X73733333Y10977619D01*
X74638095Y10644285D02*
X74876190Y10644285D01*
X74876190Y12072857D01*
X74638095Y12072857D01*
X76447619Y10596666D02*
X76400000Y10644285D01*
X76304761Y10787142D01*
X76257142Y10882380D01*
X76209523Y11025238D01*
X76161904Y11263333D01*
X76161904Y11453809D01*
X76209523Y11691904D01*
X76257142Y11834761D01*
X76304761Y11930000D01*
X76400000Y12072857D01*
X76447619Y12120476D01*
X77352380Y10977619D02*
X76780952Y10977619D01*
X77066666Y10977619D02*
X77066666Y11977619D01*
X76971428Y11834761D01*
X76876190Y11739523D01*
X76780952Y11691904D01*
X78257142Y11977619D02*
X77780952Y11977619D01*
X77733333Y11501428D01*
X77780952Y11549047D01*
X77876190Y11596666D01*
X78114285Y11596666D01*
X78209523Y11549047D01*
X78257142Y11501428D01*
X78304761Y11406190D01*
X78304761Y11168095D01*
X78257142Y11072857D01*
X78209523Y11025238D01*
X78114285Y10977619D01*
X77876190Y10977619D01*
X77780952Y11025238D01*
X77733333Y11072857D01*
X78590476Y11977619D02*
X78923809Y10977619D01*
X79257142Y11977619D01*
X79495238Y10596666D02*
X79542857Y10644285D01*
X79638095Y10787142D01*
X79685714Y10882380D01*
X79733333Y11025238D01*
X79780952Y11263333D01*
X79780952Y11453809D01*
X79733333Y11691904D01*
X79685714Y11834761D01*
X79638095Y11930000D01*
X79542857Y12072857D01*
X79495238Y12120476D01*
X71504761Y23344285D02*
X71266666Y23344285D01*
X71266666Y24772857D01*
X71504761Y24772857D01*
X72409523Y24630000D02*
X72314285Y24677619D01*
X72171428Y24677619D01*
X72028571Y24630000D01*
X71933333Y24534761D01*
X71885714Y24439523D01*
X71838095Y24249047D01*
X71838095Y24106190D01*
X71885714Y23915714D01*
X71933333Y23820476D01*
X72028571Y23725238D01*
X72171428Y23677619D01*
X72266666Y23677619D01*
X72409523Y23725238D01*
X72457142Y23772857D01*
X72457142Y24106190D01*
X72266666Y24106190D01*
X72885714Y23677619D02*
X72885714Y24677619D01*
X73457142Y23677619D01*
X73457142Y24677619D01*
X73933333Y23677619D02*
X73933333Y24677619D01*
X74171428Y24677619D01*
X74314285Y24630000D01*
X74409523Y24534761D01*
X74457142Y24439523D01*
X74504761Y24249047D01*
X74504761Y24106190D01*
X74457142Y23915714D01*
X74409523Y23820476D01*
X74314285Y23725238D01*
X74171428Y23677619D01*
X73933333Y23677619D01*
X74838095Y23344285D02*
X75076190Y23344285D01*
X75076190Y24772857D01*
X74838095Y24772857D01*
X76647619Y23296666D02*
X76600000Y23344285D01*
X76504761Y23487142D01*
X76457142Y23582380D01*
X76409523Y23725238D01*
X76361904Y23963333D01*
X76361904Y24153809D01*
X76409523Y24391904D01*
X76457142Y24534761D01*
X76504761Y24630000D01*
X76600000Y24772857D01*
X76647619Y24820476D01*
X77552380Y23677619D02*
X76980952Y23677619D01*
X77266666Y23677619D02*
X77266666Y24677619D01*
X77171428Y24534761D01*
X77076190Y24439523D01*
X76980952Y24391904D01*
X78457142Y24677619D02*
X77980952Y24677619D01*
X77933333Y24201428D01*
X77980952Y24249047D01*
X78076190Y24296666D01*
X78314285Y24296666D01*
X78409523Y24249047D01*
X78457142Y24201428D01*
X78504761Y24106190D01*
X78504761Y23868095D01*
X78457142Y23772857D01*
X78409523Y23725238D01*
X78314285Y23677619D01*
X78076190Y23677619D01*
X77980952Y23725238D01*
X77933333Y23772857D01*
X78790476Y24677619D02*
X79123809Y23677619D01*
X79457142Y24677619D01*
X79695238Y23296666D02*
X79742857Y23344285D01*
X79838095Y23487142D01*
X79885714Y23582380D01*
X79933333Y23725238D01*
X79980952Y23963333D01*
X79980952Y24153809D01*
X79933333Y24391904D01*
X79885714Y24534761D01*
X79838095Y24630000D01*
X79742857Y24772857D01*
X79695238Y24820476D01*
X86704761Y23344285D02*
X86466666Y23344285D01*
X86466666Y24772857D01*
X86704761Y24772857D01*
X87609523Y24630000D02*
X87514285Y24677619D01*
X87371428Y24677619D01*
X87228571Y24630000D01*
X87133333Y24534761D01*
X87085714Y24439523D01*
X87038095Y24249047D01*
X87038095Y24106190D01*
X87085714Y23915714D01*
X87133333Y23820476D01*
X87228571Y23725238D01*
X87371428Y23677619D01*
X87466666Y23677619D01*
X87609523Y23725238D01*
X87657142Y23772857D01*
X87657142Y24106190D01*
X87466666Y24106190D01*
X88085714Y23677619D02*
X88085714Y24677619D01*
X88657142Y23677619D01*
X88657142Y24677619D01*
X89133333Y23677619D02*
X89133333Y24677619D01*
X89371428Y24677619D01*
X89514285Y24630000D01*
X89609523Y24534761D01*
X89657142Y24439523D01*
X89704761Y24249047D01*
X89704761Y24106190D01*
X89657142Y23915714D01*
X89609523Y23820476D01*
X89514285Y23725238D01*
X89371428Y23677619D01*
X89133333Y23677619D01*
X90038095Y23344285D02*
X90276190Y23344285D01*
X90276190Y24772857D01*
X90038095Y24772857D01*
X91847619Y23296666D02*
X91800000Y23344285D01*
X91704761Y23487142D01*
X91657142Y23582380D01*
X91609523Y23725238D01*
X91561904Y23963333D01*
X91561904Y24153809D01*
X91609523Y24391904D01*
X91657142Y24534761D01*
X91704761Y24630000D01*
X91800000Y24772857D01*
X91847619Y24820476D01*
X92752380Y23677619D02*
X92180952Y23677619D01*
X92466666Y23677619D02*
X92466666Y24677619D01*
X92371428Y24534761D01*
X92276190Y24439523D01*
X92180952Y24391904D01*
X93657142Y24677619D02*
X93180952Y24677619D01*
X93133333Y24201428D01*
X93180952Y24249047D01*
X93276190Y24296666D01*
X93514285Y24296666D01*
X93609523Y24249047D01*
X93657142Y24201428D01*
X93704761Y24106190D01*
X93704761Y23868095D01*
X93657142Y23772857D01*
X93609523Y23725238D01*
X93514285Y23677619D01*
X93276190Y23677619D01*
X93180952Y23725238D01*
X93133333Y23772857D01*
X93990476Y24677619D02*
X94323809Y23677619D01*
X94657142Y24677619D01*
X94895238Y23296666D02*
X94942857Y23344285D01*
X95038095Y23487142D01*
X95085714Y23582380D01*
X95133333Y23725238D01*
X95180952Y23963333D01*
X95180952Y24153809D01*
X95133333Y24391904D01*
X95085714Y24534761D01*
X95038095Y24630000D01*
X94942857Y24772857D01*
X94895238Y24820476D01*
X67738095Y91500000D02*
X67642857Y91547619D01*
X67500000Y91547619D01*
X67357142Y91500000D01*
X67261904Y91404761D01*
X67214285Y91309523D01*
X67166666Y91119047D01*
X67166666Y90976190D01*
X67214285Y90785714D01*
X67261904Y90690476D01*
X67357142Y90595238D01*
X67500000Y90547619D01*
X67595238Y90547619D01*
X67738095Y90595238D01*
X67785714Y90642857D01*
X67785714Y90976190D01*
X67595238Y90976190D01*
X68214285Y90547619D02*
X68214285Y91547619D01*
X68785714Y90547619D01*
X68785714Y91547619D01*
X69261904Y90547619D02*
X69261904Y91547619D01*
X69500000Y91547619D01*
X69642857Y91500000D01*
X69738095Y91404761D01*
X69785714Y91309523D01*
X69833333Y91119047D01*
X69833333Y90976190D01*
X69785714Y90785714D01*
X69738095Y90690476D01*
X69642857Y90595238D01*
X69500000Y90547619D01*
X69261904Y90547619D01*
X67738095Y99000000D02*
X67642857Y99047619D01*
X67500000Y99047619D01*
X67357142Y99000000D01*
X67261904Y98904761D01*
X67214285Y98809523D01*
X67166666Y98619047D01*
X67166666Y98476190D01*
X67214285Y98285714D01*
X67261904Y98190476D01*
X67357142Y98095238D01*
X67500000Y98047619D01*
X67595238Y98047619D01*
X67738095Y98095238D01*
X67785714Y98142857D01*
X67785714Y98476190D01*
X67595238Y98476190D01*
X68214285Y98047619D02*
X68214285Y99047619D01*
X68785714Y98047619D01*
X68785714Y99047619D01*
X69261904Y98047619D02*
X69261904Y99047619D01*
X69500000Y99047619D01*
X69642857Y99000000D01*
X69738095Y98904761D01*
X69785714Y98809523D01*
X69833333Y98619047D01*
X69833333Y98476190D01*
X69785714Y98285714D01*
X69738095Y98190476D01*
X69642857Y98095238D01*
X69500000Y98047619D01*
X69261904Y98047619D01*
X59571428Y99415000D02*
X60428571Y99415000D01*
X59761904Y98333333D02*
X60238095Y98333333D01*
X59666666Y98047619D02*
X60000000Y99047619D01*
X60333333Y98047619D01*
X60428571Y99415000D02*
X61428571Y99415000D01*
X61238095Y98142857D02*
X61190476Y98095238D01*
X61047619Y98047619D01*
X60952380Y98047619D01*
X60809523Y98095238D01*
X60714285Y98190476D01*
X60666666Y98285714D01*
X60619047Y98476190D01*
X60619047Y98619047D01*
X60666666Y98809523D01*
X60714285Y98904761D01*
X60809523Y99000000D01*
X60952380Y99047619D01*
X61047619Y99047619D01*
X61190476Y99000000D01*
X61238095Y98952380D01*
X51761904Y98333333D02*
X52238095Y98333333D01*
X51666666Y98047619D02*
X52000000Y99047619D01*
X52333333Y98047619D01*
X53238095Y98142857D02*
X53190476Y98095238D01*
X53047619Y98047619D01*
X52952380Y98047619D01*
X52809523Y98095238D01*
X52714285Y98190476D01*
X52666666Y98285714D01*
X52619047Y98476190D01*
X52619047Y98619047D01*
X52666666Y98809523D01*
X52714285Y98904761D01*
X52809523Y99000000D01*
X52952380Y99047619D01*
X53047619Y99047619D01*
X53190476Y99000000D01*
X53238095Y98952380D01*
X59571428Y91915000D02*
X60428571Y91915000D01*
X59761904Y90833333D02*
X60238095Y90833333D01*
X59666666Y90547619D02*
X60000000Y91547619D01*
X60333333Y90547619D01*
X60428571Y91915000D02*
X61428571Y91915000D01*
X61238095Y90642857D02*
X61190476Y90595238D01*
X61047619Y90547619D01*
X60952380Y90547619D01*
X60809523Y90595238D01*
X60714285Y90690476D01*
X60666666Y90785714D01*
X60619047Y90976190D01*
X60619047Y91119047D01*
X60666666Y91309523D01*
X60714285Y91404761D01*
X60809523Y91500000D01*
X60952380Y91547619D01*
X61047619Y91547619D01*
X61190476Y91500000D01*
X61238095Y91452380D01*
X51761904Y90833333D02*
X52238095Y90833333D01*
X51666666Y90547619D02*
X52000000Y91547619D01*
X52333333Y90547619D01*
X53238095Y90642857D02*
X53190476Y90595238D01*
X53047619Y90547619D01*
X52952380Y90547619D01*
X52809523Y90595238D01*
X52714285Y90690476D01*
X52666666Y90785714D01*
X52619047Y90976190D01*
X52619047Y91119047D01*
X52666666Y91309523D01*
X52714285Y91404761D01*
X52809523Y91500000D01*
X52952380Y91547619D01*
X53047619Y91547619D01*
X53190476Y91500000D01*
X53238095Y91452380D01*
D11*
X36000000Y75000000D02*
X36000000Y66000000D01*
X35000000Y57000000D02*
X1000000Y57000000D01*
X43000000Y65000000D02*
X35000000Y57000000D01*
X43000000Y98500000D02*
X43000000Y65000000D01*
X34000000Y64000000D02*
X1000000Y64000000D01*
X36000000Y66000000D02*
X34000000Y64000000D01*
D10*
X98952380Y33642857D02*
X97952380Y33642857D01*
X97952380Y33880952D01*
X98000000Y34023809D01*
X98095238Y34119047D01*
X98190476Y34166666D01*
X98380952Y34214285D01*
X98523809Y34214285D01*
X98714285Y34166666D01*
X98809523Y34119047D01*
X98904761Y34023809D01*
X98952380Y33880952D01*
X98952380Y33642857D01*
X98904761Y35023809D02*
X98952380Y34928571D01*
X98952380Y34738095D01*
X98904761Y34642857D01*
X98809523Y34595238D01*
X98428571Y34595238D01*
X98333333Y34642857D01*
X98285714Y34738095D01*
X98285714Y34928571D01*
X98333333Y35023809D01*
X98428571Y35071428D01*
X98523809Y35071428D01*
X98619047Y34595238D01*
X98904761Y35452380D02*
X98952380Y35547619D01*
X98952380Y35738095D01*
X98904761Y35833333D01*
X98809523Y35880952D01*
X98761904Y35880952D01*
X98666666Y35833333D01*
X98619047Y35738095D01*
X98619047Y35595238D01*
X98571428Y35500000D01*
X98476190Y35452380D01*
X98428571Y35452380D01*
X98333333Y35500000D01*
X98285714Y35595238D01*
X98285714Y35738095D01*
X98333333Y35833333D01*
X98952380Y36309523D02*
X98285714Y36309523D01*
X97952380Y36309523D02*
X98000000Y36261904D01*
X98047619Y36309523D01*
X98000000Y36357142D01*
X97952380Y36309523D01*
X98047619Y36309523D01*
X98285714Y37214285D02*
X99095238Y37214285D01*
X99190476Y37166666D01*
X99238095Y37119047D01*
X99285714Y37023809D01*
X99285714Y36880952D01*
X99238095Y36785714D01*
X98904761Y37214285D02*
X98952380Y37119047D01*
X98952380Y36928571D01*
X98904761Y36833333D01*
X98857142Y36785714D01*
X98761904Y36738095D01*
X98476190Y36738095D01*
X98380952Y36785714D01*
X98333333Y36833333D01*
X98285714Y36928571D01*
X98285714Y37119047D01*
X98333333Y37214285D01*
X98285714Y37690476D02*
X98952380Y37690476D01*
X98380952Y37690476D02*
X98333333Y37738095D01*
X98285714Y37833333D01*
X98285714Y37976190D01*
X98333333Y38071428D01*
X98428571Y38119047D01*
X98952380Y38119047D01*
X98904761Y38976190D02*
X98952380Y38880952D01*
X98952380Y38690476D01*
X98904761Y38595238D01*
X98809523Y38547619D01*
X98428571Y38547619D01*
X98333333Y38595238D01*
X98285714Y38690476D01*
X98285714Y38880952D01*
X98333333Y38976190D01*
X98428571Y39023809D01*
X98523809Y39023809D01*
X98619047Y38547619D01*
X98952380Y39880952D02*
X97952380Y39880952D01*
X98904761Y39880952D02*
X98952380Y39785714D01*
X98952380Y39595238D01*
X98904761Y39500000D01*
X98857142Y39452380D01*
X98761904Y39404761D01*
X98476190Y39404761D01*
X98380952Y39452380D01*
X98333333Y39500000D01*
X98285714Y39595238D01*
X98285714Y39785714D01*
X98333333Y39880952D01*
X98952380Y41119047D02*
X97952380Y41119047D01*
X98333333Y41119047D02*
X98285714Y41214285D01*
X98285714Y41404761D01*
X98333333Y41500000D01*
X98380952Y41547619D01*
X98476190Y41595238D01*
X98761904Y41595238D01*
X98857142Y41547619D01*
X98904761Y41500000D01*
X98952380Y41404761D01*
X98952380Y41214285D01*
X98904761Y41119047D01*
X98285714Y41928571D02*
X98952380Y42166666D01*
X98285714Y42404761D02*
X98952380Y42166666D01*
X99190476Y42071428D01*
X99238095Y42023809D01*
X99285714Y41928571D01*
X98666666Y43500000D02*
X98666666Y43976190D01*
X98952380Y43404761D02*
X97952380Y43738095D01*
X98952380Y44071428D01*
X98285714Y44404761D02*
X98952380Y44404761D01*
X98380952Y44404761D02*
X98333333Y44452380D01*
X98285714Y44547619D01*
X98285714Y44690476D01*
X98333333Y44785714D01*
X98428571Y44833333D01*
X98952380Y44833333D01*
X98952380Y45738095D02*
X97952380Y45738095D01*
X98904761Y45738095D02*
X98952380Y45642857D01*
X98952380Y45452380D01*
X98904761Y45357142D01*
X98857142Y45309523D01*
X98761904Y45261904D01*
X98476190Y45261904D01*
X98380952Y45309523D01*
X98333333Y45357142D01*
X98285714Y45452380D01*
X98285714Y45642857D01*
X98333333Y45738095D01*
X98952380Y46214285D02*
X98285714Y46214285D01*
X98476190Y46214285D02*
X98380952Y46261904D01*
X98333333Y46309523D01*
X98285714Y46404761D01*
X98285714Y46500000D01*
X98904761Y47214285D02*
X98952380Y47119047D01*
X98952380Y46928571D01*
X98904761Y46833333D01*
X98809523Y46785714D01*
X98428571Y46785714D01*
X98333333Y46833333D01*
X98285714Y46928571D01*
X98285714Y47119047D01*
X98333333Y47214285D01*
X98428571Y47261904D01*
X98523809Y47261904D01*
X98619047Y46785714D01*
X98285714Y47595238D02*
X98952380Y47785714D01*
X98476190Y47976190D01*
X98952380Y48166666D01*
X98285714Y48357142D01*
X98952380Y49500000D02*
X97952380Y49500000D01*
X98428571Y49500000D02*
X98428571Y50071428D01*
X98952380Y50071428D02*
X97952380Y50071428D01*
X98904761Y50928571D02*
X98952380Y50833333D01*
X98952380Y50642857D01*
X98904761Y50547619D01*
X98809523Y50500000D01*
X98428571Y50500000D01*
X98333333Y50547619D01*
X98285714Y50642857D01*
X98285714Y50833333D01*
X98333333Y50928571D01*
X98428571Y50976190D01*
X98523809Y50976190D01*
X98619047Y50500000D01*
X98285714Y51404761D02*
X98952380Y51404761D01*
X98380952Y51404761D02*
X98333333Y51452380D01*
X98285714Y51547619D01*
X98285714Y51690476D01*
X98333333Y51785714D01*
X98428571Y51833333D01*
X98952380Y51833333D01*
X98952380Y52309523D02*
X98285714Y52309523D01*
X98476190Y52309523D02*
X98380952Y52357142D01*
X98333333Y52404761D01*
X98285714Y52500000D01*
X98285714Y52595238D01*
X98952380Y52928571D02*
X98285714Y52928571D01*
X97952380Y52928571D02*
X98000000Y52880952D01*
X98047619Y52928571D01*
X98000000Y52976190D01*
X97952380Y52928571D01*
X98047619Y52928571D01*
X98952380Y53404761D02*
X97952380Y53404761D01*
X98571428Y53500000D02*
X98952380Y53785714D01*
X98285714Y53785714D02*
X98666666Y53404761D01*
X98904761Y54166666D02*
X98952380Y54261904D01*
X98952380Y54452380D01*
X98904761Y54547619D01*
X98809523Y54595238D01*
X98761904Y54595238D01*
X98666666Y54547619D01*
X98619047Y54452380D01*
X98619047Y54309523D01*
X98571428Y54214285D01*
X98476190Y54166666D01*
X98428571Y54166666D01*
X98333333Y54214285D01*
X98285714Y54309523D01*
X98285714Y54452380D01*
X98333333Y54547619D01*
X98952380Y55166666D02*
X98904761Y55071428D01*
X98857142Y55023809D01*
X98761904Y54976190D01*
X98476190Y54976190D01*
X98380952Y55023809D01*
X98333333Y55071428D01*
X98285714Y55166666D01*
X98285714Y55309523D01*
X98333333Y55404761D01*
X98380952Y55452380D01*
X98476190Y55500000D01*
X98761904Y55500000D01*
X98857142Y55452380D01*
X98904761Y55404761D01*
X98952380Y55309523D01*
X98952380Y55166666D01*
X98285714Y55928571D02*
X98952380Y55928571D01*
X98380952Y55928571D02*
X98333333Y55976190D01*
X98285714Y56071428D01*
X98285714Y56214285D01*
X98333333Y56309523D01*
X98428571Y56357142D01*
X98952380Y56357142D01*
D11*
%TO.C,C1*%
X99020000Y76835000D02*
G75*
G03*
X99020000Y76835000I-15120000J0D01*
G01*
X83900000Y61754000D02*
X83900000Y91916000D01*
X83860000Y61755000D02*
X83860000Y91915000D01*
X83820000Y61755000D02*
X83820000Y91915000D01*
X83780000Y61755000D02*
X83780000Y91915000D01*
X83740000Y61755000D02*
X83740000Y91915000D01*
X83700000Y61756000D02*
X83700000Y91914000D01*
X83660000Y61756000D02*
X83660000Y91914000D01*
X83620000Y61757000D02*
X83620000Y91913000D01*
X83580000Y61758000D02*
X83580000Y91912000D01*
X83540000Y61759000D02*
X83540000Y91911000D01*
X83500000Y61760000D02*
X83500000Y91910000D01*
X83460000Y61761000D02*
X83460000Y91909000D01*
X83420000Y61762000D02*
X83420000Y91908000D01*
X83380000Y61763000D02*
X83380000Y91907000D01*
X83340000Y61765000D02*
X83340000Y91905000D01*
X83300000Y61766000D02*
X83300000Y91904000D01*
X83260000Y61768000D02*
X83260000Y91902000D01*
X83220000Y61770000D02*
X83220000Y91900000D01*
X83179000Y61772000D02*
X83179000Y91898000D01*
X83139000Y61774000D02*
X83139000Y91896000D01*
X83099000Y61776000D02*
X83099000Y91894000D01*
X83059000Y61778000D02*
X83059000Y91892000D01*
X83019000Y61780000D02*
X83019000Y91890000D01*
X82979000Y61783000D02*
X82979000Y91887000D01*
X82939000Y61785000D02*
X82939000Y91885000D01*
X82899000Y61788000D02*
X82899000Y91882000D01*
X82859000Y61790000D02*
X82859000Y91880000D01*
X82819000Y61793000D02*
X82819000Y91877000D01*
X82779000Y61796000D02*
X82779000Y91874000D01*
X82739000Y61799000D02*
X82739000Y91871000D01*
X82699000Y61802000D02*
X82699000Y91868000D01*
X82659000Y61805000D02*
X82659000Y91865000D01*
X82619000Y61809000D02*
X82619000Y91861000D01*
X82579000Y61812000D02*
X82579000Y91858000D01*
X82539000Y61816000D02*
X82539000Y91854000D01*
X82499000Y61819000D02*
X82499000Y91851000D01*
X82459000Y61823000D02*
X82459000Y91847000D01*
X82419000Y61827000D02*
X82419000Y91843000D01*
X82379000Y61831000D02*
X82379000Y91839000D01*
X82339000Y61835000D02*
X82339000Y91835000D01*
X82299000Y61839000D02*
X82299000Y91831000D01*
X82259000Y61844000D02*
X82259000Y91826000D01*
X82219000Y61848000D02*
X82219000Y91822000D01*
X82179000Y61853000D02*
X82179000Y91817000D01*
X82139000Y61857000D02*
X82139000Y91813000D01*
X82099000Y61862000D02*
X82099000Y91808000D01*
X82059000Y61867000D02*
X82059000Y91803000D01*
X82019000Y61872000D02*
X82019000Y91798000D01*
X81979000Y61877000D02*
X81979000Y91793000D01*
X81939000Y61882000D02*
X81939000Y91788000D01*
X81899000Y61887000D02*
X81899000Y91783000D01*
X81859000Y61893000D02*
X81859000Y91777000D01*
X81819000Y61898000D02*
X81819000Y91772000D01*
X81779000Y61904000D02*
X81779000Y91766000D01*
X81739000Y61910000D02*
X81739000Y91760000D01*
X81699000Y61915000D02*
X81699000Y91755000D01*
X81659000Y61921000D02*
X81659000Y91749000D01*
X81619000Y61927000D02*
X81619000Y91743000D01*
X81579000Y61934000D02*
X81579000Y91736000D01*
X81539000Y61940000D02*
X81539000Y91730000D01*
X81499000Y61946000D02*
X81499000Y91724000D01*
X81459000Y61953000D02*
X81459000Y91717000D01*
X81419000Y61959000D02*
X81419000Y91711000D01*
X81379000Y61966000D02*
X81379000Y91704000D01*
X81339000Y61973000D02*
X81339000Y91697000D01*
X81299000Y61980000D02*
X81299000Y91690000D01*
X81259000Y61987000D02*
X81259000Y91683000D01*
X81219000Y61994000D02*
X81219000Y91676000D01*
X81179000Y62001000D02*
X81179000Y91669000D01*
X81139000Y62009000D02*
X81139000Y74595000D01*
X81139000Y79075000D02*
X81139000Y91661000D01*
X81099000Y62016000D02*
X81099000Y74595000D01*
X81099000Y79075000D02*
X81099000Y91654000D01*
X81059000Y62024000D02*
X81059000Y74595000D01*
X81059000Y79075000D02*
X81059000Y91646000D01*
X81019000Y62031000D02*
X81019000Y74595000D01*
X81019000Y79075000D02*
X81019000Y91639000D01*
X80979000Y62039000D02*
X80979000Y74595000D01*
X80979000Y79075000D02*
X80979000Y91631000D01*
X80939000Y62047000D02*
X80939000Y74595000D01*
X80939000Y79075000D02*
X80939000Y91623000D01*
X80899000Y62055000D02*
X80899000Y74595000D01*
X80899000Y79075000D02*
X80899000Y91615000D01*
X80859000Y62063000D02*
X80859000Y74595000D01*
X80859000Y79075000D02*
X80859000Y91607000D01*
X80819000Y62072000D02*
X80819000Y74595000D01*
X80819000Y79075000D02*
X80819000Y91598000D01*
X80779000Y62080000D02*
X80779000Y74595000D01*
X80779000Y79075000D02*
X80779000Y91590000D01*
X80739000Y62088000D02*
X80739000Y74595000D01*
X80739000Y79075000D02*
X80739000Y91582000D01*
X80699000Y62097000D02*
X80699000Y74595000D01*
X80699000Y79075000D02*
X80699000Y91573000D01*
X80659000Y62106000D02*
X80659000Y74595000D01*
X80659000Y79075000D02*
X80659000Y91564000D01*
X80619000Y62115000D02*
X80619000Y74595000D01*
X80619000Y79075000D02*
X80619000Y91555000D01*
X80579000Y62124000D02*
X80579000Y74595000D01*
X80579000Y79075000D02*
X80579000Y91546000D01*
X80539000Y62133000D02*
X80539000Y74595000D01*
X80539000Y79075000D02*
X80539000Y91537000D01*
X80499000Y62142000D02*
X80499000Y74595000D01*
X80499000Y79075000D02*
X80499000Y91528000D01*
X80459000Y62151000D02*
X80459000Y74595000D01*
X80459000Y79075000D02*
X80459000Y91519000D01*
X80419000Y62160000D02*
X80419000Y74595000D01*
X80419000Y79075000D02*
X80419000Y91510000D01*
X80379000Y62170000D02*
X80379000Y74595000D01*
X80379000Y79075000D02*
X80379000Y91500000D01*
X80339000Y62180000D02*
X80339000Y74595000D01*
X80339000Y79075000D02*
X80339000Y91490000D01*
X80299000Y62189000D02*
X80299000Y74595000D01*
X80299000Y79075000D02*
X80299000Y91481000D01*
X80259000Y62199000D02*
X80259000Y74595000D01*
X80259000Y79075000D02*
X80259000Y91471000D01*
X80219000Y62209000D02*
X80219000Y74595000D01*
X80219000Y79075000D02*
X80219000Y91461000D01*
X80179000Y62219000D02*
X80179000Y74595000D01*
X80179000Y79075000D02*
X80179000Y91451000D01*
X80139000Y62229000D02*
X80139000Y74595000D01*
X80139000Y79075000D02*
X80139000Y91441000D01*
X80099000Y62240000D02*
X80099000Y74595000D01*
X80099000Y79075000D02*
X80099000Y91430000D01*
X80059000Y62250000D02*
X80059000Y74595000D01*
X80059000Y79075000D02*
X80059000Y91420000D01*
X80019000Y62261000D02*
X80019000Y74595000D01*
X80019000Y79075000D02*
X80019000Y91409000D01*
X79979000Y62271000D02*
X79979000Y74595000D01*
X79979000Y79075000D02*
X79979000Y91399000D01*
X79939000Y62282000D02*
X79939000Y74595000D01*
X79939000Y79075000D02*
X79939000Y91388000D01*
X79899000Y62293000D02*
X79899000Y74595000D01*
X79899000Y79075000D02*
X79899000Y91377000D01*
X79859000Y62304000D02*
X79859000Y74595000D01*
X79859000Y79075000D02*
X79859000Y91366000D01*
X79819000Y62315000D02*
X79819000Y74595000D01*
X79819000Y79075000D02*
X79819000Y91355000D01*
X79779000Y62327000D02*
X79779000Y74595000D01*
X79779000Y79075000D02*
X79779000Y91343000D01*
X79739000Y62338000D02*
X79739000Y74595000D01*
X79739000Y79075000D02*
X79739000Y91332000D01*
X79699000Y62350000D02*
X79699000Y74595000D01*
X79699000Y79075000D02*
X79699000Y91320000D01*
X79659000Y62361000D02*
X79659000Y74595000D01*
X79659000Y79075000D02*
X79659000Y91309000D01*
X79619000Y62373000D02*
X79619000Y74595000D01*
X79619000Y79075000D02*
X79619000Y91297000D01*
X79579000Y62385000D02*
X79579000Y74595000D01*
X79579000Y79075000D02*
X79579000Y91285000D01*
X79539000Y62397000D02*
X79539000Y74595000D01*
X79539000Y79075000D02*
X79539000Y91273000D01*
X79499000Y62409000D02*
X79499000Y74595000D01*
X79499000Y79075000D02*
X79499000Y91261000D01*
X79459000Y62421000D02*
X79459000Y74595000D01*
X79459000Y79075000D02*
X79459000Y91249000D01*
X79419000Y62433000D02*
X79419000Y74595000D01*
X79419000Y79075000D02*
X79419000Y91237000D01*
X79379000Y62446000D02*
X79379000Y74595000D01*
X79379000Y79075000D02*
X79379000Y91224000D01*
X79339000Y62459000D02*
X79339000Y74595000D01*
X79339000Y79075000D02*
X79339000Y91211000D01*
X79299000Y62471000D02*
X79299000Y74595000D01*
X79299000Y79075000D02*
X79299000Y91199000D01*
X79259000Y62484000D02*
X79259000Y74595000D01*
X79259000Y79075000D02*
X79259000Y91186000D01*
X79219000Y62497000D02*
X79219000Y74595000D01*
X79219000Y79075000D02*
X79219000Y91173000D01*
X79179000Y62510000D02*
X79179000Y74595000D01*
X79179000Y79075000D02*
X79179000Y91160000D01*
X79139000Y62523000D02*
X79139000Y74595000D01*
X79139000Y79075000D02*
X79139000Y91147000D01*
X79099000Y62537000D02*
X79099000Y74595000D01*
X79099000Y79075000D02*
X79099000Y91133000D01*
X79059000Y62550000D02*
X79059000Y74595000D01*
X79059000Y79075000D02*
X79059000Y91120000D01*
X79019000Y62564000D02*
X79019000Y74595000D01*
X79019000Y79075000D02*
X79019000Y91106000D01*
X78979000Y62577000D02*
X78979000Y74595000D01*
X78979000Y79075000D02*
X78979000Y91093000D01*
X78939000Y62591000D02*
X78939000Y74595000D01*
X78939000Y79075000D02*
X78939000Y91079000D01*
X78899000Y62605000D02*
X78899000Y74595000D01*
X78899000Y79075000D02*
X78899000Y91065000D01*
X78859000Y62619000D02*
X78859000Y74595000D01*
X78859000Y79075000D02*
X78859000Y91051000D01*
X78819000Y62633000D02*
X78819000Y74595000D01*
X78819000Y79075000D02*
X78819000Y91037000D01*
X78779000Y62648000D02*
X78779000Y74595000D01*
X78779000Y79075000D02*
X78779000Y91022000D01*
X78739000Y62662000D02*
X78739000Y74595000D01*
X78739000Y79075000D02*
X78739000Y91008000D01*
X78699000Y62677000D02*
X78699000Y74595000D01*
X78699000Y79075000D02*
X78699000Y90993000D01*
X78659000Y62692000D02*
X78659000Y74595000D01*
X78659000Y79075000D02*
X78659000Y90978000D01*
X78619000Y62706000D02*
X78619000Y74595000D01*
X78619000Y79075000D02*
X78619000Y90964000D01*
X78579000Y62721000D02*
X78579000Y74595000D01*
X78579000Y79075000D02*
X78579000Y90949000D01*
X78539000Y62736000D02*
X78539000Y74595000D01*
X78539000Y79075000D02*
X78539000Y90934000D01*
X78499000Y62752000D02*
X78499000Y74595000D01*
X78499000Y79075000D02*
X78499000Y90918000D01*
X78459000Y62767000D02*
X78459000Y74595000D01*
X78459000Y79075000D02*
X78459000Y90903000D01*
X78419000Y62783000D02*
X78419000Y74595000D01*
X78419000Y79075000D02*
X78419000Y90887000D01*
X78379000Y62798000D02*
X78379000Y74595000D01*
X78379000Y79075000D02*
X78379000Y90872000D01*
X78339000Y62814000D02*
X78339000Y74595000D01*
X78339000Y79075000D02*
X78339000Y90856000D01*
X78299000Y62830000D02*
X78299000Y74595000D01*
X78299000Y79075000D02*
X78299000Y90840000D01*
X78259000Y62846000D02*
X78259000Y74595000D01*
X78259000Y79075000D02*
X78259000Y90824000D01*
X78219000Y62862000D02*
X78219000Y74595000D01*
X78219000Y79075000D02*
X78219000Y90808000D01*
X78179000Y62878000D02*
X78179000Y74595000D01*
X78179000Y79075000D02*
X78179000Y90792000D01*
X78139000Y62895000D02*
X78139000Y74595000D01*
X78139000Y79075000D02*
X78139000Y90775000D01*
X78099000Y62911000D02*
X78099000Y74595000D01*
X78099000Y79075000D02*
X78099000Y90759000D01*
X78059000Y62928000D02*
X78059000Y74595000D01*
X78059000Y79075000D02*
X78059000Y90742000D01*
X78019000Y62945000D02*
X78019000Y74595000D01*
X78019000Y79075000D02*
X78019000Y90725000D01*
X77979000Y62962000D02*
X77979000Y74595000D01*
X77979000Y79075000D02*
X77979000Y90708000D01*
X77939000Y62979000D02*
X77939000Y74595000D01*
X77939000Y79075000D02*
X77939000Y90691000D01*
X77899000Y62996000D02*
X77899000Y74595000D01*
X77899000Y79075000D02*
X77899000Y90674000D01*
X77859000Y63013000D02*
X77859000Y74595000D01*
X77859000Y79075000D02*
X77859000Y90657000D01*
X77819000Y63031000D02*
X77819000Y74595000D01*
X77819000Y79075000D02*
X77819000Y90639000D01*
X77779000Y63048000D02*
X77779000Y74595000D01*
X77779000Y79075000D02*
X77779000Y90622000D01*
X77739000Y63066000D02*
X77739000Y74595000D01*
X77739000Y79075000D02*
X77739000Y90604000D01*
X77699000Y63084000D02*
X77699000Y74595000D01*
X77699000Y79075000D02*
X77699000Y90586000D01*
X77659000Y63102000D02*
X77659000Y74595000D01*
X77659000Y79075000D02*
X77659000Y90568000D01*
X77619000Y63120000D02*
X77619000Y74595000D01*
X77619000Y79075000D02*
X77619000Y90550000D01*
X77579000Y63139000D02*
X77579000Y74595000D01*
X77579000Y79075000D02*
X77579000Y90531000D01*
X77539000Y63157000D02*
X77539000Y74595000D01*
X77539000Y79075000D02*
X77539000Y90513000D01*
X77499000Y63176000D02*
X77499000Y74595000D01*
X77499000Y79075000D02*
X77499000Y90494000D01*
X77459000Y63195000D02*
X77459000Y74595000D01*
X77459000Y79075000D02*
X77459000Y90475000D01*
X77419000Y63213000D02*
X77419000Y74595000D01*
X77419000Y79075000D02*
X77419000Y90457000D01*
X77379000Y63233000D02*
X77379000Y74595000D01*
X77379000Y79075000D02*
X77379000Y90437000D01*
X77339000Y63252000D02*
X77339000Y74595000D01*
X77339000Y79075000D02*
X77339000Y90418000D01*
X77299000Y63271000D02*
X77299000Y74595000D01*
X77299000Y79075000D02*
X77299000Y90399000D01*
X77259000Y63291000D02*
X77259000Y74595000D01*
X77259000Y79075000D02*
X77259000Y90379000D01*
X77219000Y63310000D02*
X77219000Y74595000D01*
X77219000Y79075000D02*
X77219000Y90360000D01*
X77179000Y63330000D02*
X77179000Y74595000D01*
X77179000Y79075000D02*
X77179000Y90340000D01*
X77139000Y63350000D02*
X77139000Y74595000D01*
X77139000Y79075000D02*
X77139000Y90320000D01*
X77099000Y63370000D02*
X77099000Y74595000D01*
X77099000Y79075000D02*
X77099000Y90300000D01*
X77059000Y63390000D02*
X77059000Y74595000D01*
X77059000Y79075000D02*
X77059000Y90280000D01*
X77019000Y63410000D02*
X77019000Y74595000D01*
X77019000Y79075000D02*
X77019000Y90260000D01*
X76979000Y63431000D02*
X76979000Y74595000D01*
X76979000Y79075000D02*
X76979000Y90239000D01*
X76939000Y63452000D02*
X76939000Y74595000D01*
X76939000Y79075000D02*
X76939000Y90218000D01*
X76899000Y63472000D02*
X76899000Y74595000D01*
X76899000Y79075000D02*
X76899000Y90198000D01*
X76859000Y63493000D02*
X76859000Y74595000D01*
X76859000Y79075000D02*
X76859000Y90177000D01*
X76819000Y63515000D02*
X76819000Y74595000D01*
X76819000Y79075000D02*
X76819000Y90155000D01*
X76779000Y63536000D02*
X76779000Y74595000D01*
X76779000Y79075000D02*
X76779000Y90134000D01*
X76739000Y63557000D02*
X76739000Y74595000D01*
X76739000Y79075000D02*
X76739000Y90113000D01*
X76699000Y63579000D02*
X76699000Y74595000D01*
X76699000Y79075000D02*
X76699000Y90091000D01*
X76659000Y63601000D02*
X76659000Y90069000D01*
X76619000Y63622000D02*
X76619000Y90048000D01*
X76579000Y63645000D02*
X76579000Y90025000D01*
X76539000Y63667000D02*
X76539000Y90003000D01*
X76499000Y63689000D02*
X76499000Y89981000D01*
X76459000Y63712000D02*
X76459000Y89958000D01*
X76419000Y63734000D02*
X76419000Y89936000D01*
X76379000Y63757000D02*
X76379000Y89913000D01*
X76339000Y63780000D02*
X76339000Y89890000D01*
X76299000Y63803000D02*
X76299000Y89867000D01*
X76259000Y63827000D02*
X76259000Y89843000D01*
X76219000Y63850000D02*
X76219000Y89820000D01*
X76179000Y63874000D02*
X76179000Y89796000D01*
X76139000Y63898000D02*
X76139000Y89772000D01*
X76099000Y63922000D02*
X76099000Y89748000D01*
X76059000Y63946000D02*
X76059000Y89724000D01*
X76019000Y63970000D02*
X76019000Y89700000D01*
X75979000Y63995000D02*
X75979000Y89675000D01*
X75939000Y64019000D02*
X75939000Y89651000D01*
X75899000Y64044000D02*
X75899000Y89626000D01*
X75859000Y64069000D02*
X75859000Y89601000D01*
X75819000Y64095000D02*
X75819000Y89575000D01*
X75779000Y64120000D02*
X75779000Y89550000D01*
X75739000Y64145000D02*
X75739000Y89525000D01*
X75700000Y64171000D02*
X75700000Y89499000D01*
X75660000Y64197000D02*
X75660000Y89473000D01*
X75620000Y64223000D02*
X75620000Y89447000D01*
X75580000Y64249000D02*
X75580000Y89421000D01*
X75540000Y64276000D02*
X75540000Y89394000D01*
X75500000Y64303000D02*
X75500000Y89367000D01*
X75460000Y64329000D02*
X75460000Y89341000D01*
X75420000Y64356000D02*
X75420000Y89314000D01*
X75380000Y64384000D02*
X75380000Y89286000D01*
X75340000Y64411000D02*
X75340000Y89259000D01*
X75300000Y64438000D02*
X75300000Y89232000D01*
X75260000Y64466000D02*
X75260000Y89204000D01*
X75220000Y64494000D02*
X75220000Y89176000D01*
X75180000Y64522000D02*
X75180000Y89148000D01*
X75140000Y64551000D02*
X75140000Y89119000D01*
X75100000Y64579000D02*
X75100000Y89091000D01*
X75060000Y64608000D02*
X75060000Y89062000D01*
X75020000Y64637000D02*
X75020000Y89033000D01*
X74980000Y64666000D02*
X74980000Y89004000D01*
X74940000Y64695000D02*
X74940000Y88975000D01*
X74900000Y64725000D02*
X74900000Y88945000D01*
X74860000Y64755000D02*
X74860000Y88915000D01*
X74820000Y64785000D02*
X74820000Y88885000D01*
X74780000Y64815000D02*
X74780000Y88855000D01*
X74740000Y64845000D02*
X74740000Y88825000D01*
X74700000Y64876000D02*
X74700000Y88794000D01*
X74660000Y64906000D02*
X74660000Y88764000D01*
X74620000Y64937000D02*
X74620000Y88733000D01*
X74580000Y64969000D02*
X74580000Y88701000D01*
X74540000Y65000000D02*
X74540000Y88670000D01*
X74500000Y65032000D02*
X74500000Y88638000D01*
X74460000Y65063000D02*
X74460000Y88607000D01*
X74420000Y65096000D02*
X74420000Y88574000D01*
X74380000Y65128000D02*
X74380000Y88542000D01*
X74340000Y65160000D02*
X74340000Y88510000D01*
X74300000Y65193000D02*
X74300000Y88477000D01*
X74260000Y65226000D02*
X74260000Y88444000D01*
X74220000Y65259000D02*
X74220000Y88411000D01*
X74180000Y65293000D02*
X74180000Y88377000D01*
X74140000Y65326000D02*
X74140000Y88344000D01*
X74100000Y65360000D02*
X74100000Y88310000D01*
X74060000Y65395000D02*
X74060000Y88275000D01*
X74020000Y65429000D02*
X74020000Y88241000D01*
X73980000Y65464000D02*
X73980000Y88206000D01*
X73940000Y65499000D02*
X73940000Y88171000D01*
X73900000Y65534000D02*
X73900000Y88136000D01*
X73860000Y65569000D02*
X73860000Y88101000D01*
X73820000Y65605000D02*
X73820000Y88065000D01*
X73780000Y65641000D02*
X73780000Y88029000D01*
X73740000Y65677000D02*
X73740000Y87993000D01*
X73700000Y65713000D02*
X73700000Y87957000D01*
X73660000Y65750000D02*
X73660000Y87920000D01*
X73620000Y65787000D02*
X73620000Y87883000D01*
X73580000Y65824000D02*
X73580000Y87846000D01*
X73540000Y65862000D02*
X73540000Y87808000D01*
X73500000Y65899000D02*
X73500000Y87771000D01*
X73460000Y65937000D02*
X73460000Y87733000D01*
X73420000Y65976000D02*
X73420000Y87694000D01*
X73380000Y66014000D02*
X73380000Y87656000D01*
X73340000Y66053000D02*
X73340000Y87617000D01*
X73300000Y66092000D02*
X73300000Y87578000D01*
X73260000Y66132000D02*
X73260000Y87538000D01*
X73220000Y66172000D02*
X73220000Y87498000D01*
X73180000Y66212000D02*
X73180000Y87458000D01*
X73140000Y66252000D02*
X73140000Y87418000D01*
X73100000Y66293000D02*
X73100000Y87377000D01*
X73060000Y66334000D02*
X73060000Y87336000D01*
X73020000Y66375000D02*
X73020000Y87295000D01*
X72980000Y66417000D02*
X72980000Y87253000D01*
X72940000Y66459000D02*
X72940000Y87211000D01*
X72900000Y66501000D02*
X72900000Y87169000D01*
X72860000Y66543000D02*
X72860000Y87127000D01*
X72820000Y66586000D02*
X72820000Y87084000D01*
X72780000Y66630000D02*
X72780000Y87040000D01*
X72740000Y66673000D02*
X72740000Y86997000D01*
X72700000Y66717000D02*
X72700000Y86953000D01*
X72660000Y66761000D02*
X72660000Y86909000D01*
X72620000Y66806000D02*
X72620000Y86864000D01*
X72580000Y66851000D02*
X72580000Y86819000D01*
X72540000Y66896000D02*
X72540000Y86774000D01*
X72500000Y66942000D02*
X72500000Y86728000D01*
X72460000Y66988000D02*
X72460000Y86682000D01*
X72420000Y67035000D02*
X72420000Y86635000D01*
X72380000Y67081000D02*
X72380000Y86589000D01*
X72340000Y67129000D02*
X72340000Y86541000D01*
X72300000Y67176000D02*
X72300000Y86494000D01*
X72260000Y67224000D02*
X72260000Y86446000D01*
X72220000Y67273000D02*
X72220000Y86397000D01*
X72180000Y67322000D02*
X72180000Y86348000D01*
X72140000Y67371000D02*
X72140000Y86299000D01*
X72100000Y67421000D02*
X72100000Y86249000D01*
X72060000Y67471000D02*
X72060000Y86199000D01*
X72020000Y67521000D02*
X72020000Y86149000D01*
X71980000Y67572000D02*
X71980000Y86098000D01*
X71940000Y67624000D02*
X71940000Y86046000D01*
X71900000Y67676000D02*
X71900000Y85994000D01*
X71860000Y67728000D02*
X71860000Y85942000D01*
X71820000Y67781000D02*
X71820000Y85889000D01*
X71780000Y67835000D02*
X71780000Y85835000D01*
X71740000Y67888000D02*
X71740000Y85782000D01*
X71700000Y67943000D02*
X71700000Y85727000D01*
X71660000Y67998000D02*
X71660000Y85672000D01*
X71620000Y68053000D02*
X71620000Y85617000D01*
X71580000Y68109000D02*
X71580000Y85561000D01*
X71540000Y68166000D02*
X71540000Y85504000D01*
X71500000Y68223000D02*
X71500000Y85447000D01*
X71460000Y68280000D02*
X71460000Y85390000D01*
X71420000Y68338000D02*
X71420000Y85332000D01*
X71380000Y68397000D02*
X71380000Y85273000D01*
X71340000Y68457000D02*
X71340000Y85213000D01*
X71300000Y68517000D02*
X71300000Y85153000D01*
X71260000Y68577000D02*
X71260000Y85093000D01*
X71220000Y68638000D02*
X71220000Y85032000D01*
X71180000Y68700000D02*
X71180000Y84970000D01*
X71140000Y68763000D02*
X71140000Y84907000D01*
X71100000Y68826000D02*
X71100000Y84844000D01*
X71060000Y68890000D02*
X71060000Y84780000D01*
X71020000Y68955000D02*
X71020000Y84715000D01*
X70980000Y69020000D02*
X70980000Y84650000D01*
X70940000Y69087000D02*
X70940000Y84583000D01*
X70900000Y69153000D02*
X70900000Y84517000D01*
X70860000Y69221000D02*
X70860000Y84449000D01*
X70820000Y69290000D02*
X70820000Y84380000D01*
X70780000Y69359000D02*
X70780000Y84311000D01*
X70740000Y69429000D02*
X70740000Y84241000D01*
X70700000Y69501000D02*
X70700000Y84169000D01*
X70660000Y69573000D02*
X70660000Y84097000D01*
X70620000Y69646000D02*
X70620000Y84024000D01*
X70580000Y69720000D02*
X70580000Y83950000D01*
X70540000Y69795000D02*
X70540000Y83875000D01*
X70500000Y69871000D02*
X70500000Y83799000D01*
X70460000Y69948000D02*
X70460000Y83722000D01*
X70420000Y70026000D02*
X70420000Y83644000D01*
X70380000Y70105000D02*
X70380000Y83565000D01*
X70340000Y70186000D02*
X70340000Y83484000D01*
X70300000Y70267000D02*
X70300000Y83403000D01*
X70260000Y70350000D02*
X70260000Y83320000D01*
X70220000Y70435000D02*
X70220000Y83235000D01*
X70180000Y70520000D02*
X70180000Y83150000D01*
X70140000Y70607000D02*
X70140000Y83063000D01*
X70100000Y70696000D02*
X70100000Y82974000D01*
X70060000Y70786000D02*
X70060000Y82884000D01*
X70020000Y70878000D02*
X70020000Y82792000D01*
X69980000Y70971000D02*
X69980000Y82699000D01*
X69940000Y71067000D02*
X69940000Y82603000D01*
X69900000Y71164000D02*
X69900000Y82506000D01*
X69860000Y71263000D02*
X69860000Y82407000D01*
X69820000Y71364000D02*
X69820000Y82306000D01*
X69780000Y71467000D02*
X69780000Y82203000D01*
X69740000Y71573000D02*
X69740000Y82097000D01*
X69700000Y71681000D02*
X69700000Y81989000D01*
X69660000Y71792000D02*
X69660000Y81878000D01*
X69620000Y71905000D02*
X69620000Y81765000D01*
X69580000Y72021000D02*
X69580000Y81649000D01*
X69540000Y72141000D02*
X69540000Y81529000D01*
X69500000Y72264000D02*
X69500000Y81406000D01*
X69460000Y72391000D02*
X69460000Y81279000D01*
X69420000Y72522000D02*
X69420000Y81148000D01*
X69380000Y72657000D02*
X69380000Y81013000D01*
X69340000Y72798000D02*
X69340000Y80872000D01*
X69300000Y72943000D02*
X69300000Y80727000D01*
X69260000Y73095000D02*
X69260000Y80575000D01*
X69220000Y73253000D02*
X69220000Y80417000D01*
X69180000Y73420000D02*
X69180000Y80250000D01*
X69140000Y73595000D02*
X69140000Y80075000D01*
X69100000Y73780000D02*
X69100000Y79890000D01*
X69060000Y73978000D02*
X69060000Y79692000D01*
X69020000Y74191000D02*
X69020000Y79479000D01*
X68980000Y74423000D02*
X68980000Y79247000D01*
X68940000Y74681000D02*
X68940000Y78989000D01*
X68900000Y74973000D02*
X68900000Y78697000D01*
X68860000Y75321000D02*
X68860000Y78349000D01*
X68820000Y75775000D02*
X68820000Y77895000D01*
X68780000Y76795000D02*
X68780000Y76875000D01*
X100079131Y68360000D02*
X97079131Y68360000D01*
X98579131Y66860000D02*
X98579131Y69860000D01*
%TO.C,C4*%
X90340000Y51017936D02*
X90340000Y52222064D01*
X93060000Y51017936D02*
X93060000Y52222064D01*
%TO.C,C6*%
X77840000Y40255436D02*
X77840000Y41459564D01*
X80560000Y40255436D02*
X80560000Y41459564D01*
%TO.C,C7*%
X75870000Y35500000D02*
G75*
G03*
X75870000Y35500000I-8120000J0D01*
G01*
X67750000Y27419000D02*
X67750000Y43581000D01*
X67710000Y27420000D02*
X67710000Y43580000D01*
X67670000Y27420000D02*
X67670000Y43580000D01*
X67630000Y27420000D02*
X67630000Y43580000D01*
X67590000Y27421000D02*
X67590000Y43579000D01*
X67550000Y27422000D02*
X67550000Y43578000D01*
X67510000Y27423000D02*
X67510000Y43577000D01*
X67470000Y27424000D02*
X67470000Y43576000D01*
X67430000Y27426000D02*
X67430000Y43574000D01*
X67390000Y27427000D02*
X67390000Y43573000D01*
X67350000Y27429000D02*
X67350000Y43571000D01*
X67310000Y27431000D02*
X67310000Y43569000D01*
X67270000Y27434000D02*
X67270000Y43566000D01*
X67230000Y27436000D02*
X67230000Y43564000D01*
X67190000Y27439000D02*
X67190000Y43561000D01*
X67150000Y27442000D02*
X67150000Y43558000D01*
X67110000Y27445000D02*
X67110000Y43555000D01*
X67070000Y27448000D02*
X67070000Y43552000D01*
X67029000Y27451000D02*
X67029000Y43549000D01*
X66989000Y27455000D02*
X66989000Y43545000D01*
X66949000Y27459000D02*
X66949000Y43541000D01*
X66909000Y27463000D02*
X66909000Y43537000D01*
X66869000Y27467000D02*
X66869000Y43533000D01*
X66829000Y27472000D02*
X66829000Y43528000D01*
X66789000Y27476000D02*
X66789000Y43524000D01*
X66749000Y27481000D02*
X66749000Y43519000D01*
X66709000Y27486000D02*
X66709000Y43514000D01*
X66669000Y27492000D02*
X66669000Y43508000D01*
X66629000Y27497000D02*
X66629000Y43503000D01*
X66589000Y27503000D02*
X66589000Y43497000D01*
X66549000Y27509000D02*
X66549000Y43491000D01*
X66509000Y27515000D02*
X66509000Y43485000D01*
X66469000Y27521000D02*
X66469000Y43479000D01*
X66429000Y27528000D02*
X66429000Y43472000D01*
X66389000Y27534000D02*
X66389000Y43466000D01*
X66349000Y27541000D02*
X66349000Y43459000D01*
X66309000Y27548000D02*
X66309000Y43452000D01*
X66269000Y27556000D02*
X66269000Y43444000D01*
X66229000Y27563000D02*
X66229000Y43437000D01*
X66189000Y27571000D02*
X66189000Y43429000D01*
X66149000Y27579000D02*
X66149000Y43421000D01*
X66109000Y27587000D02*
X66109000Y43413000D01*
X66069000Y27595000D02*
X66069000Y43405000D01*
X66029000Y27604000D02*
X66029000Y43396000D01*
X65989000Y27613000D02*
X65989000Y43387000D01*
X65949000Y27622000D02*
X65949000Y43378000D01*
X65909000Y27631000D02*
X65909000Y43369000D01*
X65869000Y27640000D02*
X65869000Y43360000D01*
X65829000Y27650000D02*
X65829000Y43350000D01*
X65789000Y27660000D02*
X65789000Y43340000D01*
X65749000Y27670000D02*
X65749000Y43330000D01*
X65709000Y27680000D02*
X65709000Y43320000D01*
X65669000Y27690000D02*
X65669000Y43310000D01*
X65629000Y27701000D02*
X65629000Y43299000D01*
X65589000Y27712000D02*
X65589000Y43288000D01*
X65549000Y27723000D02*
X65549000Y43277000D01*
X65509000Y27735000D02*
X65509000Y43265000D01*
X65469000Y27746000D02*
X65469000Y43254000D01*
X65429000Y27758000D02*
X65429000Y34060000D01*
X65429000Y36940000D02*
X65429000Y43242000D01*
X65389000Y27770000D02*
X65389000Y34060000D01*
X65389000Y36940000D02*
X65389000Y43230000D01*
X65349000Y27782000D02*
X65349000Y34060000D01*
X65349000Y36940000D02*
X65349000Y43218000D01*
X65309000Y27795000D02*
X65309000Y34060000D01*
X65309000Y36940000D02*
X65309000Y43205000D01*
X65269000Y27807000D02*
X65269000Y34060000D01*
X65269000Y36940000D02*
X65269000Y43193000D01*
X65229000Y27820000D02*
X65229000Y34060000D01*
X65229000Y36940000D02*
X65229000Y43180000D01*
X65189000Y27834000D02*
X65189000Y34060000D01*
X65189000Y36940000D02*
X65189000Y43166000D01*
X65149000Y27847000D02*
X65149000Y34060000D01*
X65149000Y36940000D02*
X65149000Y43153000D01*
X65109000Y27861000D02*
X65109000Y34060000D01*
X65109000Y36940000D02*
X65109000Y43139000D01*
X65069000Y27875000D02*
X65069000Y34060000D01*
X65069000Y36940000D02*
X65069000Y43125000D01*
X65029000Y27889000D02*
X65029000Y34060000D01*
X65029000Y36940000D02*
X65029000Y43111000D01*
X64989000Y27903000D02*
X64989000Y34060000D01*
X64989000Y36940000D02*
X64989000Y43097000D01*
X64949000Y27918000D02*
X64949000Y34060000D01*
X64949000Y36940000D02*
X64949000Y43082000D01*
X64909000Y27932000D02*
X64909000Y34060000D01*
X64909000Y36940000D02*
X64909000Y43068000D01*
X64869000Y27947000D02*
X64869000Y34060000D01*
X64869000Y36940000D02*
X64869000Y43053000D01*
X64829000Y27963000D02*
X64829000Y34060000D01*
X64829000Y36940000D02*
X64829000Y43037000D01*
X64789000Y27978000D02*
X64789000Y34060000D01*
X64789000Y36940000D02*
X64789000Y43022000D01*
X64749000Y27994000D02*
X64749000Y34060000D01*
X64749000Y36940000D02*
X64749000Y43006000D01*
X64709000Y28010000D02*
X64709000Y34060000D01*
X64709000Y36940000D02*
X64709000Y42990000D01*
X64669000Y28026000D02*
X64669000Y34060000D01*
X64669000Y36940000D02*
X64669000Y42974000D01*
X64629000Y28043000D02*
X64629000Y34060000D01*
X64629000Y36940000D02*
X64629000Y42957000D01*
X64589000Y28060000D02*
X64589000Y34060000D01*
X64589000Y36940000D02*
X64589000Y42940000D01*
X64549000Y28077000D02*
X64549000Y34060000D01*
X64549000Y36940000D02*
X64549000Y42923000D01*
X64509000Y28094000D02*
X64509000Y34060000D01*
X64509000Y36940000D02*
X64509000Y42906000D01*
X64469000Y28111000D02*
X64469000Y34060000D01*
X64469000Y36940000D02*
X64469000Y42889000D01*
X64429000Y28129000D02*
X64429000Y34060000D01*
X64429000Y36940000D02*
X64429000Y42871000D01*
X64389000Y28147000D02*
X64389000Y34060000D01*
X64389000Y36940000D02*
X64389000Y42853000D01*
X64349000Y28166000D02*
X64349000Y34060000D01*
X64349000Y36940000D02*
X64349000Y42834000D01*
X64309000Y28184000D02*
X64309000Y34060000D01*
X64309000Y36940000D02*
X64309000Y42816000D01*
X64269000Y28203000D02*
X64269000Y34060000D01*
X64269000Y36940000D02*
X64269000Y42797000D01*
X64229000Y28222000D02*
X64229000Y34060000D01*
X64229000Y36940000D02*
X64229000Y42778000D01*
X64189000Y28242000D02*
X64189000Y34060000D01*
X64189000Y36940000D02*
X64189000Y42758000D01*
X64149000Y28261000D02*
X64149000Y34060000D01*
X64149000Y36940000D02*
X64149000Y42739000D01*
X64109000Y28281000D02*
X64109000Y34060000D01*
X64109000Y36940000D02*
X64109000Y42719000D01*
X64069000Y28301000D02*
X64069000Y34060000D01*
X64069000Y36940000D02*
X64069000Y42699000D01*
X64029000Y28322000D02*
X64029000Y34060000D01*
X64029000Y36940000D02*
X64029000Y42678000D01*
X63989000Y28343000D02*
X63989000Y34060000D01*
X63989000Y36940000D02*
X63989000Y42657000D01*
X63949000Y28364000D02*
X63949000Y34060000D01*
X63949000Y36940000D02*
X63949000Y42636000D01*
X63909000Y28385000D02*
X63909000Y34060000D01*
X63909000Y36940000D02*
X63909000Y42615000D01*
X63869000Y28406000D02*
X63869000Y34060000D01*
X63869000Y36940000D02*
X63869000Y42594000D01*
X63829000Y28428000D02*
X63829000Y34060000D01*
X63829000Y36940000D02*
X63829000Y42572000D01*
X63789000Y28451000D02*
X63789000Y34060000D01*
X63789000Y36940000D02*
X63789000Y42549000D01*
X63749000Y28473000D02*
X63749000Y34060000D01*
X63749000Y36940000D02*
X63749000Y42527000D01*
X63709000Y28496000D02*
X63709000Y34060000D01*
X63709000Y36940000D02*
X63709000Y42504000D01*
X63669000Y28519000D02*
X63669000Y34060000D01*
X63669000Y36940000D02*
X63669000Y42481000D01*
X63629000Y28542000D02*
X63629000Y34060000D01*
X63629000Y36940000D02*
X63629000Y42458000D01*
X63589000Y28566000D02*
X63589000Y34060000D01*
X63589000Y36940000D02*
X63589000Y42434000D01*
X63549000Y28590000D02*
X63549000Y34060000D01*
X63549000Y36940000D02*
X63549000Y42410000D01*
X63509000Y28614000D02*
X63509000Y34060000D01*
X63509000Y36940000D02*
X63509000Y42386000D01*
X63469000Y28639000D02*
X63469000Y34060000D01*
X63469000Y36940000D02*
X63469000Y42361000D01*
X63429000Y28664000D02*
X63429000Y34060000D01*
X63429000Y36940000D02*
X63429000Y42336000D01*
X63389000Y28689000D02*
X63389000Y34060000D01*
X63389000Y36940000D02*
X63389000Y42311000D01*
X63349000Y28715000D02*
X63349000Y34060000D01*
X63349000Y36940000D02*
X63349000Y42285000D01*
X63309000Y28741000D02*
X63309000Y34060000D01*
X63309000Y36940000D02*
X63309000Y42259000D01*
X63269000Y28767000D02*
X63269000Y34060000D01*
X63269000Y36940000D02*
X63269000Y42233000D01*
X63229000Y28794000D02*
X63229000Y34060000D01*
X63229000Y36940000D02*
X63229000Y42206000D01*
X63189000Y28821000D02*
X63189000Y34060000D01*
X63189000Y36940000D02*
X63189000Y42179000D01*
X63149000Y28848000D02*
X63149000Y34060000D01*
X63149000Y36940000D02*
X63149000Y42152000D01*
X63109000Y28876000D02*
X63109000Y34060000D01*
X63109000Y36940000D02*
X63109000Y42124000D01*
X63069000Y28904000D02*
X63069000Y34060000D01*
X63069000Y36940000D02*
X63069000Y42096000D01*
X63029000Y28932000D02*
X63029000Y34060000D01*
X63029000Y36940000D02*
X63029000Y42068000D01*
X62989000Y28961000D02*
X62989000Y34060000D01*
X62989000Y36940000D02*
X62989000Y42039000D01*
X62949000Y28990000D02*
X62949000Y34060000D01*
X62949000Y36940000D02*
X62949000Y42010000D01*
X62909000Y29020000D02*
X62909000Y34060000D01*
X62909000Y36940000D02*
X62909000Y41980000D01*
X62869000Y29050000D02*
X62869000Y34060000D01*
X62869000Y36940000D02*
X62869000Y41950000D01*
X62829000Y29080000D02*
X62829000Y34060000D01*
X62829000Y36940000D02*
X62829000Y41920000D01*
X62789000Y29110000D02*
X62789000Y34060000D01*
X62789000Y36940000D02*
X62789000Y41890000D01*
X62749000Y29142000D02*
X62749000Y34060000D01*
X62749000Y36940000D02*
X62749000Y41858000D01*
X62709000Y29173000D02*
X62709000Y34060000D01*
X62709000Y36940000D02*
X62709000Y41827000D01*
X62669000Y29205000D02*
X62669000Y34060000D01*
X62669000Y36940000D02*
X62669000Y41795000D01*
X62629000Y29237000D02*
X62629000Y34060000D01*
X62629000Y36940000D02*
X62629000Y41763000D01*
X62589000Y29270000D02*
X62589000Y34060000D01*
X62589000Y36940000D02*
X62589000Y41730000D01*
X62549000Y29303000D02*
X62549000Y41697000D01*
X62509000Y29337000D02*
X62509000Y41663000D01*
X62469000Y29371000D02*
X62469000Y41629000D01*
X62429000Y29405000D02*
X62429000Y41595000D01*
X62389000Y29440000D02*
X62389000Y41560000D01*
X62349000Y29475000D02*
X62349000Y41525000D01*
X62309000Y29511000D02*
X62309000Y41489000D01*
X62269000Y29548000D02*
X62269000Y41452000D01*
X62229000Y29584000D02*
X62229000Y41416000D01*
X62189000Y29622000D02*
X62189000Y41378000D01*
X62149000Y29660000D02*
X62149000Y41340000D01*
X62109000Y29698000D02*
X62109000Y41302000D01*
X62069000Y29737000D02*
X62069000Y41263000D01*
X62029000Y29776000D02*
X62029000Y41224000D01*
X61989000Y29816000D02*
X61989000Y41184000D01*
X61949000Y29857000D02*
X61949000Y41143000D01*
X61909000Y29898000D02*
X61909000Y41102000D01*
X61869000Y29940000D02*
X61869000Y41060000D01*
X61829000Y29982000D02*
X61829000Y41018000D01*
X61789000Y30025000D02*
X61789000Y40975000D01*
X61749000Y30068000D02*
X61749000Y40932000D01*
X61709000Y30112000D02*
X61709000Y40888000D01*
X61669000Y30157000D02*
X61669000Y40843000D01*
X61629000Y30203000D02*
X61629000Y40797000D01*
X61589000Y30249000D02*
X61589000Y40751000D01*
X61549000Y30296000D02*
X61549000Y40704000D01*
X61509000Y30344000D02*
X61509000Y40656000D01*
X61469000Y30392000D02*
X61469000Y40608000D01*
X61429000Y30441000D02*
X61429000Y40559000D01*
X61389000Y30491000D02*
X61389000Y40509000D01*
X61349000Y30542000D02*
X61349000Y40458000D01*
X61309000Y30594000D02*
X61309000Y40406000D01*
X61269000Y30646000D02*
X61269000Y40354000D01*
X61229000Y30700000D02*
X61229000Y40300000D01*
X61189000Y30754000D02*
X61189000Y40246000D01*
X61149000Y30809000D02*
X61149000Y40191000D01*
X61109000Y30866000D02*
X61109000Y40134000D01*
X61069000Y30923000D02*
X61069000Y40077000D01*
X61029000Y30981000D02*
X61029000Y40019000D01*
X60989000Y31041000D02*
X60989000Y39959000D01*
X60949000Y31102000D02*
X60949000Y39898000D01*
X60909000Y31164000D02*
X60909000Y39836000D01*
X60869000Y31227000D02*
X60869000Y39773000D01*
X60829000Y31291000D02*
X60829000Y39709000D01*
X60789000Y31357000D02*
X60789000Y39643000D01*
X60749000Y31424000D02*
X60749000Y39576000D01*
X60709000Y31493000D02*
X60709000Y39507000D01*
X60669000Y31564000D02*
X60669000Y39436000D01*
X60629000Y31636000D02*
X60629000Y39364000D01*
X60589000Y31710000D02*
X60589000Y39290000D01*
X60549000Y31785000D02*
X60549000Y39215000D01*
X60509000Y31863000D02*
X60509000Y39137000D01*
X60469000Y31943000D02*
X60469000Y39057000D01*
X60429000Y32025000D02*
X60429000Y38975000D01*
X60389000Y32110000D02*
X60389000Y38890000D01*
X60349000Y32197000D02*
X60349000Y38803000D01*
X60309000Y32287000D02*
X60309000Y38713000D01*
X60269000Y32380000D02*
X60269000Y38620000D01*
X60229000Y32476000D02*
X60229000Y38524000D01*
X60189000Y32576000D02*
X60189000Y38424000D01*
X60149000Y32680000D02*
X60149000Y38320000D01*
X60109000Y32789000D02*
X60109000Y38211000D01*
X60069000Y32903000D02*
X60069000Y38097000D01*
X60029000Y33022000D02*
X60029000Y37978000D01*
X59989000Y33149000D02*
X59989000Y37851000D01*
X59949000Y33282000D02*
X59949000Y37718000D01*
X59909000Y33426000D02*
X59909000Y37574000D01*
X59869000Y33580000D02*
X59869000Y37420000D01*
X59829000Y33748000D02*
X59829000Y37252000D01*
X59789000Y33936000D02*
X59789000Y37064000D01*
X59749000Y34149000D02*
X59749000Y36851000D01*
X59709000Y34402000D02*
X59709000Y36598000D01*
X59669000Y34735000D02*
X59669000Y36265000D01*
X76439491Y30945000D02*
X74839491Y30945000D01*
X75639491Y30145000D02*
X75639491Y31745000D01*
%TO.C,C9*%
X29885436Y40760000D02*
X31089564Y40760000D01*
X29885436Y38040000D02*
X31089564Y38040000D01*
%TO.C,D1*%
X66300000Y81000000D02*
X65000000Y81000000D01*
X66300000Y82300000D02*
X66300000Y81000000D01*
X46900000Y84800000D02*
X66100000Y84800000D01*
X46900000Y81200000D02*
X46900000Y84800000D01*
X66100000Y81200000D02*
X46900000Y81200000D01*
X66100000Y84800000D02*
X66100000Y81200000D01*
D12*
%TO.C,F1*%
X6040000Y73985000D02*
X6040000Y73985000D01*
X6040000Y73985000D02*
X6040000Y75885000D01*
X6040000Y75885000D02*
X6040000Y75885000D01*
X6040000Y75885000D02*
X6040000Y73985000D01*
X6040000Y75885000D02*
X28740000Y75885000D01*
X28740000Y75885000D02*
X28740000Y75885000D01*
X28740000Y75885000D02*
X6040000Y75885000D01*
X6040000Y75885000D02*
X6040000Y75885000D01*
X28740000Y75885000D02*
X28740000Y75885000D01*
X28740000Y75885000D02*
X28740000Y73985000D01*
X28740000Y73985000D02*
X28740000Y73985000D01*
X28740000Y73985000D02*
X28740000Y75885000D01*
X28740000Y66985000D02*
X28740000Y66985000D01*
X28740000Y66985000D02*
X28740000Y65085000D01*
X28740000Y65085000D02*
X28740000Y65085000D01*
X28740000Y65085000D02*
X28740000Y66985000D01*
X28740000Y65085000D02*
X6040000Y65085000D01*
X6040000Y65085000D02*
X6040000Y65085000D01*
X6040000Y65085000D02*
X28740000Y65085000D01*
X28740000Y65085000D02*
X28740000Y65085000D01*
X6040000Y65085000D02*
X6040000Y65085000D01*
X6040000Y65085000D02*
X6040000Y66985000D01*
X6040000Y66985000D02*
X6040000Y66985000D01*
X6040000Y66985000D02*
X6040000Y65085000D01*
X4090000Y70485000D02*
X4090000Y70485000D01*
X4190000Y70485000D02*
X4190000Y70485000D01*
X4090000Y70485000D02*
X4090000Y70485000D01*
X4190000Y70485000D02*
G75*
G02*
X4090000Y70485000I-50000J0D01*
G01*
X4090000Y70485000D02*
G75*
G02*
X4190000Y70485000I50000J0D01*
G01*
X4190000Y70485000D02*
G75*
G02*
X4090000Y70485000I-50000J0D01*
G01*
D13*
%TO.C,IC1*%
X89280000Y55070000D02*
X89280000Y53570000D01*
D11*
%TO.C,J1*%
X3460000Y87380000D02*
X3460000Y97540000D01*
X2190000Y87380000D02*
X9810000Y87380000D01*
X9810000Y87380000D02*
X9810000Y97540000D01*
X9810000Y97540000D02*
X2190000Y97540000D01*
X2190000Y97540000D02*
X2190000Y87380000D01*
%TO.C,J2*%
X85725000Y1270000D02*
X95885000Y1270000D01*
X85725000Y8890000D02*
X85725000Y1270000D01*
X95885000Y8890000D02*
X85725000Y8890000D01*
X95885000Y1270000D02*
X95885000Y8890000D01*
X95885000Y2540000D02*
X85725000Y2540000D01*
%TO.C,J3*%
X29845000Y15240000D02*
X19685000Y15240000D01*
X29845000Y13970000D02*
X29845000Y21590000D01*
X29845000Y21590000D02*
X19685000Y21590000D01*
X19685000Y21590000D02*
X19685000Y13970000D01*
X19685000Y13970000D02*
X29845000Y13970000D01*
%TO.C,J4*%
X37465000Y13970000D02*
X47625000Y13970000D01*
X37465000Y21590000D02*
X37465000Y13970000D01*
X47625000Y21590000D02*
X37465000Y21590000D01*
X47625000Y13970000D02*
X47625000Y21590000D01*
X47625000Y15240000D02*
X37465000Y15240000D01*
%TO.C,J5*%
X95885000Y15240000D02*
X85725000Y15240000D01*
X95885000Y13970000D02*
X95885000Y21590000D01*
X95885000Y21590000D02*
X85725000Y21590000D01*
X85725000Y21590000D02*
X85725000Y13970000D01*
X85725000Y13970000D02*
X95885000Y13970000D01*
%TO.C,J6*%
X19685000Y1270000D02*
X29845000Y1270000D01*
X19685000Y8890000D02*
X19685000Y1270000D01*
X29845000Y8890000D02*
X19685000Y8890000D01*
X29845000Y1270000D02*
X29845000Y8890000D01*
X29845000Y2540000D02*
X19685000Y2540000D01*
%TO.C,J7*%
X62865000Y2540000D02*
X52705000Y2540000D01*
X62865000Y1270000D02*
X62865000Y8890000D01*
X62865000Y8890000D02*
X52705000Y8890000D01*
X52705000Y8890000D02*
X52705000Y1270000D01*
X52705000Y1270000D02*
X62865000Y1270000D01*
%TO.C,J8*%
X80645000Y2540000D02*
X70485000Y2540000D01*
X80645000Y1270000D02*
X80645000Y8890000D01*
X80645000Y8890000D02*
X70485000Y8890000D01*
X70485000Y8890000D02*
X70485000Y1270000D01*
X70485000Y1270000D02*
X80645000Y1270000D01*
%TO.C,J9*%
X4445000Y1270000D02*
X14605000Y1270000D01*
X4445000Y8890000D02*
X4445000Y1270000D01*
X14605000Y8890000D02*
X4445000Y8890000D01*
X14605000Y1270000D02*
X14605000Y8890000D01*
X14605000Y2540000D02*
X4445000Y2540000D01*
%TO.C,J10*%
X62865000Y15240000D02*
X52705000Y15240000D01*
X62865000Y13970000D02*
X62865000Y21590000D01*
X62865000Y21590000D02*
X52705000Y21590000D01*
X52705000Y21590000D02*
X52705000Y13970000D01*
X52705000Y13970000D02*
X62865000Y13970000D01*
%TO.C,J11*%
X70485000Y13970000D02*
X80645000Y13970000D01*
X70485000Y21590000D02*
X70485000Y13970000D01*
X80645000Y21590000D02*
X70485000Y21590000D01*
X80645000Y13970000D02*
X80645000Y21590000D01*
X80645000Y15240000D02*
X70485000Y15240000D01*
%TO.C,J12*%
X14605000Y15240000D02*
X4445000Y15240000D01*
X14605000Y13970000D02*
X14605000Y21590000D01*
X14605000Y21590000D02*
X4445000Y21590000D01*
X4445000Y21590000D02*
X4445000Y13970000D01*
X4445000Y13970000D02*
X14605000Y13970000D01*
%TO.C,J13*%
X37465000Y1270000D02*
X47625000Y1270000D01*
X37465000Y8890000D02*
X37465000Y1270000D01*
X47625000Y8890000D02*
X37465000Y8890000D01*
X47625000Y1270000D02*
X47625000Y8890000D01*
X47625000Y2540000D02*
X37465000Y2540000D01*
%TO.C,L1*%
X96371573Y41620000D02*
G75*
G03*
X96371573Y41620000I-5500000J0D01*
G01*
%TO.C,R1*%
X80340000Y53459564D02*
X80340000Y52255436D01*
X83060000Y53459564D02*
X83060000Y52255436D01*
%TO.C,R3*%
X81840000Y43530436D02*
X81840000Y44734564D01*
X84560000Y43530436D02*
X84560000Y44734564D01*
%TO.C,R4*%
X80560000Y46755436D02*
X80560000Y47959564D01*
X77840000Y46755436D02*
X77840000Y47959564D01*
D10*
%TO.C,RV1*%
X26150000Y81350000D02*
X26150000Y98150000D01*
X19150000Y81350000D02*
X19150000Y98150000D01*
X19150000Y98150000D02*
X26150000Y98150000D01*
X19150000Y81350000D02*
X26150000Y81350000D01*
D11*
%TO.C,C8*%
X73179131Y48445000D02*
X73179131Y51445000D01*
X74679131Y49945000D02*
X71679131Y49945000D01*
X43380000Y58380000D02*
X43380000Y58460000D01*
X43420000Y57360000D02*
X43420000Y59480000D01*
X43460000Y56906000D02*
X43460000Y59934000D01*
X43500000Y56558000D02*
X43500000Y60282000D01*
X43540000Y56266000D02*
X43540000Y60574000D01*
X43580000Y56008000D02*
X43580000Y60832000D01*
X43620000Y55776000D02*
X43620000Y61064000D01*
X43660000Y55563000D02*
X43660000Y61277000D01*
X43700000Y55365000D02*
X43700000Y61475000D01*
X43740000Y55180000D02*
X43740000Y61660000D01*
X43780000Y55005000D02*
X43780000Y61835000D01*
X43820000Y54838000D02*
X43820000Y62002000D01*
X43860000Y54680000D02*
X43860000Y62160000D01*
X43900000Y54528000D02*
X43900000Y62312000D01*
X43940000Y54383000D02*
X43940000Y62457000D01*
X43980000Y54242000D02*
X43980000Y62598000D01*
X44020000Y54107000D02*
X44020000Y62733000D01*
X44060000Y53976000D02*
X44060000Y62864000D01*
X44100000Y53849000D02*
X44100000Y62991000D01*
X44140000Y53726000D02*
X44140000Y63114000D01*
X44180000Y53606000D02*
X44180000Y63234000D01*
X44220000Y53490000D02*
X44220000Y63350000D01*
X44260000Y53377000D02*
X44260000Y63463000D01*
X44300000Y53266000D02*
X44300000Y63574000D01*
X44340000Y53158000D02*
X44340000Y63682000D01*
X44380000Y53052000D02*
X44380000Y63788000D01*
X44420000Y52949000D02*
X44420000Y63891000D01*
X44460000Y52848000D02*
X44460000Y63992000D01*
X44500000Y52749000D02*
X44500000Y64091000D01*
X44540000Y52652000D02*
X44540000Y64188000D01*
X44580000Y52556000D02*
X44580000Y64284000D01*
X44620000Y52463000D02*
X44620000Y64377000D01*
X44660000Y52371000D02*
X44660000Y64469000D01*
X44700000Y52281000D02*
X44700000Y64559000D01*
X44740000Y52192000D02*
X44740000Y64648000D01*
X44780000Y52105000D02*
X44780000Y64735000D01*
X44820000Y52020000D02*
X44820000Y64820000D01*
X44860000Y51935000D02*
X44860000Y64905000D01*
X44900000Y51852000D02*
X44900000Y64988000D01*
X44940000Y51771000D02*
X44940000Y65069000D01*
X44980000Y51690000D02*
X44980000Y65150000D01*
X45020000Y51611000D02*
X45020000Y65229000D01*
X45060000Y51533000D02*
X45060000Y65307000D01*
X45100000Y51456000D02*
X45100000Y65384000D01*
X45140000Y51380000D02*
X45140000Y65460000D01*
X45180000Y51305000D02*
X45180000Y65535000D01*
X45220000Y51231000D02*
X45220000Y65609000D01*
X45260000Y51158000D02*
X45260000Y65682000D01*
X45300000Y51086000D02*
X45300000Y65754000D01*
X45340000Y51014000D02*
X45340000Y65826000D01*
X45380000Y50944000D02*
X45380000Y65896000D01*
X45420000Y50875000D02*
X45420000Y65965000D01*
X45460000Y50806000D02*
X45460000Y66034000D01*
X45500000Y50738000D02*
X45500000Y66102000D01*
X45540000Y50672000D02*
X45540000Y66168000D01*
X45580000Y50605000D02*
X45580000Y66235000D01*
X45620000Y50540000D02*
X45620000Y66300000D01*
X45660000Y50475000D02*
X45660000Y66365000D01*
X45700000Y50411000D02*
X45700000Y66429000D01*
X45740000Y50348000D02*
X45740000Y66492000D01*
X45780000Y50285000D02*
X45780000Y66555000D01*
X45820000Y50223000D02*
X45820000Y66617000D01*
X45860000Y50162000D02*
X45860000Y66678000D01*
X45900000Y50102000D02*
X45900000Y66738000D01*
X45940000Y50042000D02*
X45940000Y66798000D01*
X45980000Y49982000D02*
X45980000Y66858000D01*
X46020000Y49923000D02*
X46020000Y66917000D01*
X46060000Y49865000D02*
X46060000Y66975000D01*
X46100000Y49808000D02*
X46100000Y67032000D01*
X46140000Y49751000D02*
X46140000Y67089000D01*
X46180000Y49694000D02*
X46180000Y67146000D01*
X46220000Y49638000D02*
X46220000Y67202000D01*
X46260000Y49583000D02*
X46260000Y67257000D01*
X46300000Y49528000D02*
X46300000Y67312000D01*
X46340000Y49473000D02*
X46340000Y67367000D01*
X46380000Y49420000D02*
X46380000Y67420000D01*
X46420000Y49366000D02*
X46420000Y67474000D01*
X46460000Y49313000D02*
X46460000Y67527000D01*
X46500000Y49261000D02*
X46500000Y67579000D01*
X46540000Y49209000D02*
X46540000Y67631000D01*
X46580000Y49157000D02*
X46580000Y67683000D01*
X46620000Y49106000D02*
X46620000Y67734000D01*
X46660000Y49056000D02*
X46660000Y67784000D01*
X46700000Y49006000D02*
X46700000Y67834000D01*
X46740000Y48956000D02*
X46740000Y67884000D01*
X46780000Y48907000D02*
X46780000Y67933000D01*
X46820000Y48858000D02*
X46820000Y67982000D01*
X46860000Y48809000D02*
X46860000Y68031000D01*
X46900000Y48761000D02*
X46900000Y68079000D01*
X46940000Y48714000D02*
X46940000Y68126000D01*
X46980000Y48666000D02*
X46980000Y68174000D01*
X47020000Y48620000D02*
X47020000Y68220000D01*
X47060000Y48573000D02*
X47060000Y68267000D01*
X47100000Y48527000D02*
X47100000Y68313000D01*
X47140000Y48481000D02*
X47140000Y68359000D01*
X47180000Y48436000D02*
X47180000Y68404000D01*
X47220000Y48391000D02*
X47220000Y68449000D01*
X47260000Y48346000D02*
X47260000Y68494000D01*
X47300000Y48302000D02*
X47300000Y68538000D01*
X47340000Y48258000D02*
X47340000Y68582000D01*
X47380000Y48215000D02*
X47380000Y68625000D01*
X47420000Y48171000D02*
X47420000Y68669000D01*
X47460000Y48128000D02*
X47460000Y68712000D01*
X47500000Y48086000D02*
X47500000Y68754000D01*
X47540000Y48044000D02*
X47540000Y68796000D01*
X47580000Y48002000D02*
X47580000Y68838000D01*
X47620000Y47960000D02*
X47620000Y68880000D01*
X47660000Y47919000D02*
X47660000Y68921000D01*
X47700000Y47878000D02*
X47700000Y68962000D01*
X47740000Y47837000D02*
X47740000Y69003000D01*
X47780000Y47797000D02*
X47780000Y69043000D01*
X47820000Y47757000D02*
X47820000Y69083000D01*
X47860000Y47717000D02*
X47860000Y69123000D01*
X47900000Y47677000D02*
X47900000Y69163000D01*
X47940000Y47638000D02*
X47940000Y69202000D01*
X47980000Y47599000D02*
X47980000Y69241000D01*
X48020000Y47561000D02*
X48020000Y69279000D01*
X48060000Y47522000D02*
X48060000Y69318000D01*
X48100000Y47484000D02*
X48100000Y69356000D01*
X48140000Y47447000D02*
X48140000Y69393000D01*
X48180000Y47409000D02*
X48180000Y69431000D01*
X48220000Y47372000D02*
X48220000Y69468000D01*
X48260000Y47335000D02*
X48260000Y69505000D01*
X48300000Y47298000D02*
X48300000Y69542000D01*
X48340000Y47262000D02*
X48340000Y69578000D01*
X48380000Y47226000D02*
X48380000Y69614000D01*
X48420000Y47190000D02*
X48420000Y69650000D01*
X48460000Y47154000D02*
X48460000Y69686000D01*
X48500000Y47119000D02*
X48500000Y69721000D01*
X48540000Y47084000D02*
X48540000Y69756000D01*
X48580000Y47049000D02*
X48580000Y69791000D01*
X48620000Y47014000D02*
X48620000Y69826000D01*
X48660000Y46980000D02*
X48660000Y69860000D01*
X48700000Y46945000D02*
X48700000Y69895000D01*
X48740000Y46911000D02*
X48740000Y69929000D01*
X48780000Y46878000D02*
X48780000Y69962000D01*
X48820000Y46844000D02*
X48820000Y69996000D01*
X48860000Y46811000D02*
X48860000Y70029000D01*
X48900000Y46778000D02*
X48900000Y70062000D01*
X48940000Y46745000D02*
X48940000Y70095000D01*
X48980000Y46713000D02*
X48980000Y70127000D01*
X49020000Y46681000D02*
X49020000Y70159000D01*
X49060000Y46648000D02*
X49060000Y70192000D01*
X49100000Y46617000D02*
X49100000Y70223000D01*
X49140000Y46585000D02*
X49140000Y70255000D01*
X49180000Y46554000D02*
X49180000Y70286000D01*
X49220000Y46522000D02*
X49220000Y70318000D01*
X49260000Y46491000D02*
X49260000Y70349000D01*
X49300000Y46461000D02*
X49300000Y70379000D01*
X49340000Y46430000D02*
X49340000Y70410000D01*
X49380000Y46400000D02*
X49380000Y70440000D01*
X49420000Y46370000D02*
X49420000Y70470000D01*
X49460000Y46340000D02*
X49460000Y70500000D01*
X49500000Y46310000D02*
X49500000Y70530000D01*
X49540000Y46280000D02*
X49540000Y70560000D01*
X49580000Y46251000D02*
X49580000Y70589000D01*
X49620000Y46222000D02*
X49620000Y70618000D01*
X49660000Y46193000D02*
X49660000Y70647000D01*
X49700000Y46164000D02*
X49700000Y70676000D01*
X49740000Y46136000D02*
X49740000Y70704000D01*
X49780000Y46107000D02*
X49780000Y70733000D01*
X49820000Y46079000D02*
X49820000Y70761000D01*
X49860000Y46051000D02*
X49860000Y70789000D01*
X49900000Y46023000D02*
X49900000Y70817000D01*
X49940000Y45996000D02*
X49940000Y70844000D01*
X49980000Y45969000D02*
X49980000Y70871000D01*
X50020000Y45941000D02*
X50020000Y70899000D01*
X50060000Y45914000D02*
X50060000Y70926000D01*
X50100000Y45888000D02*
X50100000Y70952000D01*
X50140000Y45861000D02*
X50140000Y70979000D01*
X50180000Y45834000D02*
X50180000Y71006000D01*
X50220000Y45808000D02*
X50220000Y71032000D01*
X50260000Y45782000D02*
X50260000Y71058000D01*
X50300000Y45756000D02*
X50300000Y71084000D01*
X50339000Y45730000D02*
X50339000Y71110000D01*
X50379000Y45705000D02*
X50379000Y71135000D01*
X50419000Y45680000D02*
X50419000Y71160000D01*
X50459000Y45654000D02*
X50459000Y71186000D01*
X50499000Y45629000D02*
X50499000Y71211000D01*
X50539000Y45604000D02*
X50539000Y71236000D01*
X50579000Y45580000D02*
X50579000Y71260000D01*
X50619000Y45555000D02*
X50619000Y71285000D01*
X50659000Y45531000D02*
X50659000Y71309000D01*
X50699000Y45507000D02*
X50699000Y71333000D01*
X50739000Y45483000D02*
X50739000Y71357000D01*
X50779000Y45459000D02*
X50779000Y71381000D01*
X50819000Y45435000D02*
X50819000Y71405000D01*
X50859000Y45412000D02*
X50859000Y71428000D01*
X50899000Y45388000D02*
X50899000Y71452000D01*
X50939000Y45365000D02*
X50939000Y71475000D01*
X50979000Y45342000D02*
X50979000Y71498000D01*
X51019000Y45319000D02*
X51019000Y71521000D01*
X51059000Y45297000D02*
X51059000Y71543000D01*
X51099000Y45274000D02*
X51099000Y71566000D01*
X51139000Y45252000D02*
X51139000Y71588000D01*
X51179000Y45230000D02*
X51179000Y71610000D01*
X51219000Y45207000D02*
X51219000Y71633000D01*
X51259000Y45186000D02*
X51259000Y71654000D01*
X51299000Y60660000D02*
X51299000Y71676000D01*
X51299000Y45164000D02*
X51299000Y56180000D01*
X51339000Y60660000D02*
X51339000Y71698000D01*
X51339000Y45142000D02*
X51339000Y56180000D01*
X51379000Y60660000D02*
X51379000Y71719000D01*
X51379000Y45121000D02*
X51379000Y56180000D01*
X51419000Y60660000D02*
X51419000Y71740000D01*
X51419000Y45100000D02*
X51419000Y56180000D01*
X51459000Y60660000D02*
X51459000Y71762000D01*
X51459000Y45078000D02*
X51459000Y56180000D01*
X51499000Y60660000D02*
X51499000Y71783000D01*
X51499000Y45057000D02*
X51499000Y56180000D01*
X51539000Y60660000D02*
X51539000Y71803000D01*
X51539000Y45037000D02*
X51539000Y56180000D01*
X51579000Y60660000D02*
X51579000Y71824000D01*
X51579000Y45016000D02*
X51579000Y56180000D01*
X51619000Y60660000D02*
X51619000Y71845000D01*
X51619000Y44995000D02*
X51619000Y56180000D01*
X51659000Y60660000D02*
X51659000Y71865000D01*
X51659000Y44975000D02*
X51659000Y56180000D01*
X51699000Y60660000D02*
X51699000Y71885000D01*
X51699000Y44955000D02*
X51699000Y56180000D01*
X51739000Y60660000D02*
X51739000Y71905000D01*
X51739000Y44935000D02*
X51739000Y56180000D01*
X51779000Y60660000D02*
X51779000Y71925000D01*
X51779000Y44915000D02*
X51779000Y56180000D01*
X51819000Y60660000D02*
X51819000Y71945000D01*
X51819000Y44895000D02*
X51819000Y56180000D01*
X51859000Y60660000D02*
X51859000Y71964000D01*
X51859000Y44876000D02*
X51859000Y56180000D01*
X51899000Y60660000D02*
X51899000Y71984000D01*
X51899000Y44856000D02*
X51899000Y56180000D01*
X51939000Y60660000D02*
X51939000Y72003000D01*
X51939000Y44837000D02*
X51939000Y56180000D01*
X51979000Y60660000D02*
X51979000Y72022000D01*
X51979000Y44818000D02*
X51979000Y56180000D01*
X52019000Y60660000D02*
X52019000Y72042000D01*
X52019000Y44798000D02*
X52019000Y56180000D01*
X52059000Y60660000D02*
X52059000Y72060000D01*
X52059000Y44780000D02*
X52059000Y56180000D01*
X52099000Y60660000D02*
X52099000Y72079000D01*
X52099000Y44761000D02*
X52099000Y56180000D01*
X52139000Y60660000D02*
X52139000Y72098000D01*
X52139000Y44742000D02*
X52139000Y56180000D01*
X52179000Y60660000D02*
X52179000Y72116000D01*
X52179000Y44724000D02*
X52179000Y56180000D01*
X52219000Y60660000D02*
X52219000Y72135000D01*
X52219000Y44705000D02*
X52219000Y56180000D01*
X52259000Y60660000D02*
X52259000Y72153000D01*
X52259000Y44687000D02*
X52259000Y56180000D01*
X52299000Y60660000D02*
X52299000Y72171000D01*
X52299000Y44669000D02*
X52299000Y56180000D01*
X52339000Y60660000D02*
X52339000Y72189000D01*
X52339000Y44651000D02*
X52339000Y56180000D01*
X52379000Y60660000D02*
X52379000Y72207000D01*
X52379000Y44633000D02*
X52379000Y56180000D01*
X52419000Y60660000D02*
X52419000Y72224000D01*
X52419000Y44616000D02*
X52419000Y56180000D01*
X52459000Y60660000D02*
X52459000Y72242000D01*
X52459000Y44598000D02*
X52459000Y56180000D01*
X52499000Y60660000D02*
X52499000Y72259000D01*
X52499000Y44581000D02*
X52499000Y56180000D01*
X52539000Y60660000D02*
X52539000Y72276000D01*
X52539000Y44564000D02*
X52539000Y56180000D01*
X52579000Y60660000D02*
X52579000Y72293000D01*
X52579000Y44547000D02*
X52579000Y56180000D01*
X52619000Y60660000D02*
X52619000Y72310000D01*
X52619000Y44530000D02*
X52619000Y56180000D01*
X52659000Y60660000D02*
X52659000Y72327000D01*
X52659000Y44513000D02*
X52659000Y56180000D01*
X52699000Y60660000D02*
X52699000Y72344000D01*
X52699000Y44496000D02*
X52699000Y56180000D01*
X52739000Y60660000D02*
X52739000Y72360000D01*
X52739000Y44480000D02*
X52739000Y56180000D01*
X52779000Y60660000D02*
X52779000Y72377000D01*
X52779000Y44463000D02*
X52779000Y56180000D01*
X52819000Y60660000D02*
X52819000Y72393000D01*
X52819000Y44447000D02*
X52819000Y56180000D01*
X52859000Y60660000D02*
X52859000Y72409000D01*
X52859000Y44431000D02*
X52859000Y56180000D01*
X52899000Y60660000D02*
X52899000Y72425000D01*
X52899000Y44415000D02*
X52899000Y56180000D01*
X52939000Y60660000D02*
X52939000Y72441000D01*
X52939000Y44399000D02*
X52939000Y56180000D01*
X52979000Y60660000D02*
X52979000Y72457000D01*
X52979000Y44383000D02*
X52979000Y56180000D01*
X53019000Y60660000D02*
X53019000Y72472000D01*
X53019000Y44368000D02*
X53019000Y56180000D01*
X53059000Y60660000D02*
X53059000Y72488000D01*
X53059000Y44352000D02*
X53059000Y56180000D01*
X53099000Y60660000D02*
X53099000Y72503000D01*
X53099000Y44337000D02*
X53099000Y56180000D01*
X53139000Y60660000D02*
X53139000Y72519000D01*
X53139000Y44321000D02*
X53139000Y56180000D01*
X53179000Y60660000D02*
X53179000Y72534000D01*
X53179000Y44306000D02*
X53179000Y56180000D01*
X53219000Y60660000D02*
X53219000Y72549000D01*
X53219000Y44291000D02*
X53219000Y56180000D01*
X53259000Y60660000D02*
X53259000Y72563000D01*
X53259000Y44277000D02*
X53259000Y56180000D01*
X53299000Y60660000D02*
X53299000Y72578000D01*
X53299000Y44262000D02*
X53299000Y56180000D01*
X53339000Y60660000D02*
X53339000Y72593000D01*
X53339000Y44247000D02*
X53339000Y56180000D01*
X53379000Y60660000D02*
X53379000Y72607000D01*
X53379000Y44233000D02*
X53379000Y56180000D01*
X53419000Y60660000D02*
X53419000Y72622000D01*
X53419000Y44218000D02*
X53419000Y56180000D01*
X53459000Y60660000D02*
X53459000Y72636000D01*
X53459000Y44204000D02*
X53459000Y56180000D01*
X53499000Y60660000D02*
X53499000Y72650000D01*
X53499000Y44190000D02*
X53499000Y56180000D01*
X53539000Y60660000D02*
X53539000Y72664000D01*
X53539000Y44176000D02*
X53539000Y56180000D01*
X53579000Y60660000D02*
X53579000Y72678000D01*
X53579000Y44162000D02*
X53579000Y56180000D01*
X53619000Y60660000D02*
X53619000Y72691000D01*
X53619000Y44149000D02*
X53619000Y56180000D01*
X53659000Y60660000D02*
X53659000Y72705000D01*
X53659000Y44135000D02*
X53659000Y56180000D01*
X53699000Y60660000D02*
X53699000Y72718000D01*
X53699000Y44122000D02*
X53699000Y56180000D01*
X53739000Y60660000D02*
X53739000Y72732000D01*
X53739000Y44108000D02*
X53739000Y56180000D01*
X53779000Y60660000D02*
X53779000Y72745000D01*
X53779000Y44095000D02*
X53779000Y56180000D01*
X53819000Y60660000D02*
X53819000Y72758000D01*
X53819000Y44082000D02*
X53819000Y56180000D01*
X53859000Y60660000D02*
X53859000Y72771000D01*
X53859000Y44069000D02*
X53859000Y56180000D01*
X53899000Y60660000D02*
X53899000Y72784000D01*
X53899000Y44056000D02*
X53899000Y56180000D01*
X53939000Y60660000D02*
X53939000Y72796000D01*
X53939000Y44044000D02*
X53939000Y56180000D01*
X53979000Y60660000D02*
X53979000Y72809000D01*
X53979000Y44031000D02*
X53979000Y56180000D01*
X54019000Y60660000D02*
X54019000Y72822000D01*
X54019000Y44018000D02*
X54019000Y56180000D01*
X54059000Y60660000D02*
X54059000Y72834000D01*
X54059000Y44006000D02*
X54059000Y56180000D01*
X54099000Y60660000D02*
X54099000Y72846000D01*
X54099000Y43994000D02*
X54099000Y56180000D01*
X54139000Y60660000D02*
X54139000Y72858000D01*
X54139000Y43982000D02*
X54139000Y56180000D01*
X54179000Y60660000D02*
X54179000Y72870000D01*
X54179000Y43970000D02*
X54179000Y56180000D01*
X54219000Y60660000D02*
X54219000Y72882000D01*
X54219000Y43958000D02*
X54219000Y56180000D01*
X54259000Y60660000D02*
X54259000Y72894000D01*
X54259000Y43946000D02*
X54259000Y56180000D01*
X54299000Y60660000D02*
X54299000Y72905000D01*
X54299000Y43935000D02*
X54299000Y56180000D01*
X54339000Y60660000D02*
X54339000Y72917000D01*
X54339000Y43923000D02*
X54339000Y56180000D01*
X54379000Y60660000D02*
X54379000Y72928000D01*
X54379000Y43912000D02*
X54379000Y56180000D01*
X54419000Y60660000D02*
X54419000Y72940000D01*
X54419000Y43900000D02*
X54419000Y56180000D01*
X54459000Y60660000D02*
X54459000Y72951000D01*
X54459000Y43889000D02*
X54459000Y56180000D01*
X54499000Y60660000D02*
X54499000Y72962000D01*
X54499000Y43878000D02*
X54499000Y56180000D01*
X54539000Y60660000D02*
X54539000Y72973000D01*
X54539000Y43867000D02*
X54539000Y56180000D01*
X54579000Y60660000D02*
X54579000Y72984000D01*
X54579000Y43856000D02*
X54579000Y56180000D01*
X54619000Y60660000D02*
X54619000Y72994000D01*
X54619000Y43846000D02*
X54619000Y56180000D01*
X54659000Y60660000D02*
X54659000Y73005000D01*
X54659000Y43835000D02*
X54659000Y56180000D01*
X54699000Y60660000D02*
X54699000Y73015000D01*
X54699000Y43825000D02*
X54699000Y56180000D01*
X54739000Y60660000D02*
X54739000Y73026000D01*
X54739000Y43814000D02*
X54739000Y56180000D01*
X54779000Y60660000D02*
X54779000Y73036000D01*
X54779000Y43804000D02*
X54779000Y56180000D01*
X54819000Y60660000D02*
X54819000Y73046000D01*
X54819000Y43794000D02*
X54819000Y56180000D01*
X54859000Y60660000D02*
X54859000Y73056000D01*
X54859000Y43784000D02*
X54859000Y56180000D01*
X54899000Y60660000D02*
X54899000Y73066000D01*
X54899000Y43774000D02*
X54899000Y56180000D01*
X54939000Y60660000D02*
X54939000Y73075000D01*
X54939000Y43765000D02*
X54939000Y56180000D01*
X54979000Y60660000D02*
X54979000Y73085000D01*
X54979000Y43755000D02*
X54979000Y56180000D01*
X55019000Y60660000D02*
X55019000Y73095000D01*
X55019000Y43745000D02*
X55019000Y56180000D01*
X55059000Y60660000D02*
X55059000Y73104000D01*
X55059000Y43736000D02*
X55059000Y56180000D01*
X55099000Y60660000D02*
X55099000Y73113000D01*
X55099000Y43727000D02*
X55099000Y56180000D01*
X55139000Y60660000D02*
X55139000Y73122000D01*
X55139000Y43718000D02*
X55139000Y56180000D01*
X55179000Y60660000D02*
X55179000Y73131000D01*
X55179000Y43709000D02*
X55179000Y56180000D01*
X55219000Y60660000D02*
X55219000Y73140000D01*
X55219000Y43700000D02*
X55219000Y56180000D01*
X55259000Y60660000D02*
X55259000Y73149000D01*
X55259000Y43691000D02*
X55259000Y56180000D01*
X55299000Y60660000D02*
X55299000Y73158000D01*
X55299000Y43682000D02*
X55299000Y56180000D01*
X55339000Y60660000D02*
X55339000Y73167000D01*
X55339000Y43673000D02*
X55339000Y56180000D01*
X55379000Y60660000D02*
X55379000Y73175000D01*
X55379000Y43665000D02*
X55379000Y56180000D01*
X55419000Y60660000D02*
X55419000Y73183000D01*
X55419000Y43657000D02*
X55419000Y56180000D01*
X55459000Y60660000D02*
X55459000Y73192000D01*
X55459000Y43648000D02*
X55459000Y56180000D01*
X55499000Y60660000D02*
X55499000Y73200000D01*
X55499000Y43640000D02*
X55499000Y56180000D01*
X55539000Y60660000D02*
X55539000Y73208000D01*
X55539000Y43632000D02*
X55539000Y56180000D01*
X55579000Y60660000D02*
X55579000Y73216000D01*
X55579000Y43624000D02*
X55579000Y56180000D01*
X55619000Y60660000D02*
X55619000Y73224000D01*
X55619000Y43616000D02*
X55619000Y56180000D01*
X55659000Y60660000D02*
X55659000Y73231000D01*
X55659000Y43609000D02*
X55659000Y56180000D01*
X55699000Y60660000D02*
X55699000Y73239000D01*
X55699000Y43601000D02*
X55699000Y56180000D01*
X55739000Y60660000D02*
X55739000Y73246000D01*
X55739000Y43594000D02*
X55739000Y56180000D01*
X55779000Y43586000D02*
X55779000Y73254000D01*
X55819000Y43579000D02*
X55819000Y73261000D01*
X55859000Y43572000D02*
X55859000Y73268000D01*
X55899000Y43565000D02*
X55899000Y73275000D01*
X55939000Y43558000D02*
X55939000Y73282000D01*
X55979000Y43551000D02*
X55979000Y73289000D01*
X56019000Y43544000D02*
X56019000Y73296000D01*
X56059000Y43538000D02*
X56059000Y73302000D01*
X56099000Y43531000D02*
X56099000Y73309000D01*
X56139000Y43525000D02*
X56139000Y73315000D01*
X56179000Y43519000D02*
X56179000Y73321000D01*
X56219000Y43512000D02*
X56219000Y73328000D01*
X56259000Y43506000D02*
X56259000Y73334000D01*
X56299000Y43500000D02*
X56299000Y73340000D01*
X56339000Y43495000D02*
X56339000Y73345000D01*
X56379000Y43489000D02*
X56379000Y73351000D01*
X56419000Y43483000D02*
X56419000Y73357000D01*
X56459000Y43478000D02*
X56459000Y73362000D01*
X56499000Y43472000D02*
X56499000Y73368000D01*
X56539000Y43467000D02*
X56539000Y73373000D01*
X56579000Y43462000D02*
X56579000Y73378000D01*
X56619000Y43457000D02*
X56619000Y73383000D01*
X56659000Y43452000D02*
X56659000Y73388000D01*
X56699000Y43447000D02*
X56699000Y73393000D01*
X56739000Y43442000D02*
X56739000Y73398000D01*
X56779000Y43438000D02*
X56779000Y73402000D01*
X56819000Y43433000D02*
X56819000Y73407000D01*
X56859000Y43429000D02*
X56859000Y73411000D01*
X56899000Y43424000D02*
X56899000Y73416000D01*
X56939000Y43420000D02*
X56939000Y73420000D01*
X56979000Y43416000D02*
X56979000Y73424000D01*
X57019000Y43412000D02*
X57019000Y73428000D01*
X57059000Y43408000D02*
X57059000Y73432000D01*
X57099000Y43404000D02*
X57099000Y73436000D01*
X57139000Y43401000D02*
X57139000Y73439000D01*
X57179000Y43397000D02*
X57179000Y73443000D01*
X57219000Y43394000D02*
X57219000Y73446000D01*
X57259000Y43390000D02*
X57259000Y73450000D01*
X57299000Y43387000D02*
X57299000Y73453000D01*
X57339000Y43384000D02*
X57339000Y73456000D01*
X57379000Y43381000D02*
X57379000Y73459000D01*
X57419000Y43378000D02*
X57419000Y73462000D01*
X57459000Y43375000D02*
X57459000Y73465000D01*
X57499000Y43373000D02*
X57499000Y73467000D01*
X57539000Y43370000D02*
X57539000Y73470000D01*
X57579000Y43368000D02*
X57579000Y73472000D01*
X57619000Y43365000D02*
X57619000Y73475000D01*
X57659000Y43363000D02*
X57659000Y73477000D01*
X57699000Y43361000D02*
X57699000Y73479000D01*
X57739000Y43359000D02*
X57739000Y73481000D01*
X57779000Y43357000D02*
X57779000Y73483000D01*
X57820000Y43355000D02*
X57820000Y73485000D01*
X57860000Y43353000D02*
X57860000Y73487000D01*
X57900000Y43351000D02*
X57900000Y73489000D01*
X57940000Y43350000D02*
X57940000Y73490000D01*
X57980000Y43348000D02*
X57980000Y73492000D01*
X58020000Y43347000D02*
X58020000Y73493000D01*
X58060000Y43346000D02*
X58060000Y73494000D01*
X58100000Y43345000D02*
X58100000Y73495000D01*
X58140000Y43344000D02*
X58140000Y73496000D01*
X58180000Y43343000D02*
X58180000Y73497000D01*
X58220000Y43342000D02*
X58220000Y73498000D01*
X58260000Y43341000D02*
X58260000Y73499000D01*
X58300000Y43341000D02*
X58300000Y73499000D01*
X58340000Y43340000D02*
X58340000Y73500000D01*
X58380000Y43340000D02*
X58380000Y73500000D01*
X58420000Y43340000D02*
X58420000Y73500000D01*
X58460000Y43340000D02*
X58460000Y73500000D01*
X58500000Y43339000D02*
X58500000Y73501000D01*
X73620000Y58420000D02*
G75*
G03*
X73620000Y58420000I-15120000J0D01*
G01*
%TO.C,C10*%
X57139491Y30145000D02*
X57139491Y31745000D01*
X57939491Y30945000D02*
X56339491Y30945000D01*
X41169000Y34735000D02*
X41169000Y36265000D01*
X41209000Y34402000D02*
X41209000Y36598000D01*
X41249000Y34149000D02*
X41249000Y36851000D01*
X41289000Y33936000D02*
X41289000Y37064000D01*
X41329000Y33748000D02*
X41329000Y37252000D01*
X41369000Y33580000D02*
X41369000Y37420000D01*
X41409000Y33426000D02*
X41409000Y37574000D01*
X41449000Y33282000D02*
X41449000Y37718000D01*
X41489000Y33149000D02*
X41489000Y37851000D01*
X41529000Y33022000D02*
X41529000Y37978000D01*
X41569000Y32903000D02*
X41569000Y38097000D01*
X41609000Y32789000D02*
X41609000Y38211000D01*
X41649000Y32680000D02*
X41649000Y38320000D01*
X41689000Y32576000D02*
X41689000Y38424000D01*
X41729000Y32476000D02*
X41729000Y38524000D01*
X41769000Y32380000D02*
X41769000Y38620000D01*
X41809000Y32287000D02*
X41809000Y38713000D01*
X41849000Y32197000D02*
X41849000Y38803000D01*
X41889000Y32110000D02*
X41889000Y38890000D01*
X41929000Y32025000D02*
X41929000Y38975000D01*
X41969000Y31943000D02*
X41969000Y39057000D01*
X42009000Y31863000D02*
X42009000Y39137000D01*
X42049000Y31785000D02*
X42049000Y39215000D01*
X42089000Y31710000D02*
X42089000Y39290000D01*
X42129000Y31636000D02*
X42129000Y39364000D01*
X42169000Y31564000D02*
X42169000Y39436000D01*
X42209000Y31493000D02*
X42209000Y39507000D01*
X42249000Y31424000D02*
X42249000Y39576000D01*
X42289000Y31357000D02*
X42289000Y39643000D01*
X42329000Y31291000D02*
X42329000Y39709000D01*
X42369000Y31227000D02*
X42369000Y39773000D01*
X42409000Y31164000D02*
X42409000Y39836000D01*
X42449000Y31102000D02*
X42449000Y39898000D01*
X42489000Y31041000D02*
X42489000Y39959000D01*
X42529000Y30981000D02*
X42529000Y40019000D01*
X42569000Y30923000D02*
X42569000Y40077000D01*
X42609000Y30866000D02*
X42609000Y40134000D01*
X42649000Y30809000D02*
X42649000Y40191000D01*
X42689000Y30754000D02*
X42689000Y40246000D01*
X42729000Y30700000D02*
X42729000Y40300000D01*
X42769000Y30646000D02*
X42769000Y40354000D01*
X42809000Y30594000D02*
X42809000Y40406000D01*
X42849000Y30542000D02*
X42849000Y40458000D01*
X42889000Y30491000D02*
X42889000Y40509000D01*
X42929000Y30441000D02*
X42929000Y40559000D01*
X42969000Y30392000D02*
X42969000Y40608000D01*
X43009000Y30344000D02*
X43009000Y40656000D01*
X43049000Y30296000D02*
X43049000Y40704000D01*
X43089000Y30249000D02*
X43089000Y40751000D01*
X43129000Y30203000D02*
X43129000Y40797000D01*
X43169000Y30157000D02*
X43169000Y40843000D01*
X43209000Y30112000D02*
X43209000Y40888000D01*
X43249000Y30068000D02*
X43249000Y40932000D01*
X43289000Y30025000D02*
X43289000Y40975000D01*
X43329000Y29982000D02*
X43329000Y41018000D01*
X43369000Y29940000D02*
X43369000Y41060000D01*
X43409000Y29898000D02*
X43409000Y41102000D01*
X43449000Y29857000D02*
X43449000Y41143000D01*
X43489000Y29816000D02*
X43489000Y41184000D01*
X43529000Y29776000D02*
X43529000Y41224000D01*
X43569000Y29737000D02*
X43569000Y41263000D01*
X43609000Y29698000D02*
X43609000Y41302000D01*
X43649000Y29660000D02*
X43649000Y41340000D01*
X43689000Y29622000D02*
X43689000Y41378000D01*
X43729000Y29584000D02*
X43729000Y41416000D01*
X43769000Y29548000D02*
X43769000Y41452000D01*
X43809000Y29511000D02*
X43809000Y41489000D01*
X43849000Y29475000D02*
X43849000Y41525000D01*
X43889000Y29440000D02*
X43889000Y41560000D01*
X43929000Y29405000D02*
X43929000Y41595000D01*
X43969000Y29371000D02*
X43969000Y41629000D01*
X44009000Y29337000D02*
X44009000Y41663000D01*
X44049000Y29303000D02*
X44049000Y41697000D01*
X44089000Y36940000D02*
X44089000Y41730000D01*
X44089000Y29270000D02*
X44089000Y34060000D01*
X44129000Y36940000D02*
X44129000Y41763000D01*
X44129000Y29237000D02*
X44129000Y34060000D01*
X44169000Y36940000D02*
X44169000Y41795000D01*
X44169000Y29205000D02*
X44169000Y34060000D01*
X44209000Y36940000D02*
X44209000Y41827000D01*
X44209000Y29173000D02*
X44209000Y34060000D01*
X44249000Y36940000D02*
X44249000Y41858000D01*
X44249000Y29142000D02*
X44249000Y34060000D01*
X44289000Y36940000D02*
X44289000Y41890000D01*
X44289000Y29110000D02*
X44289000Y34060000D01*
X44329000Y36940000D02*
X44329000Y41920000D01*
X44329000Y29080000D02*
X44329000Y34060000D01*
X44369000Y36940000D02*
X44369000Y41950000D01*
X44369000Y29050000D02*
X44369000Y34060000D01*
X44409000Y36940000D02*
X44409000Y41980000D01*
X44409000Y29020000D02*
X44409000Y34060000D01*
X44449000Y36940000D02*
X44449000Y42010000D01*
X44449000Y28990000D02*
X44449000Y34060000D01*
X44489000Y36940000D02*
X44489000Y42039000D01*
X44489000Y28961000D02*
X44489000Y34060000D01*
X44529000Y36940000D02*
X44529000Y42068000D01*
X44529000Y28932000D02*
X44529000Y34060000D01*
X44569000Y36940000D02*
X44569000Y42096000D01*
X44569000Y28904000D02*
X44569000Y34060000D01*
X44609000Y36940000D02*
X44609000Y42124000D01*
X44609000Y28876000D02*
X44609000Y34060000D01*
X44649000Y36940000D02*
X44649000Y42152000D01*
X44649000Y28848000D02*
X44649000Y34060000D01*
X44689000Y36940000D02*
X44689000Y42179000D01*
X44689000Y28821000D02*
X44689000Y34060000D01*
X44729000Y36940000D02*
X44729000Y42206000D01*
X44729000Y28794000D02*
X44729000Y34060000D01*
X44769000Y36940000D02*
X44769000Y42233000D01*
X44769000Y28767000D02*
X44769000Y34060000D01*
X44809000Y36940000D02*
X44809000Y42259000D01*
X44809000Y28741000D02*
X44809000Y34060000D01*
X44849000Y36940000D02*
X44849000Y42285000D01*
X44849000Y28715000D02*
X44849000Y34060000D01*
X44889000Y36940000D02*
X44889000Y42311000D01*
X44889000Y28689000D02*
X44889000Y34060000D01*
X44929000Y36940000D02*
X44929000Y42336000D01*
X44929000Y28664000D02*
X44929000Y34060000D01*
X44969000Y36940000D02*
X44969000Y42361000D01*
X44969000Y28639000D02*
X44969000Y34060000D01*
X45009000Y36940000D02*
X45009000Y42386000D01*
X45009000Y28614000D02*
X45009000Y34060000D01*
X45049000Y36940000D02*
X45049000Y42410000D01*
X45049000Y28590000D02*
X45049000Y34060000D01*
X45089000Y36940000D02*
X45089000Y42434000D01*
X45089000Y28566000D02*
X45089000Y34060000D01*
X45129000Y36940000D02*
X45129000Y42458000D01*
X45129000Y28542000D02*
X45129000Y34060000D01*
X45169000Y36940000D02*
X45169000Y42481000D01*
X45169000Y28519000D02*
X45169000Y34060000D01*
X45209000Y36940000D02*
X45209000Y42504000D01*
X45209000Y28496000D02*
X45209000Y34060000D01*
X45249000Y36940000D02*
X45249000Y42527000D01*
X45249000Y28473000D02*
X45249000Y34060000D01*
X45289000Y36940000D02*
X45289000Y42549000D01*
X45289000Y28451000D02*
X45289000Y34060000D01*
X45329000Y36940000D02*
X45329000Y42572000D01*
X45329000Y28428000D02*
X45329000Y34060000D01*
X45369000Y36940000D02*
X45369000Y42594000D01*
X45369000Y28406000D02*
X45369000Y34060000D01*
X45409000Y36940000D02*
X45409000Y42615000D01*
X45409000Y28385000D02*
X45409000Y34060000D01*
X45449000Y36940000D02*
X45449000Y42636000D01*
X45449000Y28364000D02*
X45449000Y34060000D01*
X45489000Y36940000D02*
X45489000Y42657000D01*
X45489000Y28343000D02*
X45489000Y34060000D01*
X45529000Y36940000D02*
X45529000Y42678000D01*
X45529000Y28322000D02*
X45529000Y34060000D01*
X45569000Y36940000D02*
X45569000Y42699000D01*
X45569000Y28301000D02*
X45569000Y34060000D01*
X45609000Y36940000D02*
X45609000Y42719000D01*
X45609000Y28281000D02*
X45609000Y34060000D01*
X45649000Y36940000D02*
X45649000Y42739000D01*
X45649000Y28261000D02*
X45649000Y34060000D01*
X45689000Y36940000D02*
X45689000Y42758000D01*
X45689000Y28242000D02*
X45689000Y34060000D01*
X45729000Y36940000D02*
X45729000Y42778000D01*
X45729000Y28222000D02*
X45729000Y34060000D01*
X45769000Y36940000D02*
X45769000Y42797000D01*
X45769000Y28203000D02*
X45769000Y34060000D01*
X45809000Y36940000D02*
X45809000Y42816000D01*
X45809000Y28184000D02*
X45809000Y34060000D01*
X45849000Y36940000D02*
X45849000Y42834000D01*
X45849000Y28166000D02*
X45849000Y34060000D01*
X45889000Y36940000D02*
X45889000Y42853000D01*
X45889000Y28147000D02*
X45889000Y34060000D01*
X45929000Y36940000D02*
X45929000Y42871000D01*
X45929000Y28129000D02*
X45929000Y34060000D01*
X45969000Y36940000D02*
X45969000Y42889000D01*
X45969000Y28111000D02*
X45969000Y34060000D01*
X46009000Y36940000D02*
X46009000Y42906000D01*
X46009000Y28094000D02*
X46009000Y34060000D01*
X46049000Y36940000D02*
X46049000Y42923000D01*
X46049000Y28077000D02*
X46049000Y34060000D01*
X46089000Y36940000D02*
X46089000Y42940000D01*
X46089000Y28060000D02*
X46089000Y34060000D01*
X46129000Y36940000D02*
X46129000Y42957000D01*
X46129000Y28043000D02*
X46129000Y34060000D01*
X46169000Y36940000D02*
X46169000Y42974000D01*
X46169000Y28026000D02*
X46169000Y34060000D01*
X46209000Y36940000D02*
X46209000Y42990000D01*
X46209000Y28010000D02*
X46209000Y34060000D01*
X46249000Y36940000D02*
X46249000Y43006000D01*
X46249000Y27994000D02*
X46249000Y34060000D01*
X46289000Y36940000D02*
X46289000Y43022000D01*
X46289000Y27978000D02*
X46289000Y34060000D01*
X46329000Y36940000D02*
X46329000Y43037000D01*
X46329000Y27963000D02*
X46329000Y34060000D01*
X46369000Y36940000D02*
X46369000Y43053000D01*
X46369000Y27947000D02*
X46369000Y34060000D01*
X46409000Y36940000D02*
X46409000Y43068000D01*
X46409000Y27932000D02*
X46409000Y34060000D01*
X46449000Y36940000D02*
X46449000Y43082000D01*
X46449000Y27918000D02*
X46449000Y34060000D01*
X46489000Y36940000D02*
X46489000Y43097000D01*
X46489000Y27903000D02*
X46489000Y34060000D01*
X46529000Y36940000D02*
X46529000Y43111000D01*
X46529000Y27889000D02*
X46529000Y34060000D01*
X46569000Y36940000D02*
X46569000Y43125000D01*
X46569000Y27875000D02*
X46569000Y34060000D01*
X46609000Y36940000D02*
X46609000Y43139000D01*
X46609000Y27861000D02*
X46609000Y34060000D01*
X46649000Y36940000D02*
X46649000Y43153000D01*
X46649000Y27847000D02*
X46649000Y34060000D01*
X46689000Y36940000D02*
X46689000Y43166000D01*
X46689000Y27834000D02*
X46689000Y34060000D01*
X46729000Y36940000D02*
X46729000Y43180000D01*
X46729000Y27820000D02*
X46729000Y34060000D01*
X46769000Y36940000D02*
X46769000Y43193000D01*
X46769000Y27807000D02*
X46769000Y34060000D01*
X46809000Y36940000D02*
X46809000Y43205000D01*
X46809000Y27795000D02*
X46809000Y34060000D01*
X46849000Y36940000D02*
X46849000Y43218000D01*
X46849000Y27782000D02*
X46849000Y34060000D01*
X46889000Y36940000D02*
X46889000Y43230000D01*
X46889000Y27770000D02*
X46889000Y34060000D01*
X46929000Y36940000D02*
X46929000Y43242000D01*
X46929000Y27758000D02*
X46929000Y34060000D01*
X46969000Y27746000D02*
X46969000Y43254000D01*
X47009000Y27735000D02*
X47009000Y43265000D01*
X47049000Y27723000D02*
X47049000Y43277000D01*
X47089000Y27712000D02*
X47089000Y43288000D01*
X47129000Y27701000D02*
X47129000Y43299000D01*
X47169000Y27690000D02*
X47169000Y43310000D01*
X47209000Y27680000D02*
X47209000Y43320000D01*
X47249000Y27670000D02*
X47249000Y43330000D01*
X47289000Y27660000D02*
X47289000Y43340000D01*
X47329000Y27650000D02*
X47329000Y43350000D01*
X47369000Y27640000D02*
X47369000Y43360000D01*
X47409000Y27631000D02*
X47409000Y43369000D01*
X47449000Y27622000D02*
X47449000Y43378000D01*
X47489000Y27613000D02*
X47489000Y43387000D01*
X47529000Y27604000D02*
X47529000Y43396000D01*
X47569000Y27595000D02*
X47569000Y43405000D01*
X47609000Y27587000D02*
X47609000Y43413000D01*
X47649000Y27579000D02*
X47649000Y43421000D01*
X47689000Y27571000D02*
X47689000Y43429000D01*
X47729000Y27563000D02*
X47729000Y43437000D01*
X47769000Y27556000D02*
X47769000Y43444000D01*
X47809000Y27548000D02*
X47809000Y43452000D01*
X47849000Y27541000D02*
X47849000Y43459000D01*
X47889000Y27534000D02*
X47889000Y43466000D01*
X47929000Y27528000D02*
X47929000Y43472000D01*
X47969000Y27521000D02*
X47969000Y43479000D01*
X48009000Y27515000D02*
X48009000Y43485000D01*
X48049000Y27509000D02*
X48049000Y43491000D01*
X48089000Y27503000D02*
X48089000Y43497000D01*
X48129000Y27497000D02*
X48129000Y43503000D01*
X48169000Y27492000D02*
X48169000Y43508000D01*
X48209000Y27486000D02*
X48209000Y43514000D01*
X48249000Y27481000D02*
X48249000Y43519000D01*
X48289000Y27476000D02*
X48289000Y43524000D01*
X48329000Y27472000D02*
X48329000Y43528000D01*
X48369000Y27467000D02*
X48369000Y43533000D01*
X48409000Y27463000D02*
X48409000Y43537000D01*
X48449000Y27459000D02*
X48449000Y43541000D01*
X48489000Y27455000D02*
X48489000Y43545000D01*
X48529000Y27451000D02*
X48529000Y43549000D01*
X48570000Y27448000D02*
X48570000Y43552000D01*
X48610000Y27445000D02*
X48610000Y43555000D01*
X48650000Y27442000D02*
X48650000Y43558000D01*
X48690000Y27439000D02*
X48690000Y43561000D01*
X48730000Y27436000D02*
X48730000Y43564000D01*
X48770000Y27434000D02*
X48770000Y43566000D01*
X48810000Y27431000D02*
X48810000Y43569000D01*
X48850000Y27429000D02*
X48850000Y43571000D01*
X48890000Y27427000D02*
X48890000Y43573000D01*
X48930000Y27426000D02*
X48930000Y43574000D01*
X48970000Y27424000D02*
X48970000Y43576000D01*
X49010000Y27423000D02*
X49010000Y43577000D01*
X49050000Y27422000D02*
X49050000Y43578000D01*
X49090000Y27421000D02*
X49090000Y43579000D01*
X49130000Y27420000D02*
X49130000Y43580000D01*
X49170000Y27420000D02*
X49170000Y43580000D01*
X49210000Y27420000D02*
X49210000Y43580000D01*
X49250000Y27419000D02*
X49250000Y43581000D01*
X57370000Y35500000D02*
G75*
G03*
X57370000Y35500000I-8120000J0D01*
G01*
%TO.C,TP1*%
X62805000Y75505000D02*
X65465000Y75505000D01*
X62805000Y75565000D02*
X62805000Y75505000D01*
X65465000Y75565000D02*
X65465000Y75505000D01*
X62805000Y75565000D02*
X65465000Y75565000D01*
X62805000Y76835000D02*
X62805000Y78165000D01*
X62805000Y78165000D02*
X64135000Y78165000D01*
%TO.C,TP3*%
X47565000Y74870000D02*
X50225000Y74870000D01*
X47565000Y74930000D02*
X47565000Y74870000D01*
X50225000Y74930000D02*
X50225000Y74870000D01*
X47565000Y74930000D02*
X50225000Y74930000D01*
X47565000Y76200000D02*
X47565000Y77530000D01*
X47565000Y77530000D02*
X48895000Y77530000D01*
%TO.C,TP4*%
X75505000Y55185000D02*
X78165000Y55185000D01*
X75505000Y55245000D02*
X75505000Y55185000D01*
X78165000Y55245000D02*
X78165000Y55185000D01*
X75505000Y55245000D02*
X78165000Y55245000D01*
X75505000Y56515000D02*
X75505000Y57845000D01*
X75505000Y57845000D02*
X76835000Y57845000D01*
%TO.C,TP5*%
X78045000Y33595000D02*
X80705000Y33595000D01*
X78045000Y33655000D02*
X78045000Y33595000D01*
X80705000Y33655000D02*
X80705000Y33595000D01*
X78045000Y33655000D02*
X80705000Y33655000D01*
X78045000Y34925000D02*
X78045000Y36255000D01*
X78045000Y36255000D02*
X79375000Y36255000D01*
%TO.C,TP7*%
X94555000Y51495000D02*
X95885000Y51495000D01*
X94555000Y50165000D02*
X94555000Y51495000D01*
X94555000Y48895000D02*
X97215000Y48895000D01*
X97215000Y48895000D02*
X97215000Y48835000D01*
X94555000Y48895000D02*
X94555000Y48835000D01*
X94555000Y48835000D02*
X97215000Y48835000D01*
%TO.C,TP8*%
X72965000Y43120000D02*
X75625000Y43120000D01*
X72965000Y43180000D02*
X72965000Y43120000D01*
X75625000Y43180000D02*
X75625000Y43120000D01*
X72965000Y43180000D02*
X75625000Y43180000D01*
X72965000Y44450000D02*
X72965000Y45780000D01*
X72965000Y45780000D02*
X74295000Y45780000D01*
%TO.C,TP9*%
X82490000Y36255000D02*
X83820000Y36255000D01*
X82490000Y34925000D02*
X82490000Y36255000D01*
X82490000Y33655000D02*
X85150000Y33655000D01*
X85150000Y33655000D02*
X85150000Y33595000D01*
X82490000Y33655000D02*
X82490000Y33595000D01*
X82490000Y33595000D02*
X85150000Y33595000D01*
%TO.C,U1*%
X20730000Y42760000D02*
X21830000Y42760000D01*
X20730000Y44570000D02*
X20730000Y42760000D01*
X19230000Y44570000D02*
X20730000Y44570000D01*
X20730000Y35980000D02*
X25855000Y35980000D01*
X20730000Y34170000D02*
X20730000Y35980000D01*
X19230000Y34170000D02*
X20730000Y34170000D01*
%TO.C,T1*%
X26000000Y117250000D02*
X51000000Y117250000D01*
X26000000Y110250000D02*
X51000000Y110250000D01*
X41000000Y116250000D02*
X36000000Y111250000D01*
X36000000Y111250000D02*
X36000000Y116250000D01*
X36000000Y116250000D02*
X41000000Y111250000D01*
X41000000Y111250000D02*
X41000000Y116250000D01*
X41000000Y116250000D02*
X46000000Y111250000D01*
X46000000Y111250000D02*
X46000000Y116250000D01*
X46000000Y116250000D02*
X41000000Y111250000D01*
X36000000Y116250000D02*
X31000000Y111250000D01*
X31000000Y111250000D02*
X31000000Y116250000D01*
X31000000Y116250000D02*
X36000000Y111250000D01*
%TO.C,TP2*%
X26870000Y32370000D02*
X26870000Y33700000D01*
X28200000Y32370000D02*
X26870000Y32370000D01*
X29470000Y32370000D02*
X29470000Y35030000D01*
X29470000Y35030000D02*
X29530000Y35030000D01*
X29470000Y32370000D02*
X29530000Y32370000D01*
X29530000Y32370000D02*
X29530000Y35030000D01*
%TO.C,TP6*%
X32370000Y32270000D02*
X35030000Y32270000D01*
X32370000Y32330000D02*
X32370000Y32270000D01*
X35030000Y32330000D02*
X35030000Y32270000D01*
X32370000Y32330000D02*
X35030000Y32330000D01*
X32370000Y33600000D02*
X32370000Y34930000D01*
X32370000Y34930000D02*
X33700000Y34930000D01*
%TO.C,TP10*%
X94270000Y34130000D02*
X95600000Y34130000D01*
X94270000Y32800000D02*
X94270000Y34130000D01*
X94270000Y31530000D02*
X96930000Y31530000D01*
X96930000Y31530000D02*
X96930000Y31470000D01*
X94270000Y31530000D02*
X94270000Y31470000D01*
X94270000Y31470000D02*
X96930000Y31470000D01*
%TO.C,C1*%
D10*
X78573333Y60602857D02*
X78525714Y60555238D01*
X78382857Y60507619D01*
X78287619Y60507619D01*
X78144761Y60555238D01*
X78049523Y60650476D01*
X78001904Y60745714D01*
X77954285Y60936190D01*
X77954285Y61079047D01*
X78001904Y61269523D01*
X78049523Y61364761D01*
X78144761Y61460000D01*
X78287619Y61507619D01*
X78382857Y61507619D01*
X78525714Y61460000D01*
X78573333Y61412380D01*
X79525714Y60507619D02*
X78954285Y60507619D01*
X79240000Y60507619D02*
X79240000Y61507619D01*
X79144761Y61364761D01*
X79049523Y61269523D01*
X78954285Y61221904D01*
%TO.C,C4*%
X94357142Y54833333D02*
X94404761Y54785714D01*
X94452380Y54642857D01*
X94452380Y54547619D01*
X94404761Y54404761D01*
X94309523Y54309523D01*
X94214285Y54261904D01*
X94023809Y54214285D01*
X93880952Y54214285D01*
X93690476Y54261904D01*
X93595238Y54309523D01*
X93500000Y54404761D01*
X93452380Y54547619D01*
X93452380Y54642857D01*
X93500000Y54785714D01*
X93547619Y54833333D01*
X93785714Y55690476D02*
X94452380Y55690476D01*
X93404761Y55452380D02*
X94119047Y55214285D01*
X94119047Y55833333D01*
%TO.C,C6*%
X77277142Y39833333D02*
X77324761Y39785714D01*
X77372380Y39642857D01*
X77372380Y39547619D01*
X77324761Y39404761D01*
X77229523Y39309523D01*
X77134285Y39261904D01*
X76943809Y39214285D01*
X76800952Y39214285D01*
X76610476Y39261904D01*
X76515238Y39309523D01*
X76420000Y39404761D01*
X76372380Y39547619D01*
X76372380Y39642857D01*
X76420000Y39785714D01*
X76467619Y39833333D01*
X76372380Y40690476D02*
X76372380Y40500000D01*
X76420000Y40404761D01*
X76467619Y40357142D01*
X76610476Y40261904D01*
X76800952Y40214285D01*
X77181904Y40214285D01*
X77277142Y40261904D01*
X77324761Y40309523D01*
X77372380Y40404761D01*
X77372380Y40595238D01*
X77324761Y40690476D01*
X77277142Y40738095D01*
X77181904Y40785714D01*
X76943809Y40785714D01*
X76848571Y40738095D01*
X76800952Y40690476D01*
X76753333Y40595238D01*
X76753333Y40404761D01*
X76800952Y40309523D01*
X76848571Y40261904D01*
X76943809Y40214285D01*
%TO.C,C7*%
X67583333Y25892857D02*
X67535714Y25845238D01*
X67392857Y25797619D01*
X67297619Y25797619D01*
X67154761Y25845238D01*
X67059523Y25940476D01*
X67011904Y26035714D01*
X66964285Y26226190D01*
X66964285Y26369047D01*
X67011904Y26559523D01*
X67059523Y26654761D01*
X67154761Y26750000D01*
X67297619Y26797619D01*
X67392857Y26797619D01*
X67535714Y26750000D01*
X67583333Y26702380D01*
X67916666Y26797619D02*
X68583333Y26797619D01*
X68154761Y25797619D01*
%TO.C,C9*%
X30320833Y41322857D02*
X30273214Y41275238D01*
X30130357Y41227619D01*
X30035119Y41227619D01*
X29892261Y41275238D01*
X29797023Y41370476D01*
X29749404Y41465714D01*
X29701785Y41656190D01*
X29701785Y41799047D01*
X29749404Y41989523D01*
X29797023Y42084761D01*
X29892261Y42180000D01*
X30035119Y42227619D01*
X30130357Y42227619D01*
X30273214Y42180000D01*
X30320833Y42132380D01*
X30797023Y41227619D02*
X30987500Y41227619D01*
X31082738Y41275238D01*
X31130357Y41322857D01*
X31225595Y41465714D01*
X31273214Y41656190D01*
X31273214Y42037142D01*
X31225595Y42132380D01*
X31177976Y42180000D01*
X31082738Y42227619D01*
X30892261Y42227619D01*
X30797023Y42180000D01*
X30749404Y42132380D01*
X30701785Y42037142D01*
X30701785Y41799047D01*
X30749404Y41703809D01*
X30797023Y41656190D01*
X30892261Y41608571D01*
X31082738Y41608571D01*
X31177976Y41656190D01*
X31225595Y41703809D01*
X31273214Y41799047D01*
%TO.C,D1*%
X55561904Y79947619D02*
X55561904Y80947619D01*
X55800000Y80947619D01*
X55942857Y80900000D01*
X56038095Y80804761D01*
X56085714Y80709523D01*
X56133333Y80519047D01*
X56133333Y80376190D01*
X56085714Y80185714D01*
X56038095Y80090476D01*
X55942857Y79995238D01*
X55800000Y79947619D01*
X55561904Y79947619D01*
X57085714Y79947619D02*
X56514285Y79947619D01*
X56800000Y79947619D02*
X56800000Y80947619D01*
X56704761Y80804761D01*
X56609523Y80709523D01*
X56514285Y80661904D01*
%TO.C,F1*%
D14*
X16066666Y70575714D02*
X15643333Y70575714D01*
X15643333Y69910476D02*
X15643333Y71180476D01*
X16248095Y71180476D01*
X17397142Y69910476D02*
X16671428Y69910476D01*
X17034285Y69910476D02*
X17034285Y71180476D01*
X16913333Y70999047D01*
X16792380Y70878095D01*
X16671428Y70817619D01*
%TO.C,IC1*%
X91574523Y54760238D02*
X90304523Y54760238D01*
X91453571Y56090714D02*
X91514047Y56030238D01*
X91574523Y55848809D01*
X91574523Y55727857D01*
X91514047Y55546428D01*
X91393095Y55425476D01*
X91272142Y55365000D01*
X91030238Y55304523D01*
X90848809Y55304523D01*
X90606904Y55365000D01*
X90485952Y55425476D01*
X90365000Y55546428D01*
X90304523Y55727857D01*
X90304523Y55848809D01*
X90365000Y56030238D01*
X90425476Y56090714D01*
X91574523Y57300238D02*
X91574523Y56574523D01*
X91574523Y56937380D02*
X90304523Y56937380D01*
X90485952Y56816428D01*
X90606904Y56695476D01*
X90667380Y56574523D01*
%TO.C,J1*%
D10*
X10532380Y92126666D02*
X11246666Y92126666D01*
X11389523Y92079047D01*
X11484761Y91983809D01*
X11532380Y91840952D01*
X11532380Y91745714D01*
X11532380Y93126666D02*
X11532380Y92555238D01*
X11532380Y92840952D02*
X10532380Y92840952D01*
X10675238Y92745714D01*
X10770476Y92650476D01*
X10818095Y92555238D01*
%TO.C,L1*%
X95316244Y36232520D02*
X94979526Y35895802D01*
X94272420Y36602909D01*
X95922336Y36838611D02*
X95518275Y36434550D01*
X95720305Y36636581D02*
X95013198Y37343688D01*
X95046870Y37175329D01*
X95046870Y37040642D01*
X95013198Y36939627D01*
%TO.C,R1*%
X79452380Y52690833D02*
X78976190Y52357500D01*
X79452380Y52119404D02*
X78452380Y52119404D01*
X78452380Y52500357D01*
X78500000Y52595595D01*
X78547619Y52643214D01*
X78642857Y52690833D01*
X78785714Y52690833D01*
X78880952Y52643214D01*
X78928571Y52595595D01*
X78976190Y52500357D01*
X78976190Y52119404D01*
X79452380Y53643214D02*
X79452380Y53071785D01*
X79452380Y53357500D02*
X78452380Y53357500D01*
X78595238Y53262261D01*
X78690476Y53167023D01*
X78738095Y53071785D01*
%TO.C,R3*%
X83833333Y39547619D02*
X83500000Y40023809D01*
X83261904Y39547619D02*
X83261904Y40547619D01*
X83642857Y40547619D01*
X83738095Y40500000D01*
X83785714Y40452380D01*
X83833333Y40357142D01*
X83833333Y40214285D01*
X83785714Y40119047D01*
X83738095Y40071428D01*
X83642857Y40023809D01*
X83261904Y40023809D01*
X84166666Y40547619D02*
X84785714Y40547619D01*
X84452380Y40166666D01*
X84595238Y40166666D01*
X84690476Y40119047D01*
X84738095Y40071428D01*
X84785714Y39976190D01*
X84785714Y39738095D01*
X84738095Y39642857D01*
X84690476Y39595238D01*
X84595238Y39547619D01*
X84309523Y39547619D01*
X84214285Y39595238D01*
X84166666Y39642857D01*
%TO.C,R4*%
X77372380Y47190833D02*
X76896190Y46857500D01*
X77372380Y46619404D02*
X76372380Y46619404D01*
X76372380Y47000357D01*
X76420000Y47095595D01*
X76467619Y47143214D01*
X76562857Y47190833D01*
X76705714Y47190833D01*
X76800952Y47143214D01*
X76848571Y47095595D01*
X76896190Y47000357D01*
X76896190Y46619404D01*
X76705714Y48047976D02*
X77372380Y48047976D01*
X76324761Y47809880D02*
X77039047Y47571785D01*
X77039047Y48190833D01*
%TO.C,RV1*%
X18502380Y89054761D02*
X18026190Y88721428D01*
X18502380Y88483333D02*
X17502380Y88483333D01*
X17502380Y88864285D01*
X17550000Y88959523D01*
X17597619Y89007142D01*
X17692857Y89054761D01*
X17835714Y89054761D01*
X17930952Y89007142D01*
X17978571Y88959523D01*
X18026190Y88864285D01*
X18026190Y88483333D01*
X17502380Y89340476D02*
X18502380Y89673809D01*
X17502380Y90007142D01*
X18502380Y90864285D02*
X18502380Y90292857D01*
X18502380Y90578571D02*
X17502380Y90578571D01*
X17645238Y90483333D01*
X17740476Y90388095D01*
X17788095Y90292857D01*
%TO.C,C8*%
X58333333Y41812857D02*
X58285714Y41765238D01*
X58142857Y41717619D01*
X58047619Y41717619D01*
X57904761Y41765238D01*
X57809523Y41860476D01*
X57761904Y41955714D01*
X57714285Y42146190D01*
X57714285Y42289047D01*
X57761904Y42479523D01*
X57809523Y42574761D01*
X57904761Y42670000D01*
X58047619Y42717619D01*
X58142857Y42717619D01*
X58285714Y42670000D01*
X58333333Y42622380D01*
X58904761Y42289047D02*
X58809523Y42336666D01*
X58761904Y42384285D01*
X58714285Y42479523D01*
X58714285Y42527142D01*
X58761904Y42622380D01*
X58809523Y42670000D01*
X58904761Y42717619D01*
X59095238Y42717619D01*
X59190476Y42670000D01*
X59238095Y42622380D01*
X59285714Y42527142D01*
X59285714Y42479523D01*
X59238095Y42384285D01*
X59190476Y42336666D01*
X59095238Y42289047D01*
X58904761Y42289047D01*
X58809523Y42241428D01*
X58761904Y42193809D01*
X58714285Y42098571D01*
X58714285Y41908095D01*
X58761904Y41812857D01*
X58809523Y41765238D01*
X58904761Y41717619D01*
X59095238Y41717619D01*
X59190476Y41765238D01*
X59238095Y41812857D01*
X59285714Y41908095D01*
X59285714Y42098571D01*
X59238095Y42193809D01*
X59190476Y42241428D01*
X59095238Y42289047D01*
%TO.C,C10*%
X48607142Y25892857D02*
X48559523Y25845238D01*
X48416666Y25797619D01*
X48321428Y25797619D01*
X48178571Y25845238D01*
X48083333Y25940476D01*
X48035714Y26035714D01*
X47988095Y26226190D01*
X47988095Y26369047D01*
X48035714Y26559523D01*
X48083333Y26654761D01*
X48178571Y26750000D01*
X48321428Y26797619D01*
X48416666Y26797619D01*
X48559523Y26750000D01*
X48607142Y26702380D01*
X49559523Y25797619D02*
X48988095Y25797619D01*
X49273809Y25797619D02*
X49273809Y26797619D01*
X49178571Y26654761D01*
X49083333Y26559523D01*
X48988095Y26511904D01*
X50178571Y26797619D02*
X50273809Y26797619D01*
X50369047Y26750000D01*
X50416666Y26702380D01*
X50464285Y26607142D01*
X50511904Y26416666D01*
X50511904Y26178571D01*
X50464285Y25988095D01*
X50416666Y25892857D01*
X50369047Y25845238D01*
X50273809Y25797619D01*
X50178571Y25797619D01*
X50083333Y25845238D01*
X50035714Y25892857D01*
X49988095Y25988095D01*
X49940476Y26178571D01*
X49940476Y26416666D01*
X49988095Y26607142D01*
X50035714Y26702380D01*
X50083333Y26750000D01*
X50178571Y26797619D01*
%TO.C,TP1*%
X62873095Y79712619D02*
X63444523Y79712619D01*
X63158809Y78712619D02*
X63158809Y79712619D01*
X63777857Y78712619D02*
X63777857Y79712619D01*
X64158809Y79712619D01*
X64254047Y79665000D01*
X64301666Y79617380D01*
X64349285Y79522142D01*
X64349285Y79379285D01*
X64301666Y79284047D01*
X64254047Y79236428D01*
X64158809Y79188809D01*
X63777857Y79188809D01*
X65301666Y78712619D02*
X64730238Y78712619D01*
X65015952Y78712619D02*
X65015952Y79712619D01*
X64920714Y79569761D01*
X64825476Y79474523D01*
X64730238Y79426904D01*
%TO.C,TP3*%
X47633095Y79077619D02*
X48204523Y79077619D01*
X47918809Y78077619D02*
X47918809Y79077619D01*
X48537857Y78077619D02*
X48537857Y79077619D01*
X48918809Y79077619D01*
X49014047Y79030000D01*
X49061666Y78982380D01*
X49109285Y78887142D01*
X49109285Y78744285D01*
X49061666Y78649047D01*
X49014047Y78601428D01*
X48918809Y78553809D01*
X48537857Y78553809D01*
X49442619Y79077619D02*
X50061666Y79077619D01*
X49728333Y78696666D01*
X49871190Y78696666D01*
X49966428Y78649047D01*
X50014047Y78601428D01*
X50061666Y78506190D01*
X50061666Y78268095D01*
X50014047Y78172857D01*
X49966428Y78125238D01*
X49871190Y78077619D01*
X49585476Y78077619D01*
X49490238Y78125238D01*
X49442619Y78172857D01*
%TO.C,TP4*%
X75573095Y59392619D02*
X76144523Y59392619D01*
X75858809Y58392619D02*
X75858809Y59392619D01*
X76477857Y58392619D02*
X76477857Y59392619D01*
X76858809Y59392619D01*
X76954047Y59345000D01*
X77001666Y59297380D01*
X77049285Y59202142D01*
X77049285Y59059285D01*
X77001666Y58964047D01*
X76954047Y58916428D01*
X76858809Y58868809D01*
X76477857Y58868809D01*
X77906428Y59059285D02*
X77906428Y58392619D01*
X77668333Y59440238D02*
X77430238Y58725952D01*
X78049285Y58725952D01*
%TO.C,TP5*%
X78113095Y32547619D02*
X78684523Y32547619D01*
X78398809Y31547619D02*
X78398809Y32547619D01*
X79017857Y31547619D02*
X79017857Y32547619D01*
X79398809Y32547619D01*
X79494047Y32500000D01*
X79541666Y32452380D01*
X79589285Y32357142D01*
X79589285Y32214285D01*
X79541666Y32119047D01*
X79494047Y32071428D01*
X79398809Y32023809D01*
X79017857Y32023809D01*
X80494047Y32547619D02*
X80017857Y32547619D01*
X79970238Y32071428D01*
X80017857Y32119047D01*
X80113095Y32166666D01*
X80351190Y32166666D01*
X80446428Y32119047D01*
X80494047Y32071428D01*
X80541666Y31976190D01*
X80541666Y31738095D01*
X80494047Y31642857D01*
X80446428Y31595238D01*
X80351190Y31547619D01*
X80113095Y31547619D01*
X80017857Y31595238D01*
X79970238Y31642857D01*
%TO.C,TP7*%
X94623095Y53042619D02*
X95194523Y53042619D01*
X94908809Y52042619D02*
X94908809Y53042619D01*
X95527857Y52042619D02*
X95527857Y53042619D01*
X95908809Y53042619D01*
X96004047Y52995000D01*
X96051666Y52947380D01*
X96099285Y52852142D01*
X96099285Y52709285D01*
X96051666Y52614047D01*
X96004047Y52566428D01*
X95908809Y52518809D01*
X95527857Y52518809D01*
X96432619Y53042619D02*
X97099285Y53042619D01*
X96670714Y52042619D01*
%TO.C,TP8*%
X73033095Y47327619D02*
X73604523Y47327619D01*
X73318809Y46327619D02*
X73318809Y47327619D01*
X73937857Y46327619D02*
X73937857Y47327619D01*
X74318809Y47327619D01*
X74414047Y47280000D01*
X74461666Y47232380D01*
X74509285Y47137142D01*
X74509285Y46994285D01*
X74461666Y46899047D01*
X74414047Y46851428D01*
X74318809Y46803809D01*
X73937857Y46803809D01*
X75080714Y46899047D02*
X74985476Y46946666D01*
X74937857Y46994285D01*
X74890238Y47089523D01*
X74890238Y47137142D01*
X74937857Y47232380D01*
X74985476Y47280000D01*
X75080714Y47327619D01*
X75271190Y47327619D01*
X75366428Y47280000D01*
X75414047Y47232380D01*
X75461666Y47137142D01*
X75461666Y47089523D01*
X75414047Y46994285D01*
X75366428Y46946666D01*
X75271190Y46899047D01*
X75080714Y46899047D01*
X74985476Y46851428D01*
X74937857Y46803809D01*
X74890238Y46708571D01*
X74890238Y46518095D01*
X74937857Y46422857D01*
X74985476Y46375238D01*
X75080714Y46327619D01*
X75271190Y46327619D01*
X75366428Y46375238D01*
X75414047Y46422857D01*
X75461666Y46518095D01*
X75461666Y46708571D01*
X75414047Y46803809D01*
X75366428Y46851428D01*
X75271190Y46899047D01*
%TO.C,TP9*%
X82558095Y32547619D02*
X83129523Y32547619D01*
X82843809Y31547619D02*
X82843809Y32547619D01*
X83462857Y31547619D02*
X83462857Y32547619D01*
X83843809Y32547619D01*
X83939047Y32500000D01*
X83986666Y32452380D01*
X84034285Y32357142D01*
X84034285Y32214285D01*
X83986666Y32119047D01*
X83939047Y32071428D01*
X83843809Y32023809D01*
X83462857Y32023809D01*
X84510476Y31547619D02*
X84700952Y31547619D01*
X84796190Y31595238D01*
X84843809Y31642857D01*
X84939047Y31785714D01*
X84986666Y31976190D01*
X84986666Y32357142D01*
X84939047Y32452380D01*
X84891428Y32500000D01*
X84796190Y32547619D01*
X84605714Y32547619D01*
X84510476Y32500000D01*
X84462857Y32452380D01*
X84415238Y32357142D01*
X84415238Y32119047D01*
X84462857Y32023809D01*
X84510476Y31976190D01*
X84605714Y31928571D01*
X84796190Y31928571D01*
X84891428Y31976190D01*
X84939047Y32023809D01*
X84986666Y32119047D01*
%TO.C,U1*%
X17018095Y33267619D02*
X17018095Y32458095D01*
X17065714Y32362857D01*
X17113333Y32315238D01*
X17208571Y32267619D01*
X17399047Y32267619D01*
X17494285Y32315238D01*
X17541904Y32362857D01*
X17589523Y32458095D01*
X17589523Y33267619D01*
X18589523Y32267619D02*
X18018095Y32267619D01*
X18303809Y32267619D02*
X18303809Y33267619D01*
X18208571Y33124761D01*
X18113333Y33029523D01*
X18018095Y32981904D01*
%TO.C,T1*%
X29238095Y125797619D02*
X29809523Y125797619D01*
X29523809Y124797619D02*
X29523809Y125797619D01*
X30666666Y124797619D02*
X30095238Y124797619D01*
X30380952Y124797619D02*
X30380952Y125797619D01*
X30285714Y125654761D01*
X30190476Y125559523D01*
X30095238Y125511904D01*
%TO.C,TP2*%
X25322380Y32438095D02*
X25322380Y33009523D01*
X26322380Y32723809D02*
X25322380Y32723809D01*
X26322380Y33342857D02*
X25322380Y33342857D01*
X25322380Y33723809D01*
X25370000Y33819047D01*
X25417619Y33866666D01*
X25512857Y33914285D01*
X25655714Y33914285D01*
X25750952Y33866666D01*
X25798571Y33819047D01*
X25846190Y33723809D01*
X25846190Y33342857D01*
X25417619Y34295238D02*
X25370000Y34342857D01*
X25322380Y34438095D01*
X25322380Y34676190D01*
X25370000Y34771428D01*
X25417619Y34819047D01*
X25512857Y34866666D01*
X25608095Y34866666D01*
X25750952Y34819047D01*
X26322380Y34247619D01*
X26322380Y34866666D01*
%TO.C,TP6*%
X32438095Y36477619D02*
X33009523Y36477619D01*
X32723809Y35477619D02*
X32723809Y36477619D01*
X33342857Y35477619D02*
X33342857Y36477619D01*
X33723809Y36477619D01*
X33819047Y36430000D01*
X33866666Y36382380D01*
X33914285Y36287142D01*
X33914285Y36144285D01*
X33866666Y36049047D01*
X33819047Y36001428D01*
X33723809Y35953809D01*
X33342857Y35953809D01*
X34771428Y36477619D02*
X34580952Y36477619D01*
X34485714Y36430000D01*
X34438095Y36382380D01*
X34342857Y36239523D01*
X34295238Y36049047D01*
X34295238Y35668095D01*
X34342857Y35572857D01*
X34390476Y35525238D01*
X34485714Y35477619D01*
X34676190Y35477619D01*
X34771428Y35525238D01*
X34819047Y35572857D01*
X34866666Y35668095D01*
X34866666Y35906190D01*
X34819047Y36001428D01*
X34771428Y36049047D01*
X34676190Y36096666D01*
X34485714Y36096666D01*
X34390476Y36049047D01*
X34342857Y36001428D01*
X34295238Y35906190D01*
%TO.C,TP10*%
X93861904Y35677619D02*
X94433333Y35677619D01*
X94147619Y34677619D02*
X94147619Y35677619D01*
X94766666Y34677619D02*
X94766666Y35677619D01*
X95147619Y35677619D01*
X95242857Y35630000D01*
X95290476Y35582380D01*
X95338095Y35487142D01*
X95338095Y35344285D01*
X95290476Y35249047D01*
X95242857Y35201428D01*
X95147619Y35153809D01*
X94766666Y35153809D01*
X96290476Y34677619D02*
X95719047Y34677619D01*
X96004761Y34677619D02*
X96004761Y35677619D01*
X95909523Y35534761D01*
X95814285Y35439523D01*
X95719047Y35391904D01*
X96909523Y35677619D02*
X97004761Y35677619D01*
X97100000Y35630000D01*
X97147619Y35582380D01*
X97195238Y35487142D01*
X97242857Y35296666D01*
X97242857Y35058571D01*
X97195238Y34868095D01*
X97147619Y34772857D01*
X97100000Y34725238D01*
X97004761Y34677619D01*
X96909523Y34677619D01*
X96814285Y34725238D01*
X96766666Y34772857D01*
X96719047Y34868095D01*
X96671428Y35058571D01*
X96671428Y35296666D01*
X96719047Y35487142D01*
X96766666Y35582380D01*
X96814285Y35630000D01*
X96909523Y35677619D01*
%TD*%
M02*
