%TF.GenerationSoftware,KiCad,Pcbnew,(5.1.6)-1*%
%TF.CreationDate,2021-04-18T17:59:39-07:00*%
%TF.ProjectId,pwr_supply,7077725f-7375-4707-906c-792e6b696361,rev?*%
%TF.SameCoordinates,Original*%
%TF.FileFunction,Soldermask,Top*%
%TF.FilePolarity,Negative*%
%FSLAX46Y46*%
G04 Gerber Fmt 4.6, Leading zero omitted, Abs format (unit mm)*
G04 Created by KiCad (PCBNEW (5.1.6)-1) date 2021-04-18 17:59:39*
%MOMM*%
%LPD*%
G01*
G04 APERTURE LIST*
%ADD10C,0.100000*%
%ADD11R,4.000000X4.000000*%
%ADD12C,4.000000*%
%ADD13R,2.400000X2.400000*%
%ADD14C,2.400000*%
%ADD15C,2.000000*%
%ADD16R,2.000000X2.000000*%
%ADD17R,6.000000X6.000000*%
%ADD18R,3.350000X2.000000*%
%ADD19R,0.650000X1.500000*%
%ADD20R,3.000000X3.000000*%
%ADD21C,3.000000*%
%ADD22C,2.500000*%
%ADD23C,1.800000*%
%ADD24R,1.700000X1.700000*%
%ADD25R,4.600000X1.100000*%
%ADD26R,9.400000X10.800000*%
G04 APERTURE END LIST*
D10*
G36*
X36000000Y87000000D02*
G01*
X34000000Y89000000D01*
X20000000Y89000000D01*
X18000000Y87000000D01*
X18000000Y65000000D01*
X19000000Y64000000D01*
X16000000Y64000000D01*
X17000000Y65000000D01*
X17000000Y89000000D01*
X16000000Y90000000D01*
X16000000Y91000000D01*
X35000000Y91000000D01*
X36000000Y92000000D01*
X36000000Y87000000D01*
G37*
X36000000Y87000000D02*
X34000000Y89000000D01*
X20000000Y89000000D01*
X18000000Y87000000D01*
X18000000Y65000000D01*
X19000000Y64000000D01*
X16000000Y64000000D01*
X17000000Y65000000D01*
X17000000Y89000000D01*
X16000000Y90000000D01*
X16000000Y91000000D01*
X35000000Y91000000D01*
X36000000Y92000000D01*
X36000000Y87000000D01*
G36*
X42000000Y99000000D02*
G01*
X42000000Y65000000D01*
X35000000Y58000000D01*
X1000000Y58000000D01*
X0Y57000000D01*
X0Y65000000D01*
X1000000Y64000000D01*
X34000000Y64000000D01*
X36000000Y66000000D01*
X36000000Y99250000D01*
X35250000Y100000000D01*
X43000000Y100000000D01*
X42000000Y99000000D01*
G37*
X42000000Y99000000D02*
X42000000Y65000000D01*
X35000000Y58000000D01*
X1000000Y58000000D01*
X0Y57000000D01*
X0Y65000000D01*
X1000000Y64000000D01*
X34000000Y64000000D01*
X36000000Y66000000D01*
X36000000Y99250000D01*
X35250000Y100000000D01*
X43000000Y100000000D01*
X42000000Y99000000D01*
D11*
%TO.C,C1*%
X88900000Y76835000D03*
D12*
X78900000Y76835000D03*
%TD*%
%TO.C,C4*%
G36*
G01*
X92775000Y49420000D02*
X90625000Y49420000D01*
G75*
G02*
X90375000Y49670000I0J250000D01*
G01*
X90375000Y50595000D01*
G75*
G02*
X90625000Y50845000I250000J0D01*
G01*
X92775000Y50845000D01*
G75*
G02*
X93025000Y50595000I0J-250000D01*
G01*
X93025000Y49670000D01*
G75*
G02*
X92775000Y49420000I-250000J0D01*
G01*
G37*
G36*
G01*
X92775000Y52395000D02*
X90625000Y52395000D01*
G75*
G02*
X90375000Y52645000I0J250000D01*
G01*
X90375000Y53570000D01*
G75*
G02*
X90625000Y53820000I250000J0D01*
G01*
X92775000Y53820000D01*
G75*
G02*
X93025000Y53570000I0J-250000D01*
G01*
X93025000Y52645000D01*
G75*
G02*
X92775000Y52395000I-250000J0D01*
G01*
G37*
%TD*%
%TO.C,C6*%
G36*
G01*
X80275000Y38657500D02*
X78125000Y38657500D01*
G75*
G02*
X77875000Y38907500I0J250000D01*
G01*
X77875000Y39832500D01*
G75*
G02*
X78125000Y40082500I250000J0D01*
G01*
X80275000Y40082500D01*
G75*
G02*
X80525000Y39832500I0J-250000D01*
G01*
X80525000Y38907500D01*
G75*
G02*
X80275000Y38657500I-250000J0D01*
G01*
G37*
G36*
G01*
X80275000Y41632500D02*
X78125000Y41632500D01*
G75*
G02*
X77875000Y41882500I0J250000D01*
G01*
X77875000Y42807500D01*
G75*
G02*
X78125000Y43057500I250000J0D01*
G01*
X80275000Y43057500D01*
G75*
G02*
X80525000Y42807500I0J-250000D01*
G01*
X80525000Y41882500D01*
G75*
G02*
X80275000Y41632500I-250000J0D01*
G01*
G37*
%TD*%
D13*
%TO.C,C7*%
X71500000Y35500000D03*
D14*
X64000000Y35500000D03*
%TD*%
%TO.C,C9*%
G36*
G01*
X28287500Y38325000D02*
X28287500Y40475000D01*
G75*
G02*
X28537500Y40725000I250000J0D01*
G01*
X29462500Y40725000D01*
G75*
G02*
X29712500Y40475000I0J-250000D01*
G01*
X29712500Y38325000D01*
G75*
G02*
X29462500Y38075000I-250000J0D01*
G01*
X28537500Y38075000D01*
G75*
G02*
X28287500Y38325000I0J250000D01*
G01*
G37*
G36*
G01*
X31262500Y38325000D02*
X31262500Y40475000D01*
G75*
G02*
X31512500Y40725000I250000J0D01*
G01*
X32437500Y40725000D01*
G75*
G02*
X32687500Y40475000I0J-250000D01*
G01*
X32687500Y38325000D01*
G75*
G02*
X32437500Y38075000I-250000J0D01*
G01*
X31512500Y38075000D01*
G75*
G02*
X31262500Y38325000I0J250000D01*
G01*
G37*
%TD*%
D15*
%TO.C,D1*%
X49000000Y83000000D03*
X54000000Y83000000D03*
X59000000Y83000000D03*
D16*
X64000000Y83000000D03*
%TD*%
D17*
%TO.C,F1*%
X8890000Y70485000D03*
X25890000Y70485000D03*
%TD*%
D18*
%TO.C,IC1*%
X86700000Y51620000D03*
D19*
X88605000Y48920000D03*
X87335000Y48920000D03*
X86065000Y48920000D03*
X84795000Y48920000D03*
X84795000Y54320000D03*
X86065000Y54320000D03*
X87335000Y54320000D03*
X88605000Y54320000D03*
%TD*%
D20*
%TO.C,J1*%
X6000000Y95000000D03*
D21*
X6000000Y89920000D03*
%TD*%
%TO.C,J2*%
X93345000Y5080000D03*
D20*
X88265000Y5080000D03*
%TD*%
%TO.C,J3*%
X22225000Y17780000D03*
D21*
X27305000Y17780000D03*
%TD*%
%TO.C,J4*%
X45085000Y17780000D03*
D20*
X40005000Y17780000D03*
%TD*%
%TO.C,J5*%
X88265000Y17780000D03*
D21*
X93345000Y17780000D03*
%TD*%
%TO.C,J6*%
X27305000Y5080000D03*
D20*
X22225000Y5080000D03*
%TD*%
%TO.C,J7*%
X55245000Y5080000D03*
D21*
X60325000Y5080000D03*
%TD*%
D20*
%TO.C,J8*%
X73025000Y5080000D03*
D21*
X78105000Y5080000D03*
%TD*%
%TO.C,J9*%
X12065000Y5080000D03*
D20*
X6985000Y5080000D03*
%TD*%
%TO.C,J10*%
X55245000Y17780000D03*
D21*
X60325000Y17780000D03*
%TD*%
%TO.C,J11*%
X78105000Y17780000D03*
D20*
X73025000Y17780000D03*
%TD*%
%TO.C,J12*%
X6985000Y17780000D03*
D21*
X12065000Y17780000D03*
%TD*%
%TO.C,J13*%
X45085000Y5080000D03*
D20*
X40005000Y5080000D03*
%TD*%
D22*
%TO.C,L1*%
X90871573Y38791573D03*
X90871573Y44448427D03*
G36*
G01*
X88184567Y42892792D02*
X89315938Y41761421D01*
G75*
G02*
X89315938Y41478579I-141421J-141421D01*
G01*
X88184567Y40347208D01*
G75*
G02*
X87901725Y40347208I-141421J141421D01*
G01*
X86770354Y41478579D01*
G75*
G02*
X86770354Y41761421I141421J141421D01*
G01*
X87901725Y42892792D01*
G75*
G02*
X88184567Y42892792I141421J-141421D01*
G01*
G37*
G36*
G01*
X93841421Y42892792D02*
X94972792Y41761421D01*
G75*
G02*
X94972792Y41478579I-141421J-141421D01*
G01*
X93841421Y40347208D01*
G75*
G02*
X93558579Y40347208I-141421J141421D01*
G01*
X92427208Y41478579D01*
G75*
G02*
X92427208Y41761421I141421J141421D01*
G01*
X93558579Y42892792D01*
G75*
G02*
X93841421Y42892792I141421J-141421D01*
G01*
G37*
%TD*%
%TO.C,R1*%
G36*
G01*
X80625000Y52082500D02*
X82775000Y52082500D01*
G75*
G02*
X83025000Y51832500I0J-250000D01*
G01*
X83025000Y50907500D01*
G75*
G02*
X82775000Y50657500I-250000J0D01*
G01*
X80625000Y50657500D01*
G75*
G02*
X80375000Y50907500I0J250000D01*
G01*
X80375000Y51832500D01*
G75*
G02*
X80625000Y52082500I250000J0D01*
G01*
G37*
G36*
G01*
X80625000Y55057500D02*
X82775000Y55057500D01*
G75*
G02*
X83025000Y54807500I0J-250000D01*
G01*
X83025000Y53882500D01*
G75*
G02*
X82775000Y53632500I-250000J0D01*
G01*
X80625000Y53632500D01*
G75*
G02*
X80375000Y53882500I0J250000D01*
G01*
X80375000Y54807500D01*
G75*
G02*
X80625000Y55057500I250000J0D01*
G01*
G37*
%TD*%
%TO.C,R3*%
G36*
G01*
X84275000Y41932500D02*
X82125000Y41932500D01*
G75*
G02*
X81875000Y42182500I0J250000D01*
G01*
X81875000Y43107500D01*
G75*
G02*
X82125000Y43357500I250000J0D01*
G01*
X84275000Y43357500D01*
G75*
G02*
X84525000Y43107500I0J-250000D01*
G01*
X84525000Y42182500D01*
G75*
G02*
X84275000Y41932500I-250000J0D01*
G01*
G37*
G36*
G01*
X84275000Y44907500D02*
X82125000Y44907500D01*
G75*
G02*
X81875000Y45157500I0J250000D01*
G01*
X81875000Y46082500D01*
G75*
G02*
X82125000Y46332500I250000J0D01*
G01*
X84275000Y46332500D01*
G75*
G02*
X84525000Y46082500I0J-250000D01*
G01*
X84525000Y45157500D01*
G75*
G02*
X84275000Y44907500I-250000J0D01*
G01*
G37*
%TD*%
%TO.C,R4*%
G36*
G01*
X80275000Y48132500D02*
X78125000Y48132500D01*
G75*
G02*
X77875000Y48382500I0J250000D01*
G01*
X77875000Y49307500D01*
G75*
G02*
X78125000Y49557500I250000J0D01*
G01*
X80275000Y49557500D01*
G75*
G02*
X80525000Y49307500I0J-250000D01*
G01*
X80525000Y48382500D01*
G75*
G02*
X80275000Y48132500I-250000J0D01*
G01*
G37*
G36*
G01*
X80275000Y45157500D02*
X78125000Y45157500D01*
G75*
G02*
X77875000Y45407500I0J250000D01*
G01*
X77875000Y46332500D01*
G75*
G02*
X78125000Y46582500I250000J0D01*
G01*
X80275000Y46582500D01*
G75*
G02*
X80525000Y46332500I0J-250000D01*
G01*
X80525000Y45407500D01*
G75*
G02*
X80275000Y45157500I-250000J0D01*
G01*
G37*
%TD*%
D23*
%TO.C,RV1*%
X22000000Y86000000D03*
X23300000Y93500000D03*
%TD*%
D11*
%TO.C,C8*%
X63500000Y58420000D03*
D12*
X53500000Y58420000D03*
%TD*%
D13*
%TO.C,C10*%
X53000000Y35500000D03*
D14*
X45500000Y35500000D03*
%TD*%
D24*
%TO.C,TP1*%
X64135000Y76835000D03*
%TD*%
%TO.C,TP3*%
X48895000Y76200000D03*
%TD*%
%TO.C,TP4*%
X76835000Y56515000D03*
%TD*%
%TO.C,TP5*%
X79375000Y34925000D03*
%TD*%
%TO.C,TP7*%
X95885000Y50165000D03*
%TD*%
%TO.C,TP8*%
X74295000Y44450000D03*
%TD*%
%TO.C,TP9*%
X83820000Y34925000D03*
%TD*%
D25*
%TO.C,U1*%
X23555000Y36830000D03*
X23555000Y39370000D03*
X23555000Y41910000D03*
D26*
X14405000Y39370000D03*
%TD*%
%TO.C,T1*%
G36*
G01*
X32700000Y80000000D02*
X29300000Y80000000D01*
G75*
G02*
X29000000Y80300000I0J300000D01*
G01*
X29000000Y82700000D01*
G75*
G02*
X29300000Y83000000I300000J0D01*
G01*
X32700000Y83000000D01*
G75*
G02*
X33000000Y82700000I0J-300000D01*
G01*
X33000000Y80300000D01*
G75*
G02*
X32700000Y80000000I-300000J0D01*
G01*
G37*
G36*
G01*
X32700000Y93500000D02*
X29300000Y93500000D01*
G75*
G02*
X29000000Y93800000I0J300000D01*
G01*
X29000000Y96200000D01*
G75*
G02*
X29300000Y96500000I300000J0D01*
G01*
X32700000Y96500000D01*
G75*
G02*
X33000000Y96200000I0J-300000D01*
G01*
X33000000Y93800000D01*
G75*
G02*
X32700000Y93500000I-300000J0D01*
G01*
G37*
G36*
G01*
X51100000Y93300000D02*
X51100000Y96700000D01*
G75*
G02*
X51400000Y97000000I300000J0D01*
G01*
X53800000Y97000000D01*
G75*
G02*
X54100000Y96700000I0J-300000D01*
G01*
X54100000Y93300000D01*
G75*
G02*
X53800000Y93000000I-300000J0D01*
G01*
X51400000Y93000000D01*
G75*
G02*
X51100000Y93300000I0J300000D01*
G01*
G37*
G36*
G01*
X67000000Y93300000D02*
X67000000Y96700000D01*
G75*
G02*
X67300000Y97000000I300000J0D01*
G01*
X69700000Y97000000D01*
G75*
G02*
X70000000Y96700000I0J-300000D01*
G01*
X70000000Y93300000D01*
G75*
G02*
X69700000Y93000000I-300000J0D01*
G01*
X67300000Y93000000D01*
G75*
G02*
X67000000Y93300000I0J300000D01*
G01*
G37*
G36*
G01*
X58900000Y93300000D02*
X58900000Y96700000D01*
G75*
G02*
X59200000Y97000000I300000J0D01*
G01*
X61600000Y97000000D01*
G75*
G02*
X61900000Y96700000I0J-300000D01*
G01*
X61900000Y93300000D01*
G75*
G02*
X61600000Y93000000I-300000J0D01*
G01*
X59200000Y93000000D01*
G75*
G02*
X58900000Y93300000I0J300000D01*
G01*
G37*
%TD*%
D24*
%TO.C,TP2*%
X28200000Y33700000D03*
%TD*%
%TO.C,TP6*%
X33700000Y33600000D03*
%TD*%
%TO.C,TP10*%
X95600000Y32800000D03*
%TD*%
M02*
